<svg width="16" height="21" viewBox="0 0 16 21" fill="none" xmlns="http://www.w3.org/2000/svg">
<path d="M7.98977 4V1.21C7.98977 0.76 7.44977 0.54 7.13977 0.86L3.34977 4.65C3.14977 4.85 3.14977 5.16 3.34977 5.36L7.13977 9.15C7.44977 9.46 7.98977 9.24 7.98977 8.8V6C11.7198 6 14.6698 9.42 13.8498 13.29C13.3798 15.56 11.5398 17.39 9.27977 17.86C5.70977 18.61 2.52977 16.16 2.04977 12.85C1.98977 12.37 1.56977 12 1.06977 12C0.469774 12 -0.0102259 12.53 0.0697741 13.13C0.689774 17.52 4.86977 20.77 9.59977 19.85C12.7198 19.24 15.2298 16.73 15.8398 13.61C16.8298 8.48 12.9398 4 7.98977 4ZM6.88977 15H6.03977V11.74L5.02977 12.05V11.36L6.79977 10.73H6.88977V15ZM11.1698 13.24C11.1698 13.56 11.1398 13.84 11.0698 14.06C10.9998 14.28 10.8998 14.48 10.7798 14.63C10.6598 14.78 10.4998 14.89 10.3298 14.96C10.1598 15.03 9.95977 15.06 9.73977 15.06C9.51977 15.06 9.32977 15.03 9.14977 14.96C8.96977 14.89 8.81977 14.78 8.68977 14.63C8.55977 14.48 8.45977 14.29 8.38977 14.06C8.31977 13.83 8.27977 13.56 8.27977 13.24V12.5C8.27977 12.18 8.30977 11.9 8.37977 11.68C8.44977 11.46 8.54977 11.26 8.66977 11.11C8.78977 10.96 8.94977 10.85 9.11977 10.78C9.28977 10.71 9.48977 10.68 9.70977 10.68C9.92977 10.68 10.1198 10.71 10.2998 10.78C10.4798 10.85 10.6298 10.96 10.7598 11.11C10.8898 11.26 10.9898 11.45 11.0598 11.68C11.1298 11.91 11.1698 12.18 11.1698 12.5V13.24ZM10.3198 12.38C10.3198 12.19 10.3098 12.03 10.2798 11.9C10.2498 11.77 10.2098 11.67 10.1598 11.59C10.1098 11.51 10.0498 11.45 9.96977 11.42C9.88977 11.39 9.80977 11.37 9.71977 11.37C9.62977 11.37 9.53977 11.39 9.46977 11.42C9.39977 11.45 9.32977 11.51 9.27977 11.59C9.22977 11.67 9.18977 11.77 9.15977 11.9C9.12977 12.03 9.11977 12.19 9.11977 12.38V13.35C9.11977 13.54 9.12977 13.7 9.15977 13.83C9.18977 13.96 9.22977 14.07 9.27977 14.15C9.32977 14.23 9.38977 14.29 9.46977 14.32C9.54977 14.35 9.62977 14.37 9.71977 14.37C9.80977 14.37 9.89977 14.35 9.96977 14.32C10.0398 14.29 10.1098 14.23 10.1598 14.15C10.2098 14.07 10.2498 13.96 10.2698 13.83C10.2898 13.7 10.3098 13.54 10.3098 13.35V12.38H10.3198Z" fill="#1351D8"/>
</svg>
