<svg width="16" height="20" viewBox="0 0 16 20" fill="none" xmlns="http://www.w3.org/2000/svg">
<path d="M14.9199 12C14.4199 12 14.0099 12.37 13.9399 12.86C13.4599 16.23 10.1699 18.7 6.51987 17.82C4.26987 17.28 2.60987 15.55 2.12987 13.29C1.31987 9.42 4.26987 6 7.99987 6V8.79C7.99987 9.24 8.53987 9.46 8.84987 9.14L12.6399 5.35C12.8399 5.15 12.8399 4.84 12.6399 4.64L8.84987 0.850002C8.53987 0.540002 7.99987 0.760002 7.99987 1.21V4C3.05987 4 -0.840127 8.48 0.159873 13.6C0.759873 16.71 3.05987 19.1 6.14987 19.79C10.9799 20.87 15.2999 17.59 15.9199 13.12C16.0099 12.53 15.5199 12 14.9199 12ZM6.89987 15V10.73H6.80987L5.03987 11.36V12.05L6.04987 11.74V15H6.89987ZM10.3199 10.78C10.1399 10.71 9.94987 10.68 9.72987 10.68C9.50987 10.68 9.31987 10.71 9.13987 10.78C8.95987 10.85 8.80987 10.96 8.68987 11.11C8.56987 11.26 8.45987 11.45 8.39987 11.68C8.33987 11.91 8.29987 12.18 8.29987 12.5V13.24C8.29987 13.56 8.33987 13.84 8.40987 14.06C8.47987 14.28 8.57987 14.48 8.70987 14.63C8.83987 14.78 8.98987 14.89 9.16987 14.96C9.34987 15.03 9.53987 15.06 9.75987 15.06C9.97987 15.06 10.1699 15.03 10.3499 14.96C10.5299 14.89 10.6799 14.78 10.7999 14.63C10.9199 14.48 11.0199 14.29 11.0899 14.06C11.1599 13.83 11.1899 13.56 11.1899 13.24V12.5C11.1899 12.18 11.1499 11.9 11.0799 11.68C11.0099 11.46 10.9099 11.26 10.7799 11.11C10.6499 10.96 10.4899 10.85 10.3199 10.78ZM10.3299 13.35C10.3299 13.54 10.3199 13.7 10.2899 13.83C10.2599 13.96 10.2299 14.07 10.1799 14.15C10.1299 14.23 10.0699 14.29 9.98987 14.32C9.90987 14.35 9.82987 14.37 9.73987 14.37C9.64987 14.37 9.55987 14.35 9.48987 14.32C9.41987 14.29 9.34987 14.23 9.29987 14.15C9.24987 14.07 9.20987 13.96 9.17987 13.83C9.14987 13.7 9.13987 13.54 9.13987 13.35V12.38C9.13987 12.19 9.14987 12.03 9.17987 11.9C9.20987 11.77 9.23987 11.67 9.29987 11.59C9.35987 11.51 9.40987 11.45 9.48987 11.42C9.56987 11.39 9.64987 11.37 9.73987 11.37C9.82987 11.37 9.91987 11.39 9.98987 11.42C10.0599 11.45 10.1299 11.51 10.1799 11.59C10.2299 11.67 10.2699 11.77 10.2999 11.9C10.3299 12.03 10.3399 12.19 10.3399 12.38V13.35H10.3299Z" fill="#1351D8"/>
</svg>
