<svg width="24" height="24" viewBox="0 0 24 24" fill="none" xmlns="http://www.w3.org/2000/svg">
<path d="M4 21H12C12.55 21 13 20.55 13 20C13 19.45 12.55 19 12 19H4C3.45 19 3 19.45 3 20C3 20.55 3.45 21 4 21ZM4 17H12C12.55 17 13 16.55 13 16C13 15.45 12.55 15 12 15H4C3.45 15 3 15.45 3 16C3 16.55 3.45 17 4 17ZM3 4C3 4.55 3.45 5 4 5H12C12.55 5 13 4.55 13 4C13 3.45 12.55 3 12 3H4C3.45 3 3 3.45 3 4ZM4 9H12C12.55 9 13 8.55 13 8C13 7.45 12.55 7 12 7H4C3.45 7 3 7.45 3 8C3 8.55 3.45 9 4 9ZM4 13H12C12.55 13 13 12.55 13 12C13 11.45 12.55 11 12 11H4C3.45 11 3 11.45 3 12C3 12.55 3.45 13 4 13Z" fill="#1351D8"/>
<path d="M20.14 15.14L17.35 12.35C17.16 12.16 17.16 11.84 17.36 11.65L20.15 8.86C20.46 8.54 21 8.76 21 9.21V14.79C21 15.24 20.46 15.46 20.14 15.14Z" fill="#1351D8"/>
</svg>
