<svg width="437" height="291" viewBox="0 0 437 291" fill="none" xmlns="http://www.w3.org/2000/svg">
<g clip-path="url(#clip0_3125_17207)">
<path d="M437 0H-103V300H437V0Z" fill="#F0F7FF"/>
<g opacity="0.6">
<g opacity="0.6">
<g opacity="0.6">
<path opacity="0.6" d="M-6.43642 104.103C2.85064 94.8161 2.85063 79.7588 -6.43643 70.4718C-15.7235 61.1847 -30.7808 61.1847 -40.0678 70.4718C-49.3549 79.7588 -49.3549 94.8161 -40.0678 104.103C-30.7808 113.39 -15.7235 113.39 -6.43642 104.103Z" fill="#E2EEF7"/>
<path opacity="0.6" d="M-23.2524 61.83C-37.2894 61.83 -48.7104 73.2495 -48.7104 87.288C-48.7104 101.326 -37.2909 112.746 -23.2524 112.746C-9.21394 112.746 2.20555 101.326 2.20555 87.288C2.20555 73.2495 -9.21394 61.83 -23.2524 61.83ZM-23.2524 109.392C-35.4399 109.392 -45.3564 99.4755 -45.3564 87.288C-45.3564 75.1005 -35.4414 65.184 -23.2524 65.184C-11.0634 65.184 -1.14845 75.099 -1.14845 87.288C-1.14845 99.477 -11.0649 109.392 -23.2524 109.392Z" fill="#006394"/>
</g>
</g>
<g opacity="0.6">
<path opacity="0.6" d="M1.89785 85.377H-5.02466V89.1975H1.89785V85.377Z" fill="#006394"/>
</g>
</g>
<path d="M139.12 228.69H84.6995C82.6205 228.69 80.936 230.374 80.936 232.453H142.883C142.883 230.374 141.199 228.69 139.12 228.69Z" fill="#A5B9C6"/>
<path d="M191.041 190.214H167.338V229.446H191.041V190.214Z" fill="#BBC6CD"/>
<path d="M254.072 105.338H104.306C103.231 105.338 102.359 106.209 102.359 107.285V201.471C102.359 202.546 103.231 203.418 104.306 203.418H254.072C255.147 203.418 256.019 202.546 256.019 201.471V107.285C256.019 106.209 255.147 105.338 254.072 105.338Z" fill="#CED6E0"/>
<path d="M250.706 113.123H107.672V173.234H250.706V113.123Z" fill="#0C8CD6"/>
<path d="M250.706 171.444H107.672V186.253H250.706V171.444Z" fill="#104363"/>
<path d="M250.706 109.424H107.672V114.513H250.706V109.424Z" fill="#0E426E"/>
<path d="M199.255 227.811H159.122C157.565 227.811 156.302 229.074 156.302 230.631V232.502H202.073V230.631C202.073 229.074 200.812 227.811 199.253 227.811H199.255Z" fill="#A5B9C6"/>
<path d="M171.182 181.46C172.617 181.121 173.506 179.683 173.167 178.248C172.828 176.813 171.39 175.924 169.955 176.262C168.52 176.601 167.631 178.039 167.97 179.474C168.308 180.909 169.746 181.798 171.182 181.46Z" fill="#5EB9DB"/>
<path d="M179.797 181.46C181.232 181.122 182.121 179.684 181.782 178.248C181.443 176.813 180.005 175.924 178.57 176.263C177.135 176.602 176.246 178.04 176.585 179.475C176.923 180.91 178.362 181.799 179.797 181.46Z" fill="#5EB9DB"/>
<path d="M188.413 181.461C189.848 181.122 190.737 179.684 190.399 178.249C190.06 176.814 188.622 175.925 187.187 176.264C185.751 176.603 184.863 178.041 185.201 179.476C185.54 180.911 186.978 181.8 188.413 181.461Z" fill="#EA5A2A"/>
<path d="M353.296 299.991L347.485 232.36H328.636L338.353 299.991H353.296Z" fill="#BBC6CD"/>
<path d="M347.912 299.991L342.101 232.36H323.251L332.969 299.991H347.912Z" fill="#A5B9C6"/>
<path d="M351.4 232.36H-18.8994V279.342H351.4V232.36Z" fill="#BBC6CD"/>
<path d="M38.3197 299.991L48.0382 232.36L25.4572 234.273C24.7267 234.273 24.0232 234.471 23.3692 234.273L17.6062 299.991H38.3197Z" fill="#595858"/>
<path d="M301.831 299.991L296.02 232.36H277.169L286.888 299.991H301.831Z" fill="#BBC6CD"/>
<path d="M296.446 299.991L290.636 232.36H271.786L281.504 299.991H296.446Z" fill="#CED6E0"/>
<path d="M294.818 232.36H-34.582V279.342H294.818V232.36Z" fill="#CED6E0"/>
<path opacity="0.1" d="M351.033 232.36H-34.582V248.295H351.033V232.36Z" fill="black"/>
<path d="M364.709 232.36H-45.4314V244.435H364.709V232.36Z" fill="#BBC6CD"/>
<path d="M309.214 232.36H-48.7104V244.435H309.214V232.36Z" fill="#CED6E0"/>
<path d="M172.202 225.594C169.911 224.496 160.533 226.536 157.385 228.262C155.951 229.048 155.525 230.112 155.489 231.036C155.459 231.771 156 232.383 156.672 232.383H175.995C176.963 232.383 177.519 231.183 176.954 230.323C175.727 228.46 173.624 226.275 172.205 225.594H172.202Z" fill="#EBF0F5"/>
<path d="M171.626 220.705C170.612 219.996 164.651 218.242 160.589 218.035C157.169 217.86 152.756 220.884 152.756 220.884C150.441 223.732 149.802 226.569 152.913 229.617C154.362 231.036 159.588 231.09 163.257 230.14C167.469 229.05 170.124 226.801 170.957 226.569C172.512 226.134 177.065 231.468 178.833 229.182C179.264 228.624 173.49 222.012 171.624 220.705H171.626Z" fill="#F3C8B0"/>
<path d="M50.3568 143.095C29.1933 143.095 9.19685 143.104 6.43685 167.304C4.44485 184.767 3.11885 227.01 3.89285 242.184C4.50185 254.121 19.7613 284.904 19.7613 284.904L74.6148 283.764C74.6148 283.764 78.5688 233.829 82.0908 217.503C86.0073 199.347 93.9498 171.258 93.9498 171.258C89.3223 156.304 83.8233 143.097 50.3583 143.097L50.3568 143.095Z" fill="#6C99D9"/>
<path d="M153.957 219.786L153.915 219.775C153.915 219.775 153.813 219.75 153.615 219.702C153.416 219.652 153.12 219.582 152.733 219.495C151.959 219.316 150.822 219.052 149.373 218.739C147.924 218.428 146.166 218.053 144.149 217.648C143.141 217.441 142.067 217.23 140.936 217.011C139.805 216.784 138.615 216.564 137.376 216.325C136.137 216.084 134.846 215.856 133.512 215.602C132.18 215.359 130.803 215.107 129.387 214.849C127.977 214.596 126.53 214.335 125.051 214.068C123.576 213.805 122.075 213.538 120.566 213.255C119.058 212.98 117.533 212.7 116.058 212.394C115.595 212.298 115.137 212.205 114.695 212.109C114.476 211.858 114.221 211.549 113.964 211.23C113.273 210.352 112.518 209.287 111.761 208.126C111.005 206.965 110.25 205.717 109.515 204.427C108.773 203.14 108.044 201.811 107.337 200.463C106.634 199.113 105.933 197.752 105.258 196.389C104.583 195.024 103.929 193.657 103.284 192.306C102.008 189.595 100.793 186.936 99.6665 184.39C99.098 183.12 98.552 181.878 98.03 180.672C97.5035 179.467 96.998 178.3 96.518 177.175C95.552 174.93 94.6805 172.861 93.9065 171.027C93.1385 169.194 92.468 167.595 91.9175 166.279C90.839 163.698 90.221 162.223 90.221 162.223L90.149 162.052C87.647 156.094 80.876 153.102 74.747 155.35C68.4395 157.665 65.2025 164.653 67.517 170.961C67.517 170.961 67.6745 171.388 67.9685 172.191C68.264 172.965 68.687 174.09 69.2465 175.504C70.37 178.333 72.029 182.331 74.195 187.071C74.7395 188.254 75.3095 189.487 75.914 190.759C76.5215 192.03 77.159 193.341 77.8235 194.688C79.1675 197.376 80.6255 200.203 82.229 203.109C83.0255 204.565 83.867 206.038 84.7415 207.528C85.6175 209.017 86.5235 210.528 87.4895 212.04C88.4525 213.555 89.4575 215.082 90.527 216.616C91.604 218.148 92.741 219.687 93.98 221.238C95.2145 222.79 96.578 224.35 98.1635 225.934C98.975 226.732 99.8135 227.526 100.82 228.345C100.944 228.447 101.058 228.544 101.193 228.649L101.592 228.958C101.862 229.164 102.116 229.362 102.422 229.573L102.866 229.882L103.088 230.035L103.644 230.406L103.679 230.424C103.679 230.424 103.659 230.412 103.913 230.563C104.097 230.671 104.286 230.775 104.477 230.874C104.633 230.956 104.937 231.1 104.978 231.117C105.14 231.189 105.303 231.258 105.467 231.324L105.665 231.4L105.845 231.466L106.025 231.531L106.167 231.579L106.446 231.667L106.679 231.735L106.901 231.796L107.09 231.844C107.585 231.967 107.946 232.036 108.285 232.096C108.621 232.156 108.909 232.198 109.194 232.239C109.751 232.317 110.253 232.372 110.738 232.422C111.701 232.518 112.595 232.59 113.471 232.645C115.22 232.75 116.885 232.821 118.515 232.873C120.146 232.917 121.734 232.948 123.284 232.968C124.835 232.977 126.345 232.986 127.815 232.98C130.754 232.962 133.524 232.912 136.079 232.834C137.357 232.792 138.581 232.756 139.745 232.704C140.909 232.657 142.013 232.606 143.051 232.549C145.125 232.444 146.934 232.323 148.425 232.218C149.916 232.11 151.088 232.003 151.889 231.93C152.289 231.895 152.597 231.864 152.804 231.843C153.014 231.822 153.122 231.811 153.122 231.811C155.624 231.553 157.818 229.756 158.447 227.173C159.245 223.891 157.232 220.584 153.95 219.784L153.957 219.786Z" fill="#6C99D9"/>
<path d="M144.987 222.649C137.946 222.544 130.859 221.754 123.938 220.458C121.091 219.925 118.259 219.24 115.569 218.149C114.324 217.644 112.934 217.12 111.723 216.46C110.558 215.826 109.511 214.909 108.486 214.092C107.459 213.271 106.56 212.328 105.746 211.297C103.493 208.444 101.642 205.545 100.067 202.275C98.8699 199.792 97.7734 197.263 96.5839 194.776C93.8659 189.094 91.7674 183.099 89.3659 177.273C86.8864 171.517 82.2304 150.64 63.8149 147.216C59.6959 145.618 55.3954 144.562 51.1039 143.532C50.6554 143.424 50.2234 143.277 49.8079 143.095C28.8484 143.097 9.17139 143.313 6.43539 167.304C4.44339 184.767 3.11738 227.01 3.89138 242.184C4.50038 254.121 19.7599 284.904 19.7599 284.904L74.6134 283.764C74.6134 283.764 75.8659 267.957 77.5879 251.221C78.1294 238.935 78.4654 226.639 79.0429 214.351C79.2919 209.028 79.5319 203.703 79.7044 198.376C80.5069 199.924 81.3469 201.505 82.2349 203.112C83.0314 204.568 83.8729 206.041 84.7474 207.531C85.6234 209.02 86.5294 210.531 87.4954 212.043C88.4584 213.558 89.4634 215.085 90.5329 216.619C91.6099 218.151 92.7469 219.69 93.9859 221.241C95.2204 222.793 96.5839 224.353 98.1694 225.937C98.9809 226.735 99.8194 227.529 100.826 228.348C100.95 228.45 101.064 228.547 101.199 228.652L101.598 228.961C101.868 229.167 102.122 229.365 102.428 229.576L102.872 229.885L103.094 230.038L103.65 230.409L103.685 230.427C103.685 230.427 103.665 230.415 103.919 230.566C104.103 230.674 104.292 230.778 104.483 230.877C104.639 230.959 104.943 231.103 104.984 231.12C105.146 231.192 105.309 231.261 105.473 231.327L105.671 231.403L105.851 231.469L106.031 231.534L106.173 231.582L106.452 231.67L106.685 231.738L106.907 231.799L107.096 231.847C107.591 231.97 107.952 232.039 108.291 232.099C108.627 232.159 108.915 232.201 109.2 232.242C109.757 232.32 110.259 232.375 110.744 232.425C111.707 232.521 112.601 232.593 113.477 232.648C115.226 232.753 116.891 232.824 118.521 232.876C120.152 232.92 121.74 232.951 123.29 232.971C124.841 232.98 126.351 232.989 127.821 232.983C130.76 232.965 133.53 232.915 136.085 232.837C137.363 232.795 138.587 232.759 139.751 232.707C140.915 232.66 142.019 232.609 143.057 232.552C145.131 232.447 146.94 232.326 148.431 232.221C149.922 232.113 151.094 232.006 151.895 231.933C152.295 231.898 152.603 231.867 152.81 231.846C153.02 231.825 153.128 231.814 153.128 231.814C155.63 231.556 157.824 229.759 158.453 227.176C158.874 225.445 158.513 223.707 157.595 222.333C153.398 222.594 149.192 222.712 144.986 222.651L144.987 222.649Z" fill="#305C9A"/>
<path d="M2.69899 299.991H122.727C117.296 289.803 106.299 287.28 106.299 287.28C106.299 287.28 52.184 274.107 2.69899 283.721C-1.27151 284.492 2.69899 299.991 2.69899 299.991C2.69899 300.023 2.69899 299.96 2.69899 299.991Z" fill="#006394"/>
<path d="M2.69902 299.991H74.8761C73.9566 299.368 73.1031 298.644 72.3501 297.774C70.6671 295.828 69.845 294.36 68.9315 291.978C68.3675 290.506 68.2371 288.865 68.1111 287.314C67.9431 285.267 68.8236 283.239 70.0431 281.59C50.7455 279.729 26.1995 279.154 2.69753 283.72C-1.27297 284.491 2.69753 299.991 2.69753 299.991C2.69753 300.022 2.69753 299.959 2.69753 299.991H2.69902Z" fill="#005A87"/>
<path d="M39.2029 138.657H62.8699L64.9204 121.593L42.7264 119.617L39.2029 138.657Z" fill="#F3C8B0"/>
<path d="M54.1534 85.5975C41.8984 86.5725 32.7649 97.44 33.7534 109.87C34.7419 122.301 45.4774 131.587 57.7324 130.614H57.7594C59.2324 130.492 60.5284 131.572 60.6454 133.045L60.8329 135.4C60.9409 136.755 62.0539 137.814 63.4129 137.845C66.2299 137.908 70.7104 137.692 72.1849 135.826C77.6149 128.961 80.0839 109.945 80.1784 108.22C81.3649 86.6355 66.4054 84.6225 54.1519 85.5975H54.1534Z" fill="#F3C8B0"/>
<path d="M66.5524 136.567C64.6444 136.485 63.368 136.122 61.5125 135.604C61.7345 136.83 62.807 137.902 63.4145 137.844C66.1745 137.581 70.5665 137.697 72.1115 135.912C70.7915 136.261 69.3934 136.396 68.0509 136.531C67.5529 136.581 67.0519 136.588 66.5524 136.567Z" fill="#C4835E"/>
<path d="M70.7493 111.162C70.5753 110.979 70.3953 110.8 70.2108 110.628C69.7488 110.335 69.2733 110.068 68.7843 109.822C68.1993 109.609 67.6023 109.414 66.9993 109.242C66.6768 109.569 66.3558 109.899 66.0243 110.217C65.0418 111.162 64.0308 112.075 63.0333 113.002C62.9043 113.122 62.7798 113.244 62.6553 113.367C63.7503 114.318 63.6918 116.302 66.3573 117.852C66.3648 117.856 66.3738 117.858 66.3828 117.861C70.0383 119.511 69.2808 115.483 69.9678 114.657C70.4118 114.028 70.8228 113.379 71.1873 112.704C71.2188 112.597 71.2503 112.489 71.2788 112.383V112.36C71.2278 112.17 71.1723 111.982 71.1138 111.795C70.9983 111.58 70.8753 111.37 70.7478 111.163L70.7493 111.162Z" fill="#C4835E"/>
<path d="M56.4259 92.7121C55.9684 91.0096 55.9684 89.3071 56.4259 87.6046C56.7319 86.8786 57.0394 86.151 57.3454 85.425C56.2699 85.455 55.2019 85.515 54.1534 85.599C41.8984 86.574 32.7649 97.4415 33.7534 109.872C34.1509 114.876 36.1309 119.37 39.1504 122.892C41.5114 123.023 43.8784 123.009 46.2319 122.783C47.7349 122.519 49.2154 122.148 50.6539 121.638C51.3694 121.283 52.0624 120.885 52.7284 120.444C53.1934 120.027 53.6359 119.585 54.0544 119.12C54.4834 118.464 54.8629 117.785 55.2079 117.081C56.0449 114.8 56.6104 112.43 56.9989 110.031C57.5299 105.176 57.4504 100.254 56.8954 95.4031C56.7559 94.5031 56.6014 93.6061 56.4244 92.7121H56.4259Z" fill="#E89F77"/>
<path d="M47.0014 81.558C35.6899 83.187 32.1124 95.496 33.0334 107.068C33.8764 117.67 39.6229 130.735 39.6229 130.735C43.4359 133.666 54.1309 131.758 55.6294 129.976C57.1279 128.193 65.9554 115.006 69.6304 110.188C70.6879 108.802 72.4564 106.464 74.0284 105.732C86.5999 99.879 82.9549 86.7135 82.9549 86.7135C82.9549 86.7135 58.3219 79.9275 46.9999 81.558H47.0014Z" fill="#2D4678"/>
<path d="M68.105 106.323C64.019 108.077 65.159 117.985 68.6585 117.708C71.765 117.46 72.3845 110.373 72.485 108.788C72.5015 108.527 72.482 108.266 72.4205 108.011C72.1835 107.033 71.294 104.957 68.1065 106.325L68.105 106.323Z" fill="#F3C8B0"/>
<path d="M38.06 135.501L32.78 143.628C45.953 142.56 65.711 144.34 65.711 144.34L62.8625 138.288C51.986 132.262 38.0585 135.501 38.0585 135.501H38.06Z" fill="#6C99D9"/>
<path d="M38.06 135.501L32.78 143.628C42.704 142.824 56.363 143.635 62.498 144.084C61.2425 141.624 60.0455 139.115 58.994 136.551C48.953 132.969 38.06 135.499 38.06 135.499V135.501Z" fill="#305C9A"/>
<path d="M48.431 186.138C55.0655 223.729 57.275 262.176 52.7255 299.991H63.8705C68.42 262.176 66.209 223.729 59.576 186.138C58.406 179.484 52.1375 174.123 45.8345 174.121H34.6895C40.991 174.121 47.2595 179.482 48.431 186.138Z" fill="#0E426E"/>
<path d="M-26.9111 299.991H63.8704C68.4199 262.176 66.2104 223.729 59.5759 186.138C58.4059 179.484 52.1374 174.123 45.8344 174.121H-18.3086C-24.6176 174.121 -28.5731 179.482 -27.4016 186.138C-20.2076 226.902 -20.4641 260.094 -26.9111 299.991Z" fill="#3B6BAD"/>
<path d="M52.1584 176.029C53.0674 176.55 53.9299 177.124 54.7504 177.744C53.0629 176.247 51.0739 175.132 48.9814 174.559C50.0599 175 51.1474 175.452 52.1584 176.029Z" fill="#0C375C"/>
<path d="M-26.9111 299.991H43.328C43.484 298.99 43.6475 298.044 43.8005 297.172C45.5465 281.347 52.664 213.934 37.229 188.302C35.822 186.12 35.7005 183.358 36.26 180.9C36.782 178.609 38.6825 176.325 40.6745 175.158C41.501 174.631 42.377 174.286 43.301 174.123H-18.3101C-24.6191 174.123 -28.5746 179.484 -27.4031 186.139C-20.2091 226.903 -20.4656 260.095 -26.9126 299.992L-26.9111 299.991Z" fill="#233156"/>
<path opacity="0.3" d="M283.266 170.577C277.082 170.98 274.142 177.64 274.59 181.357C275.199 186.409 279.807 188.47 281.912 190.419C283.16 191.574 285.753 199.989 281.9 203.733C281.9 203.733 291.476 197.788 288.057 189.793C286.301 185.686 284.771 180.706 288.891 181.878C293.759 183.261 295.127 169.803 283.266 170.577Z" fill="#5EB9DB"/>
<path opacity="0.6" d="M279.1 179.901C269.611 179.282 270.706 190.049 274.6 188.943C277.895 188.007 276.671 191.991 275.266 195.276C272.53 201.672 280.192 206.429 280.192 206.429C277.108 203.432 279.184 196.7 280.183 195.776C281.867 194.216 285.554 192.567 286.04 188.526C286.398 185.552 284.046 180.225 279.098 179.901H279.1Z" fill="#5EB9DB"/>
<path d="M290.957 209.562C290.912 209.562 290.867 209.565 290.822 209.565L291.296 204.247C291.39 203.187 290.553 202.273 289.485 202.273H272.195C271.127 202.273 270.29 203.187 270.384 204.247L272.889 232.378H288.791L289.506 224.337C289.976 224.43 290.46 224.479 290.957 224.479C295.07 224.479 298.416 221.133 298.416 217.02C298.416 212.907 295.07 209.56 290.957 209.56V209.562ZM290.957 221.223C290.555 221.223 290.166 221.164 289.799 221.059L290.531 212.842C290.672 212.829 290.813 212.821 290.957 212.821C293.273 212.821 295.158 214.705 295.158 217.023C295.158 219.34 293.274 221.224 290.957 221.224V221.223Z" fill="#BBC6CD"/>
<path d="M290.957 209.562C290.912 209.562 290.867 209.565 290.822 209.565L291.296 204.247C291.39 203.187 290.553 202.273 289.485 202.273H288.246C288.012 204.288 287.748 206.301 287.433 208.303C286.91 211.629 286.199 214.972 284.933 218.103C284.096 220.173 283.262 222.307 281.937 224.127C280.236 226.462 278.514 228.403 275.988 229.897C274.971 230.499 273.879 230.856 272.768 230.989L272.891 232.378H288.792L289.508 224.337C289.977 224.43 290.462 224.479 290.958 224.479C295.071 224.479 298.418 221.133 298.418 217.02C298.418 212.907 295.071 209.56 290.958 209.56L290.957 209.562ZM290.957 221.223C290.555 221.223 290.166 221.164 289.799 221.059L290.531 212.842C290.672 212.829 290.813 212.821 290.957 212.821C293.273 212.821 295.158 214.705 295.158 217.023C295.158 219.34 293.274 221.224 290.957 221.224V221.223Z" fill="#A8B2B9"/>
<path d="M238.06 228.58H203.894V232.377H238.06V228.58Z" fill="#EBF0F5"/>
<path d="M263.234 229.855L229.96 225.036L225.404 225.654L229.597 227.539L262.871 232.359C263.018 232.38 263.155 232.278 263.176 232.131L263.461 230.16C263.482 230.013 263.38 229.876 263.233 229.855H263.234Z" fill="#3E95C4"/>
<path d="M227.777 226.72L227.983 225.303L225.406 225.654L227.777 226.72Z" fill="#AFAFAF"/>
<path d="M227.144 226.435L229.598 227.539L229.961 225.034L227.296 225.397L227.144 226.435Z" fill="#D68B61"/>
<path d="M346.862 186.381C349.332 186.381 351.334 184.379 351.334 181.909C351.334 179.44 349.332 177.438 346.862 177.438C344.392 177.438 342.391 179.44 342.391 181.909C342.391 184.379 344.392 186.381 346.862 186.381Z" fill="#C5DCE3"/>
<path d="M314.155 148.841L345.353 182.466L328.327 229.023L332.84 230.675L350.876 181.353L317.678 145.572L314.155 148.841Z" fill="#C5DCE3"/>
<path d="M320.378 142.797C318.638 141.08 315.835 141.099 314.117 142.839L311.009 145.989C305.326 143.441 297.847 145.005 292.57 150.354C292.496 150.429 292.427 150.506 292.357 150.581L312.976 170.921C313.049 170.847 313.126 170.778 313.199 170.705C318.476 165.356 319.939 157.857 317.312 152.208L320.42 149.058C322.138 147.318 322.118 144.515 320.378 142.797Z" fill="#D2E9F1"/>
<path d="M320.533 142.959C320.083 144.249 319.331 145.467 318.448 146.349C317.704 147.093 316.543 148.117 315.548 148.549C315.638 149.586 315.248 155.749 311.338 159.352C309.493 161.052 307.486 162.565 305.081 163.135L312.974 170.922C313.048 170.848 313.124 170.779 313.198 170.706C318.475 165.357 319.937 157.858 317.311 152.209L320.419 149.059C322.084 147.372 322.117 144.687 320.531 142.96L320.533 142.959Z" fill="#C5DCE3"/>
<path d="M340.958 227.346H321.64V232.353H340.958V227.346Z" fill="#C5DCE3"/>
<path d="M335.581 227.346C335.773 229.013 335.944 230.682 336.088 232.353H340.958V227.346H335.581Z" fill="#BBC6CD"/>
<path d="M152.493 122.007H111.485V163.015H152.493V122.007Z" fill="#C7E4ED"/>
<path d="M199.692 122.007H158.684V163.015H199.692V122.007Z" fill="#C7E4ED"/>
<path d="M246.891 122.007H205.883V163.015H246.891V122.007Z" fill="#C7E4ED"/>
<path d="M136.088 144.193C136.098 144.18 127.832 144.712 127.832 144.712C127.766 145.398 127.725 146.517 127.707 146.704C127.656 147.217 127.547 147.669 127.406 148.068L127.473 147.972C127.473 147.972 129.497 151.137 131.991 151.377C134.445 151.14 136.533 148.077 136.599 147.981C136.473 147.601 136.374 147.181 136.328 146.704C136.31 146.53 136.148 144.817 136.088 144.193Z" fill="#F4B89F"/>
<path d="M138.521 137.254C138.354 138.535 137.586 138.843 137.603 138.037C137.621 137.149 137.609 136.195 137.556 135.027C137.442 132.496 136.895 131.859 135.963 131.992C135.198 132.1 128.73 132.1 127.965 131.992C127.034 131.859 126.486 132.496 126.372 135.027C126.32 136.195 126.308 137.149 126.326 138.037C126.342 138.843 125.967 138.121 125.408 137.254C125.051 137.1 124.695 137.185 124.794 138.246C125.016 140.637 125.724 141.792 126.564 141.765C126.635 142.786 126.555 143.136 127.667 144.765C128.979 146.434 129.864 147.766 131.964 147.766C134.064 147.766 134.949 146.434 136.262 144.765C137.373 143.134 137.292 142.786 137.364 141.765C138.206 141.792 138.914 140.637 139.134 138.246C139.233 137.185 138.878 137.1 138.521 137.254Z" fill="#FBD8C8"/>
<path d="M131.916 127.396C127.472 127.143 126.836 129.936 126.836 129.936C126.836 129.936 124.422 130.951 125.057 134.38C125.187 135.085 125.061 136.227 125.408 137.254C125.864 138.607 126.309 138.631 126.312 138.484C126.335 137.596 126.32 136.195 126.372 135.027C126.486 132.496 127.034 132.595 127.965 132.729C128.762 132.841 129.729 133.266 132.03 133.237C133.95 133.212 135.171 132.715 135.968 132.603C136.901 132.469 137.447 132.892 137.573 135.421C137.625 136.458 137.579 138.652 137.526 139.2C137.862 139.044 138.213 138.583 138.434 137.695C138.863 135.973 139.089 134.154 139.151 133.524C139.278 132.255 138.641 127.779 131.915 127.395L131.916 127.396Z" fill="#2D4678"/>
<path d="M146.615 152.112C143.774 151.134 138.545 149.128 138.021 148.809C137.787 149.122 131.889 150.373 131.889 150.373C131.889 150.373 126.192 149.121 125.958 148.809C125.435 149.128 120.206 151.134 117.365 152.112C115.749 152.668 114.503 153.967 114.012 155.604L112.412 163.017H151.566L149.966 155.604C149.475 153.967 148.229 152.668 146.613 152.112H146.615Z" fill="#5EB9DB"/>
<path d="M127.73 146.235L125.967 148.785C125.967 148.785 125.88 149.971 126.971 151.377C127.887 152.557 129.014 153.586 129.014 153.586L131.027 151.225L131.991 150.376C129.366 150.123 127.728 146.235 127.728 146.235H127.73Z" fill="#F0F0F0"/>
<path d="M131.991 150.375L133.251 151.395L135.069 153.585C135.069 153.585 136.173 152.382 137.07 151.375C138.128 150.19 138.116 148.783 138.116 148.783C138.116 148.783 136.592 146.742 136.286 146.233C136.221 146.127 134.573 150.124 131.99 150.375H131.991Z" fill="#F0F0F0"/>
<path d="M132.003 150.388V150.375L131.997 150.382L131.99 150.375V150.388L129.731 151.686L130.716 154.27L129.731 163.015H131.99H132.003H134.264L133.278 154.27L134.433 152.026L132.003 150.388Z" fill="#002135"/>
<path d="M127.73 146.235L125.967 148.785C125.967 148.785 126.233 149.571 127.323 150.976C128.24 152.157 129.015 152.998 129.015 152.998L131.028 151.225L131.993 150.376C129.368 150.123 127.73 146.235 127.73 146.235Z" fill="#5EB9DB"/>
<path d="M131.991 150.375L133.251 151.395L135.069 152.995C135.069 152.995 136.173 151.921 137.07 150.916C138.128 149.731 138.116 148.782 138.116 148.782C138.116 148.782 136.592 146.74 136.286 146.232C136.221 146.125 134.573 150.123 131.99 150.373L131.991 150.375Z" fill="#5EB9DB"/>
<path d="M117.365 151.6C115.749 152.157 114.503 153.456 114.012 155.092L112.412 163.017H130.715C129.785 161.376 127.172 154 126.983 147.273C125.91 147.778 120.005 150.691 117.363 151.6H117.365Z" fill="#002135"/>
<path d="M146.615 151.6C143.975 150.691 138.068 147.778 136.995 147.273C136.806 154 134.193 161.376 133.263 163.017H151.566L149.966 155.092C149.475 153.456 148.229 152.157 146.613 151.6H146.615Z" fill="#002135"/>
<path d="M221.438 129.917C218.802 132.192 215.141 144.499 222.983 144.775H230.265C230.265 144.775 238.295 143.8 232.841 131.37C231.296 127.85 224.579 127.205 221.438 129.917Z" fill="#2D4678"/>
<path d="M229.791 144.191C229.236 144.513 227.442 145.652 226.808 145.698H226.454C226.431 145.697 226.409 145.692 226.386 145.691C226.364 145.694 226.341 145.697 226.319 145.698H225.965C225.33 145.652 223.536 145.097 222.981 144.774C222.977 145.047 222.864 147.663 222.161 148.215C222.084 148.269 220.769 149.55 219.134 150.239C220.298 151.413 223.76 153.092 226.179 153.054C226.179 153.054 226.253 153.054 226.385 153.045C226.518 153.054 226.59 153.054 226.59 153.054C229.01 153.092 232.472 151.413 233.636 150.239C232.001 149.55 230.687 148.269 230.609 148.215C229.905 147.663 229.793 144.464 229.788 144.191H229.791Z" fill="#FFD8C6"/>
<path d="M238.404 151.606L231.894 148.891C231.894 148.891 231.788 151.312 226.556 151.312C221.874 151.312 221.517 148.792 221.517 148.792L214.977 150.985C213.75 151.377 212.732 152.242 212.147 153.39C210.644 156.34 210.89 161.737 210.29 163C216.408 163.042 220.745 162.988 226.224 162.988H242.489C242.141 162.204 242.094 157.251 241.011 154.345C240.552 153.115 239.612 152.127 238.407 151.605L238.404 151.606Z" fill="#5FB6E4"/>
<path d="M229.093 132.798L220.626 134.345C220.626 134.345 219.747 140.61 222.005 143.916C222.005 143.916 223.074 145.43 224.56 146.294C225.091 146.603 225.671 146.831 226.279 146.874H226.616C227.452 146.814 228.241 146.408 228.908 145.917C230.087 145.052 230.56 144.539 230.888 143.916C233.107 139.731 232.204 134.061 232.204 134.061L229.091 132.798H229.093Z" fill="#FFE3D6"/>
<path d="M219.74 137.11C219.386 137.542 220.022 142.44 221.438 141.408L220.611 137.487C220.611 137.487 220.091 136.684 219.741 137.11H219.74Z" fill="#FFE3D6"/>
<path d="M231.659 137.526L231.336 141.408C232.751 142.44 233.388 137.543 233.034 137.111C232.683 136.683 231.66 137.526 231.66 137.526H231.659Z" fill="#FFE3D6"/>
<path d="M227.249 128.262C217.38 128.568 220.878 139.238 220.884 139.14C220.964 137.892 221.649 135.227 223.658 135.132C226.493 134.999 228.819 134.376 229.769 133.526C229.769 133.526 230.64 134.883 231.336 136.266C231.845 137.279 232.192 138.236 232.099 139.346C232.087 139.388 236.633 127.971 227.25 128.262H227.249Z" fill="#2D4678"/>
<path d="M222.62 147.163L220.58 149.032C222.519 151.842 224.9 153.636 224.9 153.636L226.347 151.312C224.237 149.55 222.62 147.163 222.62 147.163Z" fill="#4897C0"/>
<path d="M226.425 151.312L227.873 153.636C227.873 153.636 230.255 151.842 232.193 149.032L230.153 147.163C230.153 147.163 228.536 149.548 226.425 151.312Z" fill="#4897C0"/>
<path d="M232.26 136.86C232.26 136.86 232.256 136.857 232.253 136.856L232.26 136.848C232.26 136.848 231.321 136.533 230.174 136.509L230.193 136.517C230.031 136.508 229.857 136.503 229.667 136.503C229.584 136.503 229.499 136.503 229.41 136.506C228.624 136.521 228.062 136.59 227.679 136.736C227.624 136.754 227.558 136.778 227.484 136.808C227.261 136.898 226.74 137.027 226.542 137.034C226.341 137.027 225.788 136.896 225.564 136.808C225.485 136.775 225.411 136.749 225.353 136.731C224.97 136.589 224.414 136.521 223.637 136.506C223.55 136.506 223.464 136.503 223.38 136.503C223.209 136.503 223.05 136.508 222.902 136.515L222.914 136.511C221.768 136.535 220.827 136.85 220.827 136.85C220.797 136.85 220.77 136.862 220.751 136.881L220.421 137.151L220.481 137.531L220.826 137.403H220.875C220.875 137.403 221.03 137.451 221.046 137.682C221.051 137.741 221.057 137.783 221.066 137.811C221.069 137.987 221.096 138.185 221.148 138.407C221.442 139.649 221.901 140.475 223.182 140.475C223.371 140.475 223.58 140.457 223.803 140.42C224.768 140.261 225.875 139.553 226.029 138.084L226.035 138.104C226.035 138.069 226.035 138.038 226.037 138.006C226.038 137.984 226.04 137.96 226.041 137.937C226.074 137.523 226.442 137.483 226.523 137.484V137.487C226.523 137.487 226.529 137.486 226.539 137.484C226.551 137.484 226.559 137.487 226.559 137.487V137.483C226.629 137.483 226.953 137.525 226.998 137.871C227.001 137.93 227.004 137.988 227.01 138.045C227.01 138.063 227.01 138.083 227.01 138.102L227.015 138.089C227.172 139.553 228.278 140.259 229.241 140.418C229.464 140.456 229.673 140.474 229.862 140.474C231.143 140.474 231.602 139.647 231.896 138.405C231.951 138.168 231.98 137.96 231.978 137.774C231.983 137.748 231.987 137.718 231.989 137.681C232.005 137.45 232.16 137.402 232.16 137.402H232.209C232.209 137.402 232.221 137.399 232.227 137.399L232.577 137.894L232.692 137.507L232.257 136.85V136.862L232.26 136.86ZM223.754 140.079C223.553 140.112 223.367 140.129 223.199 140.129C222.135 140.129 221.772 139.473 221.504 138.342C221.385 137.841 221.411 137.505 221.586 137.285C221.825 136.983 222.381 136.848 223.391 136.848C223.469 136.848 223.55 136.848 223.634 136.851C225.531 136.886 225.689 137.265 225.693 137.72C225.713 139.659 224.082 140.027 223.755 140.081L223.754 140.079ZM231.549 138.342C231.281 139.475 230.918 140.129 229.854 140.129C229.686 140.129 229.5 140.112 229.299 140.079C228.972 140.025 227.342 139.658 227.361 137.718C227.366 137.264 227.523 136.886 229.421 136.85C229.505 136.848 229.584 136.847 229.664 136.847C230.672 136.847 231.228 136.982 231.468 137.283C231.642 137.504 231.669 137.84 231.551 138.341L231.549 138.342Z" fill="#025E75"/>
<path d="M183.203 144.58C183.213 144.567 175.118 145.087 175.118 145.087C175.053 145.758 175.014 146.854 174.996 147.039C174.945 147.541 174.839 147.982 174.701 148.375L174.767 148.281C174.767 148.281 176.748 151.381 179.192 151.617C181.595 151.386 183.641 148.386 183.705 148.29C183.582 147.919 183.486 147.507 183.438 147.039C183.422 146.868 183.263 145.191 183.203 144.58Z" fill="#E2CAC2"/>
<path d="M185.585 137.784C185.421 139.038 184.67 139.339 184.686 138.55C184.704 137.68 184.692 136.746 184.64 135.603C184.527 133.125 183.992 132.499 183.08 132.63C182.331 132.736 175.995 132.736 175.247 132.63C174.333 132.499 173.798 133.125 173.687 135.603C173.636 136.747 173.624 137.682 173.64 138.55C173.657 139.339 173.289 138.633 172.742 137.784C172.391 137.632 172.044 137.716 172.14 138.756C172.358 141.097 173.051 142.23 173.874 142.203C173.943 143.203 173.865 143.545 174.954 145.141C176.24 146.776 177.107 148.081 179.163 148.081C181.22 148.081 182.087 146.776 183.372 145.141C184.461 143.545 184.382 143.203 184.452 142.203C185.276 142.23 185.969 141.097 186.186 138.756C186.282 137.716 185.936 137.634 185.585 137.784Z" fill="#E2CAC2"/>
<path d="M179.766 127.333C176.811 127.099 175.64 128.305 175.451 128.557C175.256 128.817 173.897 128.686 172.854 130.207C172.205 131.155 172.079 132.694 172.397 135.357C172.481 136.054 172.91 137.856 173.01 138.211C173.39 139.557 173.622 139.132 173.627 138.99C173.649 138.12 173.675 136.749 173.685 135.603C173.699 133.996 174.626 133.566 175.539 133.698C176.319 133.809 178.176 134.163 180.429 134.134C182.31 134.11 182.867 133.282 183.084 133.228C183.98 133.008 184.533 133.512 184.656 135.988C184.707 137.004 184.661 139.152 184.61 139.689C184.94 139.537 185.153 139.086 185.37 138.216C185.79 136.528 186.029 133.074 186.002 132.454C185.882 129.769 183.93 127.663 179.766 127.333Z" fill="#002135"/>
<path d="M193.512 152.335C190.73 151.377 185.607 149.413 185.096 149.1C184.866 149.406 179.09 150.633 179.09 150.633C179.09 150.633 173.51 149.406 173.282 149.1C172.77 149.412 167.648 151.377 164.865 152.335C163.283 152.88 162.062 154.153 161.582 155.755L160.014 163.015H198.363L196.796 155.755C196.316 154.152 195.093 152.88 193.512 152.335Z" fill="#8595A0"/>
<path d="M182.253 142.872C181.913 143.136 181.34 142.543 180.716 142.332C180.357 142.21 179.306 142.05 179.163 142.042C179.163 142.042 177.915 142.21 177.557 142.332C176.931 142.543 176.358 143.136 176.019 142.872C175.436 142.419 174.129 141.744 173.642 138.55L173.219 138.4C173.219 138.4 173.675 143.044 174.125 143.905C174.701 145.006 175.938 146.853 176.78 147.532C177.266 147.925 178.439 148.225 179.109 148.273V148.278C179.118 148.278 179.127 148.276 179.136 148.276C179.145 148.276 179.154 148.278 179.163 148.278V148.273C179.834 148.225 181.007 147.925 181.493 147.532C182.334 146.853 183.372 145.14 184.148 143.905C184.665 143.083 185.054 138.4 185.054 138.4L184.631 138.55C184.143 141.744 182.835 142.417 182.253 142.872Z" fill="#002135"/>
<path d="M181.119 144.229H177.33C179.177 146.788 181.119 144.229 181.119 144.229Z" fill="#E2CAC2"/>
<path d="M175.016 146.58L173.289 149.077C173.289 149.077 173.55 149.847 174.617 151.224C175.514 152.38 176.273 153.204 176.273 153.204L178.245 151.467L179.189 150.636C176.618 150.387 175.014 146.58 175.014 146.58H175.016Z" fill="#ABBBC6"/>
<path d="M179.19 150.636L180.425 151.635L182.205 153.202C182.205 153.202 183.287 152.151 184.166 151.167C185.202 150.006 185.19 149.076 185.19 149.076C185.19 149.076 183.698 147.076 183.398 146.578C183.335 146.475 181.719 150.39 179.19 150.634V150.636Z" fill="#ABBBC6"/>
<path opacity="0.4" d="M138.918 88.0627C139.29 87.1641 138.863 86.134 137.965 85.7618C137.066 85.3896 136.036 85.8163 135.664 86.7148C135.291 87.6134 135.718 88.6435 136.617 89.0157C137.515 89.3879 138.545 88.9612 138.918 88.0627Z" fill="#5EB9DB"/>
<path opacity="0.7" d="M137.291 91.6755C136.319 91.6755 135.53 92.4645 135.53 93.4365C135.53 94.4085 136.319 95.1975 137.291 95.1975C138.263 95.1975 139.052 94.4085 139.052 93.4365C139.052 92.4645 138.263 91.6755 137.291 91.6755Z" fill="#5EB9DB"/>
<path d="M137.694 101.208C138.641 100.984 139.227 100.036 139.004 99.0894C138.78 98.1429 137.832 97.5566 136.885 97.7801C135.938 98.0035 135.352 98.9519 135.576 99.8985C135.799 100.845 136.748 101.431 137.694 101.208Z" fill="#5EB9DB"/>
<path d="M195.086 52.2075L198.234 50.3535C198.102 49.9515 197.997 49.5585 197.861 49.1685C197.724 48.7785 197.561 48.405 197.412 48.003L193.799 48.5265C193.356 47.7885 192.852 47.1585 192.323 46.542L193.781 43.1925C193.142 42.648 192.426 42.1695 191.693 41.7675L189.047 44.3025C188.345 44.004 187.556 43.7535 186.738 43.638L185.928 40.056C185.106 39.981 184.272 40.0455 183.444 40.0905L182.811 43.683C182.421 43.7715 182.001 43.9125 181.598 44.052C181.224 44.184 180.857 44.3175 180.507 44.4885L177.767 42.078C177.011 42.5895 176.366 43.0425 175.731 43.6275L177.357 46.9245C176.823 47.514 176.375 48.198 175.935 48.8955L172.32 48.5535C172.022 49.317 171.794 50.127 171.635 50.9505L174.831 52.6695C174.747 53.502 174.741 54.309 174.896 55.149L171.752 56.9925C171.842 57.4155 171.947 57.8085 172.083 58.1985C172.22 58.5885 172.383 58.962 172.575 59.343L176.187 58.8285C176.585 59.5725 177.096 60.2085 177.681 60.8055L176.256 64.1445C176.892 64.6815 177.575 65.172 178.289 65.5875L180.897 63.0585C181.679 63.3345 182.456 63.591 183.242 63.7185L184.026 67.3065C184.884 67.3605 185.676 67.32 186.581 67.239L187.223 63.6555C187.599 63.561 187.971 63.4395 188.345 63.3075C188.747 63.1665 189.162 63.0135 189.524 62.85L192.258 65.2515C192.936 64.779 193.625 64.299 194.223 63.735L192.623 60.4335C193.19 59.832 193.647 59.145 194.009 58.4655L197.661 58.8015C197.981 58.0245 198.242 57.204 198.405 56.3865L195.176 54.678C195.204 53.8635 195.203 53.0505 195.09 52.206L195.086 52.2075ZM187.073 59.6925C183.782 60.846 180.168 59.064 179.013 55.7715C177.858 52.473 179.57 48.822 182.861 47.67C186.221 46.4925 189.86 48.27 191.015 51.5685C192.168 54.8625 190.433 58.5165 187.073 59.694V59.6925Z" fill="#5EB9DB"/>
<path d="M173.001 66.465C173.006 65.823 172.893 65.1465 172.683 64.539L174.789 62.6895C174.644 62.4075 174.479 62.13 174.278 61.821C174.104 61.59 173.927 61.2765 173.832 61.0095L171.11 61.956C170.685 61.431 170.165 61.059 169.676 60.6645L170.364 57.8955C169.778 57.5655 169.185 57.3045 168.549 57.1245L166.883 59.436C166.232 59.3175 165.591 59.232 165.023 59.232L163.823 56.6895C163.272 56.6745 162.567 56.8845 161.982 57.072L162.026 59.907C161.685 60.0435 161.426 60.1425 161.193 60.282C160.88 60.483 160.599 60.681 160.398 60.8175L157.95 59.4105C157.409 59.8905 157.016 60.3045 156.656 60.855L158.364 63.108C158.031 63.684 157.776 64.2585 157.607 64.8105L154.763 65.1075C154.589 65.7825 154.499 66.402 154.593 67.056L157.23 67.905C157.304 68.499 157.407 69.1425 157.631 69.786L155.528 71.6475C155.667 71.9085 155.838 72.2055 155.982 72.4845C156.093 72.7875 156.255 73.104 156.462 73.3035L159.207 72.3735C159.557 72.9105 160.073 73.308 160.643 73.671L159.956 76.443C160.529 76.7775 161.138 77.034 161.772 77.211L163.43 74.8815C164.066 75.0285 164.595 75.1485 165.296 75.1095L166.359 77.6985C167.037 77.628 167.745 77.445 168.281 77.286L168.239 74.4495C168.566 74.2995 168.879 74.1465 169.118 74.043C169.374 73.8765 169.685 73.6515 169.922 73.5225L172.37 74.9295C172.845 74.4675 173.225 74.034 173.633 73.473L171.944 71.193C172.289 70.653 172.538 70.065 172.698 69.48L175.55 69.2115C175.629 68.595 175.799 67.914 175.719 67.263L173.003 66.4665L173.001 66.465ZM167.589 71.478C165.216 72.8295 162.212 71.9985 160.812 69.6465C159.462 67.2795 160.31 64.2825 162.666 62.8815C165.033 61.509 168.099 62.3235 169.425 64.704C170.763 67.08 169.946 70.0785 167.589 71.478Z" fill="#5EB9DB"/>
<path d="M306.752 66.339C302.368 66.339 298.814 69.8925 298.814 74.277C298.814 75.099 298.939 75.8925 299.171 76.6395H299.144C299.144 76.6395 300.761 81.0015 301.162 82.4985C301.918 85.3245 302.185 86.7435 302.278 87.3705L311.126 87.7815C311.132 87.678 311.225 86.484 312.293 82.5C312.575 81.4485 313.456 78.984 313.955 77.61C314.425 76.596 314.689 75.468 314.689 74.2785C314.689 69.894 311.135 66.3405 306.751 66.3405L306.752 66.339Z" fill="#5EB9DB"/>
<path d="M302.168 89.799V90.0615C302.168 90.222 302.184 90.3795 302.214 90.5325L311.271 90.9525C311.315 90.783 311.34 90.6075 311.34 90.4245V90.2235C311.34 90.2235 311.327 90.2235 311.321 90.2235L302.169 89.799H302.168Z" fill="#5EB9DB"/>
<path d="M302.168 88.2166V88.9516C302.168 88.9516 302.18 88.9486 302.187 88.9486L311.339 89.3731V88.6411C311.339 88.6411 311.326 88.6411 311.319 88.6411L302.168 88.2166Z" fill="#5EB9DB"/>
<path d="M304.667 92.562C304.976 93.4155 305.792 94.0275 306.754 94.0275C307.715 94.0275 308.53 93.417 308.84 92.5635H309.202C309.866 92.5635 310.46 92.2605 310.852 91.785L302.562 91.401C303.008 92.097 303.785 92.5635 304.669 92.5635L304.667 92.562Z" fill="#5EB9DB"/>
<path d="M301.649 58.7625C301.46 58.29 300.924 58.0575 300.452 58.248C299.979 58.437 299.748 58.9725 299.937 59.445L301.7 63.8685C301.844 64.23 302.19 64.449 302.556 64.449C302.67 64.449 302.786 64.428 302.897 64.383C303.369 64.194 303.6 63.6585 303.411 63.186L301.649 58.7625Z" fill="#5EB9DB"/>
<path d="M321.08 67.1205L316.657 68.883C316.184 69.072 315.953 69.6075 316.142 70.08C316.286 70.4415 316.633 70.6605 316.999 70.6605C317.113 70.6605 317.228 70.6395 317.339 70.5945L321.762 68.832C322.235 68.643 322.466 68.1075 322.277 67.635C322.089 67.1625 321.552 66.9315 321.08 67.1205Z" fill="#5EB9DB"/>
<path d="M313.308 58.4205C312.842 58.2195 312.299 58.4355 312.098 58.9035L310.217 63.2775C310.016 63.7455 310.232 64.287 310.7 64.488C310.818 64.539 310.941 64.563 311.063 64.563C311.42 64.563 311.761 64.3545 311.911 64.005L313.792 59.631C313.993 59.163 313.776 58.6215 313.308 58.4205Z" fill="#5EB9DB"/>
<path d="M296.822 68.6145L292.448 66.7335C291.982 66.5325 291.439 66.7485 291.238 67.2165C291.037 67.6845 291.253 68.226 291.721 68.427L296.095 70.308C296.213 70.359 296.336 70.383 296.458 70.383C296.815 70.383 297.155 70.1745 297.305 69.825C297.506 69.357 297.29 68.8155 296.822 68.6145Z" fill="#5EB9DB"/>
<path d="M231.687 85.7834H194.322C191.388 85.7834 189.009 88.4699 189.009 91.7819V128.164L197.336 117.217H231.689C234.623 117.217 237.002 114.531 237.002 111.219V91.7819C237.002 88.4684 234.623 85.7834 231.689 85.7834H231.687Z" fill="#5EB9DB"/>
<path d="M230.54 94.2644H195.357V96.6119H230.54V94.2644Z" fill="white"/>
<path d="M230.54 100.524H195.357V102.871H230.54V100.524Z" fill="white"/>
<path d="M220.514 106.783H195.357V109.131H220.514V106.783Z" fill="white"/>
<path d="M253.662 77.3745H249.33V86.7435H253.662V77.3745Z" fill="#5EB9DB"/>
<path d="M260.706 71.0565H256.375V86.745H260.706V71.0565Z" fill="#5EB9DB"/>
<path d="M267.749 64.9005H263.417V86.745H267.749V64.9005Z" fill="#5EB9DB"/>
<path d="M269.966 88.6995H247.112V90.5115H269.966V88.6995Z" fill="#5EB9DB"/>
<path d="M120.669 70.521C119.091 70.521 117.812 71.8005 117.812 73.3785C117.812 74.013 118.025 74.592 118.374 75.066L113.04 83.2665C112.841 83.223 112.637 83.196 112.424 83.196C112.211 83.196 112.016 83.22 111.821 83.262L106.551 75.075C106.905 74.5995 107.123 74.016 107.123 73.377C107.123 71.799 105.843 70.5195 104.265 70.5195C102.687 70.5195 101.408 71.799 101.408 73.377C101.408 74.0115 101.621 74.5905 101.97 75.0645L96.6364 83.265C96.4369 83.2215 96.2329 83.1945 96.0199 83.1945C94.4419 83.1945 93.1624 84.474 93.1624 86.052C93.1624 87.63 94.4419 88.9095 96.0199 88.9095C97.5979 88.9095 98.8774 87.63 98.8774 86.052C98.8774 85.4175 98.6644 84.8385 98.3149 84.3645L103.649 76.164C103.848 76.2075 104.052 76.2345 104.265 76.2345C104.478 76.2345 104.673 76.2105 104.868 76.1685L110.138 84.354C109.784 84.8295 109.566 85.413 109.566 86.052C109.566 87.63 110.846 88.9095 112.424 88.9095C114.002 88.9095 115.281 87.63 115.281 86.052C115.281 85.4175 115.068 84.8385 114.719 84.3645L120.053 76.164C120.252 76.2075 120.456 76.2345 120.669 76.2345C122.247 76.2345 123.527 74.955 123.527 73.377C123.527 71.799 122.247 70.5195 120.669 70.5195V70.521Z" fill="#5EB9DB"/>
<g opacity="0.8">
<path opacity="0.8" d="M152.328 61.83C151.832 61.83 151.428 62.2335 151.428 62.73C151.428 63.2265 151.832 63.63 152.328 63.63H152.336C152.832 63.63 153.233 63.2265 153.233 62.73C153.233 62.2335 152.826 61.83 152.33 61.83H152.328Z" fill="#5EB9DB"/>
<g opacity="0.8">
<path opacity="0.8" d="M138.053 61.83C137.556 61.83 137.153 62.2335 137.153 62.73C137.153 63.2265 137.556 63.63 138.053 63.63H138.066C138.563 63.63 138.96 63.2265 138.96 62.73C138.96 62.2335 138.551 61.83 138.054 61.83H138.053Z" fill="#5EB9DB"/>
<path opacity="0.8" d="M134.483 61.83C133.987 61.83 133.583 62.2335 133.583 62.73C133.583 63.2265 133.987 63.63 134.483 63.63H134.497C134.993 63.63 135.391 63.2265 135.391 62.73C135.391 62.2335 134.981 61.83 134.485 61.83H134.483Z" fill="#5EB9DB"/>
<path opacity="0.8" d="M145.19 61.83C144.694 61.83 144.29 62.2335 144.29 62.73C144.29 63.2265 144.694 63.63 145.19 63.63H145.204C145.7 63.63 146.098 63.2265 146.098 62.73C146.098 62.2335 145.688 61.83 145.192 61.83H145.19Z" fill="#5EB9DB"/>
<path opacity="0.8" d="M148.76 61.83C148.263 61.83 147.86 62.2335 147.86 62.73C147.86 63.2265 148.263 63.63 148.76 63.63H148.773C149.27 63.63 149.667 63.2265 149.667 62.73C149.667 62.2335 149.258 61.83 148.761 61.83H148.76Z" fill="#5EB9DB"/>
<path opacity="0.8" d="M141.621 61.83C141.125 61.83 140.721 62.2335 140.721 62.73C140.721 63.2265 141.125 63.63 141.621 63.63H141.635C142.131 63.63 142.529 63.2265 142.529 62.73C142.529 62.2335 142.119 61.83 141.623 61.83H141.621Z" fill="#5EB9DB"/>
</g>
<path opacity="0.8" d="M130.92 61.83C130.424 61.83 130.021 62.2395 130.021 62.7375C130.021 63.2355 130.424 63.6345 130.92 63.6345C131.054 63.6345 131.18 63.606 131.292 63.5535C131.606 63.4125 131.823 63.0975 131.823 62.7315C131.823 62.235 131.417 61.8315 130.92 61.8315V61.83Z" fill="#5EB9DB"/>
<g opacity="0.8">
<path opacity="0.8" d="M130.921 85.302C130.424 85.302 130.021 85.7115 130.021 86.2095C130.021 86.7075 130.424 87.1095 130.921 87.1095C131.417 87.1095 131.82 86.706 131.82 86.2095V86.1945C131.82 85.698 131.417 85.302 130.921 85.302Z" fill="#5EB9DB"/>
<path opacity="0.8" d="M130.921 81.3899C130.424 81.3899 130.021 81.7994 130.021 82.2974C130.021 82.7954 130.424 83.1974 130.921 83.1974C131.417 83.1974 131.82 82.7939 131.82 82.2974V82.2824C131.82 81.7859 131.417 81.3899 130.921 81.3899Z" fill="#5EB9DB"/>
<path opacity="0.8" d="M130.921 93.126C130.424 93.126 130.021 93.5355 130.021 94.0335C130.021 94.5315 130.424 94.9335 130.921 94.9335C131.417 94.9335 131.82 94.53 131.82 94.0335V94.0185C131.82 93.522 131.417 93.126 130.921 93.126Z" fill="#5EB9DB"/>
<path opacity="0.8" d="M130.921 97.038C130.424 97.038 130.021 97.4475 130.021 97.9455C130.021 98.4435 130.424 98.8455 130.921 98.8455C131.417 98.8455 131.82 98.442 131.82 97.9455V97.9305C131.82 97.434 131.417 97.038 130.921 97.038Z" fill="#5EB9DB"/>
<path opacity="0.8" d="M130.921 89.214C130.424 89.214 130.021 89.6235 130.021 90.1215C130.021 90.6195 130.424 91.0215 130.921 91.0215C131.417 91.0215 131.82 90.618 131.82 90.1215V90.1065C131.82 89.61 131.417 89.214 130.921 89.214Z" fill="#5EB9DB"/>
<path opacity="0.8" d="M130.921 69.6539C130.424 69.6539 130.021 70.0634 130.021 70.5614C130.021 71.0594 130.424 71.4614 130.921 71.4614C131.417 71.4614 131.82 71.0579 131.82 70.5614V70.5464C131.82 70.0499 131.417 69.6539 130.921 69.6539Z" fill="#5EB9DB"/>
<path opacity="0.8" d="M130.921 77.4779C130.424 77.4779 130.021 77.8874 130.021 78.3854C130.021 78.8834 130.424 79.2854 130.921 79.2854C131.417 79.2854 131.82 78.8819 131.82 78.3854V78.3704C131.82 77.8739 131.417 77.4779 130.921 77.4779Z" fill="#5EB9DB"/>
<path opacity="0.8" d="M130.921 65.7419C130.424 65.7419 130.021 66.1514 130.021 66.6494C130.021 67.1474 130.424 67.5494 130.921 67.5494C131.417 67.5494 131.82 67.1459 131.82 66.6494V66.6344C131.82 66.1379 131.417 65.7419 130.921 65.7419Z" fill="#5EB9DB"/>
<path opacity="0.8" d="M130.921 73.5659C130.424 73.5659 130.021 73.9754 130.021 74.4734C130.021 74.9714 130.424 75.3734 130.921 75.3734C131.417 75.3734 131.82 74.9699 131.82 74.4734V74.4584C131.82 73.9619 131.417 73.5659 130.921 73.5659Z" fill="#5EB9DB"/>
</g>
<path opacity="0.8" d="M130.921 100.947C130.424 100.947 130.021 101.353 130.021 101.85C130.021 102.346 130.424 102.75 130.921 102.75C131.417 102.75 131.82 102.346 131.82 101.85V101.842C131.82 101.346 131.417 100.945 130.921 100.945V100.947Z" fill="#5EB9DB"/>
</g>
<g opacity="0.8">
<path opacity="0.8" d="M197.633 61.83H197.625C197.129 61.83 196.728 62.2335 196.728 62.73C196.728 63.2265 197.135 63.63 197.631 63.63C198.128 63.63 198.531 63.2265 198.531 62.73C198.531 62.2335 198.128 61.83 197.631 61.83H197.633Z" fill="#5EB9DB"/>
<g opacity="0.8">
<path opacity="0.8" d="M204.528 61.83H204.516C204.02 61.83 203.622 62.2335 203.622 62.73C203.622 63.2265 204.032 63.63 204.528 63.63C205.025 63.63 205.428 63.2265 205.428 62.73C205.428 62.2335 205.025 61.83 204.528 61.83Z" fill="#5EB9DB"/>
<path opacity="0.8" d="M207.977 61.83H207.965C207.468 61.83 207.071 62.2335 207.071 62.73C207.071 63.2265 207.48 63.63 207.977 63.63C208.473 63.63 208.877 63.2265 208.877 62.73C208.877 62.2335 208.473 61.83 207.977 61.83Z" fill="#5EB9DB"/>
<path opacity="0.8" d="M201.081 61.83H201.069C200.573 61.83 200.175 62.2335 200.175 62.73C200.175 63.2265 200.585 63.63 201.081 63.63C201.578 63.63 201.981 63.2265 201.981 62.73C201.981 62.2335 201.578 61.83 201.081 61.83Z" fill="#5EB9DB"/>
<path opacity="0.8" d="M214.872 61.83H214.86C214.364 61.83 213.966 62.2335 213.966 62.73C213.966 63.2265 214.376 63.63 214.872 63.63C215.369 63.63 215.772 63.2265 215.772 62.73C215.772 62.2335 215.369 61.83 214.872 61.83Z" fill="#5EB9DB"/>
<path opacity="0.8" d="M211.425 61.83H211.413C210.917 61.83 210.519 62.2335 210.519 62.73C210.519 63.2265 210.929 63.63 211.425 63.63C211.922 63.63 212.325 63.2265 212.325 62.73C212.325 62.2335 211.922 61.83 211.425 61.83Z" fill="#5EB9DB"/>
</g>
<path opacity="0.8" d="M218.315 61.83H218.307C217.811 61.83 217.41 62.2335 217.41 62.73C217.41 62.8635 217.44 62.991 217.493 63.105C217.634 63.417 217.949 63.633 218.315 63.633C218.811 63.633 219.215 63.2265 219.215 62.73C219.215 62.2335 218.811 61.83 218.315 61.83Z" fill="#5EB9DB"/>
<g opacity="0.8">
<path opacity="0.8" d="M218.315 78.036C217.818 78.036 217.415 78.447 217.415 78.9435C217.415 79.44 217.818 79.8435 218.315 79.8435C218.811 79.8435 219.215 79.44 219.215 78.9435V78.9285C219.215 78.432 218.811 78.036 218.315 78.036Z" fill="#5EB9DB"/>
<path opacity="0.8" d="M218.315 73.9845C217.818 73.9845 217.415 74.3955 217.415 74.892C217.415 75.3885 217.818 75.792 218.315 75.792C218.811 75.792 219.215 75.3885 219.215 74.892V74.877C219.215 74.3805 218.811 73.9845 218.315 73.9845Z" fill="#5EB9DB"/>
<path opacity="0.8" d="M218.315 65.8815C217.818 65.8815 217.415 66.2925 217.415 66.789C217.415 67.2855 217.818 67.689 218.315 67.689C218.811 67.689 219.215 67.2855 219.215 66.789V66.774C219.215 66.2775 218.811 65.8815 218.315 65.8815Z" fill="#5EB9DB"/>
<path opacity="0.8" d="M218.315 69.933C217.818 69.933 217.415 70.344 217.415 70.8405C217.415 71.337 217.818 71.7405 218.315 71.7405C218.811 71.7405 219.215 71.337 219.215 70.8405V70.8255C219.215 70.329 218.811 69.933 218.315 69.933Z" fill="#5EB9DB"/>
</g>
<path opacity="0.8" d="M218.315 82.0829C217.818 82.0829 217.415 82.4894 217.415 82.9859C217.415 83.4824 217.818 83.8859 218.315 83.8859C218.811 83.8859 219.215 83.4824 219.215 82.9859V82.9784C219.215 82.4819 218.811 82.0814 218.315 82.0814V82.0829Z" fill="#5EB9DB"/>
</g>
<g opacity="0.8">
<path opacity="0.8" d="M239.607 93.663H239.6C239.103 93.663 238.703 94.0665 238.703 94.563C238.703 95.0595 239.109 95.463 239.606 95.463C240.102 95.463 240.506 95.0595 240.506 94.563C240.506 94.0665 240.102 93.663 239.606 93.663H239.607Z" fill="#5EB9DB"/>
<g opacity="0.8">
<path opacity="0.8" d="M255.356 93.663H255.341C254.844 93.663 254.448 94.0665 254.448 94.563C254.448 95.0595 254.858 95.463 255.356 95.463C255.854 95.463 256.256 95.0595 256.256 94.563C256.256 94.0665 255.852 93.663 255.356 93.663Z" fill="#5EB9DB"/>
<path opacity="0.8" d="M251.418 93.663H251.403C250.907 93.663 250.511 94.0665 250.511 94.563C250.511 95.0595 250.922 95.463 251.418 95.463C251.915 95.463 252.318 95.0595 252.318 94.563C252.318 94.0665 251.915 93.663 251.418 93.663Z" fill="#5EB9DB"/>
<path opacity="0.8" d="M247.482 93.663H247.467C246.971 93.663 246.575 94.0665 246.575 94.563C246.575 95.0595 246.984 95.463 247.482 95.463C247.98 95.463 248.382 95.0595 248.382 94.563C248.382 94.0665 247.979 93.663 247.482 93.663Z" fill="#5EB9DB"/>
<path opacity="0.8" d="M243.545 93.663H243.53C243.033 93.663 242.637 94.0665 242.637 94.563C242.637 95.0595 243.048 95.463 243.545 95.463C244.041 95.463 244.445 95.0595 244.445 94.563C244.445 94.0665 244.041 93.663 243.545 93.663Z" fill="#5EB9DB"/>
<path opacity="0.8" d="M271.104 93.663H271.089C270.593 93.663 270.197 94.0665 270.197 94.563C270.197 95.0595 270.606 95.463 271.104 95.463C271.602 95.463 272.004 95.0595 272.004 94.563C272.004 94.0665 271.601 93.663 271.104 93.663Z" fill="#5EB9DB"/>
<path opacity="0.8" d="M267.167 93.663H267.152C266.655 93.663 266.259 94.0665 266.259 94.563C266.259 95.0595 266.67 95.463 267.167 95.463C267.663 95.463 268.067 95.0595 268.067 94.563C268.067 94.0665 267.663 93.663 267.167 93.663Z" fill="#5EB9DB"/>
<path opacity="0.8" d="M259.293 93.663H259.278C258.782 93.663 258.386 94.0665 258.386 94.563C258.386 95.0595 258.797 95.463 259.293 95.463C259.79 95.463 260.193 95.0595 260.193 94.563C260.193 94.0665 259.79 93.663 259.293 93.663Z" fill="#5EB9DB"/>
<path opacity="0.8" d="M263.231 93.663H263.216C262.719 93.663 262.323 94.0665 262.323 94.563C262.323 95.0595 262.733 95.463 263.231 95.463C263.729 95.463 264.131 95.0595 264.131 94.563C264.131 94.0665 263.727 93.663 263.231 93.663Z" fill="#5EB9DB"/>
</g>
<path opacity="0.8" d="M275.034 93.663H275.027C274.53 93.663 274.13 94.0665 274.13 94.563C274.13 94.6965 274.16 94.824 274.212 94.938C274.353 95.25 274.668 95.466 275.034 95.466C275.531 95.466 275.934 95.0595 275.934 94.563C275.934 94.0665 275.531 93.663 275.034 93.663Z" fill="#5EB9DB"/>
<g opacity="0.8">
<path opacity="0.8" d="M275.034 116.235C274.538 116.235 274.134 116.644 274.134 117.142C274.134 117.64 274.538 118.042 275.034 118.042C275.531 118.042 275.934 117.639 275.934 117.142V117.129C275.934 116.632 275.531 116.236 275.034 116.236V116.235Z" fill="#5EB9DB"/>
<path opacity="0.8" d="M275.034 112.473C274.538 112.473 274.134 112.882 274.134 113.38C274.134 113.878 274.538 114.28 275.034 114.28C275.531 114.28 275.934 113.877 275.934 113.38V113.367C275.934 112.87 275.531 112.474 275.034 112.474V112.473Z" fill="#5EB9DB"/>
<path opacity="0.8" d="M275.034 119.997C274.538 119.997 274.134 120.406 274.134 120.904C274.134 121.402 274.538 121.804 275.034 121.804C275.531 121.804 275.934 121.401 275.934 120.904V120.891C275.934 120.394 275.531 119.998 275.034 119.998V119.997Z" fill="#5EB9DB"/>
<path opacity="0.8" d="M275.034 104.949C274.538 104.949 274.134 105.358 274.134 105.856C274.134 106.354 274.538 106.756 275.034 106.756C275.531 106.756 275.934 106.353 275.934 105.856V105.843C275.934 105.346 275.531 104.95 275.034 104.95V104.949Z" fill="#5EB9DB"/>
<path opacity="0.8" d="M275.034 101.187C274.538 101.187 274.134 101.596 274.134 102.094C274.134 102.592 274.538 102.994 275.034 102.994C275.531 102.994 275.934 102.591 275.934 102.094V102.081C275.934 101.584 275.531 101.188 275.034 101.188V101.187Z" fill="#5EB9DB"/>
<path opacity="0.8" d="M275.034 108.711C274.538 108.711 274.134 109.12 274.134 109.618C274.134 110.116 274.538 110.518 275.034 110.518C275.531 110.518 275.934 110.115 275.934 109.618V109.605C275.934 109.108 275.531 108.712 275.034 108.712V108.711Z" fill="#5EB9DB"/>
<path opacity="0.8" d="M275.034 97.4249C274.538 97.4249 274.134 97.8344 274.134 98.3324C274.134 98.8304 274.538 99.2324 275.034 99.2324C275.531 99.2324 275.934 98.8289 275.934 98.3324V98.3189C275.934 97.8224 275.531 97.4264 275.034 97.4264V97.4249Z" fill="#5EB9DB"/>
</g>
<path opacity="0.8" d="M275.034 123.754C274.538 123.754 274.134 124.161 274.134 124.657C274.134 125.154 274.538 125.557 275.034 125.557C275.531 125.557 275.934 125.154 275.934 124.657V124.65C275.934 124.153 275.531 123.753 275.034 123.753V123.754Z" fill="#5EB9DB"/>
</g>
<path d="M275.042 123.759H275.034C274.538 123.759 274.137 124.163 274.137 124.659C274.137 125.156 274.544 125.559 275.04 125.559C275.537 125.559 275.941 125.156 275.941 124.659C275.941 124.163 275.537 123.759 275.04 123.759H275.042Z" fill="#5EB9DB"/>
<path d="M279.02 123.759H279.005C278.508 123.759 278.112 124.163 278.112 124.659C278.112 125.156 278.523 125.559 279.02 125.559C279.516 125.559 279.92 125.156 279.92 124.659C279.92 124.163 279.516 123.759 279.02 123.759Z" fill="#5EB9DB"/>
<path d="M286.979 123.759H286.964C286.467 123.759 286.071 124.163 286.071 124.659C286.071 125.156 286.482 125.559 286.979 125.559C287.475 125.559 287.879 125.156 287.879 124.659C287.879 124.163 287.475 123.759 286.979 123.759Z" fill="#5EB9DB"/>
<path d="M290.958 123.759H290.944C290.447 123.759 290.051 124.163 290.051 124.659C290.051 125.156 290.462 125.559 290.958 125.559C291.455 125.559 291.858 125.156 291.858 124.659C291.858 124.163 291.455 123.759 290.958 123.759Z" fill="#5EB9DB"/>
<path d="M282.999 123.759H282.984C282.488 123.759 282.092 124.163 282.092 124.659C282.092 125.156 282.503 125.559 282.999 125.559C283.496 125.559 283.899 125.156 283.899 124.659C283.899 124.163 283.496 123.759 282.999 123.759Z" fill="#5EB9DB"/>
<path d="M302.896 123.759H302.881C302.384 123.759 301.988 124.163 301.988 124.659C301.988 125.156 302.399 125.559 302.896 125.559C303.392 125.559 303.796 125.156 303.796 124.659C303.796 124.163 303.392 123.759 302.896 123.759Z" fill="#5EB9DB"/>
<path d="M298.916 123.759H298.901C298.404 123.759 298.008 124.163 298.008 124.659C298.008 125.156 298.419 125.559 298.916 125.559C299.412 125.559 299.816 125.156 299.816 124.659C299.816 124.163 299.412 123.759 298.916 123.759Z" fill="#5EB9DB"/>
<path d="M294.936 123.759H294.921C294.425 123.759 294.029 124.163 294.029 124.659C294.029 125.156 294.44 125.559 294.936 125.559C295.433 125.559 295.836 125.156 295.836 124.659C295.836 124.163 295.433 123.759 294.936 123.759Z" fill="#5EB9DB"/>
<path d="M306.868 123.755C306.736 123.755 306.611 123.783 306.499 123.834C306.183 123.974 305.964 124.29 305.964 124.658C305.964 125.154 306.371 125.558 306.868 125.558C307.364 125.558 307.768 125.148 307.768 124.65C307.768 124.152 307.364 123.753 306.868 123.753V123.755Z" fill="#5EB9DB"/>
<path d="M306.868 115.725C306.371 115.725 305.968 116.128 305.968 116.625V116.64C305.968 117.136 306.371 117.532 306.868 117.532C307.364 117.532 307.768 117.121 307.768 116.625C307.768 116.128 307.364 115.725 306.868 115.725Z" fill="#5EB9DB"/>
<path d="M306.868 119.739C306.371 119.739 305.968 120.143 305.968 120.639V120.654C305.968 121.151 306.371 121.547 306.868 121.547C307.364 121.547 307.768 121.136 307.768 120.639C307.768 120.143 307.364 119.739 306.868 119.739Z" fill="#5EB9DB"/>
<path d="M306.868 111.713C306.371 111.713 305.968 112.116 305.968 112.613V112.628C305.968 113.124 306.371 113.52 306.868 113.52C307.364 113.52 307.768 113.109 307.768 112.613C307.768 112.116 307.364 111.713 306.868 111.713Z" fill="#5EB9DB"/>
<path d="M306.868 107.698C306.371 107.698 305.968 108.102 305.968 108.598V108.613C305.968 109.11 306.371 109.506 306.868 109.506C307.364 109.506 307.768 109.095 307.768 108.598C307.768 108.102 307.364 107.698 306.868 107.698Z" fill="#5EB9DB"/>
<path d="M306.868 103.686C306.371 103.686 305.968 104.09 305.968 104.586V104.601C305.968 105.098 306.371 105.494 306.868 105.494C307.364 105.494 307.768 105.083 307.768 104.586C307.768 104.09 307.364 103.686 306.868 103.686Z" fill="#5EB9DB"/>
<path d="M306.868 99.672C306.371 99.672 305.968 100.075 305.968 100.572V100.587C305.968 101.083 306.371 101.479 306.868 101.479C307.364 101.479 307.768 101.068 307.768 100.572C307.768 100.075 307.364 99.672 306.868 99.672Z" fill="#5EB9DB"/>
<path d="M306.868 95.667C306.371 95.667 305.968 96.0705 305.968 96.567V96.5745C305.968 97.071 306.371 97.4715 306.868 97.4715C307.364 97.4715 307.768 97.065 307.768 96.5685C307.768 96.072 307.364 95.6685 306.868 95.6685V95.667Z" fill="#5EB9DB"/>
<path d="M284.018 112.322H249.722C247.028 112.322 244.845 114.788 244.845 117.828V134.066L237.234 141.185L252.488 141.176H284.019C286.713 141.176 288.896 138.71 288.896 135.669V117.828C288.896 114.788 286.712 112.322 284.019 112.322H284.018Z" fill="#5EB9DB"/>
<path d="M282.962 119.964H250.488V122.13H282.962V119.964Z" fill="white"/>
<path d="M282.962 125.742H250.488V127.908H282.962V125.742Z" fill="white"/>
<path d="M267.084 131.52H250.488V133.686H267.084V131.52Z" fill="white"/>
</g>
<defs>
<clipPath id="clip0_3125_17207">
<rect width="540" height="300" fill="white" transform="translate(-103)"/>
</clipPath>
</defs>
</svg>
