<svg width="80" height="83" viewBox="0 0 80 83" fill="none" xmlns="http://www.w3.org/2000/svg">
<path d="M4.99854 22.8325L23.666 4.16504H56.3342C57.6953 4.16504 58.8134 4.60256 59.6885 5.4776C60.5635 6.35264 61.001 7.47074 61.001 8.83191V36.8332H56.3342V8.83191H28.3329V22.8325C28.3329 24.0965 27.8468 25.2146 26.8745 26.1869C25.9995 27.0619 24.93 27.4994 23.666 27.4994H9.66541V74.1682H37.6667V78.835H9.81125C8.45008 78.835 7.28336 78.3489 6.31109 77.3766C5.43605 76.5016 4.99854 75.4321 4.99854 74.1682V22.8325ZM56.3342 60.1675V46.1669H61.001V60.1675H75.0017V64.8344H61.001V78.835H56.3342V64.8344H42.3335V60.1675H56.3342Z" fill="#3D5AFE"/>
</svg>
