<svg width="54" height="52" viewBox="0 0 54 52" fill="none" xmlns="http://www.w3.org/2000/svg">
<mask id="mask0_3155_11989" style="mask-type:alpha" maskUnits="userSpaceOnUse" x="11" y="0" width="32" height="32">
<path d="M20.1144 0L33.8856 0C37.0549 0 38.2041 0.329989 39.3628 0.949639C40.5214 1.56929 41.4307 2.4786 42.0504 3.63725C42.67 4.79589 43 5.94515 43 9.11444V22.8856C43 26.0549 42.67 27.2041 42.0504 28.3628C41.4307 29.5214 40.5214 30.4307 39.3628 31.0504C38.2041 31.67 37.0549 32 33.8856 32H20.1144C16.9452 32 15.7959 31.67 14.6372 31.0504C13.4786 30.4307 12.5693 29.5214 11.9496 28.3628C11.33 27.2041 11 26.0549 11 22.8856L11 9.11444C11 5.94515 11.33 4.79589 11.9496 3.63725C12.5693 2.4786 13.4786 1.56929 14.6372 0.949639C15.7959 0.329989 16.9452 0 20.1144 0Z" fill="white"/>
</mask>
<g mask="url(#mask0_3155_11989)">
<path d="M43 0H11V32H43V0Z" fill="#2A3EB1"/>
<path d="M27.4179 5.06272C27.1543 5.06875 26.9092 5.19934 26.7575 5.4146C26.6058 5.62987 26.5655 5.90423 26.649 6.15387C29.1991 14.152 31.1116 20.1507 32.3867 24.1498C32.4036 24.203 32.8952 23.9229 33.8614 23.3095L28.2323 5.65201C28.1244 5.29524 27.7912 5.05415 27.4179 5.06272ZM17.4737 6.73182C17.015 6.73182 16.6431 7.10294 16.6431 7.5607V16.0794C16.1484 16.3664 15.8125 16.8948 15.8125 17.5073V23.7239C15.8125 25.3163 17.1239 26.625 18.7195 26.625C19.8683 26.625 20.8605 25.9414 21.3313 24.9672H25.2441C25.7149 25.9414 26.7071 26.625 27.8559 26.625C29.4516 26.625 30.7629 25.3163 30.7629 23.7239C30.7629 22.9412 30.444 22.229 29.9324 21.7051V19.9939C29.9324 19.3814 29.5965 18.8531 29.1018 18.5661V18.5013C29.1018 17.7353 28.9496 16.9774 28.654 16.2704L25.7357 9.28322C25.0919 7.74077 23.5766 6.73182 21.9023 6.73182H17.4737ZM33.0833 16.4139L35.8176 15.5254C35.9161 15.4934 36.0219 15.5473 36.0539 15.6458L37.5603 20.2822C37.5923 20.3807 37.5384 20.4865 37.4399 20.5185L34.7056 21.4069C34.6072 21.4389 34.5014 21.385 34.4694 21.2865L32.9629 16.6501C32.9309 16.5516 32.9848 16.4459 33.0833 16.4139ZM31.1783 10.4464L33.9126 9.55794C34.0111 9.52594 34.1169 9.57984 34.1489 9.67832L35.6553 14.3147C35.6873 14.4132 35.6334 14.519 35.5349 14.551L32.8007 15.4394C32.7022 15.4714 32.5964 15.4175 32.5644 15.319L31.0579 10.6826C31.0259 10.5841 31.0798 10.4784 31.1783 10.4464ZM18.3042 8.38958H21.9023C22.9108 8.38958 23.8148 8.99018 24.2027 9.91946L27.121 16.9083C27.3107 17.3618 27.4046 17.8461 27.4244 18.3362H23.2877L22.1197 16.5878C21.8116 16.1261 21.2924 15.8495 20.7376 15.8495H18.3042V8.38958ZM18.7195 22.4806C19.4174 22.4806 19.9654 23.0274 19.9654 23.7239C19.9654 24.4204 19.4174 24.9672 18.7195 24.9672C18.0216 24.9672 17.4737 24.4204 17.4737 23.7239C17.4737 23.0274 18.0216 22.4806 18.7195 22.4806ZM27.8559 22.4806C28.5538 22.4806 29.1018 23.0274 29.1018 23.7239C29.1018 24.4204 28.5538 24.9672 27.8559 24.9672C27.158 24.9672 26.61 24.4204 26.61 23.7239C26.61 23.0274 27.158 22.4806 27.8559 22.4806Z" fill="white"/>
<path d="M37.9717 21.6158L32.9192 23.2575C32.4924 23.3961 32.2589 23.8545 32.3976 24.2813C32.5362 24.708 32.9946 24.9416 33.4214 24.8029L38.4739 23.1613C38.9006 23.0226 39.1342 22.5642 38.9955 22.1375C38.8569 21.7107 38.3985 21.4772 37.9717 21.6158Z" fill="white"/>
</g>
<path d="M2.771 39.7578V49H1.5459V39.7578H2.771ZM5.99561 43.5981V49H4.82129V42.1318H5.93213L5.99561 43.5981ZM5.71631 45.3057L5.22754 45.2866C5.23177 44.8169 5.3016 44.3831 5.43701 43.9854C5.57243 43.5833 5.76286 43.2342 6.0083 42.938C6.25374 42.6418 6.54574 42.4132 6.88428 42.2524C7.22705 42.0874 7.60579 42.0049 8.02051 42.0049C8.35905 42.0049 8.66374 42.0514 8.93457 42.1445C9.2054 42.2334 9.43604 42.3773 9.62646 42.5762C9.82113 42.7751 9.96924 43.0332 10.0708 43.3506C10.1724 43.6637 10.2231 44.0467 10.2231 44.4995V49H9.04248V44.4868C9.04248 44.1271 8.98958 43.8394 8.88379 43.6235C8.77799 43.4035 8.62354 43.2448 8.42041 43.1475C8.21729 43.0459 7.96761 42.9951 7.67139 42.9951C7.37939 42.9951 7.11279 43.0565 6.87158 43.1792C6.6346 43.3019 6.42936 43.4712 6.25586 43.687C6.08659 43.9028 5.95329 44.1504 5.85596 44.4297C5.76286 44.7048 5.71631 44.9967 5.71631 45.3057ZM14.0952 47.9399L15.9741 42.1318H17.1738L14.7046 49H13.9175L14.0952 47.9399ZM12.5273 42.1318L14.4634 47.9717L14.5967 49H13.8096L11.3213 42.1318H12.5273ZM21.0649 49.127C20.5868 49.127 20.153 49.0465 19.7637 48.8857C19.3786 48.7207 19.0464 48.4901 18.7671 48.1938C18.492 47.8976 18.2804 47.5464 18.1323 47.1401C17.9842 46.7339 17.9102 46.2896 17.9102 45.8071V45.5405C17.9102 44.9819 17.9927 44.4847 18.1577 44.0488C18.3228 43.6087 18.547 43.2363 18.8306 42.9316C19.1141 42.627 19.4357 42.3963 19.7954 42.2397C20.1551 42.0832 20.5275 42.0049 20.9126 42.0049C21.4035 42.0049 21.8267 42.0895 22.1821 42.2588C22.5418 42.4281 22.8359 42.665 23.0645 42.9697C23.293 43.2702 23.4622 43.6257 23.5723 44.0361C23.6823 44.4424 23.7373 44.8867 23.7373 45.3691V45.896H18.6084V44.9375H22.563V44.8486C22.5461 44.5439 22.4826 44.2477 22.3726 43.96C22.2668 43.6722 22.0975 43.4352 21.8647 43.249C21.632 43.0628 21.3146 42.9697 20.9126 42.9697C20.646 42.9697 20.4006 43.0269 20.1763 43.1411C19.952 43.2511 19.7594 43.4162 19.5986 43.6362C19.4378 43.8563 19.313 44.125 19.2241 44.4424C19.1353 44.7598 19.0908 45.1258 19.0908 45.5405V45.8071C19.0908 46.133 19.1353 46.4398 19.2241 46.7275C19.3172 47.0111 19.4505 47.2607 19.624 47.4766C19.8018 47.6924 20.0155 47.8617 20.2651 47.9844C20.519 48.1071 20.8068 48.1685 21.1284 48.1685C21.5431 48.1685 21.8944 48.0838 22.1821 47.9146C22.4699 47.7453 22.7217 47.5189 22.9375 47.2354L23.6484 47.8003C23.5003 48.0246 23.312 48.2383 23.0835 48.4414C22.855 48.6445 22.5736 48.8096 22.2393 48.9365C21.9092 49.0635 21.5177 49.127 21.0649 49.127ZM26.2827 43.5981V49H25.1084V42.1318H26.2192L26.2827 43.5981ZM26.0034 45.3057L25.5146 45.2866C25.5189 44.8169 25.5887 44.3831 25.7241 43.9854C25.8595 43.5833 26.05 43.2342 26.2954 42.938C26.5409 42.6418 26.8328 42.4132 27.1714 42.2524C27.5142 42.0874 27.8929 42.0049 28.3076 42.0049C28.6462 42.0049 28.9508 42.0514 29.2217 42.1445C29.4925 42.2334 29.7231 42.3773 29.9136 42.5762C30.1082 42.7751 30.2563 43.0332 30.3579 43.3506C30.4595 43.6637 30.5103 44.0467 30.5103 44.4995V49H29.3296V44.4868C29.3296 44.1271 29.2767 43.8394 29.1709 43.6235C29.0651 43.4035 28.9106 43.2448 28.7075 43.1475C28.5044 43.0459 28.2547 42.9951 27.9585 42.9951C27.6665 42.9951 27.3999 43.0565 27.1587 43.1792C26.9217 43.3019 26.7165 43.4712 26.543 43.687C26.3737 43.9028 26.2404 44.1504 26.1431 44.4297C26.05 44.7048 26.0034 44.9967 26.0034 45.3057ZM35.1694 42.1318V43.0332H31.4561V42.1318H35.1694ZM32.7129 40.4624H33.8872V47.2988C33.8872 47.5316 33.9232 47.7072 33.9951 47.8257C34.0671 47.9442 34.1602 48.0225 34.2744 48.0605C34.3887 48.0986 34.5114 48.1177 34.6426 48.1177C34.7399 48.1177 34.8415 48.1092 34.9473 48.0923C35.0573 48.0711 35.1398 48.0542 35.1948 48.0415L35.2012 49C35.1081 49.0296 34.9854 49.0571 34.833 49.0825C34.6849 49.1121 34.505 49.127 34.2935 49.127C34.0057 49.127 33.7412 49.0698 33.5 48.9556C33.2588 48.8413 33.0662 48.6509 32.9224 48.3843C32.7827 48.1134 32.7129 47.7495 32.7129 47.2925V40.4624ZM36.1089 45.6421V45.4961C36.1089 45.001 36.1808 44.5418 36.3247 44.1187C36.4686 43.6912 36.6759 43.321 36.9468 43.0078C37.2176 42.6904 37.5456 42.445 37.9307 42.2715C38.3158 42.0938 38.7474 42.0049 39.2256 42.0049C39.708 42.0049 40.1418 42.0938 40.5269 42.2715C40.9162 42.445 41.2463 42.6904 41.5171 43.0078C41.7922 43.321 42.0016 43.6912 42.1455 44.1187C42.2894 44.5418 42.3613 45.001 42.3613 45.4961V45.6421C42.3613 46.1372 42.2894 46.5964 42.1455 47.0195C42.0016 47.4427 41.7922 47.813 41.5171 48.1304C41.2463 48.4435 40.9183 48.689 40.5332 48.8667C40.1523 49.0402 39.7207 49.127 39.2383 49.127C38.7559 49.127 38.3221 49.0402 37.937 48.8667C37.5519 48.689 37.2218 48.4435 36.9468 48.1304C36.6759 47.813 36.4686 47.4427 36.3247 47.0195C36.1808 46.5964 36.1089 46.1372 36.1089 45.6421ZM37.2832 45.4961V45.6421C37.2832 45.9849 37.3234 46.3086 37.4038 46.6133C37.4842 46.9137 37.6048 47.1803 37.7656 47.4131C37.9307 47.6458 38.1359 47.8299 38.3813 47.9653C38.6268 48.0965 38.9124 48.1621 39.2383 48.1621C39.5599 48.1621 39.8413 48.0965 40.0825 47.9653C40.328 47.8299 40.5311 47.6458 40.6919 47.4131C40.8527 47.1803 40.9733 46.9137 41.0537 46.6133C41.1383 46.3086 41.1807 45.9849 41.1807 45.6421V45.4961C41.1807 45.1576 41.1383 44.8381 41.0537 44.5376C40.9733 44.2329 40.8506 43.9642 40.6855 43.7314C40.5247 43.4945 40.3216 43.3083 40.0762 43.1729C39.835 43.0374 39.5514 42.9697 39.2256 42.9697C38.904 42.9697 38.6204 43.0374 38.375 43.1729C38.1338 43.3083 37.9307 43.4945 37.7656 43.7314C37.6048 43.9642 37.4842 44.2329 37.4038 44.5376C37.3234 44.8381 37.2832 45.1576 37.2832 45.4961ZM45.0083 43.2109V49H43.834V42.1318H44.9766L45.0083 43.2109ZM47.1538 42.0938L47.1475 43.1855C47.0501 43.1644 46.957 43.1517 46.8682 43.1475C46.7835 43.139 46.6862 43.1348 46.5762 43.1348C46.3053 43.1348 46.0662 43.1771 45.8589 43.2617C45.6515 43.3464 45.4759 43.4648 45.332 43.6172C45.1882 43.7695 45.0739 43.9515 44.9893 44.1631C44.9089 44.3704 44.856 44.599 44.8306 44.8486L44.5005 45.0391C44.5005 44.6243 44.5407 44.235 44.6211 43.8711C44.7057 43.5072 44.8348 43.1855 45.0083 42.9062C45.1818 42.6227 45.4019 42.4027 45.6685 42.2461C45.9393 42.0853 46.2609 42.0049 46.6333 42.0049C46.7179 42.0049 46.8153 42.0155 46.9253 42.0366C47.0353 42.0535 47.1115 42.0726 47.1538 42.0938ZM50.2832 48.2891L52.1938 42.1318H53.4507L50.6958 50.0601C50.6323 50.2293 50.5477 50.4113 50.4419 50.606C50.3403 50.8049 50.2091 50.9932 50.0483 51.1709C49.8875 51.3486 49.6929 51.4925 49.4644 51.6025C49.2401 51.7168 48.9714 51.7739 48.6582 51.7739C48.5651 51.7739 48.4466 51.7612 48.3027 51.7358C48.1589 51.7104 48.0573 51.6893 47.998 51.6724L47.9917 50.7202C48.0256 50.7244 48.0785 50.7287 48.1504 50.7329C48.2266 50.7414 48.2795 50.7456 48.3091 50.7456C48.5757 50.7456 48.8021 50.7096 48.9883 50.6377C49.1745 50.57 49.3311 50.4536 49.458 50.2886C49.5892 50.1278 49.7013 49.9056 49.7944 49.6221L50.2832 48.2891ZM48.8804 42.1318L50.6641 47.4639L50.9688 48.7017L50.1245 49.1333L47.5981 42.1318H48.8804Z" fill="#757575"/>
</svg>
