<svg width="62" height="52" viewBox="0 0 62 52" fill="none" xmlns="http://www.w3.org/2000/svg">
<path d="M40 0H22C18.134 0 15 3.13401 15 7V25C15 28.866 18.134 32 22 32H40C43.866 32 47 28.866 47 25V7C47 3.13401 43.866 0 40 0Z" fill="#2A3EB1"/>
<path d="M25.3982 14.2893C26.0026 14.2076 26.607 14.4165 27.0355 14.8478L27.6054 15.4214C27.8881 15.7061 28.3484 15.7066 28.6318 15.4226V15.4226C28.9138 15.14 28.9139 14.6826 28.6322 14.3998L27.6625 13.4267C27.4324 13.1951 27.4324 12.8183 27.6625 12.5867C27.8925 12.3551 28.2669 12.3551 28.4969 12.5867L29.4633 13.5595C29.7463 13.8444 30.2069 13.8449 30.4905 13.5606V13.5606C30.7724 13.2782 30.7729 12.821 30.4917 12.5379L29.9132 11.9556C29.4847 11.5243 29.2772 10.9113 29.3584 10.3074C29.5388 8.92716 29.1013 7.48332 28.0504 6.42087C26.9769 5.34026 25.5064 4.90439 24.1127 5.11324C23.8917 5.14503 23.8015 5.42199 23.9593 5.5809L25.3531 6.98388C26.0161 7.65131 26.0161 8.73192 25.3531 9.39482L24.4961 10.2575C23.833 10.9249 22.7595 10.9249 22.101 10.2575L20.7027 8.85451C20.5449 8.6956 20.2742 8.78641 20.2382 9.00889C20.0307 10.4119 20.4637 11.892 21.5372 12.9726C22.5926 14.0305 24.027 14.471 25.3982 14.2893Z" fill="white"/>
<path d="M34.5853 16.6358C34.3031 16.3535 33.8456 16.353 33.5628 16.6347V16.6347C33.2793 16.9171 33.2788 17.3761 33.5617 17.6591L39.1391 23.2381C39.3695 23.4686 39.3695 23.8437 39.1391 24.0741C38.9087 24.3046 38.5337 24.3046 38.3033 24.0741L32.7239 18.4932C32.4418 18.2109 31.9843 18.2104 31.7015 18.492V18.492C31.4179 18.7745 31.4174 19.2334 31.7004 19.5165L37.463 25.2807C38.2581 26.0761 39.5457 26.0716 40.3408 25.2762C41.136 24.4809 41.136 23.1929 40.3453 22.3975L34.5853 16.6358Z" fill="white"/>
<path d="M35.6276 12.8015C36.1195 12.3101 36.7863 12.034 37.4816 12.034V12.034C38.4759 12.034 39.3848 11.4718 39.8287 10.5821L41.3862 7.46066C41.6411 6.94997 41.5412 6.3336 41.1382 5.92944V5.92944C40.7338 5.52384 40.115 5.42311 39.6028 5.67952L36.4977 7.23396C35.6065 7.68006 35.0438 8.59114 35.0438 9.58768V9.58768C35.0438 10.2859 34.7664 10.9554 34.2726 11.4491L28.3443 17.3763C27.9787 17.7418 27.3861 17.7419 27.0205 17.3765V17.3765C26.6545 17.0107 26.0612 17.0112 25.6958 17.3776L21.022 22.0649C19.9097 23.1804 19.9097 24.9853 21.022 26.1008C22.1343 27.2164 23.934 27.2164 25.0463 26.1008L29.7065 21.4271C30.0798 21.0527 30.0798 20.4469 29.7065 20.0725V20.0725C29.3327 19.6976 29.3333 19.0908 29.7078 18.7166L35.6276 12.8015Z" fill="white"/>
<path d="M3.69873 46.207L5.5332 39.7578H6.42188L5.90771 42.2651L3.93359 49H3.05127L3.69873 46.207ZM1.80078 39.7578L3.26074 46.0801L3.69873 49H2.82275L0.582031 39.7578H1.80078ZM8.7959 46.0737L10.2241 39.7578H11.4492L9.21484 49H8.33887L8.7959 46.0737ZM6.55518 39.7578L8.33887 46.207L8.98633 49H8.104L6.19971 42.2651L5.6792 39.7578H6.55518ZM12.1157 45.6421V45.4961C12.1157 45.001 12.1877 44.5418 12.3315 44.1187C12.4754 43.6912 12.6828 43.321 12.9536 43.0078C13.2244 42.6904 13.5524 42.445 13.9375 42.2715C14.3226 42.0938 14.7542 42.0049 15.2324 42.0049C15.7148 42.0049 16.1486 42.0938 16.5337 42.2715C16.923 42.445 17.2531 42.6904 17.5239 43.0078C17.799 43.321 18.0085 43.6912 18.1523 44.1187C18.2962 44.5418 18.3682 45.001 18.3682 45.4961V45.6421C18.3682 46.1372 18.2962 46.5964 18.1523 47.0195C18.0085 47.4427 17.799 47.813 17.5239 48.1304C17.2531 48.4435 16.9251 48.689 16.54 48.8667C16.1592 49.0402 15.7275 49.127 15.2451 49.127C14.7627 49.127 14.3289 49.0402 13.9438 48.8667C13.5588 48.689 13.2287 48.4435 12.9536 48.1304C12.6828 47.813 12.4754 47.4427 12.3315 47.0195C12.1877 46.5964 12.1157 46.1372 12.1157 45.6421ZM13.29 45.4961V45.6421C13.29 45.9849 13.3302 46.3086 13.4106 46.6133C13.491 46.9137 13.6117 47.1803 13.7725 47.4131C13.9375 47.6458 14.1427 47.8299 14.3882 47.9653C14.6336 48.0965 14.9193 48.1621 15.2451 48.1621C15.5667 48.1621 15.8481 48.0965 16.0894 47.9653C16.3348 47.8299 16.5379 47.6458 16.6987 47.4131C16.8595 47.1803 16.9801 46.9137 17.0605 46.6133C17.1452 46.3086 17.1875 45.9849 17.1875 45.6421V45.4961C17.1875 45.1576 17.1452 44.8381 17.0605 44.5376C16.9801 44.2329 16.8574 43.9642 16.6924 43.7314C16.5316 43.4945 16.3285 43.3083 16.083 43.1729C15.8418 43.0374 15.5583 42.9697 15.2324 42.9697C14.9108 42.9697 14.6273 43.0374 14.3818 43.1729C14.1406 43.3083 13.9375 43.4945 13.7725 43.7314C13.6117 43.9642 13.491 44.2329 13.4106 44.5376C13.3302 44.8381 13.29 45.1576 13.29 45.4961ZM21.0151 43.2109V49H19.8408V42.1318H20.9834L21.0151 43.2109ZM23.1606 42.0938L23.1543 43.1855C23.057 43.1644 22.9639 43.1517 22.875 43.1475C22.7904 43.139 22.693 43.1348 22.583 43.1348C22.3122 43.1348 22.0731 43.1771 21.8657 43.2617C21.6584 43.3464 21.4827 43.4648 21.3389 43.6172C21.195 43.7695 21.0807 43.9515 20.9961 44.1631C20.9157 44.3704 20.8628 44.599 20.8374 44.8486L20.5073 45.0391C20.5073 44.6243 20.5475 44.235 20.6279 43.8711C20.7126 43.5072 20.8416 43.1855 21.0151 42.9062C21.1886 42.6227 21.4087 42.4027 21.6753 42.2461C21.9461 42.0853 22.2677 42.0049 22.6401 42.0049C22.7248 42.0049 22.8221 42.0155 22.9321 42.0366C23.0422 42.0535 23.1183 42.0726 23.1606 42.0938ZM25.4268 39.25V49H24.2461V39.25H25.4268ZM29.6226 42.1318L26.6265 45.3374L24.9507 47.0767L24.8555 45.8262L26.0552 44.3916L28.188 42.1318H29.6226ZM28.5498 49L26.0996 45.7246L26.709 44.6772L29.9336 49H28.5498ZM38.1284 44.0869V44.6709C38.1284 45.3649 38.0417 45.987 37.8682 46.5371C37.6947 47.0872 37.445 47.5549 37.1191 47.9399C36.7933 48.325 36.4019 48.6191 35.9448 48.8223C35.492 49.0254 34.9842 49.127 34.4214 49.127C33.8755 49.127 33.374 49.0254 32.917 48.8223C32.4642 48.6191 32.0706 48.325 31.7363 47.9399C31.4062 47.5549 31.1502 47.0872 30.9683 46.5371C30.7863 45.987 30.6953 45.3649 30.6953 44.6709V44.0869C30.6953 43.3929 30.7842 42.7729 30.9619 42.2271C31.1439 41.6769 31.3999 41.2093 31.73 40.8242C32.0601 40.4349 32.4515 40.1387 32.9043 39.9355C33.3613 39.7324 33.8628 39.6309 34.4087 39.6309C34.9715 39.6309 35.4793 39.7324 35.9321 39.9355C36.3892 40.1387 36.7806 40.4349 37.1064 40.8242C37.4365 41.2093 37.6883 41.6769 37.8618 42.2271C38.0396 42.7729 38.1284 43.3929 38.1284 44.0869ZM36.916 44.6709V44.0742C36.916 43.5241 36.8589 43.0374 36.7446 42.6143C36.6346 42.1911 36.4717 41.8356 36.2559 41.5479C36.04 41.2601 35.7756 41.0422 35.4624 40.894C35.1535 40.7459 34.8022 40.6719 34.4087 40.6719C34.0278 40.6719 33.6829 40.7459 33.374 40.894C33.0693 41.0422 32.807 41.2601 32.5869 41.5479C32.3711 41.8356 32.2039 42.1911 32.0854 42.6143C31.967 43.0374 31.9077 43.5241 31.9077 44.0742V44.6709C31.9077 45.2253 31.967 45.7161 32.0854 46.1436C32.2039 46.5667 32.3732 46.9243 32.5933 47.2163C32.8175 47.5041 33.082 47.722 33.3867 47.8701C33.6956 48.0182 34.0405 48.0923 34.4214 48.0923C34.8192 48.0923 35.1725 48.0182 35.4814 47.8701C35.7904 47.722 36.0506 47.5041 36.2622 47.2163C36.478 46.9243 36.641 46.5667 36.751 46.1436C36.861 45.7161 36.916 45.2253 36.916 44.6709ZM40.9595 43.2109V49H39.7852V42.1318H40.9277L40.9595 43.2109ZM43.105 42.0938L43.0986 43.1855C43.0013 43.1644 42.9082 43.1517 42.8193 43.1475C42.7347 43.139 42.6374 43.1348 42.5273 43.1348C42.2565 43.1348 42.0174 43.1771 41.8101 43.2617C41.6027 43.3464 41.4271 43.4648 41.2832 43.6172C41.1393 43.7695 41.0251 43.9515 40.9404 44.1631C40.86 44.3704 40.8071 44.599 40.7817 44.8486L40.4517 45.0391C40.4517 44.6243 40.4919 44.235 40.5723 43.8711C40.6569 43.5072 40.786 43.1855 40.9595 42.9062C41.133 42.6227 41.353 42.4027 41.6196 42.2461C41.8905 42.0853 42.2121 42.0049 42.5845 42.0049C42.6691 42.0049 42.7664 42.0155 42.8765 42.0366C42.9865 42.0535 43.0627 42.0726 43.105 42.0938ZM48.3926 47.667V39.25H49.5732V49H48.4941L48.3926 47.667ZM43.7715 45.6421V45.5088C43.7715 44.984 43.835 44.508 43.9619 44.0806C44.0931 43.6489 44.2772 43.2786 44.5142 42.9697C44.7554 42.6608 45.041 42.4238 45.3711 42.2588C45.7054 42.0895 46.0778 42.0049 46.4883 42.0049C46.9199 42.0049 47.2965 42.0811 47.6182 42.2334C47.944 42.3815 48.2191 42.5994 48.4434 42.8872C48.6719 43.1707 48.8517 43.5135 48.9829 43.9155C49.1141 44.3175 49.2051 44.7725 49.2559 45.2803V45.8643C49.2093 46.3678 49.1183 46.8206 48.9829 47.2227C48.8517 47.6247 48.6719 47.9674 48.4434 48.251C48.2191 48.5345 47.944 48.7524 47.6182 48.9048C47.2923 49.0529 46.9115 49.127 46.4756 49.127C46.0736 49.127 45.7054 49.0402 45.3711 48.8667C45.041 48.6932 44.7554 48.4499 44.5142 48.1367C44.2772 47.8236 44.0931 47.4554 43.9619 47.0322C43.835 46.6048 43.7715 46.1414 43.7715 45.6421ZM44.9521 45.5088V45.6421C44.9521 45.9849 44.986 46.3065 45.0537 46.6069C45.1257 46.9074 45.2357 47.1719 45.3838 47.4004C45.5319 47.6289 45.7202 47.8088 45.9487 47.9399C46.1772 48.0669 46.4502 48.1304 46.7676 48.1304C47.1569 48.1304 47.4764 48.0479 47.7261 47.8828C47.98 47.7178 48.1831 47.4998 48.3354 47.229C48.4878 46.9582 48.6063 46.6641 48.6909 46.3467V44.8169C48.6401 44.5841 48.5661 44.3599 48.4688 44.144C48.3757 43.924 48.2529 43.7293 48.1006 43.5601C47.9525 43.3866 47.7684 43.249 47.5483 43.1475C47.3325 43.0459 47.0765 42.9951 46.7803 42.9951C46.4587 42.9951 46.1815 43.0628 45.9487 43.1982C45.7202 43.3294 45.5319 43.5114 45.3838 43.7441C45.2357 43.9727 45.1257 44.2393 45.0537 44.5439C44.986 44.8444 44.9521 45.166 44.9521 45.5088ZM54.2515 49.127C53.7733 49.127 53.3395 49.0465 52.9502 48.8857C52.5651 48.7207 52.2329 48.4901 51.9536 48.1938C51.6785 47.8976 51.467 47.5464 51.3188 47.1401C51.1707 46.7339 51.0967 46.2896 51.0967 45.8071V45.5405C51.0967 44.9819 51.1792 44.4847 51.3442 44.0488C51.5093 43.6087 51.7336 43.2363 52.0171 42.9316C52.3006 42.627 52.6222 42.3963 52.9819 42.2397C53.3416 42.0832 53.714 42.0049 54.0991 42.0049C54.59 42.0049 55.0132 42.0895 55.3687 42.2588C55.7284 42.4281 56.0225 42.665 56.251 42.9697C56.4795 43.2702 56.6488 43.6257 56.7588 44.0361C56.8688 44.4424 56.9238 44.8867 56.9238 45.3691V45.896H51.7949V44.9375H55.7495V44.8486C55.7326 44.5439 55.6691 44.2477 55.5591 43.96C55.4533 43.6722 55.284 43.4352 55.0513 43.249C54.8185 43.0628 54.5011 42.9697 54.0991 42.9697C53.8325 42.9697 53.5871 43.0269 53.3628 43.1411C53.1385 43.2511 52.946 43.4162 52.7852 43.6362C52.6243 43.8563 52.4995 44.125 52.4106 44.4424C52.3218 44.7598 52.2773 45.1258 52.2773 45.5405V45.8071C52.2773 46.133 52.3218 46.4398 52.4106 46.7275C52.5037 47.0111 52.637 47.2607 52.8105 47.4766C52.9883 47.6924 53.202 47.8617 53.4517 47.9844C53.7056 48.1071 53.9933 48.1685 54.3149 48.1685C54.7297 48.1685 55.0809 48.0838 55.3687 47.9146C55.6564 47.7453 55.9082 47.5189 56.124 47.2354L56.835 47.8003C56.6868 48.0246 56.4985 48.2383 56.27 48.4414C56.0415 48.6445 55.7601 48.8096 55.4258 48.9365C55.0957 49.0635 54.7043 49.127 54.2515 49.127ZM59.4692 43.2109V49H58.2949V42.1318H59.4375L59.4692 43.2109ZM61.6147 42.0938L61.6084 43.1855C61.5111 43.1644 61.418 43.1517 61.3291 43.1475C61.2445 43.139 61.1471 43.1348 61.0371 43.1348C60.7663 43.1348 60.5272 43.1771 60.3198 43.2617C60.1125 43.3464 59.9368 43.4648 59.793 43.6172C59.6491 43.7695 59.5348 43.9515 59.4502 44.1631C59.3698 44.3704 59.3169 44.599 59.2915 44.8486L58.9614 45.0391C58.9614 44.6243 59.0016 44.235 59.082 43.8711C59.1667 43.5072 59.2957 43.1855 59.4692 42.9062C59.6427 42.6227 59.8628 42.4027 60.1294 42.2461C60.4002 42.0853 60.7218 42.0049 61.0942 42.0049C61.1789 42.0049 61.2762 42.0155 61.3862 42.0366C61.4963 42.0535 61.5724 42.0726 61.6147 42.0938Z" fill="#757575"/>
</svg>
