<svg width="33" height="53" viewBox="0 0 33 53" fill="none" xmlns="http://www.w3.org/2000/svg">
<mask id="mask0_3155_11963" style="mask-type:alpha" maskUnits="userSpaceOnUse" x="0" y="0" width="33" height="32">
<path d="M9.61444 0L23.3856 0C26.5549 0 27.7041 0.329989 28.8628 0.949639C30.0214 1.56929 30.9307 2.4786 31.5504 3.63725C32.17 4.79589 32.5 5.94515 32.5 9.11444V22.8856C32.5 26.0549 32.17 27.2041 31.5504 28.3628C30.9307 29.5214 30.0214 30.4307 28.8628 31.0504C27.7041 31.67 26.5549 32 23.3856 32H9.61444C6.44515 32 5.29589 31.67 4.13725 31.0504C2.9786 30.4307 2.06929 29.5214 1.44964 28.3628C0.829989 27.2041 0.5 26.0549 0.5 22.8856L0.5 9.11444C0.5 5.94515 0.829989 4.79589 1.44964 3.63725C2.06929 2.4786 2.9786 1.56929 4.13725 0.949639C5.29589 0.329989 6.44515 0 9.61444 0Z" fill="white"/>
</mask>
<g mask="url(#mask0_3155_11963)">
<g filter="url(#filter0_d_3155_11963)">
<path d="M9.61444 0L23.3856 0C26.5549 0 27.7041 0.329989 28.8628 0.949639C30.0214 1.56929 30.9307 2.4786 31.5504 3.63725C32.17 4.79589 32.5 5.94515 32.5 9.11444V22.8856C32.5 26.0549 32.17 27.2041 31.5504 28.3628C30.9307 29.5214 30.0214 30.4307 28.8628 31.0504C27.7041 31.67 26.5549 32 23.3856 32H9.61444C6.44515 32 5.29589 31.67 4.13725 31.0504C2.9786 30.4307 2.06929 29.5214 1.44964 28.3628C0.829989 27.2041 0.5 26.0549 0.5 22.8856L0.5 9.11444C0.5 5.94515 0.829989 4.79589 1.44964 3.63725C2.06929 2.4786 2.9786 1.56929 4.13725 0.949639C5.29589 0.329989 6.44515 0 9.61444 0Z" fill="black"/>
</g>
<path d="M32.5 0H0.5V32H32.5V0Z" fill="#2A3EB1"/>
<path d="M20.3993 25.8716C20.6939 25.8716 20.9326 25.6328 20.9326 25.3383C20.9326 25.0437 20.6939 24.8049 20.3993 24.8049C20.1047 24.8049 19.866 25.0437 19.866 25.3383C19.866 25.6328 20.1047 25.8716 20.3993 25.8716Z" fill="white"/>
<path d="M24.4173 5.25H16.381C15.4383 5.25107 14.6744 6.02614 14.6733 6.98258V7.69599V8.30749V22.8815H26.125V8.30749V7.69599V6.98258C26.1239 6.02614 25.36 5.25107 24.4173 5.25Z" fill="white"/>
<path d="M14.6733 25.1418C14.6744 26.0641 15.4383 26.8115 16.381 26.8125H24.4173C25.36 26.8115 26.1239 26.0641 26.125 25.1418V23.8643H14.6733V25.1418ZM20.3992 24.3065C20.9817 24.3065 21.4539 24.7685 21.4539 25.3384C21.4539 25.9083 20.9817 26.3703 20.3992 26.3703C19.8166 26.3703 19.3444 25.9083 19.3444 25.3384C19.3451 24.7687 19.8169 24.3071 20.3992 24.3065Z" fill="white"/>
<path d="M12.1504 8.49097C12.0034 8.49097 11.9055 8.63801 11.7585 8.73603L11.5135 10.4025C11.1216 10.5495 10.7297 10.7946 10.3378 11.0397L8.6721 10.4025C8.52513 10.4025 8.42715 10.4025 8.28018 10.5495L7.00643 12.7061C6.85946 12.8531 7.00643 12.9512 7.1534 13.0982L8.57412 14.0785V15.3528L7.1534 16.3821C7.00643 16.6272 7.00643 16.7742 7.00643 16.8722L8.28018 19.0288C8.42715 19.1758 8.52513 19.2739 8.6721 19.1758L10.4847 18.6857C10.8767 18.9308 11.2686 19.1758 11.6115 19.3229L11.8565 20.9893C11.7095 21.1364 12.0034 21.2344 12.1014 21.2344H13.3752V17.4114C12.0034 17.4114 10.8277 16.2351 10.8277 14.8627C10.8277 13.4903 11.9545 12.314 13.3752 12.314V8.58899V8.53998H12.1504V8.49097Z" fill="white"/>
</g>
<path d="M1.43701 40.7578H4.49658C5.19059 40.7578 5.77669 40.8636 6.25488 41.0752C6.7373 41.2868 7.10335 41.5999 7.35303 42.0146C7.60693 42.4251 7.73389 42.9308 7.73389 43.5317C7.73389 43.9549 7.64714 44.3421 7.47363 44.6934C7.30436 45.0404 7.05892 45.3366 6.7373 45.582C6.41992 45.8232 6.03906 46.0031 5.59473 46.1216L5.25195 46.2549H2.37646L2.36377 45.2583H4.53467C4.97477 45.2583 5.34082 45.1821 5.63281 45.0298C5.9248 44.8732 6.14486 44.6637 6.29297 44.4014C6.44108 44.139 6.51514 43.8491 6.51514 43.5317C6.51514 43.1763 6.44531 42.8652 6.30566 42.5986C6.16602 42.332 5.94596 42.1268 5.64551 41.9829C5.34928 41.8348 4.96631 41.7607 4.49658 41.7607H2.66211V50H1.43701V40.7578ZM6.83887 50L4.5918 45.8105L5.86768 45.8042L8.14648 49.9238V50H6.83887ZM12.8691 41.5767L9.80957 50H8.55908L12.082 40.7578H12.8882L12.8691 41.5767ZM15.4336 50L12.3677 41.5767L12.3486 40.7578H13.1548L16.6904 50H15.4336ZM15.2749 46.5786V47.5815H10.0825V46.5786H15.2749ZM23.4316 47.061H24.6504C24.5869 47.645 24.4198 48.1676 24.1489 48.6289C23.8781 49.0902 23.4951 49.4562 23 49.7271C22.5049 49.9937 21.887 50.127 21.1465 50.127C20.6048 50.127 20.1118 50.0254 19.6675 49.8223C19.2274 49.6191 18.8486 49.3314 18.5312 48.959C18.2139 48.5824 17.9684 48.1317 17.7949 47.6069C17.6257 47.078 17.541 46.4897 17.541 45.8423V44.9219C17.541 44.2744 17.6257 43.6883 17.7949 43.1636C17.9684 42.6346 18.216 42.1818 18.5376 41.8052C18.8634 41.4285 19.2549 41.1387 19.7119 40.9355C20.1689 40.7324 20.6831 40.6309 21.2544 40.6309C21.9526 40.6309 22.543 40.762 23.0254 41.0244C23.5078 41.2868 23.8823 41.6507 24.1489 42.1162C24.4198 42.5775 24.5869 43.1128 24.6504 43.7222H23.4316C23.3724 43.2905 23.2624 42.9202 23.1016 42.6113C22.9408 42.2982 22.7122 42.057 22.416 41.8877C22.1198 41.7184 21.7326 41.6338 21.2544 41.6338C20.8439 41.6338 20.4821 41.7121 20.1689 41.8687C19.86 42.0252 19.5998 42.2474 19.3882 42.5352C19.1808 42.8229 19.0243 43.1678 18.9185 43.5698C18.8127 43.9718 18.7598 44.4183 18.7598 44.9092V45.8423C18.7598 46.2951 18.8063 46.7204 18.8994 47.1182C18.9967 47.516 19.1427 47.8651 19.3374 48.1655C19.5321 48.466 19.7796 48.703 20.0801 48.8765C20.3805 49.0457 20.736 49.1304 21.1465 49.1304C21.667 49.1304 22.0817 49.0479 22.3906 48.8828C22.6995 48.7178 22.9323 48.4808 23.0889 48.1719C23.2497 47.863 23.3639 47.4927 23.4316 47.061ZM32.1914 49.0034V50H27.2974V49.0034H32.1914ZM27.5449 40.7578V50H26.3198V40.7578H27.5449ZM31.5439 44.7314V45.728H27.2974V44.7314H31.5439ZM32.1279 40.7578V41.7607H27.2974V40.7578H32.1279Z" fill="#757575"/>
<defs>
<filter id="filter0_d_3155_11963" x="-14.5" y="-15" width="62" height="62" filterUnits="userSpaceOnUse" color-interpolation-filters="sRGB">
<feFlood flood-opacity="0" result="BackgroundImageFix"/>
<feColorMatrix in="SourceAlpha" type="matrix" values="0 0 0 0 0 0 0 0 0 0 0 0 0 0 0 0 0 0 127 0" result="hardAlpha"/>
<feOffset/>
<feGaussianBlur stdDeviation="7.5"/>
<feColorMatrix type="matrix" values="0 0 0 0 0 0 0 0 0 0 0 0 0 0 0 0 0 0 0.2 0"/>
<feBlend mode="normal" in2="BackgroundImageFix" result="effect1_dropShadow_3155_11963"/>
<feBlend mode="normal" in="SourceGraphic" in2="effect1_dropShadow_3155_11963" result="shape"/>
</filter>
</defs>
</svg>
