<svg width="24" height="24" viewBox="0 0 24 24" fill="none" xmlns="http://www.w3.org/2000/svg">
<path d="M1 18H9C9.55 18 10 17.55 10 17C10 16.45 9.55 16 9 16H1C0.45 16 0 16.45 0 17C0 17.55 0.45 18 1 18ZM14 6.21V11.8C14 12.25 14.54 12.47 14.85 12.15L17.64 9.36C17.84 9.16 17.84 8.85 17.64 8.65L14.85 5.85C14.54 5.54 14 5.76 14 6.21ZM1 14H9C9.55 14 10 13.55 10 13C10 12.45 9.55 12 9 12H1C0.45 12 0 12.45 0 13C0 13.55 0.45 14 1 14ZM0 1C0 1.55 0.45 2 1 2H9C9.55 2 10 1.55 10 1C10 0.45 9.55 0 9 0H1C0.45 0 0 0.45 0 1ZM1 6H9C9.55 6 10 5.55 10 5C10 4.45 9.55 4 9 4H1C0.45 4 0 4.45 0 5C0 5.55 0.45 6 1 6ZM1 10H9C9.55 10 10 9.55 10 9C10 8.45 9.55 8 9 8H1C0.45 8 0 8.45 0 9C0 9.55 0.45 10 1 10Z" fill="#3D5AFE"/>
</svg>
