<svg width="24" height="24" viewBox="0 0 24 24" fill="none" xmlns="http://www.w3.org/2000/svg">
<path d="M12 21H20C20.55 21 21 20.55 21 20C21 19.45 20.55 19 20 19H12C11.45 19 11 19.45 11 20C11 20.55 11.45 21 12 21ZM12 17H20C20.55 17 21 16.55 21 16C21 15.45 20.55 15 20 15H12C11.45 15 11 15.45 11 16C11 16.55 11.45 17 12 17ZM11 4C11 4.55 11.45 5 12 5H20C20.55 5 21 4.55 21 4C21 3.45 20.55 3 20 3H12C11.45 3 11 3.45 11 4ZM12 9H20C20.55 9 21 8.55 21 8C21 7.45 20.55 7 20 7H12C11.45 7 11 7.45 11 8C11 8.55 11.45 9 12 9ZM12 13H20C20.55 13 21 12.55 21 12C21 11.45 20.55 11 20 11H12C11.45 11 11 11.45 11 12C11 12.55 11.45 13 12 13Z" fill="#3D5AFE"/>
<path d="M6.14002 15.14L3.35001 12.35C3.16001 12.16 3.16001 11.84 3.36001 11.65L6.15002 8.86C6.46002 8.54 7.00002 8.76 7.00002 9.21V14.79C7.00002 15.24 6.46002 15.46 6.14002 15.14Z" fill="#3D5AFE"/>
</svg>
