<svg width="57" height="57" viewBox="0 0 57 57" fill="none" xmlns="http://www.w3.org/2000/svg">
<g clip-path="url(#clip0)">
<path d="M57 28.5C57 12.7599 44.2401 0 28.5 0C12.7599 0 0 12.7599 0 28.5C0 44.2401 12.7599 57 28.5 57C44.2401 57 57 44.2401 57 28.5Z" fill="#68DBF2"/>
<path d="M16.0312 37.4062C18.4906 37.4062 20.4844 35.4125 20.4844 32.9531C20.4844 30.4937 18.4906 28.5 16.0312 28.5C13.5719 28.5 11.5781 30.4937 11.5781 32.9531C11.5781 35.4125 13.5719 37.4062 16.0312 37.4062Z" fill="#EAC0B3"/>
<path d="M16.0312 36.5156H31.1719V58.6655C31.1719 58.6655 27.9273 60.5625 23.6016 60.5625C19.2758 60.5625 16.0312 57.4658 16.0312 57.4658V36.5156Z" fill="#EAC0B3"/>
<path d="M31.0035 47.3029C31.0035 52.0989 30.2287 51.6447 25.1851 51.6447C20.1415 51.6447 17.8143 47.7571 17.8143 42.9611C17.8143 38.166 17.6228 33.8438 21.6929 33.8438C33.2025 34.2677 31.0035 42.5069 31.0035 47.3029Z" fill="#C99688"/>
<path d="M40.8672 32.1516C40.8672 40.0977 39.6328 49.8688 29.8359 49.8688C20.0391 49.8688 15.5218 40.0977 15.5218 32.1516C13.3594 22.7109 13.8047 11.5781 28.5 11.5781C43.1953 11.5781 40.8672 24.2045 40.8672 32.1516Z" fill="#F5D0C5"/>
<path d="M33.8438 36.5156H32.9531C32.4612 36.5156 32.0625 36.9144 32.0625 37.4062C32.0625 37.8981 32.4612 38.2969 32.9531 38.2969H33.8438C34.3356 38.2969 34.7344 37.8981 34.7344 37.4062C34.7344 36.9144 34.3356 36.5156 33.8438 36.5156Z" fill="#EAC0B3"/>
<path d="M33.8438 53.4375H14.25C9.82309 53.4375 6.23438 57.0262 6.23438 61.4531V65.9062C6.23438 70.3332 9.82309 73.9219 14.25 73.9219H33.8438C38.2707 73.9219 41.8594 70.3332 41.8594 65.9062V61.4531C41.8594 57.0262 38.2707 53.4375 33.8438 53.4375Z" fill="#E05A33"/>
<path fill-rule="evenodd" clip-rule="evenodd" d="M25.797 23.3353C30.7934 24.9945 37.7216 27.2941 44.9766 20.039C48.5391 16.4765 32.5078 1.33592 19.5938 9.79686C9.50032 11.2922 10.0766 17.3405 10.5219 22.0073C10.6074 22.9006 10.6875 23.7423 10.6875 24.4922C10.6875 24.9669 10.7499 25.3222 10.8656 25.577C10.7457 26.5467 10.6862 27.5229 10.6875 28.5C10.6875 29.4448 11.0629 30.351 11.731 31.0191C12.3991 31.6872 13.3052 32.0625 14.25 32.0625C15.1949 32.0625 16.101 31.6872 16.7691 31.0191C17.4372 30.351 17.8125 29.4448 17.8125 28.5C18.3564 28.5001 18.8931 28.3756 19.3815 28.1361C19.8698 27.8967 20.2968 27.5486 20.6298 27.1185C20.9628 26.6885 21.1929 26.1879 21.3025 25.6551C21.412 25.1224 21.3982 24.5716 21.2619 24.0451L21.375 24.0469C22.4651 24.0469 23.4404 23.557 24.0941 22.7866C24.632 22.9487 25.2011 23.1375 25.797 23.3353Z" fill="#1B0B47"/>
<path d="M26.9583 36.1042C29.0582 36.1042 30.7604 34.4019 30.7604 32.3021C30.7604 30.2022 29.0582 28.5 26.9583 28.5C24.8585 28.5 23.1562 30.2022 23.1562 32.3021C23.1562 34.4019 24.8585 36.1042 26.9583 36.1042Z" stroke="black" stroke-width="2"/>
<path d="M39.4271 36.1042C41.5269 36.1042 43.2292 34.4019 43.2292 32.3021C43.2292 30.2022 41.5269 28.5 39.4271 28.5C37.3272 28.5 35.625 30.2022 35.625 32.3021C35.625 34.4019 37.3272 36.1042 39.4271 36.1042Z" stroke="black" stroke-width="2"/>
<path d="M30.2679 31.2645L36.5022 31.1719" stroke="black" stroke-width="2"/>
<path d="M24.9375 40.9688C24.9375 40.2601 25.219 39.5805 25.7201 39.0795C26.2211 38.5784 26.9007 38.2969 27.6094 38.2969H35.625C36.3336 38.2969 37.0132 38.5784 37.5143 39.0795C38.0154 39.5805 38.2969 40.2601 38.2969 40.9688H24.9375Z" fill="#1B0B47"/>
</g>
<defs>
<clipPath id="clip0">
<rect width="57" height="57" rx="28.5" fill="white"/>
</clipPath>
</defs>
</svg>
