<svg width="19" height="20" viewBox="0 0 19 20" fill="none" xmlns="http://www.w3.org/2000/svg">
<path d="M9.7944 3.81452L15.687 9.71308C15.7848 9.82729 15.8359 9.97421 15.8301 10.1245C15.8243 10.2747 15.762 10.4172 15.6557 10.5236C15.5494 10.6299 15.4068 10.6922 15.2566 10.698C15.1063 10.7038 14.9594 10.6527 14.8452 10.5549L9.43618 5.14587L4.1824 10.3997C4.07054 10.5109 3.91923 10.5733 3.7615 10.5733C3.60378 10.5733 3.45246 10.5109 3.3406 10.3997C3.22941 10.2878 3.16699 10.1365 3.16699 9.97876C3.16699 9.82103 3.22941 9.66972 3.3406 9.55786L9.07797 3.81452C9.17309 3.71973 9.3019 3.6665 9.43618 3.6665C9.57047 3.6665 9.69928 3.71973 9.7944 3.81452Z" fill="#F6685E"/>
<path d="M9.79738 9.26325L15.69 15.1618C15.7878 15.276 15.8389 15.4229 15.8331 15.5732C15.8273 15.7234 15.765 15.866 15.6587 15.9723C15.5523 16.0786 15.4098 16.1409 15.2596 16.1467C15.1093 16.1525 14.9624 16.1014 14.8482 16.0036L9.43917 10.5946L4.18539 15.8484C4.07353 15.9596 3.92221 16.022 3.76449 16.022C3.60677 16.022 3.45545 15.9596 3.34359 15.8484C3.28763 15.7929 3.24322 15.7269 3.21291 15.6541C3.1826 15.5814 3.16699 15.5033 3.16699 15.4245C3.16699 15.3457 3.1826 15.2677 3.21291 15.1949C3.24322 15.1221 3.28763 15.0561 3.34359 15.0006L9.08096 9.26325C9.17608 9.16846 9.30489 9.11523 9.43917 9.11523C9.57346 9.11523 9.70227 9.16846 9.79738 9.26325Z" fill="#F6685E"/>
</svg>
