<svg width="19" height="20" viewBox="0 0 19 20" fill="none" xmlns="http://www.w3.org/2000/svg">
<path d="M9.75679 10.8632L14.8753 5.41082C14.9603 5.30525 15.0047 5.16945 14.9996 5.03056C14.9946 4.89167 14.9405 4.75992 14.8481 4.66164C14.7557 4.56335 14.6319 4.50578 14.5014 4.50041C14.3709 4.49505 14.2433 4.54229 14.1441 4.6327L9.44563 9.63254L4.88202 4.77618C4.78485 4.6734 4.65342 4.61571 4.51641 4.61571C4.37941 4.61571 4.24797 4.6734 4.1508 4.77618C4.05421 4.87958 4 5.01945 4 5.16524C4 5.31104 4.05421 5.4509 4.1508 5.5543L9.13448 10.8632C9.2171 10.9508 9.32899 11 9.44563 11C9.56228 11 9.67417 10.9508 9.75679 10.8632Z" fill="#8A8A8C"/>
<path d="M9.75803 15.3632L14.8753 9.91082C14.9603 9.80525 15.0047 9.66945 14.9996 9.53056C14.9946 9.39167 14.9405 9.25992 14.8481 9.16164C14.7558 9.06335 14.632 9.00578 14.5015 9.00041C14.3711 8.99505 14.2435 9.04229 14.1443 9.1327L9.44694 14.1325L4.88441 9.27618C4.78726 9.1734 4.65586 9.11571 4.51888 9.11571C4.38191 9.11571 4.2505 9.1734 4.15336 9.27618C4.10477 9.32748 4.0662 9.38852 4.03987 9.45577C4.01355 9.52302 4 9.59515 4 9.668C4 9.74085 4.01355 9.81298 4.03987 9.88023C4.0662 9.94748 4.10477 10.0085 4.15336 10.0598L9.13586 15.3632C9.21847 15.4508 9.33033 15.5 9.44694 15.5C9.56356 15.5 9.67542 15.4508 9.75803 15.3632Z" fill="#8A8A8C"/>
</svg>
