<svg width="23" height="18" viewBox="0 0 23 18" fill="none" xmlns="http://www.w3.org/2000/svg">
<path d="M3.40869 17.4668H19.3008C21.3047 17.4668 22.3438 16.437 22.3438 14.4609V3.16113C22.3438 1.18506 21.3047 0.155273 19.3008 0.155273H3.40869C1.40479 0.155273 0.365723 1.17578 0.365723 3.16113V14.4609C0.365723 16.437 1.40479 17.4668 3.40869 17.4668ZM2.18408 3.31885C2.18408 2.41895 2.65723 1.96436 3.52002 1.96436H19.1895C20.043 1.96436 20.5254 2.41895 20.5254 3.31885V13.125L15.8774 8.77393C15.46 8.40283 14.9775 8.20801 14.4858 8.20801C13.9756 8.20801 13.521 8.38428 13.0942 8.75537L8.91016 12.5034L7.19385 10.9541C6.8042 10.6108 6.37744 10.4253 5.94141 10.4253C5.51465 10.4253 5.13428 10.6016 4.74463 10.9448L2.18408 13.2456V3.31885ZM7.55566 8.97803C8.771 8.97803 9.77295 7.97607 9.77295 6.75146C9.77295 5.53613 8.771 4.5249 7.55566 4.5249C6.32178 4.5249 5.3291 5.53613 5.3291 6.75146C5.3291 7.97607 6.32178 8.97803 7.55566 8.97803Z" fill="#3D5AFE"/>
</svg>
