<svg width="18" height="18" viewBox="0 0 18 18" fill="none" xmlns="http://www.w3.org/2000/svg">
<path d="M9.13112 17.6646C13.8792 17.6646 17.7888 13.7549 17.7888 9.00684C17.7888 4.26709 13.8709 0.349121 9.12282 0.349121C4.38307 0.349121 0.473405 4.26709 0.473405 9.00684C0.473405 13.7549 4.38307 17.6646 9.13112 17.6646ZM5.06374 9.01514C5.06374 8.49219 5.43727 8.11865 5.95192 8.11865H8.25124V5.81934C8.25124 5.31299 8.61647 4.93945 9.12282 4.93945C9.64577 4.93945 10.0193 5.31299 10.0193 5.81934V8.11865H12.3186C12.825 8.11865 13.1985 8.49219 13.1985 9.01514C13.1985 9.52148 12.825 9.88672 12.3186 9.88672H10.0193V12.1943C10.0193 12.7007 9.64577 13.0659 9.12282 13.0659C8.61647 13.0659 8.25124 12.7007 8.25124 12.1943V9.88672H5.95192C5.43727 9.88672 5.06374 9.52148 5.06374 9.01514Z" fill="#3678AF"/>
</svg>
