<svg width="14" height="8" viewBox="0 0 14 8" fill="none" xmlns="http://www.w3.org/2000/svg">
<path d="M11.6484 1.12109C11.8125 0.957031 12.013 0.875 12.25 0.875C12.5052 0.875 12.7148 0.957031 12.8789 1.12109C13.0612 1.30339 13.1523 1.51302 13.1523 1.75C13.1523 1.98698 13.0612 2.19661 12.8789 2.37891L7.60156 7.76562C7.52865 7.80208 7.48307 7.82943 7.46484 7.84766C7.44661 7.84766 7.42839 7.85677 7.41016 7.875L7.38281 7.90234C7.36458 7.90234 7.34635 7.91146 7.32812 7.92969C7.21875 7.96615 7.11849 7.98438 7.02734 7.98438C6.99089 7.98438 6.96354 7.98438 6.94531 7.98438C6.92708 7.96615 6.90885 7.95703 6.89062 7.95703C6.81771 7.95703 6.76302 7.94792 6.72656 7.92969L6.53516 7.82031C6.51693 7.80208 6.4987 7.79297 6.48047 7.79297C6.48047 7.79297 6.47135 7.78385 6.45312 7.76562C6.4349 7.7474 6.41667 7.73828 6.39844 7.73828L1.14844 2.37891C0.966146 2.19661 0.875 1.98698 0.875 1.75C0.875 1.51302 0.966146 1.30339 1.14844 1.12109C1.3125 0.957031 1.51302 0.875 1.75 0.875C2.00521 0.875 2.21484 0.957031 2.37891 1.12109L6.58984 5.35938C6.73568 5.45052 6.88151 5.49609 7.02734 5.49609C7.17318 5.49609 7.31901 5.45052 7.46484 5.35938L11.6484 1.12109Z" fill="#05366D"/>
</svg>
