<svg width="11" height="7" viewBox="0 0 11 7" fill="none" xmlns="http://www.w3.org/2000/svg">
<path d="M9.48438 0.960938C9.625 0.820312 9.79688 0.75 10 0.75C10.2188 0.75 10.3984 0.820312 10.5391 0.960938C10.6953 1.11719 10.7734 1.29688 10.7734 1.5C10.7734 1.70312 10.6953 1.88281 10.5391 2.03906L6.03906 6.63281L6.01562 6.65625C5.95312 6.6875 5.91406 6.71094 5.89844 6.72656C5.86719 6.74219 5.84375 6.75781 5.82812 6.77344C5.82812 6.77344 5.8125 6.78125 5.78125 6.79688C5.6875 6.82812 5.60156 6.84375 5.52344 6.84375C5.49219 6.84375 5.46875 6.84375 5.45312 6.84375C5.4375 6.82812 5.42188 6.82031 5.40625 6.82031C5.34375 6.82031 5.29688 6.8125 5.26562 6.79688C5.23438 6.78125 5.20312 6.76562 5.17188 6.75C5.15625 6.73438 5.13281 6.71875 5.10156 6.70312C5.08594 6.6875 5.07031 6.67969 5.05469 6.67969C5.05469 6.67969 5.04688 6.67188 5.03125 6.65625C5.01562 6.64062 5 6.63281 4.98438 6.63281L0.484375 2.03906C0.328125 1.88281 0.25 1.70312 0.25 1.5C0.25 1.29688 0.328125 1.11719 0.484375 0.960938C0.625 0.820312 0.796875 0.75 1 0.75C1.21875 0.75 1.39844 0.820312 1.53906 0.960938L5.14844 4.59375C5.39844 4.75 5.64844 4.75 5.89844 4.59375L9.48438 0.960938Z" fill="black"/>
</svg>
