<svg width="20" height="19" viewBox="0 0 20 19" fill="none" xmlns="http://www.w3.org/2000/svg">
<path d="M19.5703 13.1484C19.5964 13.0182 19.5703 12.901 19.4922 12.7969C19.4141 12.6927 19.3099 12.6276 19.1797 12.6016L18.2812 12.3477C18.2682 12.2174 18.2422 12.0872 18.2031 11.957C18.1771 11.8138 18.1445 11.6771 18.1055 11.5469L18.8477 10.9219C18.9518 10.8438 19.0169 10.7461 19.043 10.6289C19.069 10.4987 19.043 10.3815 18.9648 10.2773L18.1445 9.08594C18.0664 8.98177 17.9622 8.91667 17.832 8.89062C17.7148 8.86458 17.5977 8.89062 17.4805 8.96875L16.6211 9.45703C16.5299 9.37891 16.4258 9.30729 16.3086 9.24219C16.2044 9.16406 16.0938 9.09896 15.9766 9.04688L16.0547 8.03125C16.0807 7.90104 16.0547 7.78385 15.9766 7.67969C15.9115 7.5625 15.8138 7.4974 15.6836 7.48438L14.2578 7.23047C14.1276 7.20443 14.0104 7.23047 13.9062 7.30859C13.8021 7.3737 13.737 7.47135 13.7109 7.60156L13.4375 8.57812C13.3203 8.60417 13.1966 8.63021 13.0664 8.65625C12.9492 8.68229 12.832 8.70833 12.7148 8.73438L12.0312 7.95312C11.9661 7.84896 11.8685 7.78385 11.7383 7.75781C11.6081 7.73177 11.4909 7.75781 11.3867 7.83594L10.1953 8.65625C10.0911 8.73438 10.026 8.83854 10 8.96875C9.98698 9.08594 10.013 9.19661 10.0781 9.30078L10.5859 10.1992C10.5078 10.2904 10.4297 10.388 10.3516 10.4922C10.2865 10.5964 10.2279 10.707 10.1758 10.8242L9.14062 10.7266C9.01042 10.7135 8.88672 10.7461 8.76953 10.8242C8.66536 10.8893 8.60677 10.987 8.59375 11.1172L8.33984 12.543C8.3138 12.6602 8.33333 12.7773 8.39844 12.8945C8.47656 12.9987 8.58073 13.0573 8.71094 13.0703L9.66797 13.3438C9.68099 13.474 9.70052 13.6042 9.72656 13.7344C9.7526 13.8646 9.78516 13.9883 9.82422 14.1055L9.0625 14.7695C8.95833 14.8346 8.89323 14.9323 8.86719 15.0625C8.84115 15.1927 8.86719 15.3099 8.94531 15.4141L9.76562 16.6055C9.84375 16.7096 9.94141 16.7747 10.0586 16.8008C10.1888 16.8138 10.306 16.7878 10.4102 16.7227L11.25 16.2539C11.3542 16.332 11.4583 16.4102 11.5625 16.4883C11.6797 16.5664 11.8034 16.638 11.9336 16.7031L11.8555 17.6602C11.8294 17.7904 11.849 17.9076 11.9141 18.0117C11.9922 18.1159 12.0964 18.181 12.2266 18.207L13.6523 18.4609C13.7826 18.487 13.8997 18.4609 14.0039 18.3828C14.1081 18.3047 14.1732 18.207 14.1992 18.0898L14.4336 17.1914C14.5768 17.1784 14.7135 17.1589 14.8438 17.1328C14.987 17.1068 15.1302 17.0742 15.2734 17.0352L15.8789 17.7383C15.944 17.8424 16.0417 17.9076 16.1719 17.9336C16.3021 17.9596 16.4193 17.9336 16.5234 17.8555L17.7148 17.0352C17.819 16.957 17.8776 16.8529 17.8906 16.7227C17.9167 16.5924 17.8971 16.4753 17.832 16.3711L17.3828 15.5898C17.4609 15.4727 17.5391 15.3555 17.6172 15.2383C17.6953 15.1211 17.7669 14.9974 17.832 14.8672L18.7695 14.9453C18.8997 14.9714 19.0169 14.9518 19.1211 14.8867C19.2253 14.8086 19.2904 14.7044 19.3164 14.5742L19.5703 13.1484ZM13.6523 14.7305C13.1315 14.6393 12.7214 14.3854 12.4219 13.9688C12.1354 13.5391 12.0378 13.0638 12.1289 12.543C12.2201 12.0352 12.474 11.638 12.8906 11.3516C13.3203 11.0521 13.7891 10.9479 14.2969 11.0391C14.8177 11.1302 15.2214 11.3906 15.5078 11.8203C15.8073 12.237 15.9115 12.6992 15.8203 13.207C15.7292 13.7148 15.4688 14.1185 15.0391 14.418C14.6224 14.7174 14.1602 14.8216 13.6523 14.7305ZM11.582 6.13672C11.6081 6.01953 11.582 5.90885 11.5039 5.80469C11.4388 5.6875 11.3411 5.61589 11.2109 5.58984L10.3125 5.33594C10.2995 5.19271 10.2799 5.05599 10.2539 4.92578C10.2279 4.79557 10.1888 4.66536 10.1367 4.53516L10.8984 3.91016C11.0026 3.83203 11.0677 3.73438 11.0938 3.61719C11.1198 3.48698 11.0938 3.36979 11.0156 3.26562L10.2148 2.05469C10.1367 1.95052 10.0326 1.88542 9.90234 1.85938C9.78516 1.83333 9.66797 1.85938 9.55078 1.9375L8.69141 2.40625C8.58724 2.32812 8.48307 2.25651 8.37891 2.19141C8.27474 2.11328 8.16406 2.04167 8.04688 1.97656L8.14453 0.960938C8.17057 0.84375 8.14453 0.733073 8.06641 0.628906C7.98828 0.511719 7.89062 0.440104 7.77344 0.414062L6.34766 0.160156C6.21745 0.134115 6.10026 0.160156 5.99609 0.238281C5.89193 0.303385 5.82682 0.401042 5.80078 0.53125L5.50781 1.50781C5.39062 1.52083 5.26693 1.54036 5.13672 1.56641C5.01953 1.57943 4.90234 1.60547 4.78516 1.64453L4.12109 0.84375C4.04297 0.739583 3.9388 0.674479 3.80859 0.648438C3.69141 0.622396 3.57422 0.641927 3.45703 0.707031L2.26562 1.52734C2.16146 1.60547 2.09635 1.70964 2.07031 1.83984C2.04427 1.95703 2.07031 2.06771 2.14844 2.17188L2.63672 3.07031C2.55859 3.17448 2.48047 3.27865 2.40234 3.38281C2.33724 3.48698 2.27865 3.59115 2.22656 3.69531L1.17188 3.59766C1.05469 3.57161 0.9375 3.59766 0.820312 3.67578C0.716146 3.74089 0.651042 3.83854 0.625 3.96875L0.371094 5.39453C0.345052 5.51172 0.364583 5.62891 0.429688 5.74609C0.507812 5.85026 0.611979 5.91536 0.742188 5.94141L1.67969 6.21484C1.69271 6.34505 1.71224 6.47526 1.73828 6.60547C1.76432 6.73568 1.79688 6.85938 1.83594 6.97656L1.05469 7.62109C0.950521 7.69922 0.885417 7.80339 0.859375 7.93359C0.833333 8.05078 0.852865 8.16146 0.917969 8.26562L1.73828 9.47656C1.81641 9.58073 1.91406 9.64583 2.03125 9.67188C2.16146 9.69792 2.27865 9.67188 2.38281 9.59375L3.22266 9.14453C3.32682 9.22266 3.43099 9.30078 3.53516 9.37891C3.65234 9.45703 3.76953 9.52865 3.88672 9.59375L3.80859 10.5703C3.78255 10.6875 3.80208 10.8047 3.86719 10.9219C3.94531 11.026 4.04948 11.0911 4.17969 11.1172L5.58594 11.3711C5.71615 11.3971 5.83333 11.3776 5.9375 11.3125C6.05469 11.2344 6.11979 11.1302 6.13281 11L6.40625 10.1211C6.54948 10.1081 6.6862 10.0885 6.81641 10.0625C6.95964 10.0365 7.09635 10.0039 7.22656 9.96484L7.83203 10.6875C7.89714 10.7917 7.99479 10.8568 8.125 10.8828C8.25521 10.9089 8.3724 10.8893 8.47656 10.8242L9.66797 10.0039C9.77214 9.92578 9.83724 9.82812 9.86328 9.71094C9.88932 9.58073 9.86979 9.46354 9.80469 9.35938L9.35547 8.55859C9.44661 8.44141 9.53125 8.32422 9.60938 8.20703C9.6875 8.08984 9.75911 7.97266 9.82422 7.85547L10.7617 7.93359C10.8919 7.95964 11.0091 7.9401 11.1133 7.875C11.2174 7.79688 11.2826 7.69271 11.3086 7.5625L11.582 6.13672ZM5.76172 7.09375C5.41016 7.02865 5.13021 6.84635 4.92188 6.54688C4.71354 6.2474 4.64193 5.92188 4.70703 5.57031C4.78516 5.20573 4.97396 4.92578 5.27344 4.73047C5.57292 4.52214 5.89844 4.45052 6.25 4.51562C6.60156 4.58073 6.88151 4.76302 7.08984 5.0625C7.29818 5.36198 7.36328 5.69401 7.28516 6.05859C7.22005 6.41016 7.03776 6.6901 6.73828 6.89844C6.4388 7.09375 6.11328 7.15885 5.76172 7.09375ZM8.92578 13.3633C8.89974 13.2852 8.84766 13.2266 8.76953 13.1875C8.69141 13.1484 8.61328 13.1419 8.53516 13.168L7.94922 13.3047C7.91016 13.2396 7.85807 13.1745 7.79297 13.1094C7.74089 13.0443 7.68229 12.9857 7.61719 12.9336L7.83203 12.3477C7.87109 12.2695 7.8776 12.1914 7.85156 12.1133C7.82552 12.0352 7.77344 11.9766 7.69531 11.9375L6.875 11.5469C6.79688 11.5078 6.71875 11.5013 6.64062 11.5273C6.5625 11.5534 6.51042 11.6055 6.48438 11.6836L6.15234 12.2109C6.0612 12.1979 5.97656 12.1914 5.89844 12.1914C5.82031 12.1784 5.73568 12.1719 5.64453 12.1719L5.39062 11.5859C5.36458 11.5078 5.3125 11.4492 5.23438 11.4102C5.15625 11.3711 5.07812 11.3646 5 11.3906L4.14062 11.7031C4.0625 11.7292 4.00391 11.7812 3.96484 11.8594C3.92578 11.9245 3.91927 11.9961 3.94531 12.0742L4.10156 12.6992C4.03646 12.7513 3.97135 12.8034 3.90625 12.8555C3.85417 12.9076 3.80208 12.9596 3.75 13.0117L3.125 12.7773C3.04688 12.7513 2.96875 12.7513 2.89062 12.7773C2.8125 12.8034 2.75391 12.849 2.71484 12.9141L2.30469 13.7539C2.27865 13.819 2.27865 13.8906 2.30469 13.9688C2.33073 14.0469 2.3763 14.1055 2.44141 14.1445L3.00781 14.4961C2.99479 14.5742 2.98177 14.6523 2.96875 14.7305C2.96875 14.8086 2.96875 14.8867 2.96875 14.9648L2.36328 15.2383C2.28516 15.2643 2.22656 15.3164 2.1875 15.3945C2.14844 15.4596 2.14193 15.5312 2.16797 15.6094L2.46094 16.4883C2.5 16.5664 2.55208 16.625 2.61719 16.6641C2.69531 16.6901 2.77344 16.6901 2.85156 16.6641L3.45703 16.5273C3.50911 16.5924 3.5612 16.6576 3.61328 16.7227C3.66536 16.7878 3.72396 16.8464 3.78906 16.8984L3.55469 17.5039C3.51562 17.582 3.50911 17.6602 3.53516 17.7383C3.5612 17.8164 3.61328 17.875 3.69141 17.9141L4.51172 18.3047C4.58984 18.3438 4.66797 18.3503 4.74609 18.3242C4.82422 18.2982 4.88281 18.2461 4.92188 18.168L5.23438 17.6602C5.3125 17.6732 5.39714 17.6862 5.48828 17.6992C5.57943 17.6992 5.66406 17.6992 5.74219 17.6992L5.99609 18.2656C6.03516 18.3438 6.08724 18.4023 6.15234 18.4414C6.23047 18.4674 6.30859 18.4674 6.38672 18.4414L7.24609 18.1484C7.32422 18.1224 7.38281 18.0768 7.42188 18.0117C7.46094 17.9336 7.46745 17.8555 7.44141 17.7773L7.30469 17.2109C7.38281 17.1589 7.45443 17.1068 7.51953 17.0547C7.58464 16.9896 7.64974 16.9245 7.71484 16.8594L8.28125 17.0742C8.35938 17.1003 8.4375 17.1003 8.51562 17.0742C8.59375 17.0482 8.64583 17.0026 8.67188 16.9375L9.08203 16.0977C9.12109 16.0326 9.1276 15.9609 9.10156 15.8828C9.07552 15.8047 9.02344 15.7461 8.94531 15.707L8.45703 15.3945C8.47005 15.3164 8.47656 15.2318 8.47656 15.1406C8.48958 15.0495 8.48958 14.9583 8.47656 14.8672L9.02344 14.6133C9.10156 14.5872 9.16016 14.5417 9.19922 14.4766C9.23828 14.3984 9.24479 14.3203 9.21875 14.2422L8.92578 13.3633ZM5.99609 15.7266C5.77474 15.8047 5.5599 15.7917 5.35156 15.6875C5.15625 15.5833 5.01953 15.4271 4.94141 15.2188C4.86328 14.9974 4.8763 14.7826 4.98047 14.5742C5.08464 14.3659 5.24089 14.2227 5.44922 14.1445C5.67057 14.0794 5.88542 14.099 6.09375 14.2031C6.30208 14.2943 6.44531 14.4505 6.52344 14.6719C6.58854 14.8932 6.56901 15.1081 6.46484 15.3164C6.3737 15.5117 6.21745 15.6484 5.99609 15.7266Z" fill="#19BEC4"/>
</svg>
