<svg width="14" height="14" viewBox="0 0 14 14" fill="none" xmlns="http://www.w3.org/2000/svg">
<path d="M9.76562 8.67188H13.5938C13.6146 8.67188 13.6354 8.66146 13.6562 8.64062C13.6771 8.61979 13.6875 8.59896 13.6875 8.57812V5.54688C13.6875 5.51562 13.6771 5.49479 13.6562 5.48438C13.6354 5.46354 13.6146 5.45312 13.5938 5.45312H9.76562C9.73438 5.45312 9.70833 5.46354 9.6875 5.48438C9.67708 5.49479 9.67188 5.51562 9.67188 5.54688V6.625H4.03125V3.79688H6.07812C6.15104 3.79688 6.20833 3.77604 6.25 3.73438C6.29167 3.69271 6.3125 3.63542 6.3125 3.5625V0.375C6.3125 0.3125 6.29167 0.260417 6.25 0.21875C6.20833 0.166667 6.15104 0.140625 6.07812 0.140625H1.04688C0.984375 0.140625 0.927083 0.166667 0.875 0.21875C0.833333 0.260417 0.8125 0.3125 0.8125 0.375V3.5625C0.8125 3.63542 0.833333 3.69271 0.875 3.73438C0.927083 3.77604 0.984375 3.79688 1.04688 3.79688H3.15625V12.6875H9.67188V13.7656C9.67188 13.7865 9.68229 13.8073 9.70312 13.8281C9.72396 13.849 9.74479 13.8594 9.76562 13.8594H13.5938C13.625 13.8594 13.6458 13.849 13.6562 13.8281C13.6771 13.8073 13.6875 13.7865 13.6875 13.7656V10.7344C13.6875 10.7031 13.6771 10.6823 13.6562 10.6719C13.6458 10.651 13.625 10.6406 13.5938 10.6406H9.76562C9.73438 10.6406 9.70833 10.651 9.6875 10.6719C9.67708 10.6823 9.67188 10.7031 9.67188 10.7344V11.8125H4.03125V7.5H9.67188V8.57812C9.67188 8.59896 9.67708 8.61979 9.6875 8.64062C9.70833 8.66146 9.73438 8.67188 9.76562 8.67188Z" fill="#757575"/>
</svg>
