<svg width="17" height="16" viewBox="0 0 17 16" fill="none" xmlns="http://www.w3.org/2000/svg">
<path d="M16.0391 13.5C16.2734 13.7344 16.3906 14.0312 16.3906 14.3906C16.3906 14.75 16.2734 15.0547 16.0391 15.3047C15.8047 15.5391 15.5078 15.6562 15.1484 15.6562C14.7891 15.6562 14.4844 15.5391 14.2344 15.3047L8.60938 9.77344L3.07812 15.3047C2.95312 15.4141 2.80469 15.5 2.63281 15.5625C2.47656 15.625 2.30469 15.6562 2.11719 15.6562C1.94531 15.6562 1.77344 15.625 1.60156 15.5625C1.42969 15.5 1.28125 15.4141 1.15625 15.3047C1.03125 15.2422 0.9375 15.1328 0.875 14.9766C0.828125 14.8047 0.804688 14.6328 0.804688 14.4609C0.804688 14.2734 0.828125 14.1016 0.875 13.9453C0.9375 13.7734 1.03125 13.625 1.15625 13.5L6.80469 7.96875L1.15625 2.34375C0.921875 2.09375 0.804688 1.78906 0.804688 1.42969C0.804688 1.07031 0.921875 0.773438 1.15625 0.539062C1.28125 0.414062 1.42969 0.328125 1.60156 0.28125C1.77344 0.21875 1.94531 0.1875 2.11719 0.1875C2.30469 0.1875 2.47656 0.21875 2.63281 0.28125C2.80469 0.328125 2.95312 0.414062 3.07812 0.539062L8.60938 6.1875L14.2344 0.539062C14.4844 0.304688 14.7891 0.1875 15.1484 0.1875C15.5078 0.1875 15.8047 0.304688 16.0391 0.539062C16.1641 0.664063 16.25 0.8125 16.2969 0.984375C16.3594 1.14062 16.3906 1.3125 16.3906 1.5C16.3906 1.6875 16.3594 1.86719 16.2969 2.03906C16.25 2.19531 16.1641 2.33594 16.0391 2.46094L10.3906 7.96875L16.0391 13.5Z" fill="#637BFE"/>
</svg>
