<svg width="14" height="13" viewBox="0 0 14 13" fill="none" xmlns="http://www.w3.org/2000/svg">
<path d="M12.2871 4.56667L9.88709 5.68667L8.33376 4.13333V3.2L9.88709 1.64667L12.2871 2.76667C12.5404 2.88667 12.8338 2.77333 12.9538 2.52667C13.0738 2.27333 12.9604 1.98 12.7138 1.86L10.1004 0.639999C9.84709 0.519999 9.54709 0.573332 9.34709 0.773332L8.18709 1.93333C8.06709 1.77333 7.88043 1.66667 7.66709 1.66667C7.30043 1.66667 7.00043 1.96667 7.00043 2.33333V3H4.88043C4.56043 2.10667 3.64043 1.5 2.60043 1.70667C1.82043 1.86 1.18043 2.5 1.03376 3.28C0.867092 4.17333 1.30043 4.97333 1.98709 5.38667L3.72043 11H2.66709C2.11376 11 1.66709 11.4467 1.66709 12C1.66709 12.5533 2.11376 13 2.66709 13H9.33376C9.88709 13 10.3338 12.5533 10.3338 12C10.3338 11.4467 9.88709 11 9.33376 11H7.92043L4.60709 4.84667C4.72043 4.68667 4.81376 4.52 4.88043 4.33333H7.00043V5C7.00043 5.36667 7.30043 5.66667 7.66709 5.66667C7.88043 5.66667 8.06709 5.56 8.18709 5.4L9.34709 6.56C9.54709 6.76 9.84709 6.81333 10.1004 6.69333L12.7138 5.47333C12.9671 5.35333 13.0738 5.06 12.9538 4.80667C12.8338 4.56 12.5404 4.44667 12.2871 4.56667ZM3.00043 4.33333C2.63376 4.33333 2.33376 4.03333 2.33376 3.66667C2.33376 3.3 2.63376 3 3.00043 3C3.36709 3 3.66709 3.3 3.66709 3.66667C3.66709 4.03333 3.36709 4.33333 3.00043 4.33333Z" fill="#76767B"/>
</svg>
