<svg width="17" height="17" viewBox="0 0 17 17" fill="none" xmlns="http://www.w3.org/2000/svg">
<path fill-rule="evenodd" clip-rule="evenodd" d="M3.26299 0.709014C3.05591 0.776821 2.87018 0.94758 2.80606 1.12912C2.77756 1.20979 2.76947 1.45398 2.76947 2.23338C2.76947 3.1376 2.77417 3.24621 2.81809 3.36008C2.90928 3.59643 3.18371 3.78111 3.44367 3.78111C3.66185 3.78111 3.91664 3.61092 4.02469 3.39303C4.07339 3.29478 4.07761 3.2183 4.08492 2.29411C4.08983 1.67627 4.08252 1.26252 4.06557 1.19959C4.01778 1.02214 3.89794 0.865363 3.74762 0.783706C3.60069 0.703918 3.38168 0.670161 3.26299 0.709014ZM11.1798 0.72748C11.0116 0.781091 10.8377 0.953984 10.7792 1.12584C10.7412 1.23727 10.735 1.39319 10.735 2.23338C10.735 3.34839 10.7409 3.38815 10.935 3.58228C11.2037 3.85098 11.6307 3.83694 11.8816 3.55114C12.0435 3.3668 12.0426 3.37441 12.0426 2.23338C12.0426 1.09235 12.0435 1.09995 11.8816 0.915611C11.7111 0.721343 11.433 0.646784 11.1798 0.72748ZM1.71541 2.41526C1.19561 2.5513 0.807583 2.94856 0.688968 3.46615C0.652836 3.62375 0.648059 4.29248 0.648459 9.1234C0.648993 15.1826 0.637759 14.7959 0.823434 15.1493C0.984719 15.4562 1.25266 15.6799 1.63407 15.8261L1.78212 15.8828L5.89036 15.8901L9.99859 15.8973L9.77094 15.6633C9.51732 15.4025 9.30472 15.126 9.13444 14.8354L9.02106 14.642H5.515C2.04452 14.642 2.00841 14.6414 1.95558 14.5886C1.90263 14.5357 1.90221 14.4997 1.90221 10.1722V5.80919H7.41269H12.9232V7.03262V8.25605L13.2234 8.27316C13.4805 8.28778 13.6381 8.31316 14.104 8.41496L14.1774 8.431L14.1772 6.0727C14.1771 4.56531 14.1669 3.65255 14.1492 3.543C14.0601 2.99409 13.6089 2.52152 13.0635 2.40595C12.9643 2.38492 12.767 2.36752 12.625 2.36726L12.3669 2.3668L12.3582 2.86715C12.3499 3.34294 12.346 3.3747 12.2794 3.51426C12.1723 3.73871 12.0392 3.87342 11.8154 3.98403C11.6391 4.07116 11.5954 4.0817 11.4099 4.08175C11.1119 4.08183 10.9288 4.00628 10.7193 3.79681C10.472 3.54943 10.4355 3.43282 10.4207 2.84036L10.4088 2.36656L7.40303 2.37337L4.39727 2.38014L4.38393 2.88716C4.37109 3.37494 4.36775 3.39994 4.29602 3.54602C4.25157 3.63653 4.16263 3.75163 4.07577 3.83099C3.5636 4.29913 2.7624 4.10008 2.51682 3.44373C2.46991 3.31834 2.4626 3.23594 2.4626 2.83278V2.3668L2.17573 2.36835C1.99619 2.36931 1.82397 2.38687 1.71541 2.41526ZM12.4858 8.9044C10.8319 9.11363 9.51959 10.3482 9.22338 11.9735C9.16067 12.3176 9.16126 12.9681 9.22458 13.2934C9.37674 14.0749 9.71564 14.7178 10.2671 15.2709C10.5704 15.5752 10.8995 15.8171 11.2505 15.9938C11.5268 16.133 12.0181 16.2869 12.3494 16.338C12.7567 16.401 13.3593 16.3792 13.7504 16.2874C15.2017 15.9467 16.2822 14.8361 16.5973 13.3611C16.6662 13.0387 16.6653 12.2142 16.5958 11.8948C16.5185 11.5401 16.4301 11.2914 16.2583 10.9461C15.748 9.92051 14.7757 9.18005 13.6446 8.95579C13.3495 8.89727 12.7517 8.87074 12.4858 8.9044ZM13.2441 9.8396C13.938 9.92443 14.6022 10.2789 15.0491 10.8029C15.4696 11.2958 15.6852 11.8426 15.7169 12.4962C15.7355 12.8814 15.6994 13.1647 15.5883 13.5049C15.2254 14.6162 14.2207 15.3812 13.0531 15.4352C12.2471 15.4725 11.5589 15.2121 10.9706 14.6471C10.2047 13.9116 9.92339 12.8617 10.2188 11.8413C10.4845 10.9234 11.249 10.1742 12.1791 9.92C12.5436 9.82039 12.8795 9.79504 13.2441 9.8396ZM12.723 10.3425C12.5961 10.4008 12.5392 10.4603 12.4839 10.5926C12.4494 10.6752 12.4429 10.8512 12.4434 11.6991C12.444 12.6222 12.4482 12.7163 12.4933 12.814C12.5503 12.9375 12.638 13.0253 12.7448 13.0658C12.7923 13.0838 13.1302 13.0941 13.6654 13.0938C14.4931 13.0933 14.5132 13.0921 14.6171 13.0332C14.8061 12.9262 14.895 12.6712 14.8162 12.4622C14.7741 12.3505 14.6328 12.2166 14.5255 12.1868C14.4734 12.1724 14.1937 12.1605 13.9038 12.1604L13.3768 12.1602V11.3954V10.6306L13.3105 10.5174C13.1922 10.3156 12.9431 10.2414 12.723 10.3425Z" fill="#05366D"/>
</svg>
