<svg width="16" height="6" viewBox="0 0 16 6" fill="none" xmlns="http://www.w3.org/2000/svg">
<path d="M16 1.36239C15.985 1.29518 15.9723 1.22717 15.9545 1.1606C15.8091 0.617942 15.3398 0.250151 14.7945 0.250151C10.2621 0.250151 5.72979 0.250151 1.19733 0.24999C0.616713 0.24999 0.111405 0.693209 0.0162498 1.28616C0.0129686 1.30646 0.0054687 1.32613 0 1.34611C0 2.44207 0 3.53819 0 4.63415C0.0132811 4.69411 0.0246873 4.75439 0.0399996 4.8137C0.183748 5.37264 0.661556 5.74607 1.23514 5.74623C3.36512 5.74655 5.4951 5.74639 7.62508 5.74623C9.99193 5.74623 12.3589 5.74043 14.7258 5.74977C15.4366 5.75268 15.9269 5.22355 15.9881 4.66365C15.9892 4.65349 15.9958 4.64398 15.9997 4.63415C16 3.54367 16 2.45303 16 1.36239ZM10.6641 5.24692C10.6265 5.24692 10.598 5.24692 10.5694 5.24692C7.46821 5.24692 4.36683 5.24692 1.26561 5.24692C0.789836 5.24692 0.484839 4.93183 0.484683 4.44091C0.484527 3.47662 0.484527 2.51234 0.484683 1.54806C0.484683 1.06148 0.78843 0.746396 1.26093 0.746396C4.36746 0.745912 7.47399 0.746073 10.5804 0.746396C10.6077 0.746396 10.6351 0.749457 10.6641 0.751069C10.6641 2.25221 10.6641 3.74465 10.6641 5.24692ZM11.1563 0.74978C11.1779 0.748007 11.1905 0.746073 11.2033 0.746073C12.396 0.746073 13.5886 0.743172 14.7813 0.747846C15.2108 0.749457 15.5144 1.07502 15.515 1.51856C15.5164 2.50444 15.5158 3.49016 15.5145 4.47604C15.5144 4.54261 15.5075 4.61062 15.4923 4.67525C15.4114 5.02048 15.1245 5.24579 14.763 5.24628C13.5833 5.24757 12.4038 5.24676 11.2241 5.2466C11.2016 5.2466 11.1791 5.24386 11.1565 5.24225C11.1563 3.7424 11.1563 2.24979 11.1563 0.74978Z" fill="black"/>
<path d="M4.35933 2.74664C3.6384 2.7468 2.91762 2.74696 2.19669 2.74632C2.09325 2.74616 2.01607 2.78967 1.96732 2.88347C1.92247 2.9697 1.93029 3.05496 1.98232 3.13458C2.03841 3.22064 2.12138 3.24772 2.21872 3.24756C2.747 3.24643 3.27527 3.24707 3.80355 3.24707C4.69885 3.24707 5.594 3.24707 6.4893 3.24691C6.51009 3.24691 6.53102 3.24756 6.5518 3.24643C6.6904 3.23918 6.79618 3.12813 6.79415 2.99259C6.79211 2.85575 6.68571 2.74761 6.5454 2.74728C5.9754 2.74583 5.40557 2.74648 4.83557 2.74648C4.67682 2.74648 4.51807 2.74664 4.35933 2.74664Z" fill="black"/>
<path d="M13.3489 2.90789C13.1519 2.70417 12.9784 2.51915 12.7978 2.34202C12.752 2.29721 12.6856 2.26224 12.6237 2.25064C12.5223 2.23146 12.4397 2.28351 12.3933 2.37877C12.3461 2.47563 12.3565 2.5712 12.4237 2.65727C12.4351 2.67177 12.4484 2.68483 12.4614 2.69804C12.6858 2.92965 12.9098 3.16157 13.1347 3.39253C13.2689 3.53049 13.4001 3.52936 13.5345 3.39092C13.7609 3.1577 13.9867 2.92368 14.2137 2.69111C14.2743 2.6289 14.3112 2.55783 14.3011 2.4687C14.2898 2.37055 14.2406 2.29721 14.1486 2.26288C14.0525 2.22694 13.9631 2.24322 13.8892 2.31849C13.7245 2.48643 13.5609 2.65533 13.3983 2.82537C13.3786 2.84616 13.3676 2.87598 13.3489 2.90789Z" fill="black"/>
</svg>
