<svg width="40" height="40" viewBox="0 0 40 40" fill="none" xmlns="http://www.w3.org/2000/svg">
<rect width="40" height="40" rx="8" fill="#ECF1F7"/>
<path opacity="0.5" d="M16.6182 13.3174C16.6182 13.833 16.7236 14.3105 16.9346 14.75C17.1514 15.1895 17.4473 15.5645 17.8223 15.875C18.1973 16.1855 18.6221 16.3994 19.0967 16.5166V22.0801C19.0967 22.7305 19.123 23.3047 19.1758 23.8027C19.2285 24.3008 19.2959 24.7197 19.3779 25.0596C19.46 25.3994 19.5479 25.6572 19.6416 25.833C19.7354 26.0029 19.8262 26.0879 19.9141 26.0879C20.002 26.0879 20.0928 26.0029 20.1865 25.833C20.2861 25.6572 20.374 25.3994 20.4502 25.0596C20.5322 24.7197 20.5996 24.3008 20.6523 23.8027C20.7051 23.3047 20.7314 22.7305 20.7314 22.0801V16.5166C21.2061 16.3994 21.6309 16.1855 22.0059 15.875C22.3809 15.5645 22.6768 15.1895 22.8936 14.75C23.1104 14.3105 23.2188 13.833 23.2188 13.3174C23.2188 12.708 23.0693 12.1543 22.7705 11.6562C22.4775 11.1523 22.082 10.751 21.584 10.4521C21.0859 10.1533 20.5293 10.0039 19.9141 10.0039C19.3047 10.0039 18.751 10.1533 18.2529 10.4521C17.7549 10.751 17.3564 11.1523 17.0576 11.6562C16.7646 12.1543 16.6182 12.708 16.6182 13.3174ZM18.9736 13.4932C18.6748 13.4932 18.4111 13.3818 18.1826 13.1592C17.96 12.9307 17.8486 12.6641 17.8486 12.3594C17.8486 12.0547 17.96 11.791 18.1826 11.5684C18.4111 11.3457 18.6748 11.2344 18.9736 11.2344C19.2842 11.2344 19.5508 11.3457 19.7734 11.5684C19.9961 11.791 20.1074 12.0547 20.1074 12.3594C20.1074 12.6641 19.9961 12.9307 19.7734 13.1592C19.5508 13.3818 19.2842 13.4932 18.9736 13.4932ZM19.9229 29.3047C21.2471 29.3047 22.4248 29.1992 23.4561 28.9883C24.4932 28.7832 25.3691 28.502 26.084 28.1445C26.7988 27.793 27.3408 27.3916 27.71 26.9404C28.0791 26.4951 28.2637 26.0293 28.2637 25.543C28.2637 25.0801 28.1318 24.6553 27.8682 24.2686C27.6104 23.876 27.2617 23.5273 26.8223 23.2227C26.3828 22.918 25.8936 22.6602 25.3545 22.4492C24.8213 22.2324 24.2764 22.0684 23.7197 21.957C23.1689 21.8398 22.6504 21.7812 22.1641 21.7812V23.0645C22.5918 23.0703 23.0518 23.1318 23.5439 23.249C24.042 23.3604 24.5137 23.5156 24.959 23.7148C25.4043 23.9141 25.7705 24.1514 26.0576 24.4268C26.3447 24.7021 26.4883 25.0039 26.4883 25.332C26.4883 25.7129 26.3242 26.0586 25.9961 26.3691C25.668 26.6855 25.208 26.958 24.6162 27.1865C24.0303 27.4209 23.3359 27.5996 22.5332 27.7227C21.7363 27.8516 20.8662 27.916 19.9229 27.916C18.9736 27.916 18.0977 27.8516 17.2949 27.7227C16.498 27.5996 15.8037 27.4238 15.2119 27.1953C14.626 26.9668 14.1689 26.6943 13.8408 26.3779C13.5186 26.0615 13.3574 25.7129 13.3574 25.332C13.3574 25.0039 13.498 24.7021 13.7793 24.4268C14.0664 24.1514 14.4326 23.9141 14.8779 23.7148C15.3232 23.5156 15.7949 23.3604 16.293 23.249C16.791 23.1318 17.251 23.0703 17.6729 23.0645V21.7812C17.1924 21.7812 16.6738 21.8398 16.1172 21.957C15.5664 22.0684 15.0215 22.2324 14.4824 22.4492C13.9492 22.6602 13.4629 22.918 13.0234 23.2227C12.584 23.5273 12.2324 23.876 11.9688 24.2686C11.7051 24.6553 11.5732 25.0801 11.5732 25.543C11.5732 26.0293 11.7578 26.4951 12.127 26.9404C12.502 27.3916 13.0469 27.793 13.7617 28.1445C14.4766 28.502 15.3496 28.7832 16.3809 28.9883C17.418 29.1992 18.5986 29.3047 19.9229 29.3047Z" fill="black"/>
</svg>
