<svg width="25" height="24" viewBox="0 0 25 24" fill="none" xmlns="http://www.w3.org/2000/svg">
<rect x="1.25" y="0.75" width="22.5" height="22.5" rx="11.25" fill="white"/>
<path d="M6.8125 7.4375V6.625H10.4941C10.4941 6.625 10.5026 6.58268 10.5195 6.49805C10.5365 6.41341 10.5872 6.32031 10.6719 6.21875C10.7565 6.11719 10.875 6.02409 11.0273 5.93945C11.1966 5.85482 11.4167 5.8125 11.6875 5.8125H13.3379C13.5918 5.8125 13.8372 5.88021 14.0742 6.01562C14.3281 6.13411 14.4805 6.33724 14.5312 6.625H18.1875V7.4375H6.8125ZM18.1875 8.25V9.08789H17.375L16.5625 18C16.5625 18.5417 16.2917 18.8125 15.75 18.8125H9.25C8.70833 18.8125 8.4375 18.5417 8.4375 18L7.625 9.08789H6.8125V8.25H18.1875ZM9.25 18H15.75L16.5625 9.08789H8.4375L9.25 18ZM13.8457 16.3242L14.3535 10.6367L15.1914 10.7129L14.6836 16.4004L13.8457 16.3242ZM9.80859 10.7129L10.5957 10.6367L11.1035 16.3242L10.3164 16.4004L9.80859 10.7129ZM12.043 16.375V10.6621H12.9062V16.375H12.043Z" fill="#F44336"/>
<rect x="1.25" y="0.75" width="22.5" height="22.5" rx="11.25" stroke="#F44336" stroke-width="1.5"/>
</svg>
