<svg width="20" height="21" viewBox="0 0 20 21" fill="none" xmlns="http://www.w3.org/2000/svg">
<rect y="0.931885" width="19.6364" height="19.6364" rx="4" fill="#E0E0E0"/>
<g clip-path="url(#clip0_6503_172299)">
<path fill-rule="evenodd" clip-rule="evenodd" d="M13.0418 6.32012H13.59C14.1931 6.32012 14.6865 6.81355 14.6865 7.41661V15.0921C14.6865 15.6951 14.1931 16.1886 13.59 16.1886H5.91461C5.30605 16.1886 4.81812 15.6951 4.81812 15.0921L4.8236 7.41661C4.8236 6.81355 5.30605 6.32012 5.91461 6.32012H6.46285V5.22363H7.55935V6.32012H11.9453V5.22363H13.0418V6.32012ZM5.91461 15.0921H13.59V9.06134H5.91461V15.0921Z" fill="#212121"/>
<path d="M7.27232 11.9102C7.21066 11.9719 7.21066 12.0718 7.27232 12.1335L8.27715 13.1383C8.33881 13.2 8.43878 13.2 8.50044 13.1383C8.56213 13.0767 8.56213 12.9767 8.50044 12.9151L7.60726 12.0219L8.50044 11.1287C8.56213 11.067 8.56213 10.967 8.50044 10.9054C8.43878 10.8437 8.33881 10.8437 8.27715 10.9054L7.27232 11.9102ZM12.2325 12.1335C12.2941 12.0718 12.2941 11.9719 12.2325 11.9102L11.2276 10.9054C11.166 10.8437 11.066 10.8437 11.0043 10.9054C10.9427 10.967 10.9427 11.067 11.0043 11.1287L11.8975 12.0219L11.0043 12.9151C10.9427 12.9767 10.9427 13.0767 11.0043 13.1383C11.066 13.2 11.166 13.2 11.2276 13.1383L12.2325 12.1335ZM7.38397 12.1798H12.1208V11.864H7.38397V12.1798Z" fill="black" stroke="black" stroke-width="0.2"/>
</g>
<defs>
<clipPath id="clip0_6503_172299">
<rect width="10" height="11.0526" fill="white" transform="translate(4.81812 5.22363)"/>
</clipPath>
</defs>
</svg>
