<svg width="20" height="21" viewBox="0 0 20 21" fill="none" xmlns="http://www.w3.org/2000/svg">
<rect y="0.931885" width="19.6364" height="19.6364" rx="4" fill="#F44336"/>
<rect y="0.931885" width="19.6364" height="19.6364" rx="4" fill="white" fill-opacity="0.8"/>
<g clip-path="url(#clip0_6503_172297)">
<path d="M8.31812 10.25H7.31812V11.25H8.31812V10.25ZM10.3181 10.25H9.31812V11.25H10.3181V10.25ZM12.3181 10.25H11.3181V11.25H12.3181V10.25ZM13.3181 6.75H12.8181V5.75H11.8181V6.75H7.81812V5.75H6.81812V6.75H6.31812C5.76312 6.75 5.32312 7.2 5.32312 7.75L5.31812 14.75C5.31812 15.3 5.76312 15.75 6.31812 15.75H13.3181C13.8681 15.75 14.3181 15.3 14.3181 14.75V7.75C14.3181 7.2 13.8681 6.75 13.3181 6.75ZM13.3181 14.75H6.31812V9.25H13.3181V14.75Z" fill="#212121"/>
</g>
<defs>
<clipPath id="clip0_6503_172297">
<rect width="12" height="12" fill="white" transform="translate(3.81812 4.75)"/>
</clipPath>
</defs>
</svg>
