<svg width="22" height="22" viewBox="0 0 22 22" fill="none" xmlns="http://www.w3.org/2000/svg">
<path d="M21.3125 3.438H12.375V1.3755C12.375 1.17062 12.2843 0.976749 12.1261 0.846124C11.9694 0.715499 11.759 0.659124 11.561 0.700374L0.561 2.76287C0.235125 2.82337 0 3.10662 0 3.438V18.563C0 18.893 0.235125 19.1776 0.561 19.2381L11.561 21.3006C11.6023 21.3089 11.6449 21.313 11.6875 21.313C11.847 21.313 12.0024 21.258 12.1261 21.1549C12.2843 21.0243 12.375 20.829 12.375 20.6255V18.563H21.3125C21.692 18.563 22 18.255 22 17.8755V4.1255C22 3.746 21.692 3.438 21.3125 3.438ZM9.4545 13.2981C9.70475 13.5828 9.67587 14.0173 9.38988 14.2675C9.25925 14.3816 9.09838 14.438 8.9375 14.438C8.74638 14.438 8.55663 14.3583 8.4205 14.2029L6.42125 11.919L4.66813 14.174C4.532 14.3473 4.3285 14.438 4.125 14.438C3.97787 14.438 3.82938 14.3913 3.70288 14.2936C3.40313 14.0599 3.3495 13.6281 3.58188 13.3284L5.49863 10.8644L3.608 8.70288C3.35775 8.41825 3.38663 7.98375 3.67263 7.7335C3.95725 7.48325 4.39038 7.51075 4.64337 7.79812L6.35938 9.75887L8.39575 7.14087C8.6295 6.8425 9.06125 6.7875 9.361 7.02125C9.66075 7.25362 9.71437 7.68537 9.48063 7.9865L7.28063 10.8135L9.4545 13.2981ZM20.625 17.188H12.375V15.813H14.4375C14.817 15.813 15.125 15.505 15.125 15.1255C15.125 14.746 14.817 14.438 14.4375 14.438H12.375V13.063H14.4375C14.817 13.063 15.125 12.755 15.125 12.3755C15.125 11.996 14.817 11.688 14.4375 11.688H12.375V10.313H14.4375C14.817 10.313 15.125 10.005 15.125 9.6255C15.125 9.246 14.817 8.938 14.4375 8.938H12.375V7.563H14.4375C14.817 7.563 15.125 7.255 15.125 6.8755C15.125 6.496 14.817 6.188 14.4375 6.188H12.375V4.813H20.625V17.188Z" fill="#76767B"/>
<path d="M18.5625 6.18799H17.1875C16.808 6.18799 16.5 6.49599 16.5 6.87549C16.5 7.25499 16.808 7.56299 17.1875 7.56299H18.5625C18.942 7.56299 19.25 7.25499 19.25 6.87549C19.25 6.49599 18.942 6.18799 18.5625 6.18799Z" fill="#76767B"/>
<path d="M18.5625 8.93799H17.1875C16.808 8.93799 16.5 9.24599 16.5 9.62549C16.5 10.005 16.808 10.313 17.1875 10.313H18.5625C18.942 10.313 19.25 10.005 19.25 9.62549C19.25 9.24599 18.942 8.93799 18.5625 8.93799Z" fill="#76767B"/>
<path d="M18.5625 11.688H17.1875C16.808 11.688 16.5 11.996 16.5 12.3755C16.5 12.755 16.808 13.063 17.1875 13.063H18.5625C18.942 13.063 19.25 12.755 19.25 12.3755C19.25 11.996 18.942 11.688 18.5625 11.688Z" fill="#76767B"/>
<path d="M18.5625 14.438H17.1875C16.808 14.438 16.5 14.746 16.5 15.1255C16.5 15.505 16.808 15.813 17.1875 15.813H18.5625C18.942 15.813 19.25 15.505 19.25 15.1255C19.25 14.746 18.942 14.438 18.5625 14.438Z" fill="#76767B"/>
</svg>
