<svg width="15" height="15" viewBox="0 0 15 15" fill="none" xmlns="http://www.w3.org/2000/svg">
<path d="M0.462891 7.19629C0.462891 8.14876 0.645182 9.04427 1.00977 9.88281C1.37435 10.7259 1.87793 11.4688 2.52051 12.1113C3.16309 12.7539 3.90365 13.2575 4.74219 13.6221C5.58529 13.9867 6.48307 14.1689 7.43555 14.1689C8.38802 14.1689 9.28353 13.9867 10.1221 13.6221C10.9652 13.2575 11.708 12.7539 12.3506 12.1113C12.9932 11.4688 13.4967 10.7259 13.8613 9.88281C14.2259 9.03971 14.4082 8.14193 14.4082 7.18945C14.4082 6.23698 14.2259 5.33919 13.8613 4.49609C13.4967 3.65755 12.9932 2.91699 12.3506 2.27441C11.708 1.63639 10.9652 1.13509 10.1221 0.770508C9.28353 0.405924 8.38802 0.223633 7.43555 0.223633C6.48307 0.223633 5.58529 0.405924 4.74219 0.770508C3.90365 1.13509 3.16309 1.63867 2.52051 2.28125C1.87793 2.92383 1.37435 3.66439 1.00977 4.50293C0.645182 5.34603 0.462891 6.24382 0.462891 7.19629ZM1.625 7.19629C1.625 6.38965 1.77539 5.63542 2.07617 4.93359C2.37695 4.23177 2.79167 3.61426 3.32031 3.08105C3.85352 2.55241 4.47103 2.1377 5.17285 1.83691C5.87467 1.54069 6.62891 1.39258 7.43555 1.39258C8.24219 1.39258 8.99642 1.54069 9.69824 1.83691C10.4001 2.1377 11.0176 2.55241 11.5508 3.08105C12.084 3.6097 12.4987 4.22493 12.7949 4.92676C13.0957 5.62858 13.2461 6.38281 13.2461 7.18945C13.2461 7.99609 13.0957 8.75033 12.7949 9.45215C12.4987 10.154 12.084 10.7715 11.5508 11.3047C11.0176 11.8379 10.4001 12.2549 9.69824 12.5557C8.99642 12.8564 8.24219 13.0068 7.43555 13.0068C6.62891 13.0068 5.87467 12.8564 5.17285 12.5557C4.47103 12.2594 3.85352 11.8447 3.32031 11.3115C2.79167 10.7829 2.37695 10.1654 2.07617 9.45898C1.77539 8.75716 1.625 8.00293 1.625 7.19629ZM4.05859 5.6377C3.97201 5.72884 3.93099 5.84733 3.93555 5.99316C3.9401 6.14355 3.98796 6.2666 4.0791 6.3623L6.76562 9.21289C6.88411 9.34049 7.02539 9.4248 7.18945 9.46582C7.35352 9.51139 7.51758 9.51139 7.68164 9.46582C7.8457 9.4248 7.98698 9.34049 8.10547 9.21289L10.7852 6.3623C10.8854 6.25749 10.9378 6.13444 10.9424 5.99316C10.9469 5.85645 10.9014 5.74023 10.8057 5.64453C10.71 5.53971 10.5892 5.48503 10.4434 5.48047C10.2975 5.47591 10.1745 5.52604 10.0742 5.63086L7.43555 8.44043L4.79004 5.63086C4.69434 5.5306 4.57357 5.48047 4.42773 5.48047C4.2819 5.48047 4.15885 5.53288 4.05859 5.6377Z" fill="#3D5AFE"/>
</svg>
