<svg width="20" height="23" viewBox="0 0 20 23" fill="none" xmlns="http://www.w3.org/2000/svg">
<path d="M10 16.0645C10.1172 16.0645 10.2246 16.0449 10.3223 16.0059C10.4395 15.9668 10.5566 15.8887 10.6738 15.7715L14.1602 12.4023C14.2383 12.3047 14.2969 12.2168 14.3359 12.1387C14.3945 12.041 14.4238 11.9336 14.4238 11.8164C14.4238 11.582 14.3457 11.3965 14.1895 11.2598C14.0332 11.123 13.8379 11.0547 13.6035 11.0547C13.5059 11.0547 13.3984 11.0742 13.2812 11.1133C13.1836 11.1523 13.1055 11.2207 13.0469 11.3184L11.4941 12.959L10.791 13.6914L10.8789 12.1387V1.24023C10.8789 1.00586 10.791 0.810547 10.6152 0.654297C10.4395 0.478516 10.2344 0.390625 10 0.390625C9.76562 0.390625 9.56055 0.478516 9.38477 0.654297C9.20898 0.810547 9.12109 1.00586 9.12109 1.24023V12.1387L9.20898 13.6914L8.50586 12.959L6.98242 11.3184C6.9043 11.2207 6.80664 11.1523 6.68945 11.1133C6.5918 11.0742 6.49414 11.0547 6.39648 11.0547C6.16211 11.0547 5.9668 11.123 5.81055 11.2598C5.67383 11.3965 5.60547 11.582 5.60547 11.8164C5.60547 11.9336 5.625 12.041 5.66406 12.1387C5.70312 12.2168 5.77148 12.3047 5.86914 12.4023L9.35547 15.7715C9.47266 15.8887 9.58008 15.9668 9.67773 16.0059C9.77539 16.0449 9.88281 16.0645 10 16.0645ZM4.02344 22.8613H15.9766C17.0703 22.8613 17.8906 22.5879 18.4375 22.041C19.0039 21.4941 19.2871 20.6738 19.2871 19.5801V9.26758C19.2871 8.17383 19.0039 7.35352 18.4375 6.80664C17.8906 6.25977 17.0703 5.98633 15.9766 5.98633H13.1055V7.80273H15.918C16.4062 7.80273 16.7871 7.93945 17.0605 8.21289C17.334 8.4668 17.4707 8.85742 17.4707 9.38477V19.4629C17.4707 19.9902 17.334 20.3906 17.0605 20.6641C16.7871 20.918 16.4062 21.0449 15.918 21.0449H4.11133C3.60352 21.0449 3.21289 20.918 2.93945 20.6641C2.66602 20.3906 2.5293 19.9902 2.5293 19.4629V9.38477C2.5293 8.85742 2.66602 8.4668 2.93945 8.21289C3.21289 7.93945 3.60352 7.80273 4.11133 7.80273H6.92383V5.98633H4.02344C2.92969 5.98633 2.09961 6.25977 1.5332 6.80664C0.986328 7.35352 0.712891 8.17383 0.712891 9.26758V19.5801C0.712891 20.6738 0.986328 21.4941 1.5332 22.041C2.09961 22.5879 2.92969 22.8613 4.02344 22.8613Z" fill="#3D5AFE"/>
</svg>
