<svg width="34" height="25" viewBox="0 0 34 25" fill="none" xmlns="http://www.w3.org/2000/svg">
<path d="M15.667 24.5H8.91699C6.64199 24.5 4.69849 23.7125 3.08649 22.1375C1.47349 20.5625 0.666992 18.6375 0.666992 16.3625C0.666992 14.4125 1.25449 12.675 2.42949 11.15C3.60449 9.625 5.14199 8.65 7.04199 8.225C7.66699 5.925 8.91699 4.0625 10.792 2.6375C12.667 1.2125 14.792 0.5 17.167 0.5C20.092 0.5 22.573 1.5185 24.61 3.5555C26.648 5.5935 27.667 8.075 27.667 11C29.392 11.2 30.8235 11.9435 31.9615 13.2305C33.0985 14.5185 33.667 16.025 33.667 17.75C33.667 19.625 33.011 21.219 31.699 22.532C30.386 23.844 28.792 24.5 26.917 24.5H18.667V13.775L21.067 16.1L23.167 14L17.167 8L11.167 14L13.267 16.1L15.667 13.775V24.5Z" fill="#3D5AFE"/>
</svg>
