<svg width="48" height="48" viewBox="0 0 48 48" fill="none" xmlns="http://www.w3.org/2000/svg">
<path d="M0 4C0 1.79086 1.79086 0 4 0H44C46.2091 0 48 1.79086 48 4V44C48 46.2091 46.2091 48 44 48H4C1.79086 48 0 46.2091 0 44V4Z" fill="white"/>
<path d="M2.46885 47.6965C1.49109 47.291 0.708984 46.5089 0.303522 45.5312L0.765385 45.3396C0.594543 44.9276 0.5 44.4755 0.5 44V42H0V38H0.5V34H0V30H0.5V26H0V22H0.5V18H0V14H0.5V10H0V6H0.5V4C0.5 3.52451 0.594542 3.07236 0.765385 2.66038L0.303522 2.46885C0.708984 1.49109 1.49109 0.708983 2.46885 0.303522L2.66038 0.765385C3.07236 0.594542 3.52451 0.5 4 0.5H6V0H10V0.5H14V0H18V0.5H22V0H26V0.5H30V0H34V0.5H38V0H42V0.5H44C44.4755 0.5 44.9276 0.594542 45.3396 0.765385L45.5312 0.303522C46.5089 0.708984 47.291 1.49109 47.6965 2.46885L47.2346 2.66038C47.4055 3.07236 47.5 3.52451 47.5 4V6H48V10H47.5V14H48V18H47.5V22H48V26H47.5V30H48V34H47.5V38H48V42H47.5V44C47.5 44.4755 47.4055 44.9276 47.2346 45.3396L47.6965 45.5312C47.291 46.5089 46.5089 47.291 45.5312 47.6965L45.3396 47.2346C44.9276 47.4055 44.4755 47.5 44 47.5H42V48H38V47.5H34V48H30V47.5H26V48H22V47.5H18V48H14V47.5H10V48H6V47.5H4C3.52451 47.5 3.07236 47.4055 2.66038 47.2346L2.46885 47.6965Z" stroke="#3D5AFE" stroke-opacity="0.4" stroke-dasharray="4 4"/>
<g opacity="0.5" clip-path="url(#clip0_371_4761)">
<path d="M30 32H16V18H25V16H16C14.9 16 14 16.9 14 18V32C14 33.1 14.9 34 16 34H30C31.1 34 32 33.1 32 32V23H30V32ZM22.21 28.83L20.25 26.47L17.5 30H28.5L24.96 25.29L22.21 28.83ZM32 16V13H30V16H27C27.01 16.01 27 18 27 18H30V20.99C30.01 21 32 20.99 32 20.99V18H35V16H32Z" fill="#5856D6"/>
</g>
<defs>
<clipPath id="clip0_371_4761">
<rect width="24" height="24" fill="white" transform="translate(12 12)"/>
</clipPath>
</defs>
</svg>
