<svg width="48" height="49" viewBox="0 0 48 49" fill="none" xmlns="http://www.w3.org/2000/svg">
<path d="M0 4.5C0 2.29086 1.79086 0.5 4 0.5H44C46.2091 0.5 48 2.29086 48 4.5V44.5C48 46.7091 46.2091 48.5 44 48.5H4C1.79086 48.5 0 46.7091 0 44.5V4.5Z" fill="white"/>
<path d="M2.46885 48.1965C1.49109 47.791 0.708984 47.0089 0.303522 46.0312L0.765385 45.8396C0.594543 45.4276 0.5 44.9755 0.5 44.5V42.5H0V38.5H0.5V34.5H0V30.5H0.5V26.5H0V22.5H0.5V18.5H0V14.5H0.5V10.5H0V6.5H0.5V4.5C0.5 4.02451 0.594542 3.57236 0.765385 3.16038L0.303522 2.96885C0.708984 1.99109 1.49109 1.20898 2.46885 0.803522L2.66038 1.26539C3.07236 1.09454 3.52451 1 4 1H6V0.5H10V1H14V0.5H18V1H22V0.5H26V1H30V0.5H34V1H38V0.5H42V1H44C44.4755 1 44.9276 1.09454 45.3396 1.26539L45.5312 0.803522C46.5089 1.20898 47.291 1.99109 47.6965 2.96885L47.2346 3.16038C47.4055 3.57236 47.5 4.02451 47.5 4.5V6.5H48V10.5H47.5V14.5H48V18.5H47.5V22.5H48V26.5H47.5V30.5H48V34.5H47.5V38.5H48V42.5H47.5V44.5C47.5 44.9755 47.4055 45.4276 47.2346 45.8396L47.6965 46.0312C47.291 47.0089 46.5089 47.791 45.5312 48.1965L45.3396 47.7346C44.9276 47.9055 44.4755 48 44 48H42V48.5H38V48H34V48.5H30V48H26V48.5H22V48H18V48.5H14V48H10V48.5H6V48H4C3.52451 48 3.07236 47.9055 2.66038 47.7346L2.46885 48.1965Z" stroke="#3D5AFE" stroke-opacity="0.4" stroke-dasharray="4 4"/>
<g opacity="0.5" clip-path="url(#clip0_1471_38416)">
<path d="M30 32.5H16V18.5H25V16.5H16C14.9 16.5 14 17.4 14 18.5V32.5C14 33.6 14.9 34.5 16 34.5H30C31.1 34.5 32 33.6 32 32.5V23.5H30V32.5ZM22.21 29.33L20.25 26.97L17.5 30.5H28.5L24.96 25.79L22.21 29.33ZM32 16.5V13.5H30V16.5H27C27.01 16.51 27 18.5 27 18.5H30V21.49C30.01 21.5 32 21.49 32 21.49V18.5H35V16.5H32Z" fill="#5856D6"/>
</g>
<defs>
<clipPath id="clip0_1471_38416">
<rect width="24" height="24" fill="white" transform="translate(12 12.5)"/>
</clipPath>
</defs>
</svg>
