<svg id="Layer_1" data-name="Layer 1" xmlns="http://www.w3.org/2000/svg" viewBox="0 0 522 77.23"><defs><style>.cls-1{fill:#fff;}.cls-2{fill:#5db6e6;}</style></defs><title>CMYK-white</title><polygon class="cls-1" points="0 23.09 40.13 0 79.56 22.68 69.98 28.22 40.12 10.62 0 33.3 0 23.09"/><polygon class="cls-1" points="0 41.23 40.13 18.18 63.52 31.94 54.37 37.2 40.12 28.81 0 51.48 0 41.23"/><polygon class="cls-1" points="79.56 54.61 40.13 77.23 0 54.64 10.1 48.93 40.13 66.82 79.56 44.58 79.56 54.61"/><polygon class="cls-2" points="79.56 36.49 40.09 59.45 16.34 45.41 25.56 40.2 40.12 48.83 79.56 26.15 79.56 36.49"/><path class="cls-1" d="M108.38,54.71H98.77V16.06h9.61Z"/><path class="cls-1" d="M150.78,54.71h-7.44l-18.53-21.2v21.2H115.2V16.06h7.33l18.65,21.77V16.06h9.6Z"/><path class="cls-1" d="M194,54.71h-8.29l-18.53-21.2.84,21.2h-9.61V16.06h7.34l18.64,21.77V16.06H194Z"/><path class="cls-1" d="M240,35.38c0,11.26-8.81,20.13-20.52,20.13S199,46.64,199,35.38s8.81-20.12,20.46-20.12S240,24.13,240,35.38Zm-9.78,0c0-6.08-4.49-11.19-10.74-11.19s-10.74,5.11-10.74,11.19,4.49,11.2,10.74,11.2S230.2,41.47,230.2,35.38Z"/><path class="cls-1" d="M266,54.94h-9.66L239.59,16.06h10.57l11,26.2,11-26.2h10.57Z"/><path class="cls-1" d="M289.44,48.06l-2.56,6.65H276.65l16.43-38.88h9.15L318.6,54.71H308.43l-2.62-6.65Zm8.19-21-5,12.84h10Z"/><path class="cls-1" d="M338.33,16.06c10.06,0,16.37,5.45,16.37,14.15,0,9-6.59,14.67-17.16,14.67h-5.18v9.83h-9.6V16.06Zm-.23,20.4c4.27,0,7-2.44,7-6.25,0-3.47-2.73-5.68-7-5.68h-5.74V36.46Z"/><path class="cls-1" d="M374.26,16.06c10.06,0,16.37,5.45,16.37,14.15,0,9-6.59,14.67-17.17,14.67h-5.17v9.83h-9.61V16.06ZM374,36.46c4.27,0,7-2.44,7-6.25,0-3.47-2.72-5.68-7-5.68h-5.74V36.46Z"/><path class="cls-1" d="M415,24.64V54.71h-9.6V24.64H393V16.06h34.22v8.58Z"/><path class="cls-1" d="M441.17,54.71h-9.6V16.06h9.6Z"/><path class="cls-1" d="M471.59,54.94h-9.67L445.15,16.06h10.58l11,26.2,11-26.2h10.57Z"/><path class="cls-1" d="M502.39,31.46H519.5v8.19H502.39l-.84,6.7H522v8.36H492.78V16.06H522v8.35H502.39Z"/></svg>