<svg width="20" height="21" viewBox="0 0 20 21" fill="none" xmlns="http://www.w3.org/2000/svg">
<rect y="0.931885" width="19.6364" height="19.6364" rx="4" fill="#F8CC8C"/>
<path d="M7.66187 4.875C7.70874 4.78125 7.77905 4.69531 7.8728 4.61719C7.96655 4.53906 8.11499 4.5 8.31812 4.5H10.5681C10.8962 4.5 11.1462 4.59375 11.3181 4.78125C11.49 4.96875 11.615 5.11719 11.6931 5.22656C11.7712 5.11719 11.8962 4.96875 12.0681 4.78125C12.24 4.59375 12.4822 4.5 12.7947 4.5H15.0681C15.2556 4.5 15.3962 4.53906 15.49 4.61719C15.5994 4.69531 15.6775 4.78125 15.7244 4.875C15.7869 4.98438 15.8181 5.10938 15.8181 5.25V11.25C15.8181 11.4375 15.7791 11.5859 15.7009 11.6953C15.6228 11.7891 15.5369 11.8594 15.4431 11.9062C15.3337 11.9688 15.2087 12 15.0681 12H13.5681C13.2556 12 12.9197 12.0781 12.5603 12.2344C12.2166 12.375 11.9666 12.5078 11.8103 12.6328C11.7791 12.6641 11.7556 12.6875 11.74 12.7031C11.74 12.7188 11.7244 12.7344 11.6931 12.75V12.7266L11.6697 12.75C11.6541 12.7344 11.6384 12.7188 11.6228 12.7031C11.6228 12.6875 11.6072 12.6719 11.5759 12.6562C11.3259 12.4844 11.0447 12.3359 10.7322 12.2109C10.4353 12.0703 10.1306 12 9.81812 12H8.31812C8.17749 12 8.05249 11.9688 7.94312 11.9062C7.84937 11.8594 7.76343 11.7891 7.6853 11.6953C7.60718 11.5859 7.56812 11.4375 7.56812 11.25V5.25C7.56812 5.10938 7.59937 4.98438 7.66187 4.875ZM12.0681 6V11.25C12.2556 11.0625 12.4822 10.8984 12.7478 10.7578C13.0291 10.6016 13.3025 10.5156 13.5681 10.5H15.0681V5.25H13.5681C13.4431 5.25 13.2947 5.26562 13.1228 5.29688C12.9666 5.3125 12.8103 5.35156 12.6541 5.41406C12.5134 5.46094 12.3884 5.53125 12.2791 5.625C12.1697 5.71875 12.0994 5.84375 12.0681 6ZM8.31812 10.5H9.81812C10.0837 10.5156 10.3494 10.6016 10.615 10.7578C10.8962 10.8984 11.1306 11.0625 11.3181 11.25V6C11.2712 5.85938 11.1931 5.73438 11.0837 5.625C10.9744 5.53125 10.8259 5.45312 10.6384 5.39062C10.4509 5.3125 10.1775 5.26562 9.81812 5.25H8.31812V10.5ZM4.56812 6H6.81812V6.75H4.56812V14.25H15.0681V12.75H15.8181V14.25C15.8181 14.4531 15.7478 14.6328 15.6072 14.7891C15.4666 14.9297 15.2869 15 15.0681 15H4.56812C4.36499 15 4.1853 14.9297 4.02905 14.7891C3.88843 14.6328 3.81812 14.4531 3.81812 14.25V6.75C3.81812 6.53125 3.88843 6.35156 4.02905 6.21094C4.1853 6.07031 4.36499 6 4.56812 6ZM6.81812 16.125C6.81812 16.0156 6.85718 15.9219 6.9353 15.8438C7.01343 15.7812 7.09937 15.75 7.19312 15.75H12.4431C12.6931 15.75 12.8181 15.875 12.8181 16.125C12.8181 16.2188 12.7791 16.3047 12.7009 16.3828C12.6384 16.4609 12.5525 16.5 12.4431 16.5H7.19312C7.09937 16.5 7.01343 16.4609 6.9353 16.3828C6.85718 16.3047 6.81812 16.2188 6.81812 16.125Z" fill="#25282B"/>
</svg>
