<svg width="20" height="21" viewBox="0 0 20 21" fill="none" xmlns="http://www.w3.org/2000/svg">
<rect y="0.931885" width="19.6364" height="19.6364" rx="4" fill="#E0E0E0"/>
<path fill-rule="evenodd" clip-rule="evenodd" d="M4.36898 10.7501C4.44112 10.8262 4.53815 10.9254 4.6578 11.0411C4.94424 11.318 5.35895 11.6873 5.87091 12.0564C6.9001 12.7982 8.29553 13.5193 9.81811 13.5193C11.3407 13.5193 12.7361 12.7982 13.7653 12.0564C14.2773 11.6873 14.692 11.318 14.9784 11.0411C15.0981 10.9254 15.1951 10.8262 15.2672 10.7501C15.1951 10.674 15.0981 10.5747 14.9784 10.459C14.692 10.1822 14.2773 9.81281 13.7653 9.44379C12.7361 8.70197 11.3407 7.9808 9.81811 7.9808C8.29553 7.9808 6.9001 8.70197 5.87091 9.44379C5.35895 9.81281 4.94424 10.1822 4.6578 10.459C4.53815 10.5747 4.44112 10.674 4.36898 10.7501ZM15.6084 10.7501C15.7995 10.5861 15.7994 10.5861 15.7993 10.586L15.7992 10.5858L15.7986 10.5851L15.7968 10.583L15.7903 10.5756C15.7848 10.5693 15.7767 10.5601 15.7663 10.5484C15.7453 10.525 15.7147 10.4912 15.6748 10.4485C15.595 10.363 15.4783 10.2419 15.3284 10.097C15.0288 9.80748 14.5956 9.42157 14.0597 9.03533C12.9933 8.26664 11.4935 7.47729 9.81811 7.47729C8.14269 7.47729 6.64297 8.26664 5.5765 9.03533C5.04064 9.42157 4.6074 9.80748 4.30786 10.097C4.15795 10.2419 4.04119 10.363 3.96143 10.4485C3.92155 10.4912 3.8909 10.525 3.86996 10.5484C3.85949 10.5601 3.85145 10.5693 3.8459 10.5756L3.83944 10.583L3.83762 10.5851L3.83688 10.586C3.83681 10.5861 3.83676 10.5861 4.02781 10.7501L3.83688 10.586C3.75595 10.6803 3.75583 10.8197 3.83676 10.914L4.02781 10.7501C3.83676 10.914 3.83669 10.9139 3.83676 10.914L3.83762 10.915L3.83944 10.9171L3.8459 10.9245C3.85145 10.9309 3.85949 10.94 3.86996 10.9517C3.8909 10.9752 3.92155 11.009 3.96143 11.0517C4.04119 11.1371 4.15795 11.2582 4.30786 11.4031C4.6074 11.6927 5.04064 12.0786 5.5765 12.4648C6.64297 13.2335 8.14269 14.0229 9.81811 14.0229C11.4935 14.0229 12.9933 13.2335 14.0597 12.4648C14.5956 12.0786 15.0288 11.6927 15.3284 11.4031C15.4783 11.2582 15.595 11.1371 15.6748 11.0517C15.7147 11.009 15.7453 10.9752 15.7663 10.9517C15.7767 10.94 15.7848 10.9309 15.7903 10.9245L15.7968 10.9171L15.7986 10.915L15.7992 10.9144L15.7993 10.9142C15.7994 10.9141 15.7995 10.914 15.6084 10.7501ZM15.6084 10.7501L15.7993 10.9142C15.8803 10.8199 15.8803 10.6803 15.7993 10.586L15.6084 10.7501Z" fill="#25282B"/>
<path d="M15.6084 10.7501C15.7995 10.5861 15.7994 10.5861 15.7993 10.586M15.6084 10.7501C15.7995 10.914 15.7994 10.9141 15.7993 10.9142M15.6084 10.7501L15.7993 10.9142M15.6084 10.7501L15.7993 10.586M15.7993 10.586L15.7992 10.5858L15.7986 10.5851L15.7968 10.583L15.7903 10.5756C15.7848 10.5693 15.7767 10.5601 15.7663 10.5484C15.7453 10.525 15.7147 10.4912 15.6748 10.4485C15.595 10.363 15.4783 10.2419 15.3284 10.097C15.0288 9.80748 14.5956 9.42157 14.0597 9.03533C12.9933 8.26664 11.4935 7.47729 9.81811 7.47729C8.14269 7.47729 6.64297 8.26664 5.5765 9.03533C5.04064 9.42157 4.6074 9.80748 4.30786 10.097C4.15795 10.2419 4.04119 10.363 3.96143 10.4485C3.92155 10.4912 3.8909 10.525 3.86996 10.5484C3.85949 10.5601 3.85145 10.5693 3.8459 10.5756L3.83944 10.583L3.83762 10.5851L3.83688 10.586M15.7993 10.586C15.8803 10.6803 15.8803 10.8199 15.7993 10.9142M3.83688 10.586C3.83681 10.5861 3.83676 10.5861 4.02781 10.7501M3.83688 10.586L4.02781 10.7501M3.83688 10.586C3.75595 10.6803 3.75583 10.8197 3.83676 10.914M4.02781 10.7501L3.83676 10.914M4.02781 10.7501C3.83676 10.914 3.83669 10.9139 3.83676 10.914M3.83676 10.914L3.83762 10.915L3.83944 10.9171L3.8459 10.9245C3.85145 10.9309 3.85949 10.94 3.86996 10.9517C3.8909 10.9752 3.92155 11.009 3.96143 11.0517C4.04119 11.1371 4.15795 11.2582 4.30786 11.4031C4.6074 11.6927 5.04064 12.0786 5.5765 12.4648C6.64297 13.2335 8.14269 14.0229 9.81811 14.0229C11.4935 14.0229 12.9933 13.2335 14.0597 12.4648C14.5956 12.0786 15.0288 11.6927 15.3284 11.4031C15.4783 11.2582 15.595 11.1371 15.6748 11.0517C15.7147 11.009 15.7453 10.9752 15.7663 10.9517C15.7767 10.94 15.7848 10.9309 15.7903 10.9245L15.7968 10.9171L15.7986 10.915L15.7992 10.9144L15.7993 10.9142M4.6578 11.0411C4.53815 10.9254 4.44112 10.8262 4.36898 10.7501C4.44112 10.674 4.53815 10.5747 4.6578 10.459C4.94424 10.1822 5.35895 9.81281 5.87091 9.44379C6.9001 8.70197 8.29553 7.9808 9.81811 7.9808C11.3407 7.9808 12.7361 8.70197 13.7653 9.44379C14.2773 9.81281 14.692 10.1822 14.9784 10.459C15.0981 10.5747 15.1951 10.674 15.2672 10.7501C15.1951 10.8262 15.0981 10.9254 14.9784 11.0411C14.692 11.318 14.2773 11.6873 13.7653 12.0564C12.7361 12.7982 11.3407 13.5193 9.81811 13.5193C8.29553 13.5193 6.9001 12.7982 5.87091 12.0564C5.35895 11.6873 4.94424 11.318 4.6578 11.0411Z" stroke="#25282B" stroke-width="0.2" stroke-miterlimit="10" stroke-linecap="round" stroke-linejoin="round"/>
<path fill-rule="evenodd" clip-rule="evenodd" d="M11.7019 7.94924C11.8049 7.85587 11.9641 7.8637 12.0575 7.96673C12.5432 8.50269 12.8392 9.21441 12.8392 9.99498C12.8392 11.6637 11.4868 13.016 9.81815 13.016C8.14946 13.016 6.79712 11.6637 6.79712 9.99498C6.79712 9.21715 7.09117 8.50734 7.57419 7.97215C7.66734 7.86893 7.82653 7.86077 7.92975 7.95393C8.03297 8.04709 8.04113 8.20628 7.94797 8.3095C7.54532 8.75563 7.30062 9.34637 7.30062 9.99498C7.30062 11.3856 8.42754 12.5125 9.81815 12.5125C11.2088 12.5125 12.3357 11.3856 12.3357 9.99498C12.3357 9.34408 12.0894 8.75173 11.6844 8.30484C11.591 8.20182 11.5989 8.04261 11.7019 7.94924Z" fill="#25282B" stroke="#25282B" stroke-width="0.2" stroke-miterlimit="10" stroke-linecap="round" stroke-linejoin="round"/>
<path d="M10.9771 9.99485C10.9771 10.6348 10.4583 11.1536 9.81833 11.1536C9.17837 11.1536 8.65957 10.6348 8.65957 9.99485C8.65957 9.35488 9.17837 8.83608 9.81833 8.83608C10.4583 8.83608 10.9771 9.35488 10.9771 9.99485Z" fill="#25282B" stroke="#25282B" stroke-width="0.2"/>
</svg>
