<svg width="21" height="21" viewBox="0 0 21 21" fill="none" xmlns="http://www.w3.org/2000/svg">
<path fill-rule="evenodd" clip-rule="evenodd" d="M18.4932 9.63946C18.0819 5.9111 15.1225 2.95166 11.3941 2.54037V0.698547H9.60595V2.54037C5.87759 2.95166 2.91815 5.9111 2.50687 9.63946H0.665039V11.4276H2.50687C2.91815 15.156 5.87759 18.1154 9.60595 18.5267V20.3685H11.3941V18.5267C15.1225 18.1154 18.0819 15.156 18.4932 11.4276H20.335V9.63946H18.4932ZM10.5004 6.95657C8.52441 6.95657 6.92399 8.55699 6.92399 10.5329C6.92399 12.5089 8.52441 14.1093 10.5004 14.1093C12.4763 14.1093 14.0767 12.5089 14.0767 10.5329C14.0767 8.55699 12.4763 6.95657 10.5004 6.95657ZM4.24128 10.5341C4.24128 13.9943 7.03979 16.7928 10.4999 16.7928C13.9601 16.7928 16.7586 13.9943 16.7586 10.5341C16.7586 7.07399 13.9601 4.27549 10.4999 4.27549C7.03979 4.27549 4.24128 7.07399 4.24128 10.5341Z" fill="#05366D"/>
</svg>
