<svg width="158" height="40" viewBox="0 0 158 40" fill="none" xmlns="http://www.w3.org/2000/svg">
<path d="M0 23.8765L12.1466 17L24.0814 23.7544L21.1817 25.4042L12.1436 20.1628L0 26.9171V23.8765Z" fill="white"/>
<path d="M0 29.2788L12.1466 22.4142L19.2264 26.5121L16.4568 28.0786L12.1436 25.58L0 32.3313V29.2788Z" fill="white"/>
<path d="M24.0814 33.2635L12.1466 40L0 33.2724L3.05709 31.5719L12.1466 36.8998L24.0814 30.2764V33.2635Z" fill="white"/>
<path d="M24.0814 27.8672L12.1345 34.7049L4.9458 30.5236L7.73653 28.972L12.1436 31.5422L24.0814 24.7878V27.8672Z" fill="#5DB6E6"/>
<path d="M32.8046 33.2933H29.8959V21.7829H32.8046V33.2933Z" fill="white"/>
<path d="M45.6384 33.2933H43.3864L37.7777 26.9797V33.2933H34.869V21.7829H37.0876L42.7326 28.2662V21.7829H45.6384V33.2933Z" fill="white"/>
<path d="M58.7203 33.2933H56.211L50.6023 26.9797L50.8566 33.2933H47.9478V21.7829H50.1695L55.8115 28.2662V21.7829H58.7203V33.2933Z" fill="white"/>
<path d="M72.6437 27.5366C72.6437 30.8899 69.977 33.5315 66.4326 33.5315C62.8882 33.5315 60.2337 30.8899 60.2337 27.5366C60.2337 24.1832 62.9003 21.5446 66.4266 21.5446C69.9528 21.5446 72.6437 24.1862 72.6437 27.5366ZM69.6834 27.5366C69.6834 25.7259 68.3244 24.204 66.4326 24.204C64.5409 24.204 63.1818 25.7259 63.1818 27.5366C63.1818 29.3473 64.5409 30.872 66.4326 30.872C68.3244 30.872 69.6774 29.3502 69.6774 27.5366H69.6834Z" fill="white"/>
<path d="M80.5134 33.3618H77.5895L72.5196 21.7829H75.7189L79.0484 29.5855L82.3779 21.7829H85.5773L80.5134 33.3618Z" fill="white"/>
<path d="M87.6082 31.3128L86.8334 33.2933H83.7369L88.71 21.7144H91.4795L96.4344 33.2933H93.3562L92.5631 31.3128H87.6082ZM90.0872 25.0588L88.5738 28.8827H91.6006L90.0872 25.0588Z" fill="white"/>
<path d="M102.406 21.7829C105.451 21.7829 107.361 23.4059 107.361 25.9969C107.361 28.6772 105.367 30.3658 102.167 30.3658H100.599V33.2933H97.6937V21.7829H102.406ZM102.337 27.8582C103.629 27.8582 104.456 27.1316 104.456 25.9969C104.456 24.9635 103.629 24.3053 102.337 24.3053H100.599V27.8582H102.337Z" fill="white"/>
<path d="M113.282 21.7829C116.327 21.7829 118.237 23.4059 118.237 25.9969C118.237 28.6772 116.242 30.3658 113.04 30.3658H111.475V33.2933H108.566V21.7829H113.282ZM113.203 27.8582C114.496 27.8582 115.322 27.1316 115.322 25.9969C115.322 24.9635 114.499 24.3053 113.203 24.3053H111.466V27.8582H113.203Z" fill="white"/>
<path d="M125.613 24.3381V33.2933H122.707V24.3381H118.954V21.7829H129.312V24.3381H125.613Z" fill="white"/>
<path d="M133.534 33.2933H130.628V21.7829H133.534V33.2933Z" fill="white"/>
<path d="M142.742 33.3618H139.815L134.739 21.7829H137.941L141.271 29.5855L144.6 21.7829H147.8L142.742 33.3618Z" fill="white"/>
<path d="M152.064 26.3692H157.243V28.8082H152.064L151.81 30.8036H158V33.2933H149.156V21.7829H158V24.2696H152.064V26.3692Z" fill="white"/>
<path d="M32.1152 7.66016V11H30.9902V2.46875H34.1367C35.0703 2.46875 35.8008 2.70703 36.3281 3.18359C36.8594 3.66016 37.125 4.29102 37.125 5.07617C37.125 5.9043 36.8652 6.54297 36.3457 6.99219C35.8301 7.4375 35.0898 7.66016 34.125 7.66016H32.1152ZM32.1152 6.74023H34.1367C34.7383 6.74023 35.1992 6.59961 35.5195 6.31836C35.8398 6.0332 36 5.62305 36 5.08789C36 4.58008 35.8398 4.17383 35.5195 3.86914C35.1992 3.56445 34.7598 3.40625 34.2012 3.39453H32.1152V6.74023ZM38.0215 7.77148C38.0215 7.15039 38.1426 6.5918 38.3848 6.0957C38.6309 5.59961 38.9707 5.2168 39.4043 4.94727C39.8418 4.67773 40.3398 4.54297 40.8984 4.54297C41.7617 4.54297 42.459 4.8418 42.9902 5.43945C43.5254 6.03711 43.793 6.83203 43.793 7.82422V7.90039C43.793 8.51758 43.6738 9.07227 43.4355 9.56445C43.2012 10.0527 42.8633 10.4336 42.4219 10.707C41.9844 10.9805 41.4805 11.1172 40.9102 11.1172C40.0508 11.1172 39.3535 10.8184 38.8184 10.2207C38.2871 9.62305 38.0215 8.83203 38.0215 7.84766V7.77148ZM39.1113 7.90039C39.1113 8.60352 39.2734 9.16797 39.5977 9.59375C39.9258 10.0195 40.3633 10.2324 40.9102 10.2324C41.4609 10.2324 41.8984 10.0176 42.2227 9.58789C42.5469 9.1543 42.709 8.54883 42.709 7.77148C42.709 7.07617 42.543 6.51367 42.2109 6.08398C41.8828 5.65039 41.4453 5.43359 40.8984 5.43359C40.3633 5.43359 39.9316 5.64648 39.6035 6.07227C39.2754 6.49805 39.1113 7.10742 39.1113 7.90039ZM50.7656 9.50586L51.9844 4.66016H53.0684L51.2227 11H50.3438L48.8027 6.19531L47.3027 11H46.4238L44.584 4.66016H45.6621L46.9102 9.40625L48.3867 4.66016H49.2598L50.7656 9.50586ZM56.8066 11.1172C55.9473 11.1172 55.248 10.8359 54.709 10.2734C54.1699 9.70703 53.9004 8.95117 53.9004 8.00586V7.80664C53.9004 7.17773 54.0195 6.61719 54.2578 6.125C54.5 5.62891 54.8359 5.24219 55.2656 4.96484C55.6992 4.68359 56.168 4.54297 56.6719 4.54297C57.4961 4.54297 58.1367 4.81445 58.5938 5.35742C59.0508 5.90039 59.2793 6.67773 59.2793 7.68945V8.14062H54.9844C55 8.76562 55.1816 9.27148 55.5293 9.6582C55.8809 10.041 56.3262 10.2324 56.8652 10.2324C57.248 10.2324 57.5723 10.1543 57.8379 9.99805C58.1035 9.8418 58.3359 9.63477 58.5352 9.37695L59.1973 9.89258C58.666 10.709 57.8691 11.1172 56.8066 11.1172ZM56.6719 5.43359C56.2344 5.43359 55.8672 5.59375 55.5703 5.91406C55.2734 6.23047 55.0898 6.67578 55.0195 7.25H58.1953V7.16797C58.1641 6.61719 58.0156 6.19141 57.75 5.89062C57.4844 5.58594 57.125 5.43359 56.6719 5.43359ZM63.6035 5.63281C63.4395 5.60547 63.2617 5.5918 63.0703 5.5918C62.3594 5.5918 61.877 5.89453 61.623 6.5V11H60.5391V4.66016H61.5938L61.6113 5.39258C61.9668 4.82617 62.4707 4.54297 63.123 4.54297C63.334 4.54297 63.4941 4.57031 63.6035 4.625V5.63281ZM67.1191 11.1172C66.2598 11.1172 65.5605 10.8359 65.0215 10.2734C64.4824 9.70703 64.2129 8.95117 64.2129 8.00586V7.80664C64.2129 7.17773 64.332 6.61719 64.5703 6.125C64.8125 5.62891 65.1484 5.24219 65.5781 4.96484C66.0117 4.68359 66.4805 4.54297 66.9844 4.54297C67.8086 4.54297 68.4492 4.81445 68.9062 5.35742C69.3633 5.90039 69.5918 6.67773 69.5918 7.68945V8.14062H65.2969C65.3125 8.76562 65.4941 9.27148 65.8418 9.6582C66.1934 10.041 66.6387 10.2324 67.1777 10.2324C67.5605 10.2324 67.8848 10.1543 68.1504 9.99805C68.416 9.8418 68.6484 9.63477 68.8477 9.37695L69.5098 9.89258C68.9785 10.709 68.1816 11.1172 67.1191 11.1172ZM66.9844 5.43359C66.5469 5.43359 66.1797 5.59375 65.8828 5.91406C65.5859 6.23047 65.4023 6.67578 65.332 7.25H68.5078V7.16797C68.4766 6.61719 68.3281 6.19141 68.0625 5.89062C67.7969 5.58594 67.4375 5.43359 66.9844 5.43359ZM70.5879 7.77734C70.5879 6.80469 70.8184 6.02344 71.2793 5.43359C71.7402 4.83984 72.3438 4.54297 73.0898 4.54297C73.832 4.54297 74.4199 4.79688 74.8535 5.30469V2H75.9375V11H74.9414L74.8887 10.3203C74.4551 10.8516 73.8516 11.1172 73.0781 11.1172C72.3438 11.1172 71.7441 10.8164 71.2793 10.2148C70.8184 9.61328 70.5879 8.82812 70.5879 7.85938V7.77734ZM71.6719 7.90039C71.6719 8.61914 71.8203 9.18164 72.1172 9.58789C72.4141 9.99414 72.8242 10.1973 73.3477 10.1973C74.0352 10.1973 74.5371 9.88867 74.8535 9.27148V6.35938C74.5293 5.76172 74.0312 5.46289 73.3594 5.46289C72.8281 5.46289 72.4141 5.66797 72.1172 6.07812C71.8203 6.48828 71.6719 7.0957 71.6719 7.90039ZM85.9688 7.90039C85.9688 8.86914 85.7461 9.64844 85.3008 10.2383C84.8555 10.8242 84.2578 11.1172 83.5078 11.1172C82.707 11.1172 82.0879 10.834 81.6504 10.2676L81.5977 11H80.6016V2H81.6855V5.35742C82.123 4.81445 82.7266 4.54297 83.4961 4.54297C84.2656 4.54297 84.8691 4.83398 85.3066 5.41602C85.748 5.99805 85.9688 6.79492 85.9688 7.80664V7.90039ZM84.8848 7.77734C84.8848 7.03906 84.7422 6.46875 84.457 6.06641C84.1719 5.66406 83.7617 5.46289 83.2266 5.46289C82.5117 5.46289 81.998 5.79492 81.6855 6.45898V9.20117C82.0176 9.86523 82.5352 10.1973 83.2383 10.1973C83.7578 10.1973 84.1621 9.99609 84.4512 9.59375C84.7402 9.19141 84.8848 8.58594 84.8848 7.77734ZM89.3438 9.41211L90.8203 4.66016H91.9805L89.4316 11.9785C89.0371 13.0332 88.4102 13.5605 87.5508 13.5605L87.3457 13.543L86.9414 13.4668V12.5879L87.2344 12.6113C87.6016 12.6113 87.8867 12.5371 88.0898 12.3887C88.2969 12.2402 88.4668 11.9688 88.5996 11.5742L88.8398 10.9297L86.5781 4.66016H87.7617L89.3438 9.41211Z" fill="#E5E5E5"/>
</svg>
