<svg width="24" height="24" viewBox="0 0 24 24" fill="none" xmlns="http://www.w3.org/2000/svg">
<path d="M4 21H12C12.55 21 13 20.55 13 20C13 19.45 12.55 19 12 19H4C3.45 19 3 19.45 3 20C3 20.55 3.45 21 4 21ZM17 9.21V14.8C17 15.25 17.54 15.47 17.85 15.15L20.64 12.36C20.84 12.16 20.84 11.85 20.64 11.65L17.85 8.85C17.54 8.54 17 8.76 17 9.21ZM4 17H12C12.55 17 13 16.55 13 16C13 15.45 12.55 15 12 15H4C3.45 15 3 15.45 3 16C3 16.55 3.45 17 4 17ZM3 4C3 4.55 3.45 5 4 5H12C12.55 5 13 4.55 13 4C13 3.45 12.55 3 12 3H4C3.45 3 3 3.45 3 4ZM4 9H12C12.55 9 13 8.55 13 8C13 7.45 12.55 7 12 7H4C3.45 7 3 7.45 3 8C3 8.55 3.45 9 4 9ZM4 13H12C12.55 13 13 12.55 13 12C13 11.45 12.55 11 12 11H4C3.45 11 3 11.45 3 12C3 12.55 3.45 13 4 13Z" fill="#1351D8"/>
</svg>
