<svg width="20" height="21" viewBox="0 0 20 21" fill="none" xmlns="http://www.w3.org/2000/svg">
<rect y="0.931885" width="19.6364" height="19.6364" rx="4" fill="#8FD1BB" fill-opacity="0.8"/>
<path d="M4.03735 13.75H5.16675V7.40869H4.03735L2.38062 8.57324V9.63672L3.95825 8.5249H4.03735V13.75ZM6.93335 13.75H11.3323V12.814H8.16382L8.46265 13.0117V12.5107L8.16382 13.0117L9.73267 11.4868C10.1165 11.1147 10.4167 10.7939 10.6335 10.5244C10.8533 10.2549 11.0085 10.0073 11.0994 9.78174C11.1902 9.55322 11.2356 9.32031 11.2356 9.08301V9.06982C11.2356 8.7124 11.1448 8.39746 10.9631 8.125C10.7815 7.85254 10.5295 7.63867 10.2073 7.4834C9.88794 7.32812 9.52319 7.25049 9.11304 7.25049C8.67065 7.25049 8.28101 7.33545 7.94409 7.50537C7.60718 7.67529 7.34351 7.91113 7.15308 8.21289C6.96265 8.51465 6.86743 8.86328 6.86743 9.25879L6.87183 9.27197L7.92651 9.27637L7.93091 9.25879C7.93091 9.03906 7.97778 8.84717 8.07153 8.68311C8.16528 8.51904 8.29712 8.3916 8.46704 8.30078C8.63696 8.20703 8.83325 8.16016 9.05591 8.16016C9.27563 8.16016 9.4646 8.2041 9.6228 8.29199C9.78101 8.37695 9.90259 8.49561 9.98755 8.64795C10.0725 8.80029 10.115 8.97314 10.115 9.1665V9.17969C10.115 9.34082 10.0828 9.49463 10.0183 9.64111C9.95386 9.78467 9.84106 9.95166 9.67993 10.1421C9.52173 10.3296 9.29907 10.5684 9.01196 10.8584L6.93335 12.9854V13.75ZM14.8831 13.8774C15.3518 13.8774 15.7634 13.7969 16.1179 13.6357C16.4753 13.4746 16.7537 13.252 16.9529 12.9678C17.1521 12.6807 17.2517 12.3525 17.2517 11.9834V11.9746C17.2517 11.5352 17.1096 11.1836 16.8254 10.9199C16.5413 10.6533 16.1648 10.498 15.696 10.4541V10.4321C15.9509 10.3794 16.178 10.2871 16.3772 10.1553C16.5793 10.0234 16.7375 9.85791 16.8518 9.65869C16.969 9.45654 17.0276 9.2251 17.0276 8.96436V8.95557C17.0276 8.62158 16.9382 8.33008 16.7595 8.08105C16.5837 7.83203 16.3347 7.63721 16.0125 7.49658C15.6902 7.35303 15.3108 7.28125 14.8743 7.28125C14.4465 7.28125 14.0701 7.35742 13.7449 7.50977C13.4226 7.65918 13.1648 7.87012 12.9714 8.14258C12.781 8.41211 12.6697 8.72998 12.6375 9.09619L12.6331 9.14893H13.6833L13.6877 9.10498C13.7083 8.91748 13.7698 8.75488 13.8723 8.61719C13.9749 8.47656 14.1111 8.36816 14.281 8.29199C14.4539 8.21582 14.6516 8.17773 14.8743 8.17773C15.0999 8.17773 15.2917 8.21436 15.45 8.2876C15.6111 8.36084 15.7327 8.46631 15.8147 8.604C15.8997 8.7417 15.9421 8.90869 15.9421 9.10498V9.11377C15.9421 9.29834 15.8938 9.4624 15.7971 9.60596C15.7004 9.74658 15.5642 9.85791 15.3884 9.93994C15.2126 10.022 15.009 10.063 14.7776 10.063H14.0481V10.9067H14.7996C15.2068 10.9067 15.5261 10.9961 15.7576 11.1748C15.989 11.3535 16.1047 11.6099 16.1047 11.9438V11.9526C16.1047 12.1489 16.0535 12.3218 15.9509 12.4712C15.8484 12.6206 15.7048 12.7378 15.5203 12.8228C15.3386 12.9077 15.1262 12.9502 14.8831 12.9502C14.634 12.9502 14.4158 12.9121 14.2283 12.8359C14.0408 12.7568 13.8914 12.6484 13.78 12.5107C13.6687 12.3701 13.6028 12.2104 13.5823 12.0317L13.5779 11.9834H12.4968L12.5012 12.0361C12.5305 12.3994 12.6448 12.7202 12.844 12.9985C13.0461 13.2739 13.3201 13.4893 13.6658 13.6445C14.0144 13.7998 14.4202 13.8774 14.8831 13.8774Z" fill="#212121"/>
</svg>
