<svg width="16" height="12" viewBox="0 0 16 12" fill="none" xmlns="http://www.w3.org/2000/svg">
<path d="M0 4.5V0H16V1H15V3.5C15 3.83333 14.8333 4 14.5 4C14.1667 4 14 3.83333 14 3.5V1H13V4.5C13 4.83333 12.8333 5 12.5 5C12.1667 5 12 4.83333 12 4.5V1H11V3.5C11 3.83333 10.8333 4 10.5 4C10.1667 4 10 3.83333 10 3.5V1H9V4.5C9 4.83333 8.83333 5 8.5 5C8.16667 5 8 4.83333 8 4.5V1H7V3.5C7 3.83333 6.83333 4 6.5 4C6.16667 4 6 3.83333 6 3.5V1H5V4.5C5 4.83333 4.83333 5 4.5 5C4.16667 5 4 4.83333 4 4.5V1H3V3.5C3 3.83333 2.83333 4 2.5 4C2.16667 4 2 3.83333 2 3.5V1H1V4.5C1 4.83333 0.833333 5 0.5 5C0.166667 5 0 4.83333 0 4.5ZM0 8H9.5L10.2812 6.46875C10.3229 6.36458 10.3958 6.3125 10.5 6.3125C10.6042 6.3125 10.6771 6.36458 10.7188 6.46875L11.5 8H16V9H12L12.5 10H16V11H13L13.3125 11.6562C13.3333 11.6979 13.3438 11.7396 13.3438 11.7812C13.3438 11.8229 13.3229 11.875 13.2812 11.9375C13.2604 11.9792 13.1979 12 13.0938 12H7.90625C7.80208 12 7.72917 11.9792 7.6875 11.9375C7.66667 11.875 7.65625 11.8229 7.65625 11.7812C7.65625 11.7396 7.66667 11.6979 7.6875 11.6562L8 11H0V10H8.5L9 9H0V8ZM9.125 11H11.875L10.5 8.25L9.125 11Z" fill="black"/>
</svg>
