<svg width="18" height="18" viewBox="0 0 18 18" fill="none" xmlns="http://www.w3.org/2000/svg">
<path d="M8.61133 15.8906C12.1533 15.8906 15.0859 12.9517 15.0859 9.41602C15.0859 5.87402 12.147 2.94141 8.60498 2.94141C5.06934 2.94141 2.13672 5.87402 2.13672 9.41602C2.13672 12.9517 5.07568 15.8906 8.61133 15.8906ZM8.5542 7.1626C8.07812 7.1626 7.69727 6.78174 7.69727 6.29932C7.69727 5.81689 8.07812 5.43604 8.5542 5.43604C9.03027 5.43604 9.40479 5.81689 9.40479 6.29932C9.40479 6.78174 9.03027 7.1626 8.5542 7.1626ZM7.46875 13.0913C7.1958 13.0913 6.98633 12.8945 6.98633 12.6216C6.98633 12.3677 7.1958 12.1582 7.46875 12.1582H8.2749V9.1748H7.57666C7.31006 9.1748 7.10059 8.97803 7.10059 8.70508C7.10059 8.45117 7.31006 8.2417 7.57666 8.2417H8.80811C9.14453 8.2417 9.32227 8.48291 9.32227 8.83838V12.1582H10.1284C10.4014 12.1582 10.6108 12.3677 10.6108 12.6216C10.6108 12.8945 10.4014 13.0913 10.1284 13.0913H7.46875Z" fill="black"/>
</svg>
