<svg width="14" height="14" viewBox="0 0 14 14" fill="none" xmlns="http://www.w3.org/2000/svg">
<path d="M12.3333 0.333252H1.66659C0.999919 0.333252 0.333252 0.933252 0.333252 1.66659V3.67325C0.333252 4.15325 0.619919 4.56659 0.999919 4.79992V12.3333C0.999919 13.0666 1.73325 13.6666 2.33325 13.6666H11.6666C12.2666 13.6666 12.9999 13.0666 12.9999 12.3333V4.79992C13.3799 4.56659 13.6666 4.15325 13.6666 3.67325V1.66659C13.6666 0.933252 12.9999 0.333252 12.3333 0.333252ZM8.33325 8.33325H5.66659C5.29992 8.33325 4.99992 8.03325 4.99992 7.66659C4.99992 7.29992 5.29992 6.99992 5.66659 6.99992H8.33325C8.69992 6.99992 8.99992 7.29992 8.99992 7.66659C8.99992 8.03325 8.69992 8.33325 8.33325 8.33325ZM12.3333 3.66659H1.66659V1.66659H12.3333V3.66659Z" fill="#76767B"/>
</svg>
