<svg width="13" height="16" viewBox="0 0 13 16" fill="none" xmlns="http://www.w3.org/2000/svg">
<path d="M3.41332 10.1439C3.26612 10.1439 3.16692 10.1583 3.11572 10.1727V11.1151C3.17652 11.1295 3.25252 11.1335 3.35732 11.1335C3.74052 11.1335 3.97652 10.9399 3.97652 10.6127C3.97652 10.3199 3.77332 10.1439 3.41332 10.1439ZM6.20292 10.1535C6.04292 10.1535 5.93892 10.1679 5.87732 10.1823V12.2703C5.93892 12.2847 6.03812 12.2847 6.12772 12.2847C6.78132 12.2895 7.20692 11.9295 7.20692 11.1679C7.21172 10.5039 6.82372 10.1535 6.20292 10.1535Z" fill="#E95935"/>
<path d="M8 0H1.6C1.17565 0 0.768687 0.168571 0.468629 0.468629C0.168571 0.768687 0 1.17565 0 1.6V14.4C0 14.8243 0.168571 15.2313 0.468629 15.5314C0.768687 15.8314 1.17565 16 1.6 16H11.2C11.6243 16 12.0313 15.8314 12.3314 15.5314C12.6314 15.2313 12.8 14.8243 12.8 14.4V4.8L8 0ZM4.3984 11.352C4.1512 11.584 3.7864 11.688 3.3616 11.688C3.27923 11.6889 3.1969 11.6841 3.1152 11.6736V12.8144H2.4V9.6656C2.72276 9.61745 3.0489 9.59551 3.3752 9.6C3.8208 9.6 4.1376 9.6848 4.3512 9.8552C4.5544 10.0168 4.692 10.2816 4.692 10.5936C4.6912 10.9072 4.5872 11.172 4.3984 11.352ZM7.444 12.436C7.108 12.7152 6.5968 12.848 5.972 12.848C5.5976 12.848 5.3328 12.824 5.1528 12.8V9.6664C5.47568 9.61927 5.80171 9.59707 6.128 9.6C6.7336 9.6 7.1272 9.7088 7.4344 9.9408C7.7664 10.1872 7.9744 10.58 7.9744 11.144C7.9744 11.7544 7.7512 12.176 7.444 12.436ZM10.4 10.216H9.1744V10.9448H10.32V11.532H9.1744V12.8152H8.4496V9.624H10.4V10.216ZM8 5.6H7.2V1.6L11.2 5.6H8Z" fill="#E95935"/>
</svg>
