<svg width="16" height="12" viewBox="0 0 16 12" fill="none" xmlns="http://www.w3.org/2000/svg">
<path d="M5.99984 8C4.21984 8 0.666504 8.89333 0.666504 10.6667V12H11.3332V10.6667C11.3332 8.89333 7.77984 8 5.99984 8Z" fill="#76767B"/>
<path d="M14.7334 2.56C14.7401 2.48667 14.7467 2.41333 14.7467 2.33333C14.7467 2.25333 14.7401 2.18 14.7267 2.10667L15.2201 1.72C15.2667 1.68667 15.2734 1.62 15.2467 1.57333L14.7801 0.766667C14.7534 0.713333 14.6867 0.7 14.6401 0.713333L14.0667 0.946667C13.9467 0.853333 13.8134 0.78 13.6734 0.72L13.5867 0.1C13.5734 0.0400001 13.5267 0 13.4667 0H12.5334C12.4734 0 12.4267 0.0400001 12.4201 0.1L12.3334 0.72C12.1934 0.78 12.0601 0.86 11.9401 0.946667L11.3601 0.713333C11.3067 0.693333 11.2467 0.713333 11.2201 0.766667L10.7534 1.57333C10.7267 1.62667 10.7334 1.68667 10.7801 1.72L11.2734 2.10667C11.2601 2.18 11.2534 2.26 11.2534 2.33333C11.2534 2.40667 11.2601 2.48667 11.2734 2.56L10.7801 2.94667C10.7334 2.98 10.7267 3.04667 10.7534 3.09333L11.2201 3.9C11.2467 3.95333 11.3134 3.96667 11.3601 3.95333L11.9401 3.72C12.0601 3.81333 12.1934 3.88667 12.3334 3.94667L12.4201 4.56667C12.4267 4.62667 12.4734 4.66667 12.5334 4.66667H13.4667C13.5267 4.66667 13.5734 4.62667 13.5801 4.56667L13.6667 3.94667C13.8067 3.88667 13.9401 3.80667 14.0601 3.72L14.6401 3.95333C14.6934 3.97333 14.7534 3.95333 14.7801 3.9L15.2467 3.09333C15.2734 3.04 15.2667 2.98 15.2201 2.94667L14.7334 2.56ZM13.0001 3.16667C12.5401 3.16667 12.1667 2.79333 12.1667 2.33333C12.1667 1.87333 12.5401 1.5 13.0001 1.5C13.4601 1.5 13.8334 1.87333 13.8334 2.33333C13.8334 2.79333 13.4601 3.16667 13.0001 3.16667Z" fill="#76767B"/>
<path d="M13.2798 5.78675L12.9464 5.20675C12.9264 5.16675 12.8798 5.15341 12.8464 5.16675L12.4331 5.33341C12.3464 5.26675 12.2531 5.21341 12.1531 5.17341L12.0931 4.73341C12.0798 4.69341 12.0398 4.66675 11.9998 4.66675H11.3331C11.2931 4.66675 11.2598 4.69341 11.2531 4.74008L11.1931 5.18008C11.0931 5.22008 10.9998 5.28008 10.9131 5.34008L10.4998 5.17341C10.4598 5.16008 10.4198 5.17341 10.3998 5.21341L10.0664 5.79341C10.0464 5.83341 10.0531 5.87341 10.0864 5.90008L10.4398 6.17341C10.4331 6.22675 10.4264 6.28008 10.4264 6.33341C10.4264 6.38675 10.4331 6.44675 10.4398 6.49341L10.0864 6.76675C10.0531 6.79341 10.0464 6.84008 10.0664 6.87341L10.3998 7.45341C10.4198 7.49342 10.4664 7.50675 10.4998 7.49341L10.9131 7.32675C10.9998 7.39341 11.0931 7.44675 11.1931 7.48675L11.2531 7.92675C11.2598 7.97342 11.2931 8.00008 11.3331 8.00008H11.9998C12.0398 8.00008 12.0798 7.97342 12.0798 7.92675L12.1398 7.48675C12.2398 7.44675 12.3331 7.38675 12.4198 7.32675L12.8331 7.49341C12.8731 7.50675 12.9131 7.49342 12.9331 7.45341L13.2664 6.87341C13.2864 6.83342 13.2798 6.79341 13.2464 6.76675L12.8998 6.49341C12.9064 6.44008 12.9131 6.38675 12.9131 6.33341C12.9131 6.28008 12.9064 6.22008 12.8998 6.17341L13.2531 5.90008C13.2864 5.87341 13.2931 5.82675 13.2798 5.78675ZM11.6664 6.88675C11.3598 6.88675 11.1131 6.63341 11.1131 6.33341C11.1131 6.02675 11.3664 5.78008 11.6664 5.78008C11.9664 5.78008 12.2198 6.03341 12.2198 6.33341C12.2198 6.64008 11.9731 6.88675 11.6664 6.88675Z" fill="#76767B"/>
<path d="M3.15967 4.00008H8.84634C9.02634 4.00008 9.17301 3.85341 9.17301 3.67341V3.66008C9.17301 3.48008 9.02634 3.33341 8.84634 3.33341H8.66634C8.66634 2.34675 8.12634 1.50008 7.33301 1.03341V1.66675C7.33301 1.85341 7.18634 2.00008 6.99967 2.00008C6.81301 2.00008 6.66634 1.85341 6.66634 1.66675V0.760081C6.45301 0.706748 6.23301 0.666748 5.99967 0.666748C5.76634 0.666748 5.54634 0.706748 5.33301 0.760081V1.66675C5.33301 1.85341 5.18634 2.00008 4.99967 2.00008C4.81301 2.00008 4.66634 1.85341 4.66634 1.66675V1.03341C3.87301 1.50008 3.33301 2.34675 3.33301 3.33341H3.15967C2.97967 3.33341 2.83301 3.48008 2.83301 3.66008V3.68008C2.83301 3.85341 2.97967 4.00008 3.15967 4.00008Z" fill="#76767B"/>
<path d="M5.9996 6.66675C7.2396 6.66675 8.27294 5.81341 8.57294 4.66675H3.42627C3.72627 5.81341 4.7596 6.66675 5.9996 6.66675Z" fill="#76767B"/>
</svg>
