<svg width="22" height="21" viewBox="0 0 22 19" fill="none" xmlns="http://www.w3.org/2000/svg">
<path d="M12.26 1.00001C7.17 0.860011 3 4.95001 3 10H1.21C0.76 10 0.54 10.54 0.86 10.85L3.65 13.65C3.85 13.85 4.16 13.85 4.36 13.65L7.15 10.85C7.46 10.54 7.24 10 6.79 10H5C5 6.10001 8.18 2.95001 12.1 3.00001C15.82 3.05001 18.95 6.18001 19 9.90001C19.05 13.81 15.9 17 12 17C10.39 17 8.9 16.45 7.72 15.52C7.32 15.21 6.76 15.24 6.4 15.6C5.98 16.02 6.01 16.73 6.48 17.09C8 18.29 9.91 19 12 19C17.05 19 21.14 14.83 21 9.74001C20.87 5.05001 16.95 1.13001 12.26 1.00001ZM11.75 6.00001C11.34 6.00001 11 6.34001 11 6.75001V10.43C11 10.78 11.19 11.11 11.49 11.29L14.61 13.14C14.97 13.35 15.43 13.23 15.64 12.88C15.85 12.52 15.73 12.06 15.38 11.85L12.5 10.14V6.74001C12.5 6.34001 12.16 6.00001 11.75 6.00001Z" fill="#25282B"/>
</svg>
