<svg width="11" height="11" viewBox="0 0 11 11" fill="none" xmlns="http://www.w3.org/2000/svg">
<path d="M0.891602 10.4648C1.01009 10.4648 1.12174 10.4421 1.22656 10.3965C1.33594 10.3509 1.45443 10.2962 1.58203 10.2324L10.0107 6.14453C10.2614 6.02604 10.4368 5.90299 10.5371 5.77539C10.6374 5.64779 10.6875 5.50195 10.6875 5.33789C10.6875 5.17839 10.6374 5.03711 10.5371 4.91406C10.4368 4.78646 10.2614 4.65885 10.0107 4.53125L1.58203 0.450195C1.44987 0.386393 1.3291 0.331706 1.21973 0.286133C1.11491 0.24056 1.00326 0.217773 0.884766 0.217773C0.656901 0.217773 0.476888 0.297526 0.344727 0.457031C0.217122 0.616536 0.15332 0.826172 0.15332 1.08594L0.160156 9.59668C0.160156 9.861 0.223958 10.0706 0.351562 10.2256C0.483724 10.3851 0.663737 10.4648 0.891602 10.4648Z" fill="#757575"/>
</svg>
