<svg width="35" height="35" viewBox="0 0 35 35" fill="none" xmlns="http://www.w3.org/2000/svg">
<rect x="0.648438" y="0.533203" width="34" height="34" rx="6" fill="#E5E5E5"/>
<path fill-rule="evenodd" clip-rule="evenodd" d="M24.373 14.5938C24.373 14.9819 24.168 15.1943 23.7798 15.1943C23.4062 15.1943 23.1938 14.9819 23.1938 14.5938V12.8652C23.1938 12.1035 22.7764 11.7153 22.0513 11.7153H20.2788C19.8979 11.7153 19.6855 11.5029 19.6855 11.1221C19.6855 10.7485 19.8979 10.5361 20.2788 10.5361H22.0732C23.604 10.5361 24.373 11.2905 24.373 12.7993V14.5938ZM12.105 14.5938C12.105 14.9819 11.8999 15.1943 11.5117 15.1943C11.1382 15.1943 10.9258 14.9819 10.9258 14.5938V12.7993C10.9258 11.2905 11.6948 10.5361 13.2256 10.5361H15.0127C15.4009 10.5361 15.6133 10.7485 15.6133 11.1221C15.6133 11.5029 15.4009 11.7153 15.0127 11.7153H13.2402C12.5078 11.7153 12.105 12.1035 12.105 12.8652V14.5938ZM15.0127 23.9761H13.2256C11.6948 23.9761 10.9258 23.2217 10.9258 21.7056V19.9185C10.9258 19.5303 11.1309 19.3179 11.5117 19.3179C11.8926 19.3179 12.105 19.5303 12.105 19.9185V21.647C12.105 22.4087 12.5078 22.7969 13.2402 22.7969H15.0127C15.4009 22.7969 15.6133 23.0093 15.6133 23.3901C15.6133 23.7637 15.4009 23.9761 15.0127 23.9761ZM22.0732 23.9761H20.2788C19.8979 23.9761 19.6855 23.7637 19.6855 23.3901C19.6855 23.0093 19.8979 22.7969 20.2788 22.7969H22.0513C22.7764 22.7969 23.1938 22.4087 23.1938 21.647V19.9185C23.1938 19.5303 23.3989 19.3179 23.7798 19.3179C24.1606 19.3179 24.373 19.5303 24.373 19.9185V21.7056C24.373 23.2144 23.604 23.9761 22.0732 23.9761ZM13.4827 16.5749C13.0685 16.5749 12.7327 16.9107 12.7327 17.3249C12.7327 17.7391 13.0685 18.0749 13.4827 18.0749H21.8161C22.2303 18.0749 22.5661 17.7391 22.5661 17.3249C22.5661 16.9107 22.2303 16.5749 21.8161 16.5749H13.4827Z" fill="#05366D"/>
</svg>
