<svg width="16" height="17" viewBox="0 0 16 17" fill="none" xmlns="http://www.w3.org/2000/svg">
<path d="M1.02344 5.84375C1.53906 5.84375 1.79688 5.58333 1.79688 5.0625V3.30469C1.79688 2.92448 1.89062 2.64062 2.07812 2.45312C2.27083 2.26562 2.54948 2.17188 2.91406 2.17188H4.71875C5.23438 2.17188 5.49219 1.91406 5.49219 1.39844C5.49219 0.888021 5.23438 0.632812 4.71875 0.632812H2.82031C1.97656 0.632812 1.33854 0.846354 0.90625 1.27344C0.473958 1.70052 0.257812 2.33073 0.257812 3.16406V5.0625C0.257812 5.58333 0.513021 5.84375 1.02344 5.84375ZM14.9688 5.84375C15.4844 5.84375 15.7422 5.58333 15.7422 5.0625V3.16406C15.7422 2.33073 15.526 1.70052 15.0938 1.27344C14.6615 0.846354 14.0208 0.632812 13.1719 0.632812H11.2734C10.7578 0.632812 10.5 0.888021 10.5 1.39844C10.5 1.91406 10.7578 2.17188 11.2734 2.17188H13.0781C13.4375 2.17188 13.7135 2.26562 13.9062 2.45312C14.1042 2.64062 14.2031 2.92448 14.2031 3.30469V5.0625C14.2031 5.58333 14.4583 5.84375 14.9688 5.84375ZM2.82031 16.1094H4.71875C5.23438 16.1094 5.49219 15.8542 5.49219 15.3438C5.49219 14.8281 5.23438 14.5703 4.71875 14.5703H2.91406C2.54948 14.5703 2.27083 14.4766 2.07812 14.2891C1.89062 14.1016 1.79688 13.8177 1.79688 13.4375V11.6797C1.79688 11.1589 1.53906 10.8984 1.02344 10.8984C0.513021 10.8984 0.257812 11.1589 0.257812 11.6797V13.5703C0.257812 14.4036 0.473958 15.0339 0.90625 15.4609C1.33854 15.8932 1.97656 16.1094 2.82031 16.1094ZM11.2734 16.1094H13.1719C14.0208 16.1094 14.6615 15.8932 15.0938 15.4609C15.526 15.0339 15.7422 14.4036 15.7422 13.5703V11.6797C15.7422 11.1589 15.4844 10.8984 14.9688 10.8984C14.4583 10.8984 14.2031 11.1589 14.2031 11.6797V13.4375C14.2031 13.8177 14.1042 14.1016 13.9062 14.2891C13.7135 14.4766 13.4375 14.5703 13.0781 14.5703H11.2734C10.7578 14.5703 10.5 14.8281 10.5 15.3438C10.5 15.8542 10.7578 16.1094 11.2734 16.1094ZM4.44531 11.5625H5.00781V5.17969H4.44531V11.5625ZM5.71094 11.5625H6.75781V5.17969H5.71094V11.5625ZM7.22656 11.5625H7.88281V5.17969H7.22656V11.5625ZM8.47656 11.5625H9.5V5.17969H8.47656V11.5625ZM9.92188 11.5625H10.7344V5.17969H9.92188V11.5625ZM11.0312 11.5625H11.5547V5.17969H11.0312V11.5625Z" fill="#1966FF"/>
</svg>
