<svg width="20" height="21" viewBox="0 0 20 21" fill="none" xmlns="http://www.w3.org/2000/svg">
<rect y="0.931885" width="19.6364" height="19.6364" rx="4" fill="#673AB7" fill-opacity="0.08"/>
<path d="M4.58569 8.63281C4.97241 8.63281 5.16577 8.4375 5.16577 8.04688V6.72852C5.16577 6.44336 5.23608 6.23047 5.37671 6.08984C5.52124 5.94922 5.73022 5.87891 6.00366 5.87891H7.35718C7.7439 5.87891 7.93726 5.68555 7.93726 5.29883C7.93726 4.91602 7.7439 4.72461 7.35718 4.72461H5.93335C5.30054 4.72461 4.82202 4.88477 4.4978 5.20508C4.17358 5.52539 4.01147 5.99805 4.01147 6.62305V8.04688C4.01147 8.4375 4.20288 8.63281 4.58569 8.63281ZM15.0447 8.63281C15.4314 8.63281 15.6248 8.4375 15.6248 8.04688V6.62305C15.6248 5.99805 15.4626 5.52539 15.1384 5.20508C14.8142 4.88477 14.3337 4.72461 13.697 4.72461H12.2732C11.8865 4.72461 11.6931 4.91602 11.6931 5.29883C11.6931 5.68555 11.8865 5.87891 12.2732 5.87891H13.6267C13.8962 5.87891 14.1033 5.94922 14.2478 6.08984C14.3962 6.23047 14.4705 6.44336 14.4705 6.72852V8.04688C14.4705 8.4375 14.6619 8.63281 15.0447 8.63281ZM5.93335 16.332H7.35718C7.7439 16.332 7.93726 16.1406 7.93726 15.7578C7.93726 15.3711 7.7439 15.1777 7.35718 15.1777H6.00366C5.73022 15.1777 5.52124 15.1074 5.37671 14.9668C5.23608 14.8262 5.16577 14.6133 5.16577 14.3281V13.0098C5.16577 12.6191 4.97241 12.4238 4.58569 12.4238C4.20288 12.4238 4.01147 12.6191 4.01147 13.0098V14.4277C4.01147 15.0527 4.17358 15.5254 4.4978 15.8457C4.82202 16.1699 5.30054 16.332 5.93335 16.332ZM12.2732 16.332H13.697C14.3337 16.332 14.8142 16.1699 15.1384 15.8457C15.4626 15.5254 15.6248 15.0527 15.6248 14.4277V13.0098C15.6248 12.6191 15.4314 12.4238 15.0447 12.4238C14.6619 12.4238 14.4705 12.6191 14.4705 13.0098V14.3281C14.4705 14.6133 14.3962 14.8262 14.2478 14.9668C14.1033 15.1074 13.8962 15.1777 13.6267 15.1777H12.2732C11.8865 15.1777 11.6931 15.3711 11.6931 15.7578C11.6931 16.1406 11.8865 16.332 12.2732 16.332ZM7.1521 12.9219H7.57397V8.13477H7.1521V12.9219ZM8.10132 12.9219H8.88647V8.13477H8.10132V12.9219ZM9.23804 12.9219H9.73022V8.13477H9.23804V12.9219ZM10.1755 12.9219H10.9431V8.13477H10.1755V12.9219ZM11.2595 12.9219H11.8689V8.13477H11.2595V12.9219ZM12.0916 12.9219H12.4841V8.13477H12.0916V12.9219Z" fill="#25282B"/>
</svg>
