<svg width="20" height="21" viewBox="0 0 20 21" fill="none" xmlns="http://www.w3.org/2000/svg">
<rect y="0.931885" width="19.6364" height="19.6364" rx="4" fill="#CAE4FB"/>
<path d="M7.14624 14.4844L7.56812 13.3594C7.67749 13.0781 7.77124 12.8203 7.84937 12.5859C7.94312 12.3359 7.9978 12.2031 8.01343 12.1875L14.0837 6.11719C14.1619 6.03906 14.2478 6 14.3416 6C14.4509 6 14.5447 6.03906 14.6228 6.11719L15.6775 7.17188C15.7712 7.25 15.8181 7.33594 15.8181 7.42969C15.8181 7.50781 15.7712 7.59375 15.6775 7.6875L9.58374 13.7578C9.56812 13.7891 9.4353 13.8438 9.1853 13.9219C8.9353 14 8.65405 14.0781 8.34155 14.1562L7.77905 14.2969C7.57593 14.3594 7.36499 14.4219 7.14624 14.4844ZM13.4041 7.85156L13.9197 8.39062L14.8806 7.42969L14.3416 6.91406L13.4041 7.85156ZM9.1853 13.125L13.4041 8.90625L12.865 8.39062L8.64624 12.6094C8.61499 12.6875 8.57593 12.7969 8.52905 12.9375C8.48218 13.0625 8.41968 13.2109 8.34155 13.3828C8.52905 13.3203 8.69312 13.2734 8.83374 13.2422C8.98999 13.1953 9.10718 13.1562 9.1853 13.125ZM5.55249 10.6172C5.45874 10.4609 5.29468 10.3828 5.0603 10.3828C4.70093 10.3828 4.3103 10.5469 3.88843 10.875C3.88843 10.875 3.88062 10.875 3.86499 10.875C3.86499 10.875 3.85718 10.875 3.84155 10.875C3.84155 10.8594 3.83374 10.8516 3.81812 10.8516C3.78687 10.8359 3.77124 10.8203 3.77124 10.8047C3.77124 10.7891 3.77905 10.7734 3.79468 10.7578C3.82593 10.7266 3.89624 10.6484 4.00562 10.5234C4.11499 10.3984 4.2478 10.2734 4.40405 10.1484C4.5603 10.0078 4.73218 9.88281 4.91968 9.77344C5.10718 9.66406 5.30249 9.60938 5.50562 9.60938C5.69312 9.60938 5.88062 9.67969 6.06812 9.82031C6.39624 10.0703 6.56812 10.2891 6.58374 10.4766C6.59937 10.6641 6.60718 10.7812 6.60718 10.8281C6.60718 11.1094 6.53687 11.4219 6.39624 11.7656C6.27124 12.0938 6.09155 12.4375 5.85718 12.7969C5.6228 13.1562 5.41187 13.5 5.22437 13.8281C5.05249 14.1562 4.94312 14.4062 4.89624 14.5781C4.86499 14.7344 4.84937 14.8438 4.84937 14.9062C4.84937 15.0781 4.92749 15.2266 5.08374 15.3516L5.13062 15.375C5.17749 15.375 5.20874 15.3828 5.22437 15.3984C5.33374 15.3984 5.45874 15.3672 5.59937 15.3047C5.73999 15.2422 5.88062 15.1719 6.02124 15.0938C6.17749 15.0156 6.32593 14.9375 6.46655 14.8594C6.60718 14.7656 6.72437 14.6953 6.81812 14.6484H6.91187C6.92749 14.6641 6.9353 14.6797 6.9353 14.6953C6.9353 14.7578 6.84155 14.8516 6.65405 14.9766C6.59155 15.0234 6.48218 15.0938 6.32593 15.1875C6.16968 15.2812 5.98999 15.3828 5.78687 15.4922C5.59937 15.5859 5.39624 15.6719 5.17749 15.75C4.97437 15.8125 4.78687 15.8438 4.61499 15.8438C4.36499 15.8438 4.17749 15.75 4.05249 15.5625C4.00562 15.4688 3.98218 15.3594 3.98218 15.2344C3.98218 15.1406 4.00562 15.0078 4.05249 14.8359C4.09937 14.6484 4.19312 14.4062 4.33374 14.1094C4.48999 13.7969 4.66187 13.4844 4.84937 13.1719C5.03687 12.8438 5.20093 12.5234 5.34155 12.2109C5.48218 11.8984 5.56812 11.6562 5.59937 11.4844C5.64624 11.2969 5.66968 11.1562 5.66968 11.0625C5.66968 10.9062 5.63062 10.7578 5.55249 10.6172Z" fill="#212121"/>
</svg>
