<svg width="22" height="21" viewBox="0 0 22 21" fill="none" xmlns="http://www.w3.org/2000/svg">
<path d="M16.0625 6H20.5625C20.75 6 20.8906 6.05469 20.9844 6.16406C21.0781 6.25781 21.125 6.39062 21.125 6.5625V19.5C21.125 19.6875 21.0781 19.8281 20.9844 19.9219C20.8906 20.0156 20.75 20.0625 20.5625 20.0625H16.0625C15.875 20.0625 15.7344 20.0156 15.6406 19.9219C15.5469 19.8281 15.5 19.6875 15.5 19.5V6.5625C15.5 6.40625 15.5469 6.27344 15.6406 6.16406C15.7344 6.05469 15.875 6 16.0625 6ZM17.1875 18.375H19.4375V7.6875H17.1875V18.375ZM1.4375 20.0625C1.25 20.0625 1.10938 20.0156 1.01562 19.9219C0.921875 19.8281 0.875 19.6875 0.875 19.5V9.9375C0.875 9.75 0.921875 9.60938 1.01562 9.51562C1.10938 9.42188 1.25 9.375 1.4375 9.375H5.9375C6.125 9.375 6.26562 9.42188 6.35938 9.51562C6.45312 9.60938 6.5 9.75 6.5 9.9375V19.5C6.5 19.6875 6.45312 19.8281 6.35938 19.9219C6.26562 20.0156 6.125 20.0625 5.9375 20.0625H1.4375ZM3.6875 10.5L5.375 12.1875V10.5H3.6875ZM2 12.1875L5.375 15.5625V13.875L2 10.5V12.1875ZM2 15.5625L5.375 18.9375V17.25L2 13.875V15.5625ZM2 18.9375H3.6875L2 17.25V18.9375ZM13.25 0.9375H8.75C8.5625 0.9375 8.42188 0.992188 8.32812 1.10156C8.23438 1.19531 8.1875 1.32812 8.1875 1.5V19.5C8.1875 19.6875 8.23438 19.8281 8.32812 19.9219C8.42188 20.0156 8.5625 20.0625 8.75 20.0625H13.25C13.4375 20.0625 13.5781 20.0156 13.6719 19.9219C13.7656 19.8281 13.8125 19.6875 13.8125 19.5V1.5C13.8125 1.32812 13.7656 1.19531 13.6719 1.10156C13.5781 0.992188 13.4375 0.9375 13.25 0.9375Z" fill="#3D5AFE"/>
</svg>
