<svg width="21" height="17" viewBox="0 0 21 17" fill="none" xmlns="http://www.w3.org/2000/svg">
<path d="M6.20933 14.5008L6.8868 12.6942C7.06244 12.2425 7.21299 11.8285 7.33845 11.4521C7.489 11.0507 7.57682 10.8374 7.60191 10.8123L17.35 1.0642C17.4755 0.938744 17.6135 0.876015 17.764 0.876015C17.9397 0.876015 18.0902 0.938744 18.2157 1.0642L19.9094 2.75789C20.0599 2.88335 20.1352 3.02135 20.1352 3.1719C20.1352 3.29736 20.0599 3.43536 19.9094 3.58591L10.1236 13.334C10.0985 13.3842 9.88525 13.472 9.48379 13.5975C9.08232 13.7229 8.63067 13.8484 8.12884 13.9739L7.22554 14.1997C6.89935 14.3 6.56061 14.4004 6.20933 14.5008ZM16.2585 3.84938L17.0866 4.71504L18.6297 3.1719L17.764 2.34388L16.2585 3.84938ZM9.48379 12.3178L16.2585 5.54306L15.3929 4.71504L8.61813 11.4898C8.56794 11.6152 8.50521 11.7909 8.42994 12.0167C8.35466 12.2174 8.2543 12.4558 8.12884 12.7318C8.42994 12.6315 8.6934 12.5562 8.91923 12.506C9.17014 12.4307 9.35833 12.368 9.48379 12.3178ZM3.64998 8.2906C3.49943 8.03968 3.23597 7.91422 2.85959 7.91422C2.28249 7.91422 1.65519 8.17768 0.97772 8.70461C0.97772 8.70461 0.965174 8.70461 0.940082 8.70461C0.940082 8.70461 0.927536 8.70461 0.902445 8.70461C0.902445 8.67952 0.889899 8.66697 0.864807 8.66697C0.814624 8.64188 0.789532 8.61679 0.789532 8.5917C0.789532 8.5666 0.802078 8.54151 0.82717 8.51642C0.877353 8.46624 0.990265 8.34078 1.16591 8.14005C1.34155 7.93931 1.55483 7.73858 1.80574 7.53785C2.05666 7.31202 2.33267 7.11129 2.63377 6.93565C2.93487 6.76001 3.24851 6.67219 3.57471 6.67219C3.8758 6.67219 4.1769 6.7851 4.478 7.01092C5.00493 7.41239 5.28094 7.76367 5.30603 8.06477C5.33112 8.36587 5.34367 8.55406 5.34367 8.62933C5.34367 9.08098 5.23075 9.58282 5.00493 10.1348C4.8042 10.6618 4.51564 11.2138 4.13927 11.7909C3.76289 12.368 3.42416 12.92 3.12306 13.4469C2.84705 13.9739 2.67141 14.3753 2.59613 14.6513C2.54595 14.9022 2.52086 15.0779 2.52086 15.1783C2.52086 15.4543 2.64631 15.6926 2.89723 15.8934L2.97251 15.931C3.04778 15.931 3.09796 15.9435 3.12306 15.9686C3.2987 15.9686 3.49943 15.9185 3.72526 15.8181C3.95108 15.7177 4.1769 15.6048 4.40273 15.4794C4.65365 15.3539 4.89202 15.2284 5.11784 15.103C5.34367 14.9524 5.53185 14.8395 5.6824 14.7642H5.83295C5.85805 14.7893 5.87059 14.8144 5.87059 14.8395C5.87059 14.9399 5.72004 15.0904 5.41894 15.2912C5.31857 15.3664 5.14293 15.4794 4.89202 15.6299C4.6411 15.7805 4.35255 15.9435 4.02635 16.1192C3.72526 16.2697 3.39906 16.4077 3.04778 16.5332C2.72159 16.6336 2.42049 16.6838 2.14448 16.6838C1.74301 16.6838 1.44192 16.5332 1.24118 16.2321C1.16591 16.0816 1.12827 15.9059 1.12827 15.7052C1.12827 15.5546 1.16591 15.3413 1.24118 15.0653C1.31646 14.7642 1.46701 14.3753 1.69283 13.8986C1.94375 13.3967 2.21976 12.8949 2.52086 12.3931C2.82196 11.8662 3.08542 11.3518 3.31124 10.8499C3.53707 10.3481 3.67507 9.95919 3.72526 9.68318C3.80053 9.38208 3.83817 9.15626 3.83817 9.00571C3.83817 8.75479 3.77544 8.51642 3.64998 8.2906Z" fill="#3D5AFE"/>
</svg>
