<svg width="16" height="16" viewBox="0 0 16 16" fill="none" xmlns="http://www.w3.org/2000/svg">
<path d="M7.91406 15.2578C8.95052 15.2578 9.92708 15.0573 10.8438 14.6562C11.7604 14.2604 12.5677 13.7135 13.2656 13.0156C13.9635 12.3177 14.5104 11.513 14.9062 10.6016C15.3021 9.6849 15.5 8.70573 15.5 7.66406C15.5 6.6276 15.2995 5.65104 14.8984 4.73438C14.5026 3.81771 13.9557 3.01042 13.2578 2.3125C12.5599 1.61458 11.7526 1.06771 10.8359 0.671875C9.91927 0.276042 8.94271 0.078125 7.90625 0.078125C6.86979 0.078125 5.89323 0.276042 4.97656 0.671875C4.0651 1.06771 3.25781 1.61458 2.55469 2.3125C1.85677 3.01042 1.3099 3.81771 0.914062 4.73438C0.518229 5.65104 0.320312 6.6276 0.320312 7.66406C0.320312 8.70573 0.518229 9.6849 0.914062 10.6016C1.3151 11.513 1.86458 12.3177 2.5625 13.0156C3.26042 13.7135 4.0651 14.2604 4.97656 14.6562C5.89323 15.0573 6.8724 15.2578 7.91406 15.2578ZM7.91406 13.8672C7.05469 13.8672 6.25 13.7057 5.5 13.3828C4.75 13.0651 4.09115 12.6224 3.52344 12.0547C2.95573 11.487 2.51302 10.8281 2.19531 10.0781C1.8776 9.32812 1.71875 8.52344 1.71875 7.66406C1.71875 6.80469 1.8776 6 2.19531 5.25C2.51302 4.5 2.95573 3.84115 3.52344 3.27344C4.09115 2.70573 4.7474 2.26302 5.49219 1.94531C6.24219 1.6276 7.04688 1.46875 7.90625 1.46875C8.76562 1.46875 9.57031 1.6276 10.3203 1.94531C11.0703 2.26302 11.7292 2.70573 12.2969 3.27344C12.8646 3.84115 13.3073 4.5 13.625 5.25C13.9479 6 14.1094 6.80469 14.1094 7.66406C14.1146 8.52344 13.9557 9.32812 13.6328 10.0781C13.3151 10.8281 12.8724 11.487 12.3047 12.0547C11.7422 12.6224 11.0833 13.0651 10.3281 13.3828C9.57812 13.7057 8.77344 13.8672 7.91406 13.8672ZM4.6875 8.16406C4.6875 8.25781 4.72135 8.33594 4.78906 8.39844C4.86198 8.46094 4.94531 8.49219 5.03906 8.49219H7.5L6.1875 12.0156C6.13021 12.1719 6.13542 12.3021 6.20312 12.4062C6.27604 12.5104 6.375 12.5651 6.5 12.5703C6.625 12.5703 6.74219 12.5052 6.85156 12.375L10.8594 7.35938C10.9427 7.26042 10.9844 7.16146 10.9844 7.0625C10.9844 6.96354 10.9505 6.88281 10.8828 6.82031C10.8203 6.75781 10.737 6.72656 10.6328 6.72656H8.17188L9.48438 3.20312C9.54688 3.04167 9.54167 2.91146 9.46875 2.8125C9.40104 2.70833 9.30208 2.65625 9.17188 2.65625C9.04688 2.65104 8.9349 2.71354 8.83594 2.84375L4.8125 7.85938C4.72917 7.95833 4.6875 8.0599 4.6875 8.16406Z" fill="#FF9500"/>
</svg>
