<svg width="24" height="24" viewBox="0 0 24 24" fill="none" xmlns="http://www.w3.org/2000/svg">
<path d="M16.1406 16.1641H22.8906V22.8906H16.1406V16.1641ZM5.35938 16.1641H12.1094V22.8906H5.35938V16.1641ZM15.4844 14.8047C15.2969 14.8047 15.1328 14.875 14.9922 15.0156C14.8672 15.1406 14.8047 15.2969 14.8047 15.4844V23.5703C14.8047 23.7578 14.8672 23.9219 14.9922 24.0625C15.1328 24.1875 15.2969 24.25 15.4844 24.25H23.5703C23.7578 24.25 23.9141 24.1875 24.0391 24.0625C24.1797 23.9219 24.25 23.7578 24.25 23.5703V15.4844C24.25 15.2969 24.1797 15.1406 24.0391 15.0156C23.9141 14.875 23.7578 14.8047 23.5703 14.8047H15.4844ZM4.67969 14.8047C4.49219 14.8047 4.32812 14.875 4.1875 15.0156C4.0625 15.1406 4 15.2969 4 15.4844V23.5703C4 23.7578 4.0625 23.9219 4.1875 24.0625C4.32812 24.1875 4.49219 24.25 4.67969 24.25H12.7656C12.9531 24.25 13.1094 24.1875 13.2344 24.0625C13.375 23.9219 13.4453 23.7578 13.4453 23.5703V15.4844C13.4453 15.2969 13.375 15.1406 13.2344 15.0156C13.1094 14.875 12.9531 14.8047 12.7656 14.8047H4.67969ZM16.1406 5.35938H22.8906V12.1094H16.1406V5.35938ZM5.35938 5.35938H12.1094V12.1094H5.35938V5.35938ZM15.4844 4C15.2969 4 15.1328 4.07031 14.9922 4.21094C14.8672 4.33594 14.8047 4.49219 14.8047 4.67969V12.7891C14.8047 12.9609 14.8672 13.1172 14.9922 13.2578C15.1328 13.3828 15.2969 13.4453 15.4844 13.4453H23.5703C23.7578 13.4453 23.9141 13.3828 24.0391 13.2578C24.1797 13.1328 24.25 12.9766 24.25 12.7891V4.67969C24.25 4.49219 24.1797 4.33594 24.0391 4.21094C23.9141 4.07031 23.7578 4 23.5703 4H15.4844ZM4.67969 4C4.49219 4 4.32812 4.07031 4.1875 4.21094C4.0625 4.33594 4 4.49219 4 4.67969V12.7891C4 12.9609 4.0625 13.1172 4.1875 13.2578C4.32812 13.3828 4.49219 13.4453 4.67969 13.4453H12.7656C12.9531 13.4453 13.1094 13.3828 13.2344 13.2578C13.375 13.1328 13.4453 12.9766 13.4453 12.7891V4.67969C13.4453 4.49219 13.375 4.33594 13.2344 4.21094C13.1094 4.07031 12.9531 4 12.7656 4H4.67969Z" fill="#25282B"/>
</svg>
