<svg width="24" height="24" viewBox="0 0 24 24" fill="none" xmlns="http://www.w3.org/2000/svg">
<g clip-path="url(#clip0_4163_6976)">
<path d="M20.75 17C20.75 16.78 20.72 16.58 20.69 16.37L21.53 15.64C21.71 15.48 21.75 15.22 21.63 15.01L21.04 13.99C20.92 13.78 20.67 13.69 20.45 13.77L19.39 14.13C19.07 13.86 18.71 13.65 18.31 13.5L18.09 12.41C18.04 12.18 17.84 12.01 17.6 12.01H16.42C16.18 12.01 15.98 12.18 15.93 12.41L15.71 13.5C15.31 13.65 14.95 13.86 14.63 14.13L13.57 13.77C13.34 13.69 13.1 13.79 12.98 13.99L12.39 15.01C12.27 15.22 12.31 15.48 12.49 15.64L13.33 16.37C13.3 16.58 13.27 16.78 13.27 17C13.27 17.22 13.3 17.42 13.33 17.63L12.49 18.36C12.31 18.52 12.27 18.78 12.39 18.99L12.98 20.01C13.1 20.22 13.35 20.31 13.57 20.23L14.63 19.87C14.95 20.14 15.31 20.35 15.71 20.5L15.93 21.59C15.98 21.82 16.18 21.99 16.42 21.99H17.6C17.84 21.99 18.04 21.82 18.09 21.59L18.31 20.5C18.71 20.35 19.07 20.14 19.39 19.87L20.45 20.23C20.68 20.31 20.92 20.21 21.04 20.01L21.63 18.99C21.75 18.78 21.71 18.52 21.53 18.36L20.69 17.63C20.72 17.42 20.75 17.22 20.75 17ZM17 19C15.9 19 15 18.1 15 17C15 15.9 15.9 15 17 15C18.1 15 19 15.9 19 17C19 18.1 18.1 19 17 19Z" fill="#FFFFFF"/>
<rect x="3" y="3" width="7.5" height="7.5" rx="1" fill="#FFFFFF"/>
<rect x="13.5" y="3" width="7.5" height="7.5" rx="1" fill="#FFFFFF"/>
<rect x="3" y="13.5" width="7.5" height="7.5" rx="1" fill="#FFFFFF"/>
</g>
<defs>
<clipPath id="clip0_4163_6976">
<rect width="24" height="24" fill="white"/>
</clipPath>
</defs>
</svg>
