<svg width="32" height="32" viewBox="0 0 32 32" fill="none" xmlns="http://www.w3.org/2000/svg">
<path d="M15.6719 31.8594C17.8073 31.8594 19.8125 31.4531 21.6875 30.6406C23.5625 29.8385 25.2135 28.724 26.6406 27.2969C28.0677 25.8698 29.1823 24.2188 29.9844 22.3438C30.7969 20.4688 31.2031 18.4635 31.2031 16.3281C31.2031 14.2031 30.7969 12.2031 29.9844 10.3281C29.1823 8.45312 28.0625 6.80208 26.625 5.375C25.1979 3.94792 23.5469 2.82812 21.6719 2.01562C19.7969 1.20312 17.7917 0.796875 15.6562 0.796875C13.5417 0.796875 11.5469 1.20312 9.67188 2.01562C7.79688 2.82812 6.14062 3.94792 4.70312 5.375C3.27604 6.80208 2.15625 8.45312 1.34375 10.3281C0.541667 12.2031 0.140625 14.2031 0.140625 16.3281C0.140625 18.4635 0.546875 20.4688 1.35938 22.3438C2.17188 24.2188 3.29167 25.8698 4.71875 27.2969C6.14583 28.724 7.79688 29.8385 9.67188 30.6406C11.5469 31.4531 13.5469 31.8594 15.6719 31.8594ZM14.0469 23.7188C13.724 23.7188 13.4323 23.651 13.1719 23.5156C12.9219 23.3698 12.6823 23.1562 12.4531 22.875L8.95312 18.6719C8.64062 18.2969 8.48438 17.901 8.48438 17.4844C8.48438 17.0573 8.63542 16.6875 8.9375 16.375C9.25 16.0625 9.625 15.9062 10.0625 15.9062C10.3229 15.9062 10.5573 15.9635 10.7656 16.0781C10.974 16.1823 11.1771 16.3542 11.375 16.5938L14.0156 19.8594L19.8594 10.5625C20.2344 9.96875 20.6979 9.67188 21.25 9.67188C21.6667 9.67188 22.0417 9.8125 22.375 10.0938C22.7083 10.375 22.875 10.7344 22.875 11.1719C22.875 11.349 22.8385 11.5365 22.7656 11.7344C22.6927 11.9219 22.5938 12.1094 22.4688 12.2969L15.5938 22.8594C15.1979 23.4323 14.6823 23.7188 14.0469 23.7188Z" fill="#4CAF50"/>
</svg>
