<svg width="32" height="29" viewBox="0 0 32 29" fill="none" xmlns="http://www.w3.org/2000/svg">
<path d="M4.4375 28.7969H27.2031C28.0885 28.7969 28.8646 28.5938 29.5312 28.1875C30.1979 27.7917 30.7083 27.2552 31.0625 26.5781C31.4271 25.9115 31.6094 25.1771 31.6094 24.375C31.6094 24 31.5573 23.625 31.4531 23.25C31.3594 22.875 31.2135 22.5104 31.0156 22.1562L19.6094 2.25C19.1823 1.51042 18.6302 0.958333 17.9531 0.59375C17.276 0.21875 16.5625 0.03125 15.8125 0.03125C15.0729 0.03125 14.3594 0.21875 13.6719 0.59375C12.9844 0.96875 12.4323 1.52083 12.0156 2.25L0.625 22.1562C0.21875 22.8542 0.015625 23.5938 0.015625 24.375C0.015625 25.1771 0.197917 25.9115 0.5625 26.5781C0.927083 27.2552 1.4375 27.7917 2.09375 28.1875C2.76042 28.5938 3.54167 28.7969 4.4375 28.7969ZM5.01562 25.375C4.61979 25.375 4.30729 25.2448 4.07812 24.9844C3.84896 24.7135 3.73438 24.401 3.73438 24.0469C3.73438 23.9427 3.74479 23.8281 3.76562 23.7031C3.79688 23.5781 3.84375 23.4531 3.90625 23.3281L14.7188 4.34375C14.8333 4.14583 14.9896 4 15.1875 3.90625C15.3958 3.8125 15.6042 3.76562 15.8125 3.76562C16.0208 3.76562 16.224 3.8125 16.4219 3.90625C16.6198 4 16.776 4.15104 16.8906 4.35938L27.7188 23.3594C27.8438 23.5781 27.9062 23.8073 27.9062 24.0469C27.9062 24.401 27.7865 24.7135 27.5469 24.9844C27.3177 25.2448 27.0104 25.375 26.625 25.375H5.01562ZM15.8438 18.2188C16.8021 18.2188 17.3021 17.724 17.3438 16.7344L17.5781 10.4062C17.599 9.89583 17.4427 9.48438 17.1094 9.17188C16.776 8.84896 16.349 8.6875 15.8281 8.6875C15.2969 8.6875 14.8646 8.84896 14.5312 9.17188C14.2083 9.48438 14.0573 9.89062 14.0781 10.3906L14.2969 16.75C14.3385 17.7292 14.8542 18.2188 15.8438 18.2188ZM15.8438 23.25C16.375 23.25 16.8229 23.0938 17.1875 22.7812C17.5625 22.4583 17.75 22.0365 17.75 21.5156C17.75 20.9948 17.5625 20.5729 17.1875 20.25C16.8229 19.9271 16.375 19.7656 15.8438 19.7656C15.3021 19.7656 14.8438 19.9271 14.4688 20.25C14.1042 20.5729 13.9219 20.9948 13.9219 21.5156C13.9219 22.026 14.1094 22.4427 14.4844 22.7656C14.8594 23.0885 15.3125 23.25 15.8438 23.25Z" fill="#F44336"/>
</svg>
