<svg width="20" height="20" viewBox="0 0 20 20" fill="none" xmlns="http://www.w3.org/2000/svg">
<g clip-path="url(#clip0_10019_109881)">
<path d="M12 20.6191C16.9043 20.6191 20.9648 16.5498 20.9648 11.6543C20.9648 6.75 16.8955 2.68945 11.9912 2.68945C7.0957 2.68945 3.03516 6.75 3.03516 11.6543C3.03516 16.5498 7.10449 20.6191 12 20.6191ZM12 14.6426C9.35449 14.6426 7.32422 15.5918 6.42773 16.6465C5.25 15.3193 4.53809 13.5791 4.53809 11.6543C4.53809 7.50586 7.84277 4.18359 11.9912 4.18359C16.1396 4.18359 19.4619 7.50586 19.4707 11.6543C19.4795 13.5791 18.7588 15.3281 17.5723 16.6465C16.6846 15.5918 14.6455 14.6426 12 14.6426ZM12 13.1484C13.6963 13.166 15.0146 11.7246 15.0146 9.83496C15.0146 8.05957 13.6875 6.5918 12 6.5918C10.3125 6.5918 8.97656 8.05957 8.98535 9.83496C8.99414 11.7246 10.3125 13.1309 12 13.1484Z" fill="black"/>
</g>
<defs>
<clipPath id="clip0_10019_109881">
<rect width="24" height="24" fill="white"/>
</clipPath>
</defs>
</svg>
