<svg width="20" height="20" viewBox="0 0 20 20" fill="none" xmlns="http://www.w3.org/2000/svg">
<path d="M19.45 0.565017C18.865 -0.0199826 17.92 -0.0199826 17.335 0.565017L9.99996 7.88502L2.66496 0.550017C2.07996 -0.0349829 1.13496 -0.0349829 0.549956 0.550017C-0.035044 1.13502 -0.035044 2.08002 0.549956 2.66502L7.88496 10L0.549956 17.335C-0.035044 17.92 -0.035044 18.865 0.549956 19.45C1.13496 20.035 2.07996 20.035 2.66496 19.45L9.99996 12.115L17.335 19.45C17.92 20.035 18.865 20.035 19.45 19.45C20.035 18.865 20.035 17.92 19.45 17.335L12.115 10L19.45 2.66502C20.02 2.09502 20.02 1.13502 19.45 0.565017Z" fill="#6F6F6F"/>
</svg>
