<svg width="17" height="16" viewBox="0 0 17 16" fill="none" xmlns="http://www.w3.org/2000/svg">
<path d="M9.02349 13.374L13.5416 8.84657C13.9016 8.4866 13.9385 8.2743 13.9385 7.7528V5.99907C13.9385 5.49142 13.8185 5.32066 13.4447 4.94684L12.3879 3.88999C12.0141 3.52078 11.8433 3.39618 11.3356 3.39618H9.58191C9.06041 3.39618 8.85273 3.43771 8.49275 3.79769L3.96076 8.32045C3.27773 9.00348 3.26388 9.73728 3.96537 10.4342L6.90978 13.3693C7.61127 14.0708 8.33584 14.0662 9.02349 13.374ZM8.43737 12.6817C8.12816 12.9863 7.80972 12.9909 7.49128 12.6771L4.66225 9.84804C4.34381 9.5296 4.35304 9.20655 4.65763 8.90195L9.13425 4.43457C9.22655 4.33765 9.31424 4.28688 9.46653 4.28688H11.331C11.4695 4.28688 11.5664 4.33765 11.6541 4.42995L12.9048 5.68063C12.9971 5.77294 13.0478 5.86524 13.0478 6.00369V7.87279C13.0478 8.02509 12.9971 8.11278 12.9094 8.20508L8.43737 12.6817ZM10.7634 7.23591C11.1418 7.23591 11.4233 6.94055 11.4233 6.57134C11.4233 6.20214 11.1418 5.91139 10.7634 5.91139C10.3849 5.91139 10.1034 6.20214 10.1034 6.57134C10.1034 6.94055 10.3849 7.23591 10.7634 7.23591Z" fill="#3B3B3B"/>
</svg>
