<svg width="19" height="19" viewBox="0 0 19 19" fill="none" xmlns="http://www.w3.org/2000/svg">
<path d="M10 16.018C13.5959 16.018 16.5568 13.057 16.5568 9.46118C16.5568 5.87161 13.5896 2.9044 9.99371 2.9044C6.40415 2.9044 3.44322 5.87161 3.44322 9.46118C3.44322 13.057 6.40415 16.018 10 16.018ZM11.2887 12.6233C11.0876 12.8181 10.6789 12.8119 10.4652 12.6044L7.88775 10.1841C7.47913 9.80693 7.47913 9.13428 7.88775 8.75081L10.4652 6.33052C10.6978 6.11049 11.0561 6.11049 11.2824 6.31795C11.5276 6.53797 11.5276 6.93402 11.295 7.15405L8.82443 9.46746L11.295 11.7809C11.5213 12.0009 11.5339 12.3781 11.2887 12.6233Z" fill="black"/>
</svg>
