<svg width="19" height="19" viewBox="0 0 19 19" fill="none" xmlns="http://www.w3.org/2000/svg">
<path d="M9 16.018C12.5959 16.018 15.5568 13.057 15.5568 9.46118C15.5568 5.87161 12.5896 2.9044 8.99371 2.9044C5.40415 2.9044 2.44322 5.87161 2.44322 9.46118C2.44322 13.057 5.40415 16.018 9 16.018ZM7.52268 12.6924C7.27122 12.441 7.2838 12.0638 7.52268 11.8375L10.0498 9.46746L7.52268 7.10375C7.27751 6.87744 7.2838 6.4814 7.53525 6.2488C7.76157 6.03506 8.12618 6.04134 8.37135 6.26766L11.0054 8.73823C11.4203 9.12799 11.4203 9.81322 11.0054 10.203L8.37135 12.6736C8.15133 12.881 7.73014 12.8936 7.52268 12.6924Z" fill="black"/>
</svg>
