<svg width="20" height="20" viewBox="0 0 20 20" fill="none" xmlns="http://www.w3.org/2000/svg">
<path d="M5.81872 10.1942C5.81872 10.4205 5.90525 10.6135 6.08497 10.7866L11.2768 15.8653C11.4166 16.0117 11.603 16.085 11.816 16.085C12.2487 16.085 12.5881 15.7522 12.5881 15.3128C12.5881 15.0998 12.5016 14.9068 12.3552 14.7604L7.67581 10.1942L12.3552 5.628C12.5016 5.47491 12.5881 5.28188 12.5881 5.06888C12.5881 4.63622 12.2487 4.30341 11.816 4.30341C11.603 4.30341 11.4166 4.37663 11.2768 4.52306L6.08497 9.60178C5.90525 9.77484 5.82537 9.96788 5.81872 10.1942Z"  fill="#3B3B3B"/>
</svg>
