<svg width="16" height="16" viewBox="0 0 16 16" fill="none" xmlns="http://www.w3.org/2000/svg">
<path d="M4.79818 8.24024C5.36486 8.24024 5.82589 7.78401 5.82589 7.22694C5.82589 6.66025 5.37446 6.21363 4.79818 6.21363C4.2411 6.21363 3.78487 6.66506 3.78487 7.22694C3.78487 7.78401 4.2411 8.24024 4.79818 8.24024ZM8.39036 8.24024C8.94263 8.24024 9.39886 7.78401 9.39886 7.22694C9.39886 6.66025 8.95704 6.21363 8.39036 6.21363C7.82848 6.21363 7.37706 6.66506 7.37706 7.22694C7.37706 7.78401 7.82848 8.24024 8.39036 8.24024ZM11.9777 8.24024C12.5348 8.24024 12.9958 7.78401 12.9958 7.22694C12.9958 6.66025 12.5444 6.21363 11.9777 6.21363C11.4111 6.21363 10.9548 6.66506 10.9548 7.22694C10.9548 7.78401 11.4111 8.24024 11.9777 8.24024Z" fill="#3B3B3B"/>
</svg>
