<svg width="17" height="16" viewBox="0 0 17 16" fill="none" xmlns="http://www.w3.org/2000/svg">
<path d="M4.59213 12.0229H11.2002C12.2375 12.0229 12.7754 11.485 12.7754 10.4621V4.61763C12.7754 3.58993 12.2375 3.05686 11.2002 3.05686H4.59213C3.55482 3.05686 3.01695 3.58993 3.01695 4.61763V10.4621C3.01695 11.4898 3.55482 12.0229 4.59213 12.0229ZM4.57773 11.0816C4.17913 11.0816 3.95822 10.8703 3.95822 10.4525V6.01513C3.95822 5.59252 4.17913 5.38602 4.57773 5.38602H11.205C11.6084 5.38602 11.8341 5.59252 11.8341 6.01513V10.4525C11.8341 10.8703 11.6084 11.0816 11.205 11.0816H4.57773Z" fill="#3B3B3B"/>
</svg>
