<svg width="20" height="20" viewBox="0 0 20 20" fill="none" xmlns="http://www.w3.org/2000/svg">
<path d="M3.72536 7.35205C4.15654 7.35205 4.38433 7.10799 4.38433 6.68495V4.76499C4.38433 3.91891 4.83178 3.48773 5.64532 3.48773H7.61409C8.04527 3.48773 8.2812 3.2518 8.2812 2.82876C8.2812 2.40572 8.04527 2.17793 7.61409 2.17793H5.62905C3.92875 2.17793 3.07453 3.01588 3.07453 4.69177V6.68495C3.07453 7.10799 3.31046 7.35205 3.72536 7.35205ZM18.3447 7.35205C18.7759 7.35205 19.0037 7.10799 19.0037 6.68495V4.69177C19.0037 3.01588 18.1495 2.17793 16.4492 2.17793H14.456C14.0329 2.17793 13.797 2.40572 13.797 2.82876C13.797 3.2518 14.0329 3.48773 14.456 3.48773H16.4247C17.2302 3.48773 17.6939 3.91891 17.6939 4.76499V6.68495C17.6939 7.10799 17.9298 7.35205 18.3447 7.35205ZM7.32122 13.4455H7.90697V6.83139H7.32122V13.4455ZM8.63916 13.4455H9.73744V6.83139H8.63916V13.4455ZM10.2256 13.4455H10.9171V6.83139H10.2256V13.4455ZM11.5354 13.4455H12.6011V6.83139H11.5354V13.4455ZM13.0404 13.4455H13.8946V6.83139H13.0404V13.4455ZM14.2038 13.4455H14.7489V6.83139H14.2038V13.4455ZM5.62905 18.0989H7.61409C8.04527 18.0989 8.2812 17.863 8.2812 17.4481C8.2812 17.0251 8.04527 16.7891 7.61409 16.7891H5.64532C4.83178 16.7891 4.38433 16.358 4.38433 15.5119V13.5919C4.38433 13.1607 4.14841 12.9248 3.72536 12.9248C3.30232 12.9248 3.07453 13.1607 3.07453 13.5919V15.577C3.07453 17.261 3.92875 18.0989 5.62905 18.0989ZM14.456 18.0989H16.4492C18.1495 18.0989 19.0037 17.2529 19.0037 15.577V13.5919C19.0037 13.1607 18.7677 12.9248 18.3447 12.9248C17.9217 12.9248 17.6939 13.1607 17.6939 13.5919V15.5119C17.6939 16.358 17.2302 16.7891 16.4247 16.7891H14.456C14.0329 16.7891 13.797 17.0251 13.797 17.4481C13.797 17.863 14.0329 18.0989 14.456 18.0989Z" fill="#25282B"/>
</svg>
