<svg width="24" height="24" viewBox="0 0 24 24" fill="none" xmlns="http://www.w3.org/2000/svg">
<path d="M4.83936 19.7598H19.0586C20.8516 19.7598 21.7812 18.8384 21.7812 17.0703V6.95996C21.7812 5.19189 20.8516 4.27051 19.0586 4.27051H4.83936C3.04639 4.27051 2.1167 5.18359 2.1167 6.95996V17.0703C2.1167 18.8384 3.04639 19.7598 4.83936 19.7598ZM3.74365 7.10107C3.74365 6.2959 4.16699 5.88916 4.93896 5.88916H18.959C19.7227 5.88916 20.1543 6.2959 20.1543 7.10107V15.875L15.9956 11.9819C15.6221 11.6499 15.1904 11.4756 14.7505 11.4756C14.2939 11.4756 13.8872 11.6333 13.5054 11.9653L9.76172 15.3188L8.22607 13.9326C7.87744 13.6255 7.49561 13.4595 7.10547 13.4595C6.72363 13.4595 6.3833 13.6172 6.03467 13.9243L3.74365 15.9829V7.10107ZM8.5498 12.1646C9.63721 12.1646 10.5337 11.2681 10.5337 10.1724C10.5337 9.08496 9.63721 8.18018 8.5498 8.18018C7.4458 8.18018 6.55762 9.08496 6.55762 10.1724C6.55762 11.2681 7.4458 12.1646 8.5498 12.1646Z" fill="#2A3EB1"/>
</svg>
