<svg width="16" height="15" viewBox="0 0 16 15" fill="none" xmlns="http://www.w3.org/2000/svg">
<path d="M15.375 0.78125C15.4583 0.864583 15.5 0.958333 15.5 1.0625C15.5 1.125 15.4792 1.19792 15.4375 1.28125L9.65625 9.78125C9.59375 9.90625 9.52083 9.97917 9.4375 10C9.35417 10 9.30208 10 9.28125 10C9.15625 10 9.05208 9.95833 8.96875 9.875L5.0625 5.53125C4.97917 5.42708 4.9375 5.33333 4.9375 5.25C4.9375 5.14583 4.97917 5.05208 5.0625 4.96875L5.71875 4.3125C5.82292 4.20833 5.92708 4.15625 6.03125 4.15625C6.13542 4.15625 6.22917 4.20833 6.3125 4.3125L8.8125 6.8125C8.89583 6.89583 8.98958 6.9375 9.09375 6.9375C9.11458 6.9375 9.16667 6.9375 9.25 6.9375C9.33333 6.91667 9.40625 6.83333 9.46875 6.6875L14.0312 0.21875C14.0938 0.09375 14.1667 0.03125 14.25 0.03125C14.3333 0.0104167 14.3854 0 14.4062 0C14.5104 0 14.6042 0.0416667 14.6875 0.125L15.375 0.78125ZM13.5 10H14.5V14C14.5 14.2917 14.3958 14.5312 14.1875 14.7188C14 14.9062 13.7708 15 13.5 15H1.5C1.20833 15 0.96875 14.9062 0.78125 14.7188C0.59375 14.5312 0.5 14.2917 0.5 14V2C0.5 1.72917 0.59375 1.5 0.78125 1.3125C0.96875 1.10417 1.20833 1 1.5 1H5.5V2H1.5V14H13.5V10Z" fill="black"/>
</svg>
