<svg width="16" height="16" viewBox="0 0 16 16" fill="none" xmlns="http://www.w3.org/2000/svg">
<path d="M13.5 11H14.5V15C14.5 15.2917 14.3958 15.5312 14.1875 15.7188C14 15.9062 13.7708 16 13.5 16H1.5C1.20833 16 0.96875 15.9062 0.78125 15.7188C0.59375 15.5312 0.5 15.2917 0.5 15V3C0.5 2.72917 0.59375 2.5 0.78125 2.3125C0.96875 2.10417 1.20833 2 1.5 2H5.5V3H1.5V15H13.5V11ZM15.375 1.78125C15.5208 1.92708 15.5417 2.09375 15.4375 2.28125L9.65625 10.7812C9.59375 10.9062 9.48958 10.9792 9.34375 11C9.19792 11.0208 9.07292 10.9792 8.96875 10.875L5.0625 6.53125C4.875 6.34375 4.875 6.15625 5.0625 5.96875L5.71875 5.3125C5.92708 5.10417 6.125 5.10417 6.3125 5.3125L8.8125 7.8125C8.91667 7.91667 9.03125 7.95833 9.15625 7.9375C9.30208 7.91667 9.40625 7.83333 9.46875 7.6875L14.0312 1.21875C14.0938 1.09375 14.1875 1.02083 14.3125 1C14.4583 0.979167 14.5833 1.02083 14.6875 1.125L15.375 1.78125Z" fill="#34C759"/>
</svg>
