<svg width="16" height="16" viewBox="0 0 16 16" fill="none" xmlns="http://www.w3.org/2000/svg">
<path d="M13.7143 2.28571V0H0V5.71429H5.14286V16H16V2.28571H13.7143ZM1.14286 4.57143V1.14286H12.5714V2.28571H5.14286V4.57143H1.14286ZM14.8571 14.8571H6.28571V3.42857H14.8571V14.8571Z" fill="black"/>
<path d="M8.57157 5.14285H7.42871V6.28571H8.57157V5.14285Z" fill="black"/>
<path d="M13.7144 5.14285H9.71436V6.28571H13.7144V5.14285Z" fill="black"/>
<path d="M8.57157 8.57143H7.42871V9.71428H8.57157V8.57143Z" fill="black"/>
<path d="M13.7144 8.57143H9.71436V9.71428H13.7144V8.57143Z" fill="black"/>
<path d="M8.57157 12H7.42871V13.1429H8.57157V12Z" fill="black"/>
<path d="M13.7144 12H9.71436V13.1429H13.7144V12Z" fill="black"/>
</svg>
