<svg width="16" height="16" viewBox="0 0 16 16" fill="none" xmlns="http://www.w3.org/2000/svg">
<path fill-rule="evenodd" clip-rule="evenodd" d="M0.177829 8.80012C0.472379 8.40739 1.02953 8.3278 1.42227 8.62235L8 13.5556L14.5777 8.62235C14.9705 8.3278 15.5276 8.40739 15.8222 8.80012C16.1167 9.19286 16.0371 9.75001 15.6444 10.0446L8.53333 15.3779C8.21728 15.6149 7.78272 15.6149 7.46667 15.3779L0.355606 10.0446C-0.0371277 9.75001 -0.116721 9.19286 0.177829 8.80012Z" fill="black"/>
<path fill-rule="evenodd" clip-rule="evenodd" d="M0 1.33322C0 0.842302 0.397966 0.444336 0.888883 0.444336H15.111C15.6019 0.444336 15.9999 0.842302 15.9999 1.33322C15.9999 1.82414 15.6019 2.2221 15.111 2.2221H0.888883C0.397966 2.2221 0 1.82414 0 1.33322Z" fill="black"/>
<path fill-rule="evenodd" clip-rule="evenodd" d="M0 4.88893C0 4.39801 0.397966 4.00005 0.888883 4.00005H15.111C15.6019 4.00005 15.9999 4.39801 15.9999 4.88893C15.9999 5.37985 15.6019 5.77781 15.111 5.77781H0.888883C0.397966 5.77781 0 5.37985 0 4.88893Z" fill="black"/>
</svg>
