<svg width="16" height="16" viewBox="0 0 16 16" fill="none" xmlns="http://www.w3.org/2000/svg">
<path fill-rule="evenodd" clip-rule="evenodd" d="M0.177829 8.80015C0.472379 8.40741 1.02953 8.32782 1.42227 8.62237L8 13.5557L14.5777 8.62237C14.9705 8.32782 15.5276 8.40741 15.8222 8.80015C16.1167 9.19288 16.0371 9.75003 15.6444 10.0446L8.53333 15.3779C8.21728 15.6149 7.78272 15.6149 7.46667 15.3779L0.355606 10.0446C-0.0371277 9.75003 -0.116721 9.19288 0.177829 8.80015Z" fill="#34C759"/>
<path fill-rule="evenodd" clip-rule="evenodd" d="M0 1.33323C0 0.84231 0.397966 0.444344 0.888883 0.444344H15.111C15.6019 0.444344 15.9999 0.84231 15.9999 1.33323C15.9999 1.82414 15.6019 2.22211 15.111 2.22211H0.888883C0.397966 2.22211 0 1.82414 0 1.33323Z" fill="#34C759"/>
<path fill-rule="evenodd" clip-rule="evenodd" d="M0 4.88894C0 4.39802 0.397966 4.00005 0.888883 4.00005H15.111C15.6019 4.00005 15.9999 4.39802 15.9999 4.88894C15.9999 5.37985 15.6019 5.77782 15.111 5.77782H0.888883C0.397966 5.77782 0 5.37985 0 4.88894Z" fill="#34C759"/>
</svg>
