<svg width="14" height="16" viewBox="0 0 14 16" fill="none" xmlns="http://www.w3.org/2000/svg">
<path d="M0 2C0 1.72917 0.09375 1.5 0.28125 1.3125C0.46875 1.10417 0.708333 1 1 1H3V0H4V1H10V0H11V1H13C13.2917 1 13.5312 1.10417 13.7188 1.3125C13.9062 1.5 14 1.72917 14 2V15C14 15.2917 13.9062 15.5312 13.7188 15.7188C13.5312 15.9062 13.2917 16 13 16H1C0.708333 16 0.46875 15.9062 0.28125 15.7188C0.09375 15.5312 0 15.2917 0 15V2ZM10 2V3H11V2H10ZM3 2V3H4V2H3ZM1 4V15H13V4H1ZM6 7.5C6 7.35417 6.05208 7.23958 6.15625 7.15625C6.26042 7.05208 6.375 7 6.5 7H10.5C10.8333 7 11 7.16667 11 7.5C11 7.625 10.9479 7.73958 10.8438 7.84375C10.7604 7.94792 10.6458 8 10.5 8H6.5C6.375 8 6.26042 7.94792 6.15625 7.84375C6.05208 7.73958 6 7.625 6 7.5ZM2.5 9H7.5C7.83333 9 8 9.16667 8 9.5C8 9.625 7.94792 9.73958 7.84375 9.84375C7.76042 9.94792 7.64583 10 7.5 10H2.5C2.375 10 2.26042 9.94792 2.15625 9.84375C2.05208 9.73958 2 9.625 2 9.5C2 9.35417 2.05208 9.23958 2.15625 9.15625C2.26042 9.05208 2.375 9 2.5 9ZM3 11.5C3 11.3542 3.05208 11.2396 3.15625 11.1562C3.26042 11.0521 3.375 11 3.5 11H11.5C11.8333 11 12 11.1667 12 11.5C12 11.625 11.9479 11.7396 11.8438 11.8438C11.7604 11.9479 11.6458 12 11.5 12H3.5C3.375 12 3.26042 11.9479 3.15625 11.8438C3.05208 11.7396 3 11.625 3 11.5Z" fill="black"/>
</svg>
