<svg width="26" height="26" viewBox="0 0 26 26" fill="none" xmlns="http://www.w3.org/2000/svg">
<rect width="26" height="26" fill="white"/>
<path d="M6 20V7C6 6.70833 6.09375 6.46875 6.28125 6.28125C6.48958 6.09375 6.72917 6 7 6H9V5H10V6H16V5H17V6H19C19.2917 6 19.5312 6.09375 19.7188 6.28125C19.9062 6.46875 20 6.70833 20 7V20C20 20.2917 19.9062 20.5312 19.7188 20.7188C19.5312 20.9062 19.2917 21 19 21H7C6.72917 21 6.48958 20.9062 6.28125 20.7188C6.09375 20.5312 6 20.2917 6 20ZM16 7V8H17V7H16ZM9 7V8H10V7H9ZM7 9V20H19V9H7ZM13 11C13.2917 11 13.5312 11.0938 13.7188 11.2812C13.9062 11.4688 14 11.7083 14 12C14 12.2917 13.9062 12.5312 13.7188 12.7188C13.5312 12.9062 13.2917 13 13 13C12.7292 13 12.4896 12.9062 12.2812 12.7188C12.0938 12.5312 12 12.2917 12 12C12 11.7083 12.0938 11.4688 12.2812 11.2812C12.4896 11.0938 12.7292 11 13 11ZM16 12C16 11.7083 16.0938 11.4688 16.2812 11.2812C16.4896 11.0938 16.7292 11 17 11C17.2917 11 17.5312 11.0938 17.7188 11.2812C17.9062 11.4688 18 11.7083 18 12C18 12.2917 17.9062 12.5312 17.7188 12.7188C17.5312 12.9062 17.2917 13 17 13C16.7292 13 16.4896 12.9062 16.2812 12.7188C16.0938 12.5312 16 12.2917 16 12ZM9 11C9.29167 11 9.53125 11.0938 9.71875 11.2812C9.90625 11.4688 10 11.7083 10 12C10 12.2917 9.90625 12.5312 9.71875 12.7188C9.53125 12.9062 9.29167 13 9 13C8.72917 13 8.48958 12.9062 8.28125 12.7188C8.09375 12.5312 8 12.2917 8 12C8 11.7083 8.09375 11.4688 8.28125 11.2812C8.48958 11.0938 8.72917 11 9 11ZM13 14C13.5625 14 14.0312 14.1979 14.4062 14.5938C14.8021 14.9896 15 15.4583 15 16C15 16.5417 14.8021 17.0104 14.4062 17.4062C14.0312 17.8021 13.5625 18 13 18C12.4583 18 11.9896 17.8021 11.5938 17.4062C11.1979 17.0104 11 16.5417 11 16C11 15.4583 11.1979 14.9896 11.5938 14.5938C11.9896 14.1979 12.4583 14 13 14ZM8 16C8 15.7083 8.09375 15.4688 8.28125 15.2812C8.48958 15.0938 8.72917 15 9 15C9.29167 15 9.53125 15.0938 9.71875 15.2812C9.90625 15.4688 10 15.7083 10 16C10 16.2917 9.90625 16.5312 9.71875 16.7188C9.53125 16.9062 9.29167 17 9 17C8.72917 17 8.48958 16.9062 8.28125 16.7188C8.09375 16.5312 8 16.2917 8 16ZM16 16C16 15.7083 16.0938 15.4688 16.2812 15.2812C16.4896 15.0938 16.7292 15 17 15C17.2917 15 17.5312 15.0938 17.7188 15.2812C17.9062 15.4688 18 15.7083 18 16C18 16.2917 17.9062 16.5312 17.7188 16.7188C17.5312 16.9062 17.2917 17 17 17C16.7292 17 16.4896 16.9062 16.2812 16.7188C16.0938 16.5312 16 16.2917 16 16ZM13 17C13.2917 17 13.5312 16.9062 13.7188 16.7188C13.9062 16.5312 14 16.2917 14 16C14 15.7083 13.9062 15.4688 13.7188 15.2812C13.5312 15.0938 13.2917 15 13 15C12.7292 15 12.4896 15.0938 12.2812 15.2812C12.0938 15.4688 12 15.7083 12 16C12 16.2917 12.0938 16.5312 12.2812 16.7188C12.4896 16.9062 12.7292 17 13 17Z" fill="black"/>
</svg>
