<svg width="20" height="21" viewBox="0 0 20 21" fill="none" xmlns="http://www.w3.org/2000/svg">
<rect y="0.931885" width="19.6364" height="19.6364" rx="4" fill="#F8CC8C"/>
<path d="M10.2869 4.52344C10.8494 4.57031 11.3728 4.72656 11.8572 4.99219C12.3572 5.24219 12.7869 5.57031 13.1462 5.97656C13.5212 6.36719 13.8103 6.82812 14.0134 7.35938C14.2166 7.875 14.3181 8.42188 14.3181 9C14.3181 9.21875 14.2556 9.5 14.1306 9.84375C14.0056 10.1719 13.8337 10.5312 13.615 10.9219C13.4119 11.3125 13.1775 11.7188 12.9119 12.1406C12.6462 12.5625 12.3728 12.9844 12.0916 13.4062C11.4353 14.375 10.6931 15.4062 9.86499 16.5C9.00562 15.4219 8.2478 14.3984 7.59155 13.4297C7.3103 13.0234 7.02905 12.6094 6.7478 12.1875C6.48218 11.75 6.23999 11.3359 6.02124 10.9453C5.81812 10.5391 5.64624 10.1719 5.50562 9.84375C5.38062 9.5 5.31812 9.21875 5.31812 9C5.31812 8.375 5.4353 7.78906 5.66968 7.24219C5.90405 6.69531 6.22437 6.21875 6.63062 5.8125C7.03687 5.40625 7.51343 5.08594 8.0603 4.85156C8.60718 4.61719 9.19312 4.5 9.81812 4.5H10.0759C10.1384 4.5 10.2087 4.50781 10.2869 4.52344ZM9.86499 15.2578C10.3337 14.6172 10.7869 13.9766 11.2244 13.3359C11.6775 12.6797 12.0759 12.0703 12.4197 11.5078C12.7634 10.9297 13.0369 10.4219 13.24 9.98438C13.4587 9.54688 13.5681 9.21875 13.5681 9C13.5681 8.51562 13.4822 8.0625 13.3103 7.64062C13.1384 7.20312 12.9041 6.82031 12.6072 6.49219C12.3103 6.14844 11.9587 5.86719 11.5525 5.64844C11.1462 5.42969 10.7009 5.29688 10.2166 5.25H9.79468C9.27905 5.25 8.79468 5.35156 8.34155 5.55469C7.90405 5.74219 7.51343 6.00781 7.16968 6.35156C6.82593 6.69531 6.55249 7.09375 6.34937 7.54688C6.16187 8 6.06812 8.48438 6.06812 9C6.06812 9.23438 6.1853 9.58594 6.41968 10.0547C6.65405 10.5234 6.95093 11.0469 7.3103 11.625C7.6853 12.2031 8.09155 12.8125 8.52905 13.4531C8.98218 14.0938 9.42749 14.6953 9.86499 15.2578ZM9.81812 6.75C10.4431 6.75 10.9744 6.96875 11.4119 7.40625C11.8494 7.84375 12.0681 8.375 12.0681 9C12.0681 9.625 11.8494 10.1562 11.4119 10.5938C10.9744 11.0312 10.4431 11.25 9.81812 11.25C9.19312 11.25 8.66187 11.0312 8.22437 10.5938C7.78687 10.1562 7.56812 9.625 7.56812 9C7.56812 8.375 7.78687 7.84375 8.22437 7.40625C8.66187 6.96875 9.19312 6.75 9.81812 6.75ZM9.81812 10.5C10.24 10.5 10.5916 10.3516 10.8728 10.0547C11.1697 9.75781 11.3181 9.40625 11.3181 9C11.3181 8.57812 11.1697 8.22656 10.8728 7.94531C10.5916 7.64844 10.24 7.5 9.81812 7.5C9.41187 7.5 9.0603 7.64844 8.76343 7.94531C8.46655 8.22656 8.31812 8.57812 8.31812 9C8.31812 9.40625 8.46655 9.75781 8.76343 10.0547C9.0603 10.3516 9.41187 10.5 9.81812 10.5Z" fill="#212121"/>
</svg>
