<svg width="12" height="16" viewBox="0 0 12 16" fill="none" xmlns="http://www.w3.org/2000/svg">
<path d="M6.625 0.03125C7.375 0.09375 8.07292 0.302083 8.71875 0.65625C9.38542 0.989583 9.95833 1.42708 10.4375 1.96875C10.9375 2.48958 11.3229 3.10417 11.5938 3.8125C11.8646 4.5 12 5.22917 12 6C12 6.29167 11.9167 6.66667 11.75 7.125C11.5833 7.5625 11.3542 8.04167 11.0625 8.5625C10.7917 9.08333 10.4792 9.625 10.125 10.1875C9.77083 10.75 9.40625 11.3125 9.03125 11.875C8.15625 13.1667 7.16667 14.5417 6.0625 16C4.91667 14.5625 3.90625 13.1979 3.03125 11.9062C2.65625 11.3646 2.28125 10.8125 1.90625 10.25C1.55208 9.66667 1.22917 9.11458 0.9375 8.59375C0.666667 8.05208 0.4375 7.5625 0.25 7.125C0.0833333 6.66667 0 6.29167 0 6C0 5.16667 0.15625 4.38542 0.46875 3.65625C0.78125 2.92708 1.20833 2.29167 1.75 1.75C2.29167 1.20833 2.92708 0.78125 3.65625 0.46875C4.38542 0.15625 5.16667 0 6 0H6.34375C6.42708 0 6.52083 0.0104167 6.625 0.03125ZM6.0625 14.3438C6.6875 13.4896 7.29167 12.6354 7.875 11.7812C8.47917 10.9062 9.01042 10.0938 9.46875 9.34375C9.92708 8.57292 10.2917 7.89583 10.5625 7.3125C10.8542 6.72917 11 6.29167 11 6C11 5.35417 10.8854 4.75 10.6562 4.1875C10.4271 3.60417 10.1146 3.09375 9.71875 2.65625C9.32292 2.19792 8.85417 1.82292 8.3125 1.53125C7.77083 1.23958 7.17708 1.0625 6.53125 1H5.96875C5.28125 1 4.63542 1.13542 4.03125 1.40625C3.44792 1.65625 2.92708 2.01042 2.46875 2.46875C2.01042 2.92708 1.64583 3.45833 1.375 4.0625C1.125 4.66667 1 5.3125 1 6C1 6.3125 1.15625 6.78125 1.46875 7.40625C1.78125 8.03125 2.17708 8.72917 2.65625 9.5C3.15625 10.2708 3.69792 11.0833 4.28125 11.9375C4.88542 12.7917 5.47917 13.5938 6.0625 14.3438ZM6 3C6.83333 3 7.54167 3.29167 8.125 3.875C8.70833 4.45833 9 5.16667 9 6C9 6.83333 8.70833 7.54167 8.125 8.125C7.54167 8.70833 6.83333 9 6 9C5.16667 9 4.45833 8.70833 3.875 8.125C3.29167 7.54167 3 6.83333 3 6C3 5.16667 3.29167 4.45833 3.875 3.875C4.45833 3.29167 5.16667 3 6 3ZM6 8C6.5625 8 7.03125 7.80208 7.40625 7.40625C7.80208 7.01042 8 6.54167 8 6C8 5.4375 7.80208 4.96875 7.40625 4.59375C7.03125 4.19792 6.5625 4 6 4C5.45833 4 4.98958 4.19792 4.59375 4.59375C4.19792 4.96875 4 5.4375 4 6C4 6.54167 4.19792 7.01042 4.59375 7.40625C4.98958 7.80208 5.45833 8 6 8Z" fill="black"/>
</svg>
