<svg width="16" height="16" viewBox="0 0 16 16" fill="none" xmlns="http://www.w3.org/2000/svg">
<path d="M11.3103 6.10352e-05C10.023 6.10352e-05 8.91953 0.459826 8 1.37936L5.97703 3.40232C5.60922 3.77013 5.60922 4.32185 5.97703 4.68966C6.34484 5.05748 6.89656 5.05748 7.26437 4.68966L9.28734 2.6667C10.3908 1.56326 12.2298 1.56326 13.3333 2.6667C13.885 3.21842 14.1608 3.95404 14.1608 4.68966C14.1608 5.42529 13.885 6.16091 13.3333 6.71263L11.3103 8.7356C10.9425 9.10341 10.9425 9.65512 11.3103 10.0229C11.4942 10.2068 11.7701 10.2988 11.954 10.2988C12.1379 10.2988 12.4137 10.2068 12.5976 10.0229L14.6206 7.99997C15.5401 7.08044 15.9999 5.97701 15.9999 4.68966C15.9999 3.40232 15.5401 2.29889 14.6206 1.37936C13.7011 0.459826 12.5976 6.10352e-05 11.3103 6.10352e-05Z" fill="black"/>
<path d="M4.6896 7.35635C5.05741 6.98854 5.05741 6.43682 4.6896 6.06901C4.32179 5.7012 3.77007 5.7012 3.40226 6.06901L1.3793 8.00002C0.459765 8.91955 0 10.023 0 11.3103C0 12.5977 0.459765 13.7011 1.3793 14.6206C2.29883 15.5402 3.40226 15.9999 4.6896 15.9999C5.97694 15.9999 7.08038 15.5402 7.99991 14.6206L10.0229 12.5977C10.3907 12.2299 10.3907 11.6781 10.0229 11.3103C9.65506 10.9425 9.10335 10.9425 8.73553 11.3103L6.71257 13.3333C5.60913 14.4367 3.77007 14.4367 2.66664 13.3333C2.11492 12.7816 1.83906 12.046 1.83906 11.3103C1.83906 10.5747 2.11492 9.83908 2.66664 9.28737L4.6896 7.35635Z" fill="black"/>
<path d="M5.33348 10.6667C5.51738 10.8506 5.79324 10.9426 5.97715 10.9426C6.16105 10.9426 6.43691 10.8506 6.62082 10.6667L10.5748 6.71272C10.9426 6.34491 10.9426 5.79319 10.5748 5.42538C10.207 5.05757 9.65527 5.05757 9.28745 5.42538L5.33348 9.37936C4.96566 9.65522 4.96566 10.2989 5.33348 10.6667Z" fill="black"/>
</svg>
