<svg width="20" height="21" viewBox="0 0 20 21" fill="none" xmlns="http://www.w3.org/2000/svg">
<rect y="0.931885" width="19.6364" height="19.6364" rx="4" fill="#F6685E" fill-opacity="0.3"/>
<g clip-path="url(#clip0_6503_172310)">
<path d="M5.76812 10.75C5.76812 9.895 6.46312 9.2 7.31812 9.2H9.31812V8.25H7.31812C5.93812 8.25 4.81812 9.37 4.81812 10.75C4.81812 12.13 5.93812 13.25 7.31812 13.25H9.31812V12.3H7.31812C6.46312 12.3 5.76812 11.605 5.76812 10.75ZM7.81812 11.25H11.8181V10.25H7.81812V11.25ZM12.3181 8.25H10.3181V9.2H12.3181C13.1731 9.2 13.8681 9.895 13.8681 10.75C13.8681 11.605 13.1731 12.3 12.3181 12.3H10.3181V13.25H12.3181C13.6981 13.25 14.8181 12.13 14.8181 10.75C14.8181 9.37 13.6981 8.25 12.3181 8.25Z" fill="#212121"/>
</g>
<defs>
<clipPath id="clip0_6503_172310">
<rect width="12" height="12" fill="white" transform="translate(3.81812 4.75)"/>
</clipPath>
</defs>
</svg>
