<svg width="16" height="10" viewBox="0 0 16 10" fill="none" xmlns="http://www.w3.org/2000/svg">
<path fill-rule="evenodd" clip-rule="evenodd" d="M0.784989 5C0.880508 5.10073 1.00898 5.2322 1.1674 5.38534C1.54668 5.75196 2.09578 6.24101 2.77366 6.72961C4.13638 7.71184 5.98403 8.66672 8.00004 8.66672C10.0161 8.66672 11.8637 7.71184 13.2264 6.72961C13.9043 6.24101 14.4534 5.75196 14.8327 5.38534C14.9911 5.2322 15.1196 5.10073 15.2151 5C15.1196 4.89926 14.9911 4.7678 14.8327 4.61466C14.4534 4.24803 13.9043 3.75899 13.2264 3.27038C11.8637 2.28815 10.0161 1.33327 8.00004 1.33327C5.98403 1.33327 4.13638 2.28815 2.77366 3.27038C2.09578 3.75899 1.54668 4.24803 1.1674 4.61466C1.00898 4.7678 0.880508 4.89926 0.784989 5ZM15.6668 5C15.9198 4.78293 15.9197 4.78284 15.9196 4.78273L15.9194 4.78244L15.9187 4.78159L15.9163 4.77881L15.9077 4.769C15.9003 4.76059 15.8897 4.74851 15.8758 4.733C15.8481 4.70197 15.8075 4.65719 15.7547 4.60063C15.6491 4.48753 15.4945 4.32718 15.296 4.13532C14.8994 3.75193 14.3258 3.24096 13.6162 2.72955C12.2042 1.71175 10.2184 0.666595 8.00004 0.666595C5.78165 0.666595 3.79592 1.71175 2.38384 2.72955C1.67432 3.24096 1.10067 3.75193 0.704053 4.13532C0.505572 4.32718 0.350962 4.48753 0.245365 4.60063C0.192555 4.65719 0.151969 4.70197 0.124249 4.733C0.110388 4.74851 0.0997402 4.76059 0.0923865 4.769L0.0838352 4.77881L0.0814303 4.78159L0.0804511 4.78273C0.0803602 4.78284 0.0802824 4.78293 0.333254 5L0.0804511 4.78273C-0.0267045 4.90761 -0.0268732 5.09219 0.0802824 5.21707L0.333254 5C0.0802824 5.21707 0.0801914 5.21696 0.0802824 5.21707L0.0814303 5.2184L0.0838352 5.22118L0.0923865 5.231C0.0997402 5.2394 0.110388 5.25148 0.124249 5.267C0.151969 5.29803 0.192555 5.34281 0.245365 5.39937C0.350962 5.51246 0.505572 5.67282 0.704053 5.86468C1.10067 6.24807 1.67432 6.75903 2.38384 7.27044C3.79592 8.28825 5.78165 9.3334 8.00004 9.3334C10.2184 9.3334 12.2042 8.28825 13.6162 7.27044C14.3258 6.75903 14.8994 6.24807 15.296 5.86468C15.4945 5.67282 15.6491 5.51246 15.7547 5.39937C15.8075 5.34281 15.8481 5.29803 15.8758 5.267C15.8897 5.25148 15.9003 5.2394 15.9077 5.231L15.9163 5.22118L15.9187 5.2184L15.9194 5.21755L15.9196 5.21727C15.9197 5.21716 15.9198 5.21707 15.6668 5ZM15.6668 5L15.9196 5.21727C16.0268 5.09239 16.0268 4.90761 15.9196 4.78273L15.6668 5Z" fill="#BF5AF2"/>
<path fill-rule="evenodd" clip-rule="evenodd" d="M10.4943 1.29128C10.6307 1.16766 10.8415 1.17802 10.9651 1.31444C11.6082 2.02409 12.0001 2.96646 12.0001 3.99999C12.0001 6.20945 10.2095 8.00005 8.00006 8.00005C5.7906 8.00005 4 6.20945 4 3.99999C4 2.97009 4.38934 2.03025 5.02889 1.32161C5.15224 1.18495 5.36302 1.17415 5.49969 1.29749C5.63636 1.42083 5.64716 1.63162 5.52381 1.76828C4.99068 2.359 4.66668 3.14119 4.66668 3.99999C4.66668 5.84126 6.1588 7.33337 8.00006 7.33337C9.84133 7.33337 11.3334 5.84126 11.3334 3.99999C11.3334 3.13816 11.0073 2.35383 10.4711 1.76213C10.3475 1.62571 10.3578 1.41491 10.4943 1.29128Z" fill="#BF5AF2"/>
<path d="M7.9997 5.66667C8.92019 5.66667 9.66639 4.92046 9.66639 3.99998C9.66639 3.07949 8.92019 2.33328 7.9997 2.33328C7.07921 2.33328 6.33301 3.07949 6.33301 3.99998C6.33301 4.92046 7.07921 5.66667 7.9997 5.66667Z" fill="#BF5AF2"/>
</svg>
