<svg width="26" height="26" viewBox="0 0 26 26" fill="none" xmlns="http://www.w3.org/2000/svg">
<rect width="26" height="26" fill="white"/>
<path fill-rule="evenodd" clip-rule="evenodd" d="M5.78499 13C5.88051 13.1007 6.00898 13.2322 6.1674 13.3853C6.54668 13.752 7.09578 14.241 7.77366 14.7296C9.13638 15.7118 10.984 16.6667 13 16.6667C15.0161 16.6667 16.8637 15.7118 18.2264 14.7296C18.9043 14.241 19.4534 13.752 19.8327 13.3853C19.9911 13.2322 20.1196 13.1007 20.2151 13C20.1196 12.8993 19.9911 12.7678 19.8327 12.6147C19.4534 12.248 18.9043 11.759 18.2264 11.2704C16.8637 10.2882 15.0161 9.33327 13 9.33327C10.984 9.33327 9.13638 10.2882 7.77366 11.2704C7.09578 11.759 6.54668 12.248 6.1674 12.6147C6.00898 12.7678 5.88051 12.8993 5.78499 13ZM20.6668 13C20.9198 12.7829 20.9197 12.7828 20.9196 12.7827L20.9194 12.7824L20.9187 12.7816L20.9163 12.7788L20.9077 12.769C20.9003 12.7606 20.8897 12.7485 20.8758 12.733C20.8481 12.702 20.8075 12.6572 20.7547 12.6006C20.6491 12.4875 20.4945 12.3272 20.296 12.1353C19.8994 11.7519 19.3258 11.241 18.6162 10.7296C17.2042 9.71175 15.2184 8.6666 13 8.6666C10.7817 8.6666 8.79592 9.71175 7.38384 10.7296C6.67432 11.241 6.10067 11.7519 5.70405 12.1353C5.50557 12.3272 5.35096 12.4875 5.24537 12.6006C5.19256 12.6572 5.15197 12.702 5.12425 12.733C5.11039 12.7485 5.09974 12.7606 5.09239 12.769L5.08384 12.7788L5.08143 12.7816L5.08045 12.7827C5.08036 12.7828 5.08028 12.7829 5.33325 13L5.08045 12.7827C4.9733 12.9076 4.97313 13.0922 5.08028 13.2171L5.33325 13C5.08028 13.2171 5.08019 13.217 5.08028 13.2171L5.08143 13.2184L5.08384 13.2212L5.09239 13.231C5.09974 13.2394 5.11039 13.2515 5.12425 13.267C5.15197 13.298 5.19256 13.3428 5.24537 13.3994C5.35096 13.5125 5.50557 13.6728 5.70405 13.8647C6.10067 14.2481 6.67432 14.759 7.38384 15.2704C8.79592 16.2882 10.7817 17.3334 13 17.3334C15.2184 17.3334 17.2042 16.2882 18.6162 15.2704C19.3258 14.759 19.8994 14.2481 20.296 13.8647C20.4945 13.6728 20.6491 13.5125 20.7547 13.3994C20.8075 13.3428 20.8481 13.298 20.8758 13.267C20.8897 13.2515 20.9003 13.2394 20.9077 13.231L20.9163 13.2212L20.9187 13.2184L20.9194 13.2176L20.9196 13.2173C20.9197 13.2172 20.9198 13.2171 20.6668 13ZM20.6668 13L20.9196 13.2173C21.0268 13.0924 21.0268 12.9076 20.9196 12.7827L20.6668 13Z" fill="black"/>
<path fill-rule="evenodd" clip-rule="evenodd" d="M15.4943 9.29127C15.6307 9.16764 15.8415 9.17801 15.9651 9.31442C16.6082 10.0241 17.0001 10.9664 17.0001 12C17.0001 14.2094 15.2095 16 13.0001 16C10.7906 16 9 14.2094 9 12C9 10.9701 9.38934 10.0302 10.0289 9.3216C10.1522 9.18493 10.363 9.17413 10.4997 9.29747C10.6364 9.42082 10.6472 9.6316 10.5238 9.76827C9.99068 10.359 9.66668 11.1412 9.66668 12C9.66668 13.8412 11.1588 15.3334 13.0001 15.3334C14.8413 15.3334 16.3334 13.8412 16.3334 12C16.3334 11.1381 16.0073 10.3538 15.4711 9.76211C15.3475 9.6257 15.3578 9.41489 15.4943 9.29127Z" fill="black"/>
<path d="M13.0002 13.6667C13.9207 13.6667 14.6669 12.9205 14.6669 12C14.6669 11.0795 13.9207 10.3333 13.0002 10.3333C12.0797 10.3333 11.3335 11.0795 11.3335 12C11.3335 12.9205 12.0797 13.6667 13.0002 13.6667Z" fill="black"/>
</svg>
