<svg width="16" height="16" viewBox="0 0 16 16" fill="none" xmlns="http://www.w3.org/2000/svg">
<path d="M11.5 15C11.8333 15 12 15.1667 12 15.5C12 15.625 11.9479 15.7396 11.8438 15.8438C11.7604 15.9479 11.6458 16 11.5 16H4.5C4.375 16 4.26042 15.9479 4.15625 15.8438C4.05208 15.7396 4 15.625 4 15.5C4 15.3542 4.05208 15.2292 4.15625 15.125C4.26042 15.0417 4.375 15 4.5 15H11.5ZM15 0C15.25 0 15.4375 0.0520833 15.5625 0.15625C15.7083 0.260417 15.8125 0.375 15.875 0.5C15.9583 0.645833 16 0.8125 16 1V3V9C16 9.25 15.9479 9.44792 15.8438 9.59375C15.7396 9.71875 15.625 9.8125 15.5 9.875C15.3542 9.95833 15.1875 10 15 10H13C12.7917 10 12.5729 10.0312 12.3438 10.0938C12.1146 10.1354 11.8854 10.2083 11.6562 10.3125C11.4479 10.3958 11.25 10.4896 11.0625 10.5938C10.8958 10.6771 10.7604 10.7604 10.6562 10.8438C10.6146 10.8854 10.5833 10.9167 10.5625 10.9375C10.5625 10.9583 10.5417 10.9792 10.5 11V10.9688L10.4688 11C10.4479 10.9792 10.4271 10.9583 10.4062 10.9375C10.4062 10.9167 10.3854 10.8958 10.3438 10.875C10.1146 10.7083 9.77083 10.5208 9.3125 10.3125C8.85417 10.0833 8.41667 9.97917 8 10H6C5.8125 10 5.64583 9.95833 5.5 9.875C5.375 9.8125 5.26042 9.71875 5.15625 9.59375C5.05208 9.44792 5 9.25 5 9V3V1C5 0.8125 5.04167 0.645833 5.125 0.5C5.1875 0.375 5.28125 0.260417 5.40625 0.15625C5.53125 0.0520833 5.72917 0 6 0H9C9.4375 0 9.77083 0.125 10 0.375C10.2292 0.625 10.3958 0.822917 10.5 0.96875C10.6042 0.822917 10.7708 0.625 11 0.375C11.2292 0.125 11.5521 0 11.9688 0H12H15ZM10 2C9.9375 1.8125 9.83333 1.64583 9.6875 1.5C9.54167 1.375 9.34375 1.27083 9.09375 1.1875C8.84375 1.08333 8.47917 1.02083 8 1H6V3V8H8C8.25 8.02083 8.48958 8.08333 8.71875 8.1875C8.96875 8.27083 9.1875 8.375 9.375 8.5C9.60417 8.64583 9.8125 8.8125 10 9V2ZM15 1H13C12.5208 1.02083 12.1458 1.08333 11.875 1.1875C11.6042 1.27083 11.4062 1.375 11.2812 1.5C11.1354 1.64583 11.0417 1.8125 11 2V9C11.1875 8.8125 11.3958 8.64583 11.625 8.5C11.8125 8.375 12.0208 8.27083 12.25 8.1875C12.5 8.08333 12.75 8.02083 13 8H15V3V1ZM15 11H16V13C16 13.2708 15.9062 13.5104 15.7188 13.7188C15.5312 13.9062 15.2917 14 15 14H1C0.729167 14 0.489583 13.9062 0.28125 13.7188C0.09375 13.5104 0 13.2708 0 13V3C0 2.70833 0.09375 2.46875 0.28125 2.28125C0.489583 2.09375 0.729167 2 1 2H4V3H1V13H15V11Z" fill="#BF5AF2"/>
</svg>
