<svg width="26" height="26" viewBox="0 0 26 26" fill="none" xmlns="http://www.w3.org/2000/svg">
<rect width="26" height="26" fill="white"/>
<path fill-rule="evenodd" clip-rule="evenodd" d="M12.5349 4.39464C12.0152 4.57433 11.5731 4.90379 11.2758 5.33283C10.821 5.98907 10.8086 6.12469 10.8086 10.4371V14.4139L9.9873 14.4607C9.5356 14.4865 9.02671 14.5539 8.85645 14.6105C8.36053 14.7755 7.77413 15.2789 7.48948 15.7842L7.22842 16.2476L7.18571 17.9745C7.1435 19.6782 7.13971 19.7068 6.90721 20.1034C6.62366 20.5872 6.14904 20.9208 5.65497 20.9837C5.45473 21.0092 5.2245 21.0641 5.14346 21.1058C4.96689 21.1965 4.94903 21.5372 5.11372 21.6739C5.20024 21.7457 6.29807 21.7652 9.26258 21.7474C13.183 21.7239 13.3045 21.7182 13.6854 21.5422C14.187 21.3103 14.7354 20.7613 14.9646 20.2615C15.116 19.9313 15.1489 19.6751 15.1743 18.6274L15.2046 17.3848H16.5387C17.6392 17.3848 17.896 17.3616 18.0052 17.2525C18.1226 17.1351 18.1376 16.5565 18.1376 12.1559V7.19169H19.4068C20.1205 7.19169 20.7472 7.15353 20.8389 7.1045C20.9799 7.02902 21.0015 6.92431 20.9999 6.32527C20.9986 5.83507 20.9527 5.53316 20.8423 5.29029C20.6578 4.88408 20.1503 4.44089 19.7382 4.32624C19.5696 4.27932 18.054 4.2452 16.2001 4.24646C13.3467 4.24849 12.9061 4.26634 12.5349 4.39464ZM17.5456 5.35945C17.3916 5.69869 17.383 5.95512 17.3813 10.2544C17.3795 14.5426 17.3713 14.7879 17.232 14.7289C16.5881 14.4558 16.454 14.4437 14.0309 14.4401L11.5668 14.4364V10.3895C11.5668 6.57269 11.5759 6.32477 11.7275 6.03001C11.816 5.85816 11.9961 5.61773 12.1277 5.49584C12.6507 5.01162 12.6711 5.00842 15.2903 5.0048L17.7081 5.00143L17.5456 5.35945ZM19.796 5.1657C20.1234 5.36535 20.2301 5.55337 20.2984 6.05107L20.3508 6.43352H19.2442H18.1376V6.08847C18.1376 5.21296 19.0452 4.70793 19.796 5.1657ZM12.3731 6.56586C12.1995 6.73948 12.2059 6.88134 12.3948 7.05227C12.5284 7.17324 12.7972 7.19169 14.4221 7.19169C15.5523 7.19169 16.36 7.15706 16.4583 7.1045C16.6405 7.00703 16.6749 6.68936 16.5202 6.53461C16.4474 6.46183 15.8719 6.43352 14.4623 6.43352C12.7957 6.43352 12.4859 6.45315 12.3731 6.56586ZM12.3731 8.75612C12.2086 8.92064 12.2086 8.9615 12.3719 9.19468C12.5008 9.37874 12.5352 9.38194 14.3992 9.38194C15.5452 9.38194 16.3599 9.34741 16.4583 9.29476C16.6405 9.19729 16.6749 8.87962 16.5202 8.72487C16.4474 8.65208 15.8719 8.62378 14.4623 8.62378C12.7957 8.62378 12.4859 8.64341 12.3731 8.75612ZM12.3731 10.9464C12.2086 11.1109 12.2086 11.1518 12.3719 11.3849C12.5008 11.569 12.5352 11.5722 14.3992 11.5722C15.5452 11.5722 16.3599 11.5377 16.4583 11.485C16.6405 11.3875 16.6749 11.0699 16.5202 10.9151C16.4474 10.8423 15.8719 10.814 14.4623 10.814C12.7957 10.814 12.4859 10.8337 12.3731 10.9464ZM12.3731 13.1366C12.1995 13.3103 12.2059 13.4521 12.3948 13.623C12.5284 13.744 12.7972 13.7625 14.4221 13.7625C15.5523 13.7625 16.36 13.7278 16.4583 13.6753C16.6405 13.5778 16.6749 13.2601 16.5202 13.1054C16.4474 13.0326 15.8719 13.0043 14.4623 13.0043C12.7957 13.0043 12.4859 13.0239 12.3731 13.1366ZM14.7235 15.342C14.4584 15.9673 14.4382 16.1402 14.4347 17.8298C14.4307 19.7341 14.3843 19.9804 13.9422 20.4463C13.8172 20.5779 13.5743 20.758 13.4024 20.8464C13.1123 20.9956 12.8771 21.0072 10.125 21.0072C7.30457 21.0072 7.16667 21 7.29387 20.8595C7.36733 20.7782 7.52453 20.5034 7.64305 20.2487C7.84759 19.8092 7.85862 19.7126 7.85938 18.3479C7.86039 16.6415 7.95095 16.2289 8.42632 15.766C9.00143 15.2059 9.02957 15.2015 12.0602 15.1978C14.6246 15.1947 14.7823 15.2033 14.7235 15.342ZM16.7977 15.325C17.13 15.4969 17.3787 15.9185 17.3791 16.3107L17.3794 16.6266H16.2843H15.1892V16.3276C15.1892 15.4812 16.0555 14.9412 16.7977 15.325ZM8.75073 16.759C8.59312 16.9167 8.57956 17.1438 8.71948 17.2837C8.79327 17.3575 9.45195 17.3848 11.1565 17.3848C13.1676 17.3848 13.5108 17.3664 13.6247 17.2525C13.7892 17.0879 13.7893 17.0471 13.6259 16.8139C13.4958 16.6282 13.4762 16.6266 11.189 16.6266C9.20513 16.6266 8.86463 16.6451 8.75073 16.759ZM8.75073 18.9492C8.59312 19.1069 8.57956 19.3341 8.71948 19.474C8.79327 19.5478 9.45195 19.5751 11.1565 19.5751C13.1676 19.5751 13.5108 19.5567 13.6247 19.4427C13.7983 19.2691 13.7919 19.1272 13.603 18.9563C13.4676 18.8338 13.1721 18.8169 11.1661 18.8169C9.20302 18.8169 8.86463 18.8354 8.75073 18.9492Z" fill="black"/>
</svg>
