<svg width="21" height="10" viewBox="0 0 21 10" fill="none" xmlns="http://www.w3.org/2000/svg">
<path d="M2.95898 9H4.46484V0.544922H2.95898L0.75 2.09766V3.51562L2.85352 2.0332H2.95898V9ZM6.82031 9H12.6855V7.75195H8.46094L8.85938 8.01562V7.34766L8.46094 8.01562L10.5527 5.98242C11.0645 5.48633 11.4648 5.05859 11.7539 4.69922C12.0469 4.33984 12.2539 4.00977 12.375 3.70898C12.4961 3.4043 12.5566 3.09375 12.5566 2.77734V2.75977C12.5566 2.2832 12.4355 1.86328 12.1934 1.5C11.9512 1.13672 11.6152 0.851562 11.1855 0.644531C10.7598 0.4375 10.2734 0.333984 9.72656 0.333984C9.13672 0.333984 8.61719 0.447266 8.16797 0.673828C7.71875 0.900391 7.36719 1.21484 7.11328 1.61719C6.85938 2.01953 6.73242 2.48438 6.73242 3.01172L6.73828 3.0293L8.14453 3.03516L8.15039 3.01172C8.15039 2.71875 8.21289 2.46289 8.33789 2.24414C8.46289 2.02539 8.63867 1.85547 8.86523 1.73438C9.0918 1.60938 9.35352 1.54688 9.65039 1.54688C9.94336 1.54688 10.1953 1.60547 10.4062 1.72266C10.6172 1.83594 10.7793 1.99414 10.8926 2.19727C11.0059 2.40039 11.0625 2.63086 11.0625 2.88867V2.90625C11.0625 3.12109 11.0195 3.32617 10.9336 3.52148C10.8477 3.71289 10.6973 3.93555 10.4824 4.18945C10.2715 4.43945 9.97461 4.75781 9.5918 5.14453L6.82031 7.98047V9ZM17.4199 9.16992C18.0449 9.16992 18.5938 9.0625 19.0664 8.84766C19.543 8.63281 19.9141 8.33594 20.1797 7.95703C20.4453 7.57422 20.5781 7.13672 20.5781 6.64453V6.63281C20.5781 6.04688 20.3887 5.57812 20.0098 5.22656C19.6309 4.87109 19.1289 4.66406 18.5039 4.60547V4.57617C18.8438 4.50586 19.1465 4.38281 19.4121 4.20703C19.6816 4.03125 19.8926 3.81055 20.0449 3.54492C20.2012 3.27539 20.2793 2.9668 20.2793 2.61914V2.60742C20.2793 2.16211 20.1602 1.77344 19.9219 1.44141C19.6875 1.10938 19.3555 0.849609 18.9258 0.662109C18.4961 0.470703 17.9902 0.375 17.4082 0.375C16.8379 0.375 16.3359 0.476562 15.9023 0.679688C15.4727 0.878906 15.1289 1.16016 14.8711 1.52344C14.6172 1.88281 14.4688 2.30664 14.4258 2.79492L14.4199 2.86523H15.8203L15.8262 2.80664C15.8535 2.55664 15.9355 2.33984 16.0723 2.15625C16.209 1.96875 16.3906 1.82422 16.6172 1.72266C16.8477 1.62109 17.1113 1.57031 17.4082 1.57031C17.709 1.57031 17.9648 1.61914 18.1758 1.7168C18.3906 1.81445 18.5527 1.95508 18.6621 2.13867C18.7754 2.32227 18.832 2.54492 18.832 2.80664V2.81836C18.832 3.06445 18.7676 3.2832 18.6387 3.47461C18.5098 3.66211 18.3281 3.81055 18.0938 3.91992C17.8594 4.0293 17.5879 4.08398 17.2793 4.08398H16.3066V5.20898H17.3086C17.8516 5.20898 18.2773 5.32812 18.5859 5.56641C18.8945 5.80469 19.0488 6.14648 19.0488 6.5918V6.60352C19.0488 6.86523 18.9805 7.0957 18.8438 7.29492C18.707 7.49414 18.5156 7.65039 18.2695 7.76367C18.0273 7.87695 17.7441 7.93359 17.4199 7.93359C16.9238 7.93359 16.5195 7.81836 16.207 7.58789C15.8984 7.35742 15.7246 7.06445 15.6855 6.70898L15.6797 6.64453H14.2383L14.2441 6.71484C14.2832 7.19922 14.4355 7.62695 14.7012 7.99805C14.9707 8.36523 15.3359 8.65234 15.7969 8.85938C16.2617 9.06641 16.8027 9.16992 17.4199 9.16992Z" fill="black"/>
</svg>
