<svg width="20" height="21" viewBox="0 0 20 21" fill="none" xmlns="http://www.w3.org/2000/svg">
<rect y="0.931885" width="19.6364" height="19.6364" rx="4" fill="#673AB7" fill-opacity="0.08"/>
<path d="M3.81812 9.375V6H15.8181V6.75H15.0681V8.625C15.0681 8.875 14.9431 9 14.6931 9C14.4431 9 14.3181 8.875 14.3181 8.625V6.75H13.5681V9.375C13.5681 9.625 13.4431 9.75 13.1931 9.75C12.9431 9.75 12.8181 9.625 12.8181 9.375V6.75H12.0681V8.625C12.0681 8.875 11.9431 9 11.6931 9C11.4431 9 11.3181 8.875 11.3181 8.625V6.75H10.5681V9.375C10.5681 9.625 10.4431 9.75 10.1931 9.75C9.94312 9.75 9.81812 9.625 9.81812 9.375V6.75H9.06812V8.625C9.06812 8.875 8.94312 9 8.69312 9C8.44312 9 8.31812 8.875 8.31812 8.625V6.75H7.56812V9.375C7.56812 9.625 7.44312 9.75 7.19312 9.75C6.94312 9.75 6.81812 9.625 6.81812 9.375V6.75H6.06812V8.625C6.06812 8.875 5.94312 9 5.69312 9C5.44312 9 5.31812 8.875 5.31812 8.625V6.75H4.56812V9.375C4.56812 9.625 4.44312 9.75 4.19312 9.75C3.94312 9.75 3.81812 9.625 3.81812 9.375ZM3.81812 12H10.9431L11.5291 10.8516C11.5603 10.7734 11.615 10.7344 11.6931 10.7344C11.7712 10.7344 11.8259 10.7734 11.8572 10.8516L12.4431 12H15.8181V12.75H12.8181L13.1931 13.5H15.8181V14.25H13.5681L13.8025 14.7422C13.8181 14.7734 13.8259 14.8047 13.8259 14.8359C13.8259 14.8672 13.8103 14.9062 13.7791 14.9531C13.7634 14.9844 13.7166 15 13.6384 15H9.7478C9.66968 15 9.61499 14.9844 9.58374 14.9531C9.56812 14.9062 9.5603 14.8672 9.5603 14.8359C9.5603 14.8047 9.56812 14.7734 9.58374 14.7422L9.81812 14.25H3.81812V13.5H10.1931L10.5681 12.75H3.81812V12ZM10.6619 14.25H12.7244L11.6931 12.1875L10.6619 14.25Z" fill="#25282B"/>
</svg>
