<svg width="17" height="14" viewBox="0 0 17 14" fill="none" xmlns="http://www.w3.org/2000/svg">
<path d="M5.4375 11.3125L6 9.8125C6.14583 9.4375 6.27083 9.09375 6.375 8.78125C6.5 8.44792 6.57292 8.27083 6.59375 8.25L14.6875 0.15625C14.7917 0.0520833 14.9062 0 15.0312 0C15.1771 0 15.3021 0.0520833 15.4062 0.15625L16.8125 1.5625C16.9375 1.66667 17 1.78125 17 1.90625C17 2.01042 16.9375 2.125 16.8125 2.25L8.6875 10.3438C8.66667 10.3854 8.48958 10.4583 8.15625 10.5625C7.82292 10.6667 7.44792 10.7708 7.03125 10.875C6.80208 10.9375 6.55208 11.0104 6.28125 11.0938C6.01042 11.1562 5.72917 11.2292 5.4375 11.3125ZM13.7812 2.46875L14.4688 3.1875L15.75 1.90625L15.0312 1.21875L13.7812 2.46875ZM8.15625 9.5L13.7812 3.875L13.0625 3.1875L7.4375 8.8125C7.39583 8.91667 7.34375 9.0625 7.28125 9.25C7.21875 9.41667 7.13542 9.61458 7.03125 9.84375C7.28125 9.76042 7.5 9.69792 7.6875 9.65625C7.89583 9.59375 8.05208 9.54167 8.15625 9.5ZM3.3125 6.15625C3.1875 5.94792 2.96875 5.84375 2.65625 5.84375C2.17708 5.84375 1.65625 6.0625 1.09375 6.5C1.09375 6.5 1.08333 6.5 1.0625 6.5C1.0625 6.5 1.05208 6.5 1.03125 6.5C1.03125 6.47917 1.02083 6.46875 1 6.46875C0.958333 6.44792 0.9375 6.42708 0.9375 6.40625C0.9375 6.38542 0.947917 6.36458 0.96875 6.34375C1.01042 6.30208 1.10417 6.19792 1.25 6.03125C1.39583 5.86458 1.57292 5.69792 1.78125 5.53125C1.98958 5.34375 2.21875 5.17708 2.46875 5.03125C2.71875 4.88542 2.97917 4.8125 3.25 4.8125C3.5 4.8125 3.75 4.90625 4 5.09375C4.4375 5.42708 4.66667 5.71875 4.6875 5.96875C4.70833 6.21875 4.71875 6.375 4.71875 6.4375C4.71875 6.8125 4.625 7.22917 4.4375 7.6875C4.27083 8.125 4.03125 8.58333 3.71875 9.0625C3.40625 9.54167 3.125 10 2.875 10.4375C2.64583 10.875 2.5 11.2083 2.4375 11.4375C2.39583 11.6458 2.375 11.7917 2.375 11.875C2.375 12.1042 2.47917 12.3021 2.6875 12.4688L2.75 12.5C2.8125 12.5 2.85417 12.5104 2.875 12.5312C3.02083 12.5312 3.1875 12.4896 3.375 12.4062C3.5625 12.3229 3.75 12.2292 3.9375 12.125C4.14583 12.0208 4.34375 11.9167 4.53125 11.8125C4.71875 11.6875 4.875 11.5938 5 11.5312H5.125C5.14583 11.5521 5.15625 11.5729 5.15625 11.5938C5.15625 11.6771 5.03125 11.8021 4.78125 11.9688C4.69792 12.0312 4.55208 12.125 4.34375 12.25C4.13542 12.375 3.89583 12.5104 3.625 12.6562C3.375 12.7812 3.10417 12.8958 2.8125 13C2.54167 13.0833 2.29167 13.125 2.0625 13.125C1.72917 13.125 1.47917 13 1.3125 12.75C1.25 12.625 1.21875 12.4792 1.21875 12.3125C1.21875 12.1875 1.25 12.0104 1.3125 11.7812C1.375 11.5312 1.5 11.2083 1.6875 10.8125C1.89583 10.3958 2.125 9.97917 2.375 9.5625C2.625 9.125 2.84375 8.69792 3.03125 8.28125C3.21875 7.86458 3.33333 7.54167 3.375 7.3125C3.4375 7.0625 3.46875 6.875 3.46875 6.75C3.46875 6.54167 3.41667 6.34375 3.3125 6.15625Z" fill="black"/>
</svg>
