<svg width="18" height="14" viewBox="0 0 18 14" fill="none" xmlns="http://www.w3.org/2000/svg">
<path d="M16.8125 1.5625C17.0417 1.79167 17.0417 2.02083 16.8125 2.25L8.6875 10.3438C8.66667 10.3854 8.48958 10.4583 8.15625 10.5625C7.82292 10.6667 7.44792 10.7708 7.03125 10.875C6.55208 11 6.02083 11.1458 5.4375 11.3125L6 9.8125C6.14583 9.4375 6.27083 9.09375 6.375 8.78125C6.5 8.44792 6.57292 8.27083 6.59375 8.25L14.6875 0.15625C14.7917 0.0520833 14.9062 0 15.0312 0C15.1771 0 15.3021 0.0520833 15.4062 0.15625L16.8125 1.5625ZM13.7812 3.875L13.0625 3.1875L7.4375 8.8125C7.39583 8.91667 7.34375 9.0625 7.28125 9.25C7.21875 9.41667 7.13542 9.61458 7.03125 9.84375C7.28125 9.76042 7.5 9.69792 7.6875 9.65625C7.89583 9.59375 8.05208 9.54167 8.15625 9.5L13.7812 3.875ZM15.75 1.90625L15.0312 1.21875L13.7812 2.46875L14.4688 3.1875L15.75 1.90625ZM5 11.5312C5.08333 11.5312 5.125 11.5312 5.125 11.5312C5.20833 11.5938 5.09375 11.7396 4.78125 11.9688C4.65625 12.0521 4.42708 12.1979 4.09375 12.4062C3.78125 12.5938 3.4375 12.7604 3.0625 12.9062C2.70833 13.0521 2.36458 13.125 2.03125 13.125C1.69792 13.1458 1.45833 13.0208 1.3125 12.75C1.1875 12.5208 1.16667 12.2396 1.25 11.9062C1.35417 11.5729 1.51042 11.2083 1.71875 10.8125C1.92708 10.3958 2.15625 9.96875 2.40625 9.53125C2.65625 9.09375 2.875 8.67708 3.0625 8.28125C3.25 7.86458 3.375 7.47917 3.4375 7.125C3.5 6.75 3.45833 6.42708 3.3125 6.15625C3.14583 5.86458 2.83333 5.77083 2.375 5.875C1.9375 5.95833 1.51042 6.16667 1.09375 6.5C1.07292 6.52083 1.05208 6.52083 1.03125 6.5C1.03125 6.47917 1.02083 6.46875 1 6.46875C0.9375 6.42708 0.927083 6.38542 0.96875 6.34375C1.01042 6.28125 1.13542 6.13542 1.34375 5.90625C1.55208 5.67708 1.80208 5.45833 2.09375 5.25C2.38542 5.04167 2.69792 4.90625 3.03125 4.84375C3.36458 4.76042 3.6875 4.84375 4 5.09375C4.4375 5.42708 4.66667 5.8125 4.6875 6.25C4.70833 6.6875 4.625 7.14583 4.4375 7.625C4.25 8.08333 4 8.5625 3.6875 9.0625C3.39583 9.5625 3.125 10.0312 2.875 10.4688C2.64583 10.8854 2.48958 11.2708 2.40625 11.625C2.32292 11.9792 2.41667 12.2604 2.6875 12.4688C2.8125 12.5521 3 12.5521 3.25 12.4688C3.5 12.3646 3.76042 12.2396 4.03125 12.0938C4.32292 11.9271 4.64583 11.7396 5 11.5312Z" fill="#1966FF"/>
</svg>
