<svg width="16" height="16" viewBox="0 0 16 16" fill="none" xmlns="http://www.w3.org/2000/svg">
<path d="M8 0C9.10417 0 10.1354 0.208333 11.0938 0.625C12.0729 1.04167 12.9271 1.61458 13.6562 2.34375C14.3854 3.07292 14.9583 3.92708 15.375 4.90625C15.7917 5.86458 16 6.89583 16 8C16 9.10417 15.7917 10.1458 15.375 11.125C14.9583 12.0833 14.3854 12.9271 13.6562 13.6562C12.9271 14.3854 12.0729 14.9583 11.0938 15.375C10.1354 15.7917 9.10417 16 8 16C6.89583 16 5.85417 15.7917 4.875 15.375C3.89583 14.9583 3.04167 14.3854 2.3125 13.6562C1.60417 12.9271 1.04167 12.0833 0.625 11.125C0.208333 10.1458 0 9.10417 0 8C0 6.89583 0.208333 5.86458 0.625 4.90625C1.04167 3.92708 1.60417 3.07292 2.3125 2.34375C3.04167 1.61458 3.89583 1.04167 4.875 0.625C5.85417 0.208333 6.89583 0 8 0ZM8 15C8.95833 15 9.86458 14.8229 10.7188 14.4688C11.5729 14.0938 12.3125 13.5938 12.9375 12.9688C13.5833 12.3229 14.0833 11.5833 14.4375 10.75C14.8125 9.89583 15 8.97917 15 8C15 7.04167 14.8125 6.13542 14.4375 5.28125C14.0833 4.42708 13.5833 3.6875 12.9375 3.0625C12.3125 2.41667 11.5729 1.91667 10.7188 1.5625C9.86458 1.1875 8.95833 1 8 1C7.02083 1 6.10417 1.1875 5.25 1.5625C4.41667 1.91667 3.67708 2.41667 3.03125 3.0625C2.40625 3.6875 1.90625 4.42708 1.53125 5.28125C1.17708 6.13542 1 7.04167 1 8C1 8.97917 1.17708 9.89583 1.53125 10.75C1.90625 11.5833 2.40625 12.3229 3.03125 12.9688C3.67708 13.5938 4.41667 14.0938 5.25 14.4688C6.10417 14.8229 7.02083 15 8 15ZM12.5 8C12.625 8 12.7396 8.05208 12.8438 8.15625C12.9479 8.23958 13 8.35417 13 8.5C13 8.64583 12.9479 8.77083 12.8438 8.875C12.7396 8.95833 12.625 9 12.5 9H8H7.5H7V8.5V8V4.5C7 4.16667 7.16667 4 7.5 4C7.625 4 7.73958 4.05208 7.84375 4.15625C7.94792 4.23958 8 4.35417 8 4.5V8H12.5Z" fill="#FF453A"/>
</svg>
