<svg width="41" height="41" viewBox="0 0 41 41" fill="none" xmlns="http://www.w3.org/2000/svg">
<path d="M31.1314 24.2979C31.1601 24.1546 31.1314 24.0257 31.0455 23.9111C30.9595 23.7965 30.845 23.7249 30.7017 23.6963L29.7134 23.417C29.6991 23.2738 29.6705 23.1305 29.6275 22.9873C29.5989 22.8298 29.5631 22.6794 29.5201 22.5361L30.3365 21.8486C30.4511 21.7627 30.5227 21.6553 30.5513 21.5264C30.58 21.3831 30.5513 21.2542 30.4654 21.1396L29.5631 19.8291C29.4771 19.7145 29.3625 19.6429 29.2193 19.6143C29.0904 19.5856 28.9615 19.6143 28.8326 19.7002L27.8873 20.2373C27.787 20.1514 27.6724 20.0726 27.5435 20.001C27.4289 19.915 27.3072 19.8434 27.1783 19.7861L27.2642 18.6689C27.2929 18.5257 27.2642 18.3968 27.1783 18.2822C27.1067 18.1533 26.9993 18.0817 26.856 18.0674L25.2877 17.7881C25.1444 17.7594 25.0155 17.7881 24.9009 17.874C24.7864 17.9456 24.7148 18.0531 24.6861 18.1963L24.3853 19.2705C24.2564 19.2992 24.1203 19.3278 23.9771 19.3564C23.8482 19.3851 23.7193 19.4137 23.5904 19.4424L22.8384 18.583C22.7668 18.4684 22.6594 18.3968 22.5162 18.3682C22.373 18.3395 22.244 18.3682 22.1295 18.4541L20.8189 19.3564C20.7043 19.4424 20.6327 19.557 20.6041 19.7002C20.5898 19.8291 20.6184 19.9508 20.69 20.0654L21.2486 21.0537C21.1627 21.154 21.0767 21.2614 20.9908 21.376C20.9192 21.4906 20.8547 21.6123 20.7974 21.7412L19.6588 21.6338C19.5155 21.6195 19.3795 21.6553 19.2506 21.7412C19.136 21.8128 19.0715 21.9202 19.0572 22.0635L18.7779 23.6318C18.7493 23.7607 18.7707 23.8896 18.8424 24.0186C18.9283 24.1331 19.0429 24.1976 19.1861 24.2119L20.2388 24.5127C20.2532 24.6559 20.2746 24.7992 20.3033 24.9424C20.3319 25.0856 20.3677 25.2217 20.4107 25.3506L19.5728 26.0811C19.4582 26.1527 19.3866 26.2601 19.358 26.4033C19.3293 26.5465 19.358 26.6755 19.4439 26.79L20.3463 28.1006C20.4322 28.2152 20.5396 28.2868 20.6685 28.3154C20.8118 28.3298 20.9407 28.3011 21.0552 28.2295L21.9791 27.7139C22.0937 27.7998 22.2082 27.8857 22.3228 27.9717C22.4517 28.0576 22.5878 28.1364 22.731 28.208L22.6451 29.2607C22.6164 29.404 22.6379 29.5329 22.7095 29.6475C22.7955 29.762 22.9101 29.8337 23.0533 29.8623L24.6217 30.1416C24.7649 30.1702 24.8938 30.1416 25.0084 30.0557C25.123 29.9697 25.1946 29.8623 25.2232 29.7334L25.481 28.7451C25.6386 28.7308 25.789 28.7093 25.9322 28.6807C26.0898 28.652 26.2473 28.6162 26.4049 28.5732L27.0709 29.3467C27.1425 29.4613 27.2499 29.5329 27.3931 29.5615C27.5364 29.5902 27.6653 29.5615 27.7799 29.4756L29.0904 28.5732C29.205 28.4873 29.2694 28.3727 29.2838 28.2295C29.3124 28.0863 29.2909 27.9574 29.2193 27.8428L28.7252 26.9834C28.8111 26.8545 28.897 26.7256 28.983 26.5967C29.0689 26.4678 29.1477 26.3317 29.2193 26.1885L30.2506 26.2744C30.3938 26.3031 30.5227 26.2816 30.6373 26.21C30.7519 26.124 30.8235 26.0094 30.8521 25.8662L31.1314 24.2979ZM24.6217 26.0381C24.0487 25.9378 23.5976 25.6585 23.2681 25.2002C22.953 24.7275 22.8456 24.2048 22.9459 23.6318C23.0461 23.0732 23.3254 22.6364 23.7838 22.3213C24.2564 21.9919 24.772 21.8773 25.3306 21.9775C25.9036 22.0778 26.3476 22.3643 26.6627 22.8369C26.9921 23.2952 27.1067 23.8037 27.0064 24.3623C26.9062 24.9209 26.6197 25.3649 26.147 25.6943C25.6887 26.0238 25.1802 26.1383 24.6217 26.0381ZM22.3443 16.585C22.373 16.4561 22.3443 16.3343 22.2584 16.2197C22.1868 16.0908 22.0793 16.012 21.9361 15.9834L20.9478 15.7041C20.9335 15.5465 20.912 15.3962 20.8834 15.2529C20.8547 15.1097 20.8118 14.9665 20.7545 14.8232L21.5924 14.1357C21.7069 14.0498 21.7786 13.9424 21.8072 13.8135C21.8358 13.6702 21.8072 13.5413 21.7213 13.4268L20.8404 12.0947C20.7545 11.9801 20.6399 11.9085 20.4967 11.8799C20.3677 11.8512 20.2388 11.8799 20.1099 11.9658L19.1646 12.4814C19.05 12.3955 18.9355 12.3167 18.8209 12.2451C18.7063 12.1592 18.5845 12.0804 18.4556 12.0088L18.5631 10.8916C18.5917 10.7627 18.5631 10.641 18.4771 10.5264C18.3912 10.3975 18.2838 10.3187 18.1549 10.29L16.5865 10.0107C16.4433 9.9821 16.3144 10.0107 16.1998 10.0967C16.0852 10.1683 16.0136 10.2757 15.9849 10.4189L15.6627 11.4932C15.5338 11.5075 15.3977 11.529 15.2545 11.5576C15.1256 11.5719 14.9967 11.6006 14.8677 11.6436L14.1373 10.7627C14.0513 10.6481 13.9368 10.5765 13.7935 10.5479C13.6646 10.5192 13.5357 10.5407 13.4068 10.6123L12.0963 11.5146C11.9817 11.6006 11.9101 11.7152 11.8814 11.8584C11.8528 11.9873 11.8814 12.109 11.9674 12.2236L12.5045 13.2119C12.4185 13.3265 12.3326 13.4411 12.2467 13.5557C12.175 13.6702 12.1106 13.7848 12.0533 13.8994L10.8931 13.792C10.7642 13.7633 10.6353 13.792 10.5064 13.8779C10.3918 13.9495 10.3202 14.057 10.2916 14.2002L10.0123 15.7686C9.98363 15.8975 10.0051 16.0264 10.0767 16.1553C10.1627 16.2699 10.2773 16.3415 10.4205 16.3701L11.4517 16.6709C11.4661 16.8141 11.4875 16.9574 11.5162 17.1006C11.5448 17.2438 11.5806 17.3799 11.6236 17.5088L10.7642 18.2178C10.6496 18.3037 10.578 18.4183 10.5494 18.5615C10.5207 18.6904 10.5422 18.8122 10.6138 18.9268L11.5162 20.2588C11.6021 20.3734 11.7095 20.445 11.8384 20.4736C11.9817 20.5023 12.1106 20.4736 12.2252 20.3877L13.149 19.8936C13.2636 19.9795 13.3782 20.0654 13.4927 20.1514C13.6217 20.2373 13.7506 20.3161 13.8795 20.3877L13.7935 21.4619C13.7649 21.5908 13.7864 21.7197 13.858 21.8486C13.9439 21.9632 14.0585 22.0348 14.2017 22.0635L15.7486 22.3428C15.8918 22.3714 16.0207 22.3499 16.1353 22.2783C16.2642 22.1924 16.3358 22.0778 16.3502 21.9346L16.6509 20.9678C16.8085 20.9535 16.9589 20.932 17.1021 20.9033C17.2597 20.8747 17.4101 20.8389 17.5533 20.7959L18.2193 21.5908C18.2909 21.7054 18.3983 21.777 18.5416 21.8057C18.6848 21.8343 18.8137 21.8128 18.9283 21.7412L20.2388 20.8389C20.3534 20.7529 20.425 20.6455 20.4537 20.5166C20.4823 20.3734 20.4608 20.2445 20.3892 20.1299L19.8951 19.249C19.9953 19.1201 20.0884 18.9912 20.1744 18.8623C20.2603 18.7334 20.3391 18.6045 20.4107 18.4756L21.442 18.5615C21.5852 18.5902 21.7141 18.5687 21.8287 18.4971C21.9433 18.4111 22.0149 18.2965 22.0435 18.1533L22.3443 16.585ZM15.942 17.6377C15.5552 17.5661 15.2473 17.3656 15.0181 17.0361C14.789 16.7067 14.7102 16.3486 14.7818 15.9619C14.8677 15.5609 15.0754 15.2529 15.4049 15.0381C15.7343 14.8089 16.0924 14.7301 16.4791 14.8018C16.8658 14.8734 17.1737 15.0739 17.4029 15.4033C17.6321 15.7327 17.7037 16.098 17.6177 16.499C17.5461 16.8857 17.3456 17.1937 17.0162 17.4229C16.6868 17.6377 16.3287 17.7093 15.942 17.6377ZM19.4224 24.5342C19.3938 24.4482 19.3365 24.3838 19.2506 24.3408C19.1646 24.2979 19.0787 24.2907 18.9927 24.3193L18.3482 24.4697C18.3052 24.3981 18.248 24.3265 18.1763 24.2549C18.119 24.1833 18.0546 24.1188 17.983 24.0615L18.2193 23.417C18.2623 23.3311 18.2694 23.2451 18.2408 23.1592C18.2121 23.0732 18.1549 23.0088 18.0689 22.9658L17.1666 22.5361C17.0806 22.4932 16.9947 22.486 16.9088 22.5146C16.8228 22.5433 16.7655 22.6006 16.7369 22.6865L16.3717 23.2666C16.2714 23.2523 16.1783 23.2451 16.0924 23.2451C16.0064 23.2308 15.9133 23.2236 15.8131 23.2236L15.5338 22.5791C15.5051 22.4932 15.4478 22.4287 15.3619 22.3857C15.2759 22.3428 15.19 22.3356 15.1041 22.3643L14.1588 22.708C14.0728 22.7367 14.0084 22.7939 13.9654 22.8799C13.9224 22.9515 13.9153 23.0303 13.9439 23.1162L14.1158 23.8037C14.0442 23.861 13.9726 23.9183 13.9009 23.9756C13.8437 24.0329 13.7864 24.0902 13.7291 24.1475L13.0416 23.8896C12.9556 23.861 12.8697 23.861 12.7838 23.8896C12.6978 23.9183 12.6334 23.9684 12.5904 24.04L12.1392 24.9639C12.1106 25.0355 12.1106 25.1143 12.1392 25.2002C12.1679 25.2861 12.218 25.3506 12.2896 25.3936L12.9127 25.7803C12.8983 25.8662 12.884 25.9521 12.8697 26.0381C12.8697 26.124 12.8697 26.21 12.8697 26.2959L12.2037 26.5967C12.1177 26.6253 12.0533 26.6826 12.0103 26.7686C11.9674 26.8402 11.9602 26.9189 11.9888 27.0049L12.3111 27.9717C12.3541 28.0576 12.4114 28.1221 12.483 28.165C12.5689 28.1937 12.6549 28.1937 12.7408 28.165L13.4068 28.0146C13.4641 28.0863 13.5214 28.1579 13.5787 28.2295C13.636 28.3011 13.7004 28.3656 13.772 28.4229L13.5142 29.0889C13.4713 29.1748 13.4641 29.2607 13.4927 29.3467C13.5214 29.4326 13.5787 29.4971 13.6646 29.54L14.567 29.9697C14.6529 30.0127 14.7388 30.0199 14.8248 29.9912C14.9107 29.9626 14.9752 29.9053 15.0181 29.8193L15.3619 29.2607C15.4478 29.2751 15.5409 29.2894 15.6412 29.3037C15.7414 29.3037 15.8345 29.3037 15.9205 29.3037L16.1998 29.9268C16.2427 30.0127 16.3 30.0771 16.3717 30.1201C16.4576 30.1488 16.5435 30.1488 16.6295 30.1201L17.5748 29.7979C17.6607 29.7692 17.7252 29.7191 17.7681 29.6475C17.8111 29.5615 17.8183 29.4756 17.7896 29.3896L17.6392 28.7666C17.7252 28.7093 17.8039 28.652 17.8756 28.5947C17.9472 28.5231 18.0188 28.4515 18.0904 28.3799L18.7134 28.6162C18.7994 28.6449 18.8853 28.6449 18.9713 28.6162C19.0572 28.5876 19.1145 28.5374 19.1431 28.4658L19.5943 27.542C19.6373 27.4704 19.6444 27.3916 19.6158 27.3057C19.5871 27.2197 19.5299 27.1553 19.4439 27.1123L18.9068 26.7686C18.9211 26.6826 18.9283 26.5895 18.9283 26.4893C18.9426 26.389 18.9426 26.2887 18.9283 26.1885L19.5299 25.9092C19.6158 25.8805 19.6802 25.8304 19.7232 25.7588C19.7662 25.6729 19.7733 25.5869 19.7447 25.501L19.4224 24.5342ZM16.1998 27.1338C15.9563 27.2197 15.72 27.2054 15.4908 27.0908C15.2759 26.9762 15.1256 26.8044 15.0396 26.5752C14.9537 26.3317 14.968 26.0954 15.0826 25.8662C15.1972 25.637 15.369 25.4795 15.5982 25.3936C15.8417 25.3219 16.078 25.3434 16.3072 25.458C16.5364 25.5583 16.6939 25.7301 16.7799 25.9736C16.8515 26.2171 16.83 26.4535 16.7154 26.6826C16.6151 26.8975 16.4433 27.0479 16.1998 27.1338Z" fill="#19BEC4"/>
</svg>
