<svg width="40" height="40" viewBox="0 0 40 40" fill="none" xmlns="http://www.w3.org/2000/svg">
<rect width="40" height="40" rx="6.2" fill="#ECF1F7"/>
<path opacity="0.5" d="M28.9209 29.7461H23.5479C23.4111 29.7461 23.2949 29.6982 23.1992 29.6025C23.1035 29.5205 23.0557 29.4111 23.0557 29.2744L24.9629 11.4326C24.9629 11.2959 25.0107 11.1865 25.1064 11.1045C25.2021 11.0088 25.3184 10.9609 25.4551 10.9609H27.7725C27.9092 10.9609 28.0254 11.0088 28.1211 11.1045C28.2168 11.1865 28.2646 11.2959 28.2646 11.4326L29.3926 29.2744C29.3926 29.4111 29.3447 29.5205 29.249 29.6025C29.167 29.6982 29.0576 29.7461 28.9209 29.7461ZM10.7715 19.8408H16.3496V17.0928C16.3496 16.915 16.2744 16.7852 16.124 16.7031C15.9736 16.6074 15.8232 16.6074 15.6729 16.7031L10.7715 19.8408ZM16.4727 19.8408H22.0508V17.0928C22.0508 16.915 21.9756 16.7852 21.8252 16.7031C21.6748 16.6074 21.5244 16.6074 21.374 16.7031L16.4727 19.8408ZM23.5273 19.8203H10.874C10.792 19.8203 10.7236 19.8477 10.6689 19.9023C10.6143 19.9434 10.5869 20.0049 10.5869 20.0869V29.2744C10.5869 29.4111 10.6348 29.5205 10.7305 29.6025C10.8262 29.6982 10.9424 29.7461 11.0791 29.7461H23.5273V19.8203ZM14.2988 26.9365H12.6992V24.5166H14.2988V26.9365ZM14.2988 23.3477H12.6992V20.9482H14.2988V23.3477ZM17.9082 26.9365H16.3086V24.5166H17.9082V26.9365ZM17.9082 23.3477H16.3086V20.9482H17.9082V23.3477ZM21.5996 26.9365H20V24.5166H21.5996V26.9365ZM21.5996 23.3477H20V20.9482H21.5996V23.3477Z" fill="#25282B"/>
</svg>
