<svg width="18" height="21" viewBox="0 0 18 21" fill="none" xmlns="http://www.w3.org/2000/svg">
<path d="M16.7109 11.3047L15.2959 10.9971C15.2002 10.6416 15.0771 10.2998 14.9268 9.97168C14.79 9.64355 14.6191 9.33594 14.4141 9.04883L15.2549 7.96191C15.3643 7.83887 15.4189 7.70215 15.4189 7.55176C15.4189 7.3877 15.3643 7.24414 15.2549 7.12109L14.4141 6.25977C14.3047 6.13672 14.168 6.0752 14.0039 6.0752C13.8398 6.0752 13.7031 6.12988 13.5938 6.23926L13.3887 6.3623C13.2383 6.81348 13.0537 7.29199 12.835 7.79785C12.6299 8.30371 12.4111 8.81641 12.1787 9.33594C12.6162 9.74609 12.9512 10.2383 13.1836 10.8125C13.4297 11.373 13.5527 11.9746 13.5527 12.6172C13.5391 13.2188 13.4092 13.793 13.1631 14.3398C12.9307 14.873 12.6094 15.3379 12.1992 15.7344C11.7891 16.1309 11.3105 16.4385 10.7637 16.6572C10.2305 16.8896 9.65625 16.999 9.04102 16.9854C8.42578 16.9717 7.85156 16.8486 7.31836 16.6162C6.78516 16.3701 6.32031 16.042 5.92383 15.6318C5.52734 15.2217 5.21289 14.75 4.98047 14.2168C4.76172 13.6699 4.65234 13.0889 4.65234 12.4736C4.66602 11.8857 4.78223 11.332 5.00098 10.8125C5.2334 10.2793 5.54785 9.81445 5.94434 9.41797C5.72559 8.92578 5.51367 8.44043 5.30859 7.96191C5.10352 7.4834 4.91895 7.01855 4.75488 6.56738L4.44727 6.3418C4.33789 6.21875 4.20117 6.15723 4.03711 6.15723C3.87305 6.15723 3.72949 6.21191 3.60645 6.32129L2.74512 7.16211C2.62207 7.27148 2.56055 7.4082 2.56055 7.57227C2.56055 7.73633 2.61523 7.87988 2.72461 8.00293L3.60645 9.33594C3.44238 9.62305 3.29883 9.92383 3.17578 10.2383C3.05273 10.5391 2.9502 10.8604 2.86816 11.2021L1.3916 11.4072C1.24121 11.3936 1.10449 11.4482 0.981445 11.5713C0.87207 11.6807 0.810547 11.8174 0.796875 11.9814V13.1914C0.783203 13.3555 0.831055 13.499 0.94043 13.6221C1.06348 13.7314 1.20703 13.7861 1.37109 13.7861L2.92969 14.1143C3.01172 14.4561 3.12109 14.7842 3.25781 15.0986C3.39453 15.3994 3.55176 15.6865 3.72949 15.96L2.82715 17.1494C2.71777 17.2588 2.66309 17.3955 2.66309 17.5596C2.66309 17.7236 2.71777 17.8604 2.82715 17.9697L3.66797 18.8516C3.77734 18.9609 3.91406 19.0156 4.07812 19.0156C4.24219 19.0156 4.37891 18.9609 4.48828 18.8516L5.80078 18.0107C6.10156 18.1885 6.40918 18.3389 6.72363 18.4619C7.03809 18.585 7.36621 18.6875 7.70801 18.7695L7.89258 20.1846C7.89258 20.3486 7.94727 20.4854 8.05664 20.5947C8.17969 20.7178 8.32324 20.7793 8.4873 20.7793L9.69727 20.7998C9.84766 20.7998 9.97754 20.7451 10.0869 20.6357C10.21 20.5264 10.2783 20.3896 10.292 20.2256L10.5996 18.749C10.9551 18.667 11.29 18.5576 11.6045 18.4209C11.9326 18.2842 12.2471 18.1201 12.5479 17.9287L13.6348 18.7695C13.7441 18.8789 13.8809 18.9336 14.0449 18.9336C14.209 18.9336 14.3525 18.8789 14.4756 18.7695L15.3369 17.9287C15.46 17.8193 15.5215 17.6826 15.5215 17.5186C15.5215 17.3545 15.4668 17.2178 15.3574 17.1084L14.5576 15.8779C14.7354 15.5771 14.8926 15.2627 15.0293 14.9346C15.166 14.5928 15.2686 14.2373 15.3369 13.8682L16.6904 13.7041C16.8408 13.7041 16.9707 13.6494 17.0801 13.54C17.2031 13.417 17.2715 13.2734 17.2852 13.1094L17.3057 11.8994C17.3057 11.7354 17.2441 11.5986 17.1211 11.4893C17.0117 11.3662 16.875 11.3047 16.7109 11.3047ZM9.04102 0.78418C7.96094 0.78418 7.03809 1.16699 6.27246 1.93262C5.50684 2.68457 5.12402 3.60059 5.12402 4.68066C5.12402 5.21387 5.3291 5.99316 5.73926 7.01855C6.14941 8.05762 6.60059 9.08984 7.09277 10.1152C7.58496 11.1406 8.03613 12.0293 8.44629 12.7812C8.85645 13.5469 9.06152 13.9297 9.06152 13.9297C9.06152 13.9297 9.2666 13.5469 9.67676 12.7812C10.0732 12.0293 10.5107 11.1406 10.9893 10.1152C11.4814 9.08984 11.9326 8.05762 12.3428 7.01855C12.7529 5.99316 12.958 5.21387 12.958 4.68066C12.958 3.60059 12.5752 2.68457 11.8096 1.93262C11.0439 1.16699 10.1211 0.78418 9.04102 0.78418ZM9 5.97266C8.58984 5.97266 8.24121 5.8291 7.9541 5.54199C7.66699 5.25488 7.52344 4.90625 7.52344 4.49609C7.52344 4.09961 7.66699 3.75781 7.9541 3.4707C8.24121 3.16992 8.58984 3.01953 9 3.01953C9.39648 3.01953 9.73828 3.16992 10.0254 3.4707C10.3262 3.75781 10.4766 4.09961 10.4766 4.49609C10.4766 4.90625 10.3262 5.25488 10.0254 5.54199C9.73828 5.8291 9.39648 5.97266 9 5.97266Z" fill="#E55169"/>
</svg>
