<svg width="161" height="171" viewBox="0 0 161 171" fill="none" xmlns="http://www.w3.org/2000/svg">
<path d="M154.25 119.095C137.94 157.14 94.8874 173.484 61.1541 170.696C51.944 169.936 33.4045 168.404 18.9435 154.748C-8.84521 128.517 -4.56552 73.7038 22.035 41.4303C25.4607 37.2742 49.1729 9.42674 86.1228 9.79639C113.177 10.0722 132.166 25.3239 134.474 27.225C140.378 32.1252 145.487 37.9114 149.621 44.3778C163.245 65.6379 164.441 95.3199 154.25 119.095Z" fill="url(#paint0_linear_1808_59986)"/>
<path d="M99.5425 20.528L139.072 0.548874L159.102 21.6238L157.739 21.675L138.77 1.38699L100.13 21.1359L99.5425 20.528Z" fill="url(#paint1_linear_1808_59986)"/>
<path d="M151.925 21.793L152.013 26.3594L151.21 26.3633L151.122 21.797L151.925 21.793Z" fill="url(#paint2_linear_1808_59986)"/>
<path d="M159.221 25.9364L144.279 25.9993L144.318 26.3928L159.221 26.3299V25.9364Z" fill="url(#paint3_linear_1808_59986)"/>
<path d="M159.221 21.5156L144.469 21.5805L144.311 21.974L159.221 21.9091V21.5156Z" fill="url(#paint4_linear_1808_59986)"/>
<path d="M159.168 21.5216H158.742V26.33H159.168V21.5216Z" fill="url(#paint5_linear_1808_59986)"/>
<path d="M144.703 91.2251H132.995V92.6338H144.703V91.2251Z" fill="url(#paint6_linear_1808_59986)"/>
<path d="M144.695 108.511H133.021V109.496H144.695V108.511Z" fill="url(#paint7_linear_1808_59986)"/>
<path d="M144.695 99.7971H133.021V100.783H144.695V99.7971Z" fill="url(#paint8_linear_1808_59986)"/>
<path d="M144.695 117.083H133.021V118.069H144.695V117.083Z" fill="url(#paint9_linear_1808_59986)"/>
<path d="M144.695 125.655H133.021V126.641H144.695V125.655Z" fill="url(#paint10_linear_1808_59986)"/>
<path d="M145.052 92.4596L144.529 91.6824L133.019 99.5106L133.542 100.288L145.052 92.4596Z" fill="url(#paint11_linear_1808_59986)"/>
<path d="M145.187 109.691L144.664 108.914L133.154 116.742L133.678 117.519L145.187 109.691Z" fill="url(#paint12_linear_1808_59986)"/>
<path d="M145.052 126.923L144.529 126.146L133.019 133.974L133.542 134.751L145.052 126.923Z" fill="url(#paint13_linear_1808_59986)"/>
<path d="M144.083 126.148L144.68 125.426L133.991 116.499L133.394 117.22L144.083 126.148Z" fill="url(#paint14_linear_1808_59986)"/>
<path d="M144.082 109.003L144.679 108.281L133.99 99.3541L133.393 100.076L144.082 109.003Z" fill="url(#paint15_linear_1808_59986)"/>
<path d="M134.029 91.2251H133.021V126.85H134.029V91.2251Z" fill="url(#paint16_linear_1808_59986)"/>
<path d="M145.329 91.2802H144.321V126.905H145.329V91.2802Z" fill="url(#paint17_linear_1808_59986)"/>
<path d="M144.593 20.2959H132.919V21.2816H144.593V20.2959Z" fill="url(#paint18_linear_1808_59986)"/>
<path d="M144.593 28.9898H132.919V29.9755H144.593V28.9898Z" fill="url(#paint19_linear_1808_59986)"/>
<path d="M144.593 37.5619H132.919V38.5476H144.593V37.5619Z" fill="url(#paint20_linear_1808_59986)"/>
<path d="M144.593 45.8703H132.919V46.856H144.593V45.8703Z" fill="url(#paint21_linear_1808_59986)"/>
<path d="M144.593 54.4423H132.919V55.428H144.593V54.4423Z" fill="url(#paint22_linear_1808_59986)"/>
<path d="M145.089 21.5993L144.565 20.8221L133.055 28.6503L133.579 29.4275L145.089 21.5993Z" fill="url(#paint23_linear_1808_59986)"/>
<path d="M144.948 38.831L144.425 38.0538L132.915 45.8821L133.438 46.6593L144.948 38.831Z" fill="url(#paint24_linear_1808_59986)"/>
<path d="M143.802 55.5386L144.398 54.8169L133.71 45.8898L133.113 46.6115L143.802 55.5386Z" fill="url(#paint25_linear_1808_59986)"/>
<path d="M143.98 38.0501L144.577 37.3284L133.888 28.4013L133.291 29.123L143.98 38.0501Z" fill="url(#paint26_linear_1808_59986)"/>
<path d="M144.949 55.4832L144.426 54.706L132.916 62.5343L133.439 63.3114L144.949 55.4832Z" fill="url(#paint27_linear_1808_59986)"/>
<path d="M133.927 20.227H132.919V62.3729H133.927V20.227Z" fill="url(#paint28_linear_1808_59986)"/>
<path d="M145.227 20.2644H144.219V62.4103H145.227V20.2644Z" fill="url(#paint29_linear_1808_59986)"/>
<path d="M85.6502 20.9057L85.7383 27.7582L84.591 27.7661L84.5029 20.9136L85.6502 20.9057Z" fill="url(#paint30_linear_1808_59986)"/>
<path d="M91.3415 27.7052L91.9719 27.3963L85.5074 20.7012L84.8789 21.012L91.3415 27.7052Z" fill="url(#paint31_linear_1808_59986)"/>
<path d="M105.377 27.5319L106.007 27.2211L99.5425 20.5279L98.9141 20.8388L105.377 27.5319Z" fill="url(#paint32_linear_1808_59986)"/>
<path d="M119.414 27.5202L120.044 27.2093L113.58 20.5142L112.951 20.8251L119.414 27.5202Z" fill="url(#paint33_linear_1808_59986)"/>
<path d="M119.418 27.0559L120.009 27.4022L127.2 21.0986L126.607 20.7523L119.418 27.0559Z" fill="url(#paint34_linear_1808_59986)"/>
<path d="M105.171 27.0461L105.765 27.3924L113.192 20.8881L112.362 20.7425L105.171 27.0461Z" fill="url(#paint35_linear_1808_59986)"/>
<path d="M91.2061 27.1386L91.7993 27.4849L99.3621 20.9058L98.3969 20.835L91.2061 27.1386Z" fill="url(#paint36_linear_1808_59986)"/>
<path d="M132.978 27.4296L133.608 27.1188L127.144 20.4257L126.515 20.7345L132.978 27.4296Z" fill="url(#paint37_linear_1808_59986)"/>
<path d="M132.826 26.8415L132.834 27.4317L84.5908 27.7504L84.583 27.1602L132.826 26.8415Z" fill="url(#paint38_linear_1808_59986)"/>
<path d="M133.079 20.223L133.087 20.8133L84.5498 21.1359L84.542 20.5457L133.079 20.223Z" fill="url(#paint39_linear_1808_59986)"/>
<path d="M145.869 61.8084H131.846V62.9298H145.869V61.8084Z" fill="url(#paint40_linear_1808_59986)"/>
<path d="M145.147 71.5745H131.846V72.6959H145.147V71.5745Z" fill="url(#paint41_linear_1808_59986)"/>
<path d="M145.147 81.0399H131.846V82.1613H145.147V81.0399Z" fill="url(#paint42_linear_1808_59986)"/>
<path d="M145.147 90.806H131.846V91.9274H145.147V90.806Z" fill="url(#paint43_linear_1808_59986)"/>
<path d="M145.554 73.0219L144.958 72.1355L131.844 81.0543L132.441 81.9407L145.554 73.0219Z" fill="url(#paint44_linear_1808_59986)"/>
<path d="M132.748 81.0653L132.067 81.8877L143.727 91.6264L144.926 91.2369L132.748 81.0653Z" fill="url(#paint45_linear_1808_59986)"/>
<path d="M144.448 72.1359L145.129 71.3127L134.106 62.1065L133.425 62.9296L144.448 72.1359Z" fill="url(#paint46_linear_1808_59986)"/>
<path d="M132.995 61.8084H131.846V91.9019H132.995V61.8084Z" fill="url(#paint47_linear_1808_59986)"/>
<path d="M145.869 61.8358H144.72V91.9294H145.869V61.8358Z" fill="url(#paint48_linear_1808_59986)"/>
<path d="M148.346 68.7276H129.146C129.049 68.7276 128.97 68.8069 128.97 68.9047V69.2824C128.97 69.3802 129.049 69.4595 129.146 69.4595H148.346C148.443 69.4595 148.522 69.3802 148.522 69.2824V68.9047C148.522 68.8069 148.443 68.7276 148.346 68.7276Z" fill="url(#paint49_linear_1808_59986)"/>
<path d="M148.205 77.1718H129.406V77.9037H148.205V77.1718Z" fill="url(#paint50_linear_1808_59986)"/>
<path d="M130.135 68.7276H129.406V77.7698H130.135V68.7276Z" fill="url(#paint51_linear_1808_59986)"/>
<path d="M131.703 68.7276H131.339V77.7698H131.703V68.7276Z" fill="url(#paint52_linear_1808_59986)"/>
<path d="M133.512 68.7276H133.147V77.7698H133.512V68.7276Z" fill="url(#paint53_linear_1808_59986)"/>
<path d="M135.321 68.7276H134.957V77.7698H135.321V68.7276Z" fill="url(#paint54_linear_1808_59986)"/>
<path d="M137.128 68.7276H136.764V77.7698H137.128V68.7276Z" fill="url(#paint55_linear_1808_59986)"/>
<path d="M139.06 68.7276H138.696V77.7698H139.06V68.7276Z" fill="url(#paint56_linear_1808_59986)"/>
<path d="M140.867 68.7276H140.503V77.7698H140.867V68.7276Z" fill="url(#paint57_linear_1808_59986)"/>
<path d="M142.903 68.7276H142.539V77.7698H142.903V68.7276Z" fill="url(#paint58_linear_1808_59986)"/>
<path d="M144.712 68.7276H144.348V77.7698H144.712V68.7276Z" fill="url(#paint59_linear_1808_59986)"/>
<path d="M146.506 68.7276H146.142V77.7698H146.506V68.7276Z" fill="url(#paint60_linear_1808_59986)"/>
<path d="M148.205 68.7276H147.477V77.7698H148.205V68.7276Z" fill="url(#paint61_linear_1808_59986)"/>
<path d="M142.703 14.3868L142.435 13.9893L133.422 20.1193L133.69 20.5169L142.703 14.3868Z" fill="url(#paint62_linear_1808_59986)"/>
<path d="M141.669 9.38874L141.401 8.99118L135.137 13.2521L135.404 13.6497L141.669 9.38874Z" fill="url(#paint63_linear_1808_59986)"/>
<path d="M140.742 6.2999L140.474 5.90234L136.797 8.40333L137.065 8.80088L140.742 6.2999Z" fill="url(#paint64_linear_1808_59986)"/>
<path d="M144.13 20.444L144.438 20.0766L135.735 12.7252L135.427 13.0927L144.13 20.444Z" fill="url(#paint65_linear_1808_59986)"/>
<path d="M142.915 14.7633L143.253 14.4238L137.214 8.35552L136.877 8.69497L142.915 14.7633Z" fill="url(#paint66_linear_1808_59986)"/>
<path d="M140.374 6.58784L140.688 6.27204L138.378 3.95018L138.063 4.26597L140.374 6.58784Z" fill="url(#paint67_linear_1808_59986)"/>
<path d="M132.919 20.2958L139.072 0.548874L145.227 20.5142H143.976L139.072 3.36621L133.927 20.227L132.919 20.2958Z" fill="url(#paint68_linear_1808_59986)"/>
<path d="M139.234 2.87243C140.024 2.87243 140.664 2.22941 140.664 1.43621C140.664 0.643015 140.024 0 139.234 0C138.445 0 137.805 0.643015 137.805 1.43621C137.805 2.22941 138.445 2.87243 139.234 2.87243Z" fill="url(#paint69_linear_1808_59986)"/>
<path d="M124.786 16.8292H136.466C137.149 16.8292 137.804 17.102 138.288 17.5876C138.771 18.0731 139.042 18.7317 139.042 19.4184V31.8406H117.548V24.1028C117.549 22.1742 118.312 20.325 119.669 18.9613C121.027 17.5976 122.867 16.8308 124.786 16.8292Z" fill="url(#paint70_linear_1808_59986)"/>
<path d="M129.923 31.6755L130.064 19.3929C130.066 19.1912 130.108 18.9919 130.189 18.8069C130.269 18.6219 130.385 18.455 130.53 18.316C130.676 18.1771 130.848 18.069 131.036 17.9981C131.224 17.9273 131.424 17.8951 131.625 17.9036L136.323 18.0806C136.644 18.0923 136.948 18.2286 137.171 18.4609C137.394 18.6931 137.519 19.0032 137.519 19.326V31.6755H129.923Z" fill="url(#paint71_linear_1808_59986)"/>
<path d="M136.492 26.8414H131.323V20.2879C131.323 20.0745 131.404 19.8689 131.549 19.7134C131.695 19.558 131.894 19.4644 132.106 19.4518L134.916 19.2806C135.775 19.2275 136.492 20.1148 136.492 21.2244V26.8414Z" fill="url(#paint72_linear_1808_59986)"/>
<path d="M117.548 27.1621H124.181C124.442 27.1622 124.694 27.0592 124.881 26.8754C125.068 26.6915 125.176 26.4413 125.181 26.1784L125.395 16.9198C122.059 17.331 117.166 20.0893 117.548 27.1621Z" fill="url(#paint73_linear_1808_59986)"/>
<path d="M147.52 77.9037H130.178V81.1874H147.52V77.9037Z" fill="url(#paint74_linear_1808_59986)"/>
<path d="M108.429 28.0829H107.916V46.2028H108.429V28.0829Z" fill="url(#paint75_linear_1808_59986)"/>
<path d="M105.372 27.9L104.859 27.902L104.932 46.2028L105.445 46.2007L105.372 27.9Z" fill="url(#paint76_linear_1808_59986)"/>
<path d="M108.229 49.1186L108.859 45.6697C108.888 45.501 108.879 45.3281 108.835 45.1631C108.79 44.998 108.71 44.8447 108.601 44.7137C108.491 44.5827 108.355 44.4772 108.201 44.4044C108.047 44.3317 107.879 44.2935 107.708 44.2925H106.142C105.955 44.2939 105.77 44.3339 105.599 44.4098C105.428 44.4858 105.274 44.5963 105.147 44.7343C105.019 44.8724 104.922 45.0352 104.86 45.2126C104.798 45.3901 104.772 45.5784 104.785 45.7661L105.061 49.3074C105.08 49.5391 105.147 49.7641 105.259 49.9676C105.371 50.1711 105.524 50.3485 105.709 50.4879C106.277 50.9207 107.08 51.8218 107.256 53.5138C107.381 54.7296 106.865 55.8491 105.786 56.4334C105.198 56.7521 104.402 56.9882 103.73 56.8269C103.356 56.7325 102.025 56.2367 101.935 55.8432C100.602 52.778 99.0706 55.6779 101.144 57.4486C101.89 58.0717 102.786 58.4863 103.742 58.6507C108.202 59.3767 112.528 54.5998 108.717 50.7358C108.512 50.5255 108.361 50.2687 108.276 49.9872C108.191 49.7056 108.175 49.4077 108.229 49.1186Z" fill="url(#paint77_linear_1808_59986)"/>
<path d="M108.408 45.4894C108.797 44.5467 108.352 43.4661 107.414 43.0756C106.476 42.6852 105.4 43.1328 105.012 44.0754C104.623 45.0181 105.069 46.0987 106.007 46.4892C106.945 46.8796 108.02 46.432 108.408 45.4894Z" fill="url(#paint78_linear_1808_59986)"/>
<path d="M105.62 44.7822C105.62 44.9995 105.684 45.2118 105.804 45.3924C105.924 45.5729 106.095 45.7136 106.294 45.7967C106.494 45.8797 106.714 45.9013 106.926 45.8588C107.138 45.8163 107.333 45.7115 107.485 45.5578C107.638 45.4041 107.742 45.2083 107.784 44.9952C107.826 44.7821 107.804 44.5613 107.721 44.3608C107.638 44.1602 107.497 43.9889 107.318 43.8685C107.138 43.7481 106.926 43.684 106.71 43.6844C106.567 43.6844 106.425 43.7128 106.292 43.768C106.16 43.8232 106.04 43.9041 105.938 44.0061C105.837 44.108 105.757 44.2291 105.702 44.3623C105.647 44.4955 105.619 44.6382 105.62 44.7822Z" fill="#BDD0FB"/>
<path d="M106.616 29.7336C107.71 29.7336 108.597 28.8422 108.597 27.7426C108.597 26.643 107.71 25.7516 106.616 25.7516C105.522 25.7516 104.635 26.643 104.635 27.7426C104.635 28.8422 105.522 29.7336 106.616 29.7336Z" fill="url(#paint79_linear_1808_59986)"/>
<path d="M106.616 28.9249C107.266 28.9249 107.793 28.3955 107.793 27.7425C107.793 27.0895 107.266 26.5601 106.616 26.5601C105.966 26.5601 105.439 27.0895 105.439 27.7425C105.439 28.3955 105.966 28.9249 106.616 28.9249Z" fill="#BDD0FB"/>
<mask id="mask0_1808_59986" style="mask-type:alpha" maskUnits="userSpaceOnUse" x="0" y="9" width="161" height="162">
<path d="M154.25 119.095C137.94 157.14 94.8874 173.484 61.1541 170.696C51.944 169.936 33.4045 168.404 18.9435 154.748C-8.84521 128.517 -4.56552 73.7038 22.035 41.4303C25.4607 37.2742 49.1729 9.42674 86.1228 9.79639C113.177 10.0722 132.166 25.3239 134.474 27.225C140.378 32.1252 145.487 37.9114 149.621 44.3778C163.245 65.6379 164.441 95.3199 154.25 119.095Z" fill="url(#paint80_linear_1808_59986)"/>
</mask>
<g mask="url(#mask0_1808_59986)">
<path d="M42.6958 50.1176C42.6956 49.168 42.882 48.2277 43.2445 47.3503C43.607 46.4729 44.1383 45.6757 44.8083 45.0041C45.4782 44.3326 46.2736 43.7999 47.149 43.4364C48.0244 43.073 48.9627 42.8859 49.9102 42.8859H111.256C112.886 42.8859 114.453 43.5133 115.635 44.6386C116.816 45.7638 117.521 47.3009 117.604 48.9321L122.131 138.065C122.163 138.694 122.068 139.323 121.853 139.914C121.637 140.506 121.305 141.048 120.876 141.508C120.448 141.968 119.931 142.338 119.357 142.594C118.783 142.85 118.164 142.988 117.536 142.999L47.2247 144.281C46.634 144.291 46.0471 144.184 45.4983 143.965C44.9495 143.745 44.4497 143.419 44.0281 143.004C43.6066 142.589 43.2716 142.095 43.0429 141.549C42.8141 141.003 42.6961 140.417 42.6958 139.825V50.1176Z" fill="url(#paint81_linear_1808_59986)"/>
<path d="M45.0294 122.407C44.9864 122.407 44.9451 122.39 44.9147 122.359C44.8843 122.329 44.8672 122.287 44.8672 122.244V120.303C44.8672 120.258 44.8849 120.215 44.9164 120.184C44.9479 120.152 44.9906 120.134 45.0351 120.134C45.0797 120.134 45.1224 120.152 45.1539 120.184C45.1854 120.215 45.2031 120.258 45.2031 120.303V122.23C45.2053 122.253 45.2023 122.277 45.1944 122.299C45.1865 122.321 45.1738 122.342 45.1573 122.359C45.1408 122.375 45.1208 122.389 45.0987 122.397C45.0766 122.405 45.053 122.409 45.0294 122.407Z" fill="white"/>
<path d="M47.7261 44.2601C47.7242 43.9598 47.7866 43.6625 47.909 43.3884C48.0315 43.1143 48.2113 42.8697 48.4361 42.6712C48.661 42.4727 48.9258 42.3248 49.2125 42.2376C49.4993 42.1503 49.8014 42.1258 50.0985 42.1656C58.4764 43.3039 87.2839 46.8246 111.102 44.9935C111.359 44.9732 111.618 45.0047 111.864 45.0863C112.109 45.1678 112.336 45.2977 112.53 45.4684C112.724 45.639 112.883 45.8469 112.996 46.0798C113.109 46.3127 113.174 46.566 113.188 46.8246L117.936 136.355C117.967 136.944 117.765 137.522 117.372 137.962C116.98 138.402 116.429 138.669 115.841 138.704C105.818 139.298 64.5696 141.596 49.8551 140.051C49.4225 140.005 49.0221 139.8 48.7303 139.477C48.4385 139.154 48.2757 138.734 48.273 138.298L47.7261 44.2601Z" fill="#7D97F4"/>
<path d="M48.708 46.5041C48.7064 46.2147 48.7667 45.9282 48.885 45.6642C49.0032 45.4001 49.1767 45.1645 49.3936 44.9734C49.6104 44.7823 49.8657 44.64 50.1422 44.5562C50.4186 44.4724 50.7098 44.449 50.996 44.4876C59.0575 45.5837 86.781 48.9727 109.701 47.2082C109.949 47.1888 110.199 47.2192 110.435 47.2978C110.671 47.3764 110.889 47.5015 111.076 47.6658C111.263 47.83 111.415 48.0301 111.524 48.2543C111.632 48.4785 111.695 48.7221 111.709 48.971L116.278 135.13C116.309 135.698 116.113 136.256 115.734 136.68C115.355 137.104 114.823 137.36 114.256 137.392C104.616 137.963 64.9154 140.173 50.7542 138.693C50.3379 138.649 49.9524 138.453 49.6717 138.141C49.3911 137.83 49.2351 137.426 49.2338 137.006L48.708 46.5041Z" fill="#BDD0FB"/>
<path opacity="0.6" d="M96.8435 54.1878C96.9371 54.1881 97.0297 54.1695 97.1159 54.133C97.2021 54.0965 97.2801 54.0429 97.3451 53.9755C97.4101 53.908 97.4608 53.8281 97.4943 53.7405C97.5277 53.653 97.5432 53.5595 97.5397 53.4658V53.3032C97.5311 53.1096 97.4497 52.9265 97.3118 52.7907C97.1739 52.6549 96.9897 52.5766 96.7965 52.5714L64.5813 52.0494C64.1854 52.0494 63.9777 52.3405 64.1221 52.7096L64.4337 53.5227C64.5186 53.7138 64.6544 53.8776 64.8261 53.9964C64.9979 54.1152 65.199 54.1842 65.4073 54.196L96.8435 54.1878Z" fill="white"/>
<path opacity="0.6" d="M64.576 56.5102C64.18 56.5102 63.9723 56.8012 64.1167 57.172L64.4283 57.9851C64.5132 58.1761 64.649 58.34 64.8208 58.4588C64.9925 58.5775 65.1936 58.6466 65.4019 58.6584H96.843C96.9366 58.6586 97.0292 58.64 97.1154 58.6035C97.2016 58.567 97.2795 58.5134 97.3446 58.446C97.4096 58.3785 97.4603 58.2986 97.4937 58.2111C97.5272 58.1235 97.5426 58.03 97.5391 57.9363V57.7737C97.5306 57.5801 97.4491 57.397 97.3112 57.2612C97.1733 57.1254 96.9892 57.0471 96.7959 57.0419L64.576 56.5102Z" fill="white"/>
<path opacity="0.6" d="M106.837 66.6285C106.93 66.6291 107.022 66.6106 107.108 66.5741C107.194 66.5376 107.271 66.484 107.335 66.4165C107.399 66.349 107.448 66.269 107.48 66.1816C107.512 66.0941 107.526 66.001 107.521 65.9081L107.513 65.7454C107.499 65.5513 107.414 65.3691 107.274 65.2344C107.134 65.0996 106.949 65.0221 106.755 65.0169L54.9247 64.4884C54.5287 64.4884 54.3746 64.7583 54.5807 65.0966L55.147 66.0186C55.2718 66.1969 55.4354 66.3444 55.6254 66.4501C55.8154 66.5557 56.0269 66.6167 56.2439 66.6285H106.837Z" fill="white"/>
<path opacity="0.6" d="M54.9247 69.1035C54.5287 69.1035 54.3746 69.3718 54.5807 69.7101L55.147 70.6321C55.2712 70.8115 55.4345 70.9602 55.6246 71.067C55.8146 71.1738 56.0264 71.2358 56.2439 71.2484H106.838C106.931 71.249 107.023 71.2305 107.108 71.1939C107.194 71.1574 107.271 71.1036 107.335 71.0359C107.399 70.9682 107.449 70.8881 107.481 70.8004C107.513 70.7128 107.526 70.6195 107.521 70.5264L107.513 70.3638C107.499 70.1696 107.414 69.9874 107.274 69.8527C107.134 69.718 106.949 69.6405 106.755 69.6353L54.9247 69.1035Z" fill="white"/>
<path opacity="0.6" d="M55.2259 74.0926C54.83 74.0926 54.6759 74.3625 54.8819 74.7008L55.4483 75.6229C55.5725 75.8021 55.7358 75.9507 55.9259 76.0572C56.116 76.1637 56.3278 76.2254 56.5452 76.2376H107.139C107.232 76.2382 107.324 76.2197 107.409 76.1832C107.495 76.1467 107.572 76.0931 107.636 76.0256C107.7 75.9581 107.75 75.8781 107.782 75.7907C107.813 75.7032 107.827 75.6101 107.822 75.5172L107.814 75.3545C107.801 75.1604 107.716 74.9782 107.575 74.8434C107.435 74.7087 107.25 74.6312 107.056 74.626L55.2259 74.0926Z" fill="white"/>
<path opacity="0.6" d="M109.466 119.701C109.559 119.701 109.651 119.683 109.737 119.646C109.822 119.61 109.899 119.556 109.963 119.488C110.027 119.42 110.077 119.34 110.108 119.253C110.14 119.165 110.153 119.072 110.148 118.979L110.14 118.816C110.126 118.622 110.041 118.44 109.901 118.305C109.761 118.17 109.576 118.093 109.382 118.088L55.6028 117.556C55.2069 117.556 55.0576 117.823 55.2701 118.158L55.864 119.091C55.9917 119.27 56.1579 119.417 56.3504 119.523C56.5428 119.629 56.7565 119.689 56.9756 119.701H109.466Z" fill="white"/>
<path opacity="0.6" d="M55.6028 122.171C55.2069 122.171 55.0576 122.437 55.2701 122.772L55.864 123.707C55.9919 123.886 56.1582 124.033 56.3506 124.139C56.543 124.244 56.7566 124.304 56.9756 124.316H109.466C109.559 124.316 109.651 124.298 109.737 124.261C109.822 124.225 109.899 124.171 109.963 124.103C110.027 124.035 110.077 123.955 110.108 123.868C110.14 123.78 110.153 123.687 110.148 123.594L110.14 123.431C110.126 123.237 110.041 123.055 109.901 122.92C109.761 122.785 109.576 122.708 109.382 122.703L55.6028 122.171Z" fill="white"/>
<path opacity="0.6" d="M55.9156 127.16C55.5196 127.16 55.3704 127.427 55.591 127.762L56.1833 128.695C56.3112 128.873 56.4771 129.02 56.6688 129.125C56.8605 129.231 57.0733 129.292 57.2916 129.305H109.779C109.872 129.306 109.964 129.287 110.049 129.251C110.135 129.214 110.212 129.16 110.276 129.093C110.339 129.025 110.389 128.945 110.421 128.858C110.452 128.771 110.466 128.677 110.46 128.585L110.452 128.422C110.439 128.228 110.354 128.045 110.213 127.91C110.073 127.776 109.887 127.698 109.693 127.693L55.9156 127.16Z" fill="white"/>
<path opacity="0.6" d="M107.186 84.0285C107.279 84.0293 107.372 84.011 107.458 83.9747C107.544 83.9384 107.621 83.8849 107.686 83.8174C107.75 83.75 107.801 83.67 107.833 83.5824C107.866 83.4948 107.88 83.4015 107.876 83.3081V83.1455C107.868 82.9479 107.785 82.7607 107.643 82.6225C107.502 82.4843 107.314 82.4055 107.116 82.4024L63.8247 81.8738C63.4271 81.8738 63.2519 82.1535 63.4336 82.5064L63.8815 83.3764C63.9882 83.5633 64.1395 83.7207 64.3219 83.8345C64.5043 83.9483 64.712 84.015 64.9265 84.0285H107.186Z" fill="white"/>
<path opacity="0.6" d="M63.8266 86.6434C63.4291 86.6434 63.2538 86.9231 63.4356 87.276L63.8834 88.1443C63.9918 88.33 64.1444 88.4859 64.3276 88.598C64.5108 88.7101 64.7189 88.7749 64.9333 88.7867H107.186C107.28 88.7875 107.372 88.7691 107.458 88.7327C107.544 88.6963 107.622 88.6426 107.687 88.575C107.751 88.5073 107.802 88.4272 107.834 88.3394C107.867 88.2517 107.881 88.1581 107.876 88.0646V87.902C107.865 87.7083 107.781 87.526 107.642 87.391C107.503 87.2561 107.318 87.1785 107.125 87.1735L63.8266 86.6434Z" fill="white"/>
<path opacity="0.6" d="M64.0798 91.6327C63.6839 91.6327 63.507 91.9124 63.6887 92.2652L64.1366 93.1352C64.2451 93.3207 64.3978 93.4762 64.5811 93.588C64.7643 93.6998 64.9723 93.7644 65.1865 93.776H107.441C107.534 93.7768 107.627 93.7584 107.713 93.7221C107.798 93.6858 107.876 93.6322 107.94 93.5647C108.005 93.4973 108.055 93.4173 108.087 93.3297C108.12 93.2421 108.134 93.1488 108.129 93.0556V92.8929C108.118 92.699 108.035 92.5162 107.896 92.3809C107.757 92.2457 107.572 92.1678 107.378 92.1628L64.0798 91.6327Z" fill="white"/>
<path opacity="0.6" d="M57.9827 84.5765C58.8162 84.5765 59.4918 83.8994 59.4918 83.0642C59.4918 82.2289 58.8162 81.5518 57.9827 81.5518C57.1493 81.5518 56.4736 82.2289 56.4736 83.0642C56.4736 83.8994 57.1493 84.5765 57.9827 84.5765Z" fill="white"/>
<path opacity="0.6" d="M107.036 102.365C107.129 102.366 107.221 102.348 107.307 102.311C107.393 102.275 107.471 102.222 107.535 102.154C107.6 102.087 107.65 102.007 107.683 101.919C107.715 101.832 107.73 101.738 107.725 101.645V101.482C107.714 101.288 107.631 101.106 107.492 100.97C107.353 100.835 107.168 100.757 106.974 100.752L63.6823 100.224C63.2864 100.224 63.1095 100.503 63.2913 100.856L63.7391 101.726C63.8477 101.912 64.0004 102.067 64.1836 102.179C64.3668 102.291 64.5748 102.355 64.789 102.367L107.036 102.365Z" fill="white"/>
<path opacity="0.6" d="M63.6755 104.988C63.2796 104.988 63.1027 105.268 63.2844 105.621L63.7323 106.489C63.8406 106.675 63.9933 106.831 64.1765 106.943C64.3597 107.055 64.5678 107.12 64.7822 107.132H107.035C107.128 107.132 107.221 107.114 107.307 107.078C107.393 107.042 107.47 106.988 107.535 106.921C107.6 106.853 107.65 106.773 107.682 106.686C107.715 106.598 107.729 106.505 107.725 106.411V106.249C107.713 106.055 107.63 105.873 107.491 105.738C107.352 105.603 107.167 105.525 106.974 105.52L63.6755 104.988Z" fill="white"/>
<path opacity="0.6" d="M63.9287 109.978C63.5328 109.978 63.3575 110.257 63.5376 110.61L63.9855 111.48C64.094 111.666 64.2468 111.821 64.43 111.933C64.6132 112.045 64.8212 112.109 65.0354 112.121H107.29C107.383 112.122 107.476 112.103 107.561 112.067C107.647 112.031 107.725 111.977 107.789 111.91C107.854 111.842 107.904 111.762 107.936 111.675C107.969 111.587 107.983 111.494 107.978 111.401V111.238C107.967 111.044 107.884 110.861 107.745 110.726C107.605 110.591 107.421 110.513 107.227 110.508L63.9287 109.978Z" fill="white"/>
<path opacity="0.6" d="M57.8323 102.922C58.6658 102.922 59.3414 102.244 59.3414 101.409C59.3414 100.574 58.6658 99.8968 57.8323 99.8968C56.9989 99.8968 56.3232 100.574 56.3232 101.409C56.3232 102.244 56.9989 102.922 57.8323 102.922Z" fill="white"/>
<path d="M84.3871 30.7351C82.1705 29.1902 80.2444 29.226 78.8813 29.6212C78.2816 29.8019 77.763 30.1854 77.4138 30.7064C77.0647 31.2274 76.9066 31.8537 76.9665 32.4784L77.5507 38.8774L84.512 39.497C84.512 39.497 88.7326 33.7647 84.3871 30.7351ZM81.3267 35.8934C80.9832 35.8937 80.6472 35.7919 80.3615 35.6008C80.0757 35.4097 79.8529 35.138 79.7213 34.82C79.5897 34.502 79.5551 34.152 79.6221 33.8143C79.689 33.4766 79.8544 33.1664 80.0973 32.923C80.3403 32.6795 80.6498 32.5138 80.9867 32.4467C81.3237 32.3796 81.6729 32.4142 81.9903 32.5461C82.3076 32.678 82.5787 32.9013 82.7694 33.1877C82.9601 33.4741 83.0617 33.8107 83.0613 34.155C83.0609 34.6159 82.878 35.0578 82.5528 35.3837C82.2276 35.7097 81.7866 35.893 81.3267 35.8934Z" fill="url(#paint82_linear_1808_59986)"/>
<path d="M78.247 36.1795C78.2056 36.1795 78.1657 36.1638 78.1355 36.1353C78.1054 36.1069 78.0872 36.068 78.0847 36.0266L77.9922 35.007C77.9902 34.985 77.9925 34.9628 77.999 34.9417C78.0056 34.9206 78.0162 34.901 78.0303 34.884C78.0444 34.867 78.0617 34.853 78.0812 34.8427C78.1007 34.8324 78.122 34.8261 78.1439 34.824C78.1659 34.822 78.188 34.8243 78.2091 34.8309C78.2301 34.8374 78.2497 34.8481 78.2666 34.8622C78.2836 34.8763 78.2976 34.8936 78.3079 34.9132C78.3181 34.9327 78.3245 34.9541 78.3265 34.9761L78.419 35.9957C78.4217 36.0177 78.4199 36.04 78.4136 36.0613C78.4074 36.0826 78.3969 36.1024 78.3828 36.1194C78.3686 36.1365 78.3512 36.1505 78.3314 36.1605C78.3117 36.1706 78.2902 36.1765 78.2681 36.1778L78.247 36.1795ZM78.0701 34.1825C78.0287 34.1826 77.9888 34.1668 77.9587 34.1384C77.9285 34.11 77.9103 34.0711 77.9078 34.0297L77.8364 33.2556C77.7821 32.6608 77.9347 32.0655 78.2683 31.5705C78.6019 31.0756 79.096 30.7114 79.6668 30.5398C80.4933 30.2949 81.3675 30.2592 82.2112 30.4358C82.2542 30.4448 82.2919 30.4706 82.316 30.5076C82.34 30.5445 82.3484 30.5894 82.3394 30.6325C82.3304 30.6757 82.3046 30.7134 82.2678 30.7375C82.2309 30.7616 82.1861 30.7701 82.143 30.761C81.3537 30.5954 80.5357 30.629 79.7626 30.8586C79.266 31.0074 78.836 31.3239 78.5459 31.7543C78.2557 32.1847 78.1231 32.7025 78.1707 33.2198L78.2421 33.9939C78.2448 34.016 78.2429 34.0385 78.2366 34.0598C78.2303 34.0812 78.2196 34.1011 78.2053 34.1182C78.191 34.1352 78.1734 34.1492 78.1535 34.1591C78.1335 34.1691 78.1118 34.1748 78.0896 34.176L78.0701 34.1825Z" fill="#BDD0FB"/>
<path d="M68.0518 43.0062V39.7961C68.052 39.5327 68.1052 39.272 68.208 39.0296C68.3109 38.7872 68.4613 38.568 68.6504 38.385C68.8395 38.202 69.0633 38.059 69.3087 37.9645C69.554 37.87 69.8158 37.8259 70.0785 37.8349L92.2087 38.5943C92.6818 38.6107 93.1319 38.803 93.4714 39.1336C93.811 39.4642 94.0156 39.9096 94.0455 40.3831L94.2305 43.4729L68.0518 43.0062Z" fill="url(#paint83_linear_1808_59986)"/>
<path d="M76.305 39.0384H75.3525C75.308 39.0384 75.2653 39.0207 75.2338 38.9891C75.2023 38.9575 75.1846 38.9147 75.1846 38.8701C75.1846 38.8254 75.2023 38.7826 75.2338 38.7511C75.2653 38.7195 75.308 38.7018 75.3525 38.7018H76.305C76.3496 38.7018 76.3923 38.7195 76.4238 38.7511C76.4553 38.7826 76.473 38.8254 76.473 38.8701C76.473 38.9147 76.4553 38.9575 76.4238 38.9891C76.3923 39.0207 76.3496 39.0384 76.305 39.0384Z" fill="#BDD0FB"/>
<path d="M69.2492 41.9947C69.2061 41.9947 69.1649 41.9776 69.1344 41.9471C69.104 41.9166 69.0869 41.8752 69.0869 41.8321V40.5311C69.0873 40.0476 69.2791 39.584 69.6201 39.242C69.9611 38.9 70.4235 38.7074 70.9059 38.7066H74.4061C74.4506 38.7066 74.4934 38.7243 74.5248 38.7558C74.5563 38.7874 74.574 38.8302 74.574 38.8749C74.574 38.9195 74.5563 38.9623 74.5248 38.9939C74.4934 39.0254 74.4506 39.0432 74.4061 39.0432H70.9011C70.5077 39.044 70.1307 39.2011 69.8527 39.48C69.5747 39.7589 69.4184 40.1369 69.4179 40.5311V41.8321C69.418 41.854 69.4136 41.8757 69.405 41.8959C69.3964 41.916 69.3839 41.9342 69.3681 41.9494C69.3524 41.9646 69.3337 41.9765 69.3133 41.9842C69.2928 41.992 69.271 41.9956 69.2492 41.9947Z" fill="#BDD0FB"/>
<path d="M59.0345 43.8178C59.0604 43.2815 59.2912 42.7758 59.6791 42.4055C60.067 42.0352 60.5823 41.8287 61.118 41.829H99.8141C100.488 41.8287 101.141 42.0671 101.656 42.5021C102.172 42.9371 102.518 43.5408 102.633 44.2064L102.667 44.3967C102.727 44.7499 102.71 45.112 102.616 45.4579C102.523 45.8037 102.355 46.1249 102.125 46.3991C101.895 46.6733 101.608 46.8939 101.284 47.0454C100.96 47.197 100.607 47.2759 100.249 47.2767H60.5452C60.329 47.2767 60.115 47.2327 59.9162 47.1474C59.7174 47.062 59.538 46.9371 59.3888 46.7802C59.2396 46.6232 59.1238 46.4376 59.0484 46.2344C58.973 46.0313 58.9396 45.8149 58.9501 45.5985L59.0345 43.8178Z" fill="url(#paint84_linear_1808_59986)"/>
<path opacity="0.6" d="M99.5918 132.557C99.5026 132.549 99.4126 132.561 99.3289 132.593C99.2451 132.625 99.1698 132.676 99.1086 132.741C99.0475 132.807 99.0022 132.886 98.9763 132.972C98.9503 133.058 98.9444 133.148 98.9589 133.237L99.0449 133.956C99.0737 134.152 99.1711 134.332 99.3197 134.463C99.4682 134.594 99.6584 134.668 99.8563 134.671H108.65C108.744 134.671 108.837 134.653 108.924 134.616C109.011 134.58 109.09 134.527 109.156 134.46C109.223 134.393 109.275 134.314 109.311 134.226C109.346 134.139 109.364 134.045 109.364 133.951V133.788C109.358 133.594 109.281 133.408 109.147 133.268C109.012 133.127 108.83 133.042 108.637 133.029L99.5918 132.557Z" fill="white"/>
<path d="M104.592 134.993C102.942 134.991 101.328 134.506 99.9496 133.596C98.5712 132.687 97.4881 131.394 96.8335 129.876C96.1789 128.358 95.9815 126.681 96.2654 125.052C96.5494 123.423 97.3023 121.912 98.4317 120.706C99.5611 119.5 101.018 118.652 102.622 118.265C104.226 117.878 105.909 117.969 107.462 118.527C109.015 119.086 110.372 120.088 111.364 121.409C112.357 122.73 112.943 124.313 113.049 125.963C113.194 128.208 112.444 130.419 110.962 132.109C109.481 133.799 107.39 134.83 105.15 134.976C104.963 134.987 104.777 134.993 104.592 134.993ZM104.61 118.354C104.433 118.354 104.256 118.354 104.077 118.37C101.943 118.506 99.9464 119.476 98.5193 121.073C97.0921 122.67 96.3484 124.765 96.4485 126.907C96.5486 129.048 97.4845 131.064 99.0543 132.52C100.624 133.976 102.702 134.756 104.84 134.69C106.978 134.625 109.005 133.72 110.484 132.171C111.962 130.622 112.774 128.552 112.743 126.409C112.713 124.265 111.844 122.219 110.322 120.713C108.8 119.206 106.749 118.359 104.61 118.354Z" fill="#7D97F4"/>
<path d="M104.601 133.953C103.177 133.952 101.784 133.534 100.594 132.75C99.4038 131.966 98.4684 130.85 97.903 129.54C97.3375 128.23 97.1666 126.783 97.4114 125.377C97.6561 123.971 98.3059 122.667 99.2805 121.627C100.255 120.586 101.512 119.854 102.897 119.52C104.282 119.186 105.734 119.265 107.074 119.748C108.414 120.231 109.585 121.096 110.441 122.236C111.297 123.377 111.801 124.744 111.892 126.168C112.016 128.104 111.367 130.01 110.089 131.467C108.811 132.924 107.008 133.813 105.077 133.938C104.922 133.948 104.764 133.953 104.601 133.953ZM104.621 119.654C104.468 119.654 104.316 119.653 104.162 119.668C102.784 119.756 101.463 120.252 100.367 121.093C99.2703 121.933 98.4474 123.081 98.002 124.391C97.5567 125.7 97.5089 127.113 97.8649 128.449C98.2208 129.786 98.9644 130.987 100.002 131.9C101.039 132.813 102.323 133.397 103.692 133.579C105.06 133.76 106.452 133.531 107.69 132.919C108.928 132.308 109.958 131.342 110.648 130.144C111.339 128.946 111.659 127.57 111.569 126.189C111.453 124.42 110.672 122.761 109.382 121.547C108.092 120.334 106.39 119.657 104.621 119.654Z" fill="#7D97F4"/>
<path d="M108.664 128.358L100.048 128.732C99.8688 128.739 99.7299 128.891 99.7377 129.071L99.784 130.143C99.7918 130.322 99.9432 130.461 100.122 130.454L108.739 130.08C108.918 130.072 109.057 129.92 109.049 129.741L109.003 128.668C108.995 128.489 108.843 128.35 108.664 128.358Z" fill="#7D97F4"/>
<path d="M108.507 123.126L99.8901 123.502C99.7111 123.51 99.5722 123.662 99.58 123.841L99.6265 124.913C99.6343 125.093 99.7858 125.232 99.9649 125.224L108.581 124.849C108.76 124.841 108.899 124.689 108.891 124.509L108.845 123.437C108.837 123.258 108.686 123.119 108.507 123.126Z" fill="#7D97F4"/>
<path d="M109.844 125.973L98.3734 126.433C98.1941 126.44 98.0546 126.592 98.0618 126.771L98.1126 128.043C98.1197 128.223 98.2708 128.363 98.4501 128.355L109.921 127.896C110.1 127.888 110.24 127.737 110.232 127.557L110.182 126.286C110.174 126.106 110.023 125.966 109.844 125.973Z" fill="#7D97F4"/>
<path d="M64.1304 107.935C64.1304 107.935 64.1304 124.662 56.7161 123.299C52.1876 122.474 49.499 104.454 49.499 104.454C49.499 104.454 54.1872 94.1301 54.709 97.5104C58.5185 122.079 61.3544 103.273 64.1304 107.935Z" fill="url(#paint85_linear_1808_59986)"/>
<path d="M45.9567 131.042C45.7969 131.881 45.0979 172.951 49.3542 191.359C49.3893 191.502 49.3732 191.652 49.3085 191.785C49.2439 191.917 49.1347 192.023 48.9998 192.085C47.8975 192.526 46.7255 192.771 45.5373 192.811C45.3018 192.816 45.0715 192.743 44.8834 192.603C44.6954 192.462 44.5608 192.263 44.5013 192.038C43.2855 187.769 37.4589 166.373 36.6975 145.933C35.8488 123.096 36.6975 145.156 36.6975 145.156L37.1968 131.039L45.9567 131.042Z" fill="url(#paint86_linear_1808_59986)"/>
<path d="M29.1185 132.301C25.6385 153.971 29.8674 185.86 31.3004 192.102C31.3384 192.284 31.4296 192.452 31.5627 192.583C31.6958 192.715 31.8649 192.805 32.0493 192.843C32.954 193.009 33.885 192.971 34.7728 192.732C34.9495 192.675 35.1041 192.565 35.2153 192.418C35.3266 192.271 35.3892 192.093 35.3944 191.91C35.5842 186.862 35.2397 155.887 38.4825 143.642C38.6429 143.029 39.0091 142.489 39.521 142.109L45.8144 137.491L46.2962 130.029L29.1185 132.301Z" fill="url(#paint87_linear_1808_59986)"/>
<path d="M51.2886 92.8536C40.8612 92.6833 29.3579 95.5697 29.3579 95.5697C26.2499 113.506 28.8137 134.195 28.8137 134.195C36.8845 136.289 45.9913 132.916 45.9913 132.916C47.3319 125.42 53.5928 104.318 53.5928 104.318C58.6879 103.686 54.504 92.908 51.2886 92.8536Z" fill="url(#paint88_linear_1808_59986)"/>
<path d="M33.3569 105.548L29.3627 95.5622C29.3627 95.5622 19.6168 102.108 18.0166 110.404C20.9573 110.61 23.8309 111.371 26.4819 112.646C27.2033 108.733 33.3569 105.548 33.3569 105.548Z" fill="url(#paint89_linear_1808_59986)"/>
<path d="M40.7263 84.4778L37.4086 93.9718C37.3817 94.0479 37.3827 94.1309 37.4115 94.2063C37.4402 94.2817 37.4949 94.3447 37.5659 94.3842C38.4721 94.878 41.7299 96.3077 45.6567 93.8459C45.8588 93.7198 46.0306 93.5514 46.16 93.3527C46.2894 93.1539 46.3732 92.9295 46.4056 92.6953L47.479 84.4778H40.7263Z" fill="url(#paint90_linear_1808_59986)"/>
<path d="M47.9464 75.6954C47.9464 75.6954 51.5886 82.4782 51.1218 85.219C50.655 87.9598 46.129 87.7623 42.1972 85.5375L39.4512 78.2139L47.9464 75.6954Z" fill="url(#paint91_linear_1808_59986)"/>
<path d="M42.3718 81.937C42.4094 81.921 42.4431 81.897 42.4703 81.8667C42.4976 81.8364 42.5177 81.8005 42.5294 81.7616C42.5411 81.7228 42.544 81.6818 42.5379 81.6417C42.5318 81.6016 42.5168 81.5633 42.4941 81.5296C42.0422 80.8789 41.7 80.1601 41.4805 79.4012C41.4805 79.4012 40.8265 78.9863 43.1481 78.4357C45.4698 77.8851 48.9323 77.0332 49.6612 75.0776C50.3702 73.1714 47.4794 70.117 45.5322 72.1986C45.5048 72.2312 45.4704 72.2575 45.4316 72.2755C45.3928 72.2935 45.3504 72.3029 45.3075 72.3029C45.2646 72.3029 45.2222 72.2935 45.1834 72.2755C45.1446 72.2575 45.1102 72.2312 45.0828 72.1986C44.5836 71.5714 43.3129 70.2677 41.533 71.0578C39.8679 71.7986 39.6807 73.0035 39.7031 73.6134C39.705 73.6551 39.6973 73.6968 39.6806 73.7351C39.6639 73.7735 39.6386 73.8076 39.6067 73.835C39.5747 73.8623 39.5369 73.8821 39.4961 73.8929C39.4553 73.9037 39.4126 73.9052 39.3711 73.8974C38.5298 73.7418 36.5177 73.6134 35.5641 75.6554C34.7877 77.3443 35.292 78.2999 35.7538 78.7666C35.7875 78.8013 35.8117 78.844 35.8239 78.8905C35.8362 78.9371 35.8362 78.986 35.8239 79.0325C35.8117 79.0791 35.7875 79.1217 35.7538 79.1565C35.7202 79.1912 35.678 79.2168 35.6315 79.2308C35.0798 79.3987 34.3633 79.8629 34.4357 81.1444C34.5356 82.9173 36.5377 82.7617 37.1094 82.6802C37.1552 82.6739 37.2018 82.6786 37.2453 82.6941C37.2888 82.7096 37.3278 82.7354 37.359 82.7691C37.8583 83.3025 40.0526 85.5766 42.4392 85.8506C42.487 85.8558 42.5353 85.8489 42.5797 85.8306C42.6241 85.8123 42.663 85.7832 42.6929 85.746C42.7228 85.7087 42.7427 85.6646 42.7507 85.6177C42.7588 85.5708 42.7546 85.5227 42.7387 85.4778L41.7052 82.5024C41.6823 82.4358 41.6855 82.363 41.7142 82.2986C41.7428 82.2341 41.7949 82.1827 41.86 82.1543L42.3718 81.937Z" fill="url(#paint92_linear_1808_59986)"/>
<path d="M42.7865 82.3594C42.7865 82.3594 40.1928 80.5989 40.013 82.0804C39.8333 83.5619 42.3497 84.2286 43.6003 83.6755L42.7865 82.3594Z" fill="url(#paint93_linear_1808_59986)"/>
<path d="M49.3919 72.6431C49.3919 72.6431 45.2553 65.5812 37.871 69.8011C30.4867 74.0209 34.4809 79.2013 34.4809 79.2013L49.3919 72.6431Z" fill="url(#paint94_linear_1808_59986)"/>
<path d="M34.2481 73.0135C34.2481 73.0135 43.1477 65.9887 47.3517 73.5395C49.0692 72.7987 49.3912 72.6432 49.3912 72.6432C49.3912 72.6432 45.6466 65.8776 40.564 68.1566C35.4813 70.4357 34.2381 71.5271 34.2481 73.0135Z" fill="url(#paint95_linear_1808_59986)"/>
<path opacity="0.6" d="M44.4339 75.0433C44.4211 75.0494 44.407 75.0526 44.3927 75.0526C44.3785 75.0526 44.3644 75.0494 44.3516 75.0433L44.2941 75.0112C42.9711 74.31 40.7518 73.1371 39.2814 73.7396C38.5603 74.0629 37.8688 74.447 37.2144 74.8878C36.7426 75.1865 36.2533 75.4952 35.7665 75.7495C35.0999 76.0952 34.3685 76.4631 33.5197 76.8779C33.4981 76.8874 33.4736 76.8884 33.4514 76.8806C33.4291 76.8727 33.4106 76.8568 33.3999 76.8359C33.3943 76.8254 33.391 76.8139 33.39 76.8021C33.389 76.7903 33.3904 76.7784 33.3941 76.7671C33.3978 76.7558 33.4038 76.7454 33.4116 76.7365C33.4195 76.7275 33.4291 76.7202 33.4398 76.7149C34.2811 76.3001 35.0126 75.9297 35.6866 75.5865C36.1709 75.3396 36.6552 75.031 37.122 74.7347C37.7861 74.2877 38.4876 73.8978 39.219 73.5692C40.7618 72.9371 43.0285 74.1346 44.3815 74.8482L44.4389 74.8803C44.4495 74.8858 44.4588 74.8933 44.4664 74.9023C44.474 74.9114 44.4797 74.9218 44.4832 74.9331C44.4867 74.9444 44.4879 74.9562 44.4867 74.9679C44.4855 74.9796 44.482 74.991 44.4764 75.0013C44.4681 75.0201 44.4529 75.0351 44.4339 75.0433Z" fill="white"/>
<path d="M34.5057 80.3423L52.0528 73.6755C52.1072 73.6563 52.1542 73.621 52.1875 73.5743C52.2207 73.5277 52.2386 73.472 52.2386 73.415C52.2386 73.3579 52.2207 73.3022 52.1875 73.2556C52.1542 73.2089 52.1072 73.1736 52.0528 73.1545C51.1466 72.868 49.6488 72.4631 49.0572 72.7298C47.1324 73.5792 34.5007 79.2114 34.5007 79.2114C34.5007 79.2114 34.1662 79.3472 34.5057 80.3423Z" fill="url(#paint96_linear_1808_59986)"/>
<path d="M36.3177 94.1595C37.9503 97.9522 40.4167 102.039 43.2901 106.271L41.3953 134.148C36.9018 135.699 32.5681 136.649 28.5739 136.044C27.8973 126.088 27.4904 116.839 27.9348 109.797C28.2593 104.987 28.3542 100.145 27.7476 96.4633C28.6313 95.562 31.0927 94.7398 36.3177 94.1595Z" fill="url(#paint97_linear_1808_59986)"/>
<path d="M47.0758 92.6632C46.1321 97.646 44.9264 102.451 43.2912 106.271L41.3965 134.148C43.3004 134.236 45.2083 134.103 47.0808 133.75C49.0005 126.256 50.6556 116.676 52.2458 106.36C52.076 101.518 52.1984 96.7472 52.76 92.6187C50.8791 92.2823 48.9511 92.2974 47.0758 92.6632Z" fill="url(#paint98_linear_1808_59986)"/>
<path opacity="0.7" d="M27.9222 124.37H40.5289V123.291H27.8198L27.9222 124.37Z" fill="white"/>
<path opacity="0.7" d="M28.1575 129.316H40.5296V127.624H28.0352L28.1575 129.316Z" fill="white"/>
<path opacity="0.7" d="M43.5796 124.37H49.159L49.3687 123.291H43.5796V124.37Z" fill="white"/>
<path opacity="0.7" d="M43.5796 129.316H48.1305L48.495 127.624H43.5796V129.316Z" fill="white"/>
<path d="M41.8674 114.945C41.8674 114.945 30.9332 121.057 27.2435 115.837C26.9022 115.385 26.6585 114.87 26.5275 114.321C26.3966 113.773 26.3811 113.204 26.4821 112.649C23.8313 111.373 20.9577 110.611 18.0168 110.405C17.4718 113.084 17.9145 115.869 19.265 118.254C25.7282 129.948 43.3053 117.61 43.3053 117.61L41.8674 114.945Z" fill="url(#paint99_linear_1808_59986)"/>
<path d="M41.708 120.231L47.5221 100.152C47.5539 100.041 47.6182 99.9412 47.7071 99.8661C47.7959 99.7909 47.9053 99.7435 48.0214 99.7298C49.0724 99.6088 52.1255 99.2681 55.6504 98.9718C59.8942 98.6187 64.8221 98.3298 67.7678 98.5742C67.8645 98.5822 67.9578 98.6133 68.0396 98.665C68.1213 98.7166 68.1892 98.7872 68.2371 98.8707C68.2851 98.9541 68.3117 99.0478 68.3148 99.1438C68.3178 99.2397 68.2972 99.3349 68.2546 99.4211C66.5795 102.772 59.6895 116.407 56.2395 120.873C56.1834 120.946 56.1109 121.005 56.0277 121.046C55.9445 121.086 55.8529 121.106 55.7602 121.105L42.2797 120.982C42.1877 120.982 42.0971 120.96 42.0148 120.919C41.9326 120.879 41.861 120.82 41.8056 120.747C41.7503 120.674 41.7127 120.59 41.6957 120.501C41.6788 120.411 41.683 120.319 41.708 120.231Z" fill="url(#paint100_linear_1808_59986)"/>
<path d="M56.4716 97.2561L60.6107 96.5771C60.6613 96.5685 60.7133 96.573 60.7616 96.5902C60.8099 96.6075 60.8529 96.6368 60.8864 96.6753C60.9198 96.7139 60.9426 96.7604 60.9525 96.8102C60.9623 96.8601 60.959 96.9116 60.9427 96.9598L60.5333 98.1944C60.5154 98.2479 60.4824 98.2952 60.4381 98.3306C60.3939 98.3661 60.3402 98.3882 60.2836 98.3944L56.3019 98.9203C56.2545 98.9242 56.2068 98.9169 56.1629 98.8988C56.1189 98.8807 56.08 98.8524 56.0495 98.8164C56.0189 98.7803 55.9975 98.7375 55.9871 98.6916C55.9768 98.6456 55.9777 98.5979 55.9898 98.5524L56.2395 97.4808C56.2514 97.4248 56.2797 97.3736 56.3211 97.3336C56.3624 97.2936 56.4148 97.2666 56.4716 97.2561Z" fill="#BDD0FB"/>
<path d="M53.3733 100.72L53.7153 98.9644C53.7307 98.8784 53.7742 98.7997 53.8391 98.7404C53.904 98.6811 53.9868 98.6444 54.0747 98.636L62.4352 97.7965C62.4999 97.7903 62.5652 97.7994 62.6257 97.8229C62.6862 97.8465 62.7403 97.8839 62.7834 97.932C62.8265 97.9802 62.8574 98.0378 62.8737 98.1001C62.89 98.1624 62.8911 98.2276 62.877 98.2904L62.3453 100.481C62.3244 100.566 62.2762 100.642 62.2078 100.698C62.1394 100.754 62.0545 100.787 61.9658 100.792L53.7976 101.197C53.736 101.2 53.6744 101.189 53.6174 101.165C53.5605 101.142 53.5097 101.106 53.4689 101.06C53.4281 101.014 53.3983 100.96 53.3817 100.901C53.3651 100.842 53.3622 100.78 53.3733 100.72Z" fill="#7D97F4"/>
<path d="M42.272 118.74C41.9896 118.763 41.7086 118.682 41.4825 118.513C41.2565 118.344 41.1012 118.099 41.0463 117.824C40.7742 116.533 40.3523 114.172 40.6419 113.133C41.0488 111.676 41.8402 109.799 44.4739 110.216C47.1076 110.634 50.2156 111.73 50.2156 111.73C50.2156 111.73 50.0583 113.631 48.0562 113.017L49.3044 113.967C49.3044 113.967 49.1271 115.488 47.4371 114.676L48.5904 115.938C48.5904 115.938 47.864 117.187 46.6208 116.384C45.5049 115.673 44.9057 118.488 42.272 118.74Z" fill="url(#paint101_linear_1808_59986)"/>
<path d="M61.5612 112.348C61.5612 112.348 64.6268 109.385 65.0562 107.943C65.4855 106.501 65.8325 104.486 63.3761 103.456C60.9196 102.427 57.6993 101.728 57.6993 101.728C57.6993 101.728 56.8106 103.422 58.8376 103.95L57.2749 104.101C57.2749 104.101 56.6084 105.483 58.4782 105.683L56.823 106.145C56.823 106.145 56.7656 107.585 58.251 107.56C59.7363 107.535 58.3059 110.913 61.5612 112.348Z" fill="url(#paint102_linear_1808_59986)"/>
<path d="M99.5425 20.5279L139.072 0.548813L159.102 21.6238L157.739 21.6749L138.77 1.38693L100.13 21.1358L99.5425 20.5279Z" fill="url(#paint103_linear_1808_59986)"/>
<path d="M151.924 21.7929L152.012 26.3593L151.21 26.3632L151.122 21.7969L151.924 21.7929Z" fill="url(#paint104_linear_1808_59986)"/>
<path d="M159.221 25.9364L144.279 25.9994L144.318 26.3929L159.221 26.3299V25.9364Z" fill="url(#paint105_linear_1808_59986)"/>
<path d="M159.221 21.5155L144.469 21.5804L144.311 21.9739L159.221 21.909V21.5155Z" fill="url(#paint106_linear_1808_59986)"/>
<path d="M159.168 21.5216H158.741V26.3299H159.168V21.5216Z" fill="url(#paint107_linear_1808_59986)"/>
<path d="M144.702 91.2252H132.995V92.6339H144.702V91.2252Z" fill="url(#paint108_linear_1808_59986)"/>
<path d="M144.694 108.511H133.02V109.497H144.694V108.511Z" fill="url(#paint109_linear_1808_59986)"/>
<path d="M144.694 99.797H133.02V100.783H144.694V99.797Z" fill="url(#paint110_linear_1808_59986)"/>
<path d="M144.694 117.083H133.02V118.069H144.694V117.083Z" fill="url(#paint111_linear_1808_59986)"/>
<path d="M144.694 125.655H133.02V126.641H144.694V125.655Z" fill="url(#paint112_linear_1808_59986)"/>
<path d="M144.694 133.963H133.02V134.949H144.694V133.963Z" fill="url(#paint113_linear_1808_59986)"/>
<path d="M144.694 142.535H133.02V143.521H144.694V142.535Z" fill="url(#paint114_linear_1808_59986)"/>
<path d="M145.051 92.4597L144.528 91.6825L133.018 99.5107L133.541 100.288L145.051 92.4597Z" fill="url(#paint115_linear_1808_59986)"/>
<path d="M145.187 109.691L144.664 108.914L133.154 116.742L133.678 117.519L145.187 109.691Z" fill="url(#paint116_linear_1808_59986)"/>
<path d="M145.051 126.923L144.528 126.146L133.018 133.974L133.541 134.751L145.051 126.923Z" fill="url(#paint117_linear_1808_59986)"/>
<path d="M143.903 143.629L144.5 142.908L133.811 133.98L133.214 134.702L143.903 143.629Z" fill="url(#paint118_linear_1808_59986)"/>
<path d="M144.082 126.148L144.679 125.426L133.991 116.499L133.394 117.221L144.082 126.148Z" fill="url(#paint119_linear_1808_59986)"/>
<path d="M144.081 109.003L144.678 108.281L133.99 99.3541L133.393 100.076L144.081 109.003Z" fill="url(#paint120_linear_1808_59986)"/>
<path d="M144.767 143.608L144.244 142.829L132.708 150.65L133.231 151.429L144.767 143.608Z" fill="url(#paint121_linear_1808_59986)"/>
<path d="M134.028 91.2252H133.02V150.452H134.028V91.2252Z" fill="url(#paint122_linear_1808_59986)"/>
<path d="M145.329 91.2802H144.32V150.507H145.329V91.2802Z" fill="url(#paint123_linear_1808_59986)"/>
<path d="M144.593 20.2959H132.918V21.2816H144.593V20.2959Z" fill="url(#paint124_linear_1808_59986)"/>
<path d="M144.593 28.9897H132.918V29.9754H144.593V28.9897Z" fill="url(#paint125_linear_1808_59986)"/>
<path d="M144.593 37.562H132.918V38.5476H144.593V37.562Z" fill="url(#paint126_linear_1808_59986)"/>
<path d="M144.593 45.8703H132.918V46.8559H144.593V45.8703Z" fill="url(#paint127_linear_1808_59986)"/>
<path d="M144.593 54.4423H132.918V55.428H144.593V54.4423Z" fill="url(#paint128_linear_1808_59986)"/>
<path d="M145.088 21.5993L144.565 20.8221L133.055 28.6503L133.578 29.4275L145.088 21.5993Z" fill="url(#paint129_linear_1808_59986)"/>
<path d="M144.948 38.831L144.425 38.0538L132.915 45.882L133.438 46.6592L144.948 38.831Z" fill="url(#paint130_linear_1808_59986)"/>
<path d="M143.801 55.5387L144.398 54.817L133.709 45.8899L133.112 46.6116L143.801 55.5387Z" fill="url(#paint131_linear_1808_59986)"/>
<path d="M143.979 38.0502L144.576 37.3284L133.888 28.4013L133.291 29.1231L143.979 38.0502Z" fill="url(#paint132_linear_1808_59986)"/>
<path d="M144.949 55.4833L144.425 54.7061L132.915 62.5343L133.439 63.3115L144.949 55.4833Z" fill="url(#paint133_linear_1808_59986)"/>
<path d="M133.927 20.2269H132.918V62.3729H133.927V20.2269Z" fill="url(#paint134_linear_1808_59986)"/>
<path d="M145.227 20.2643H144.218V62.4103H145.227V20.2643Z" fill="url(#paint135_linear_1808_59986)"/>
<path d="M85.6497 20.9058L85.7378 27.7583L84.5905 27.7662L84.5024 20.9136L85.6497 20.9058Z" fill="url(#paint136_linear_1808_59986)"/>
<path d="M91.341 27.7052L91.9714 27.3963L85.5069 20.7012L84.8784 21.012L91.341 27.7052Z" fill="url(#paint137_linear_1808_59986)"/>
<path d="M105.377 27.5319L106.007 27.221L99.5425 20.5279L98.9141 20.8387L105.377 27.5319Z" fill="url(#paint138_linear_1808_59986)"/>
<path d="M119.414 27.5201L120.044 27.2093L113.58 20.5142L112.951 20.825L119.414 27.5201Z" fill="url(#paint139_linear_1808_59986)"/>
<path d="M119.417 27.0559L120.009 27.4021L127.2 21.0985L126.606 20.7523L119.417 27.0559Z" fill="url(#paint140_linear_1808_59986)"/>
<path d="M105.171 27.0461L105.764 27.3923L113.192 20.8881L112.362 20.7425L105.171 27.0461Z" fill="url(#paint141_linear_1808_59986)"/>
<path d="M91.2061 27.1385L91.7993 27.4848L99.3621 20.9057L98.3969 20.8349L91.2061 27.1385Z" fill="url(#paint142_linear_1808_59986)"/>
<path d="M132.977 27.4297L133.608 27.1188L127.143 20.4257L126.515 20.7346L132.977 27.4297Z" fill="url(#paint143_linear_1808_59986)"/>
<path d="M132.826 26.8414L132.834 27.4316L84.5908 27.7504L84.583 27.1601L132.826 26.8414Z" fill="url(#paint144_linear_1808_59986)"/>
<path d="M133.079 20.223L133.086 20.8133L84.5493 21.1359L84.5415 20.5457L133.079 20.223Z" fill="url(#paint145_linear_1808_59986)"/>
<path d="M145.869 61.8084H131.846V62.9299H145.869V61.8084Z" fill="url(#paint146_linear_1808_59986)"/>
<path d="M145.147 71.5745H131.846V72.6959H145.147V71.5745Z" fill="url(#paint147_linear_1808_59986)"/>
<path d="M145.147 81.0398H131.846V82.1612H145.147V81.0398Z" fill="url(#paint148_linear_1808_59986)"/>
<path d="M145.147 90.806H131.846V91.9274H145.147V90.806Z" fill="url(#paint149_linear_1808_59986)"/>
<path d="M145.554 73.0218L144.957 72.1355L131.844 81.0543L132.441 81.9407L145.554 73.0218Z" fill="url(#paint150_linear_1808_59986)"/>
<path d="M132.748 81.0654L132.066 81.8878L143.727 91.6265L144.925 91.2369L132.748 81.0654Z" fill="url(#paint151_linear_1808_59986)"/>
<path d="M144.448 72.1358L145.129 71.3127L134.106 62.1064L133.425 62.9295L144.448 72.1358Z" fill="url(#paint152_linear_1808_59986)"/>
<path d="M132.995 61.8084H131.846V91.902H132.995V61.8084Z" fill="url(#paint153_linear_1808_59986)"/>
<path d="M145.869 61.8359H144.72V91.9294H145.869V61.8359Z" fill="url(#paint154_linear_1808_59986)"/>
<path d="M148.346 68.7276H129.146C129.049 68.7276 128.97 68.8068 128.97 68.9046V69.2824C128.97 69.3802 129.049 69.4594 129.146 69.4594H148.346C148.443 69.4594 148.522 69.3802 148.522 69.2824V68.9046C148.522 68.8068 148.443 68.7276 148.346 68.7276Z" fill="url(#paint155_linear_1808_59986)"/>
<path d="M148.205 77.1717H129.406V77.9036H148.205V77.1717Z" fill="url(#paint156_linear_1808_59986)"/>
<path d="M130.135 68.7276H129.406V77.7698H130.135V68.7276Z" fill="url(#paint157_linear_1808_59986)"/>
<path d="M131.703 68.7276H131.338V77.7698H131.703V68.7276Z" fill="url(#paint158_linear_1808_59986)"/>
<path d="M133.512 68.7276H133.147V77.7698H133.512V68.7276Z" fill="url(#paint159_linear_1808_59986)"/>
<path d="M135.32 68.7276H134.956V77.7698H135.32V68.7276Z" fill="url(#paint160_linear_1808_59986)"/>
<path d="M137.128 68.7276H136.764V77.7698H137.128V68.7276Z" fill="url(#paint161_linear_1808_59986)"/>
<path d="M139.059 68.7276H138.695V77.7698H139.059V68.7276Z" fill="url(#paint162_linear_1808_59986)"/>
<path d="M140.867 68.7276H140.502V77.7698H140.867V68.7276Z" fill="url(#paint163_linear_1808_59986)"/>
<path d="M142.903 68.7276H142.539V77.7698H142.903V68.7276Z" fill="url(#paint164_linear_1808_59986)"/>
<path d="M144.712 68.7276H144.348V77.7698H144.712V68.7276Z" fill="url(#paint165_linear_1808_59986)"/>
<path d="M146.505 68.7276H146.141V77.7698H146.505V68.7276Z" fill="url(#paint166_linear_1808_59986)"/>
<path d="M148.204 68.7276H147.476V77.7698H148.204V68.7276Z" fill="url(#paint167_linear_1808_59986)"/>
<path d="M142.702 14.3869L142.435 13.9893L133.421 20.1193L133.689 20.5169L142.702 14.3869Z" fill="url(#paint168_linear_1808_59986)"/>
<path d="M141.669 9.38884L141.401 8.99129L135.136 13.2522L135.404 13.6498L141.669 9.38884Z" fill="url(#paint169_linear_1808_59986)"/>
<path d="M144.13 20.4439L144.437 20.0765L135.734 12.7251L135.427 13.0926L144.13 20.4439Z" fill="url(#paint170_linear_1808_59986)"/>
<path d="M142.915 14.7632L143.252 14.4237L137.214 8.35544L136.876 8.69489L142.915 14.7632Z" fill="url(#paint171_linear_1808_59986)"/>
<path d="M132.918 20.2958L139.072 0.548813L145.227 20.5141H143.976L139.072 3.36615L133.927 20.2269L132.918 20.2958Z" fill="url(#paint172_linear_1808_59986)"/>
<path d="M124.785 16.8293H136.465C137.149 16.8293 137.804 17.102 138.287 17.5876C138.77 18.0731 139.042 18.7317 139.042 19.4184V31.8406H117.547V24.1028C117.549 22.1742 118.312 20.3251 119.669 18.9613C121.026 17.5976 122.866 16.8308 124.785 16.8293Z" fill="url(#paint173_linear_1808_59986)"/>
<path d="M129.923 31.6755L130.064 19.393C130.066 19.1912 130.108 18.9919 130.188 18.807C130.268 18.622 130.384 18.455 130.53 18.3161C130.676 18.1772 130.847 18.0691 131.035 17.9982C131.223 17.9273 131.424 17.8952 131.624 17.9036L136.323 18.0807C136.644 18.0924 136.948 18.2287 137.171 18.4609C137.394 18.6932 137.519 19.0033 137.519 19.3261V31.6755H129.923Z" fill="url(#paint174_linear_1808_59986)"/>
<path d="M136.491 26.8413H131.323V20.2878C131.322 20.0743 131.403 19.8688 131.549 19.7133C131.695 19.5579 131.894 19.4642 132.106 19.4517L134.915 19.2805C135.775 19.2274 136.491 20.1147 136.491 21.2243V26.8413Z" fill="url(#paint175_linear_1808_59986)"/>
<path d="M117.548 27.1621H124.181C124.442 27.1621 124.694 27.0592 124.881 26.8753C125.068 26.6914 125.176 26.4412 125.181 26.1784L125.395 16.9197C122.059 17.3309 117.166 20.0892 117.548 27.1621Z" fill="url(#paint176_linear_1808_59986)"/>
<path d="M147.519 77.9036H130.177V81.1873H147.519V77.9036Z" fill="url(#paint177_linear_1808_59986)"/>
<path d="M108.428 28.083H107.916V46.2029H108.428V28.083Z" fill="url(#paint178_linear_1808_59986)"/>
<path d="M105.372 27.9L104.859 27.9021L104.932 46.2028L105.445 46.2007L105.372 27.9Z" fill="url(#paint179_linear_1808_59986)"/>
<path d="M108.229 49.1186L108.859 45.6697C108.888 45.501 108.879 45.3282 108.835 45.1631C108.79 44.998 108.71 44.8447 108.601 44.7137C108.491 44.5827 108.355 44.4772 108.201 44.4045C108.047 44.3318 107.879 44.2936 107.708 44.2925H106.142C105.955 44.294 105.77 44.3339 105.599 44.4099C105.428 44.4859 105.274 44.5963 105.147 44.7344C105.019 44.8725 104.922 45.0352 104.86 45.2127C104.798 45.3901 104.772 45.5785 104.785 45.7661L105.061 49.3075C105.08 49.5391 105.147 49.7642 105.259 49.9677C105.371 50.1712 105.524 50.3485 105.709 50.4879C106.277 50.9208 107.08 51.8218 107.256 53.5138C107.381 54.7297 106.864 55.8491 105.786 56.4334C105.198 56.7522 104.402 56.9883 103.73 56.8269C103.356 56.7325 102.025 56.2367 101.935 55.8432C100.602 52.778 99.0706 55.678 101.144 57.4486C101.89 58.0717 102.786 58.4863 103.742 58.6507C108.202 59.3767 112.528 54.5998 108.717 50.7358C108.512 50.5256 108.361 50.2688 108.276 49.9872C108.191 49.7057 108.175 49.4077 108.229 49.1186Z" fill="url(#paint180_linear_1808_59986)"/>
<path d="M108.408 45.4894C108.796 44.5467 108.351 43.4661 107.413 43.0756C106.475 42.6852 105.4 43.1328 105.011 44.0754C104.623 45.0181 105.068 46.0987 106.006 46.4892C106.944 46.8796 108.019 46.432 108.408 45.4894Z" fill="url(#paint181_linear_1808_59986)"/>
<path d="M105.619 44.7822C105.619 44.9994 105.683 45.2117 105.803 45.3923C105.924 45.5729 106.094 45.7136 106.294 45.7966C106.494 45.8796 106.713 45.9013 106.925 45.8587C107.137 45.8162 107.332 45.7115 107.485 45.5577C107.637 45.404 107.741 45.2082 107.783 44.9951C107.825 44.782 107.803 44.5613 107.72 44.3607C107.637 44.1601 107.497 43.9888 107.317 43.8684C107.137 43.748 106.926 43.684 106.71 43.6844C106.566 43.6844 106.424 43.7128 106.292 43.768C106.159 43.8232 106.039 43.9041 105.938 44.006C105.837 44.108 105.756 44.229 105.702 44.3622C105.647 44.4954 105.619 44.6381 105.619 44.7822Z" fill="#BDD0FB"/>
<path d="M106.616 29.7337C107.71 29.7337 108.597 28.8422 108.597 27.7426C108.597 26.643 107.71 25.7516 106.616 25.7516C105.521 25.7516 104.634 26.643 104.634 27.7426C104.634 28.8422 105.521 29.7337 106.616 29.7337Z" fill="url(#paint182_linear_1808_59986)"/>
<path d="M106.616 28.9249C107.265 28.9249 107.792 28.3955 107.792 27.7424C107.792 27.0894 107.265 26.56 106.616 26.56C105.966 26.56 105.439 27.0894 105.439 27.7424C105.439 28.3955 105.966 28.9249 106.616 28.9249Z" fill="#BDD0FB"/>
</g>
<defs>
<linearGradient id="paint0_linear_1808_59986" x1="170.655" y1="192.095" x2="52.0313" y2="64.1636" gradientUnits="userSpaceOnUse">
<stop stop-color="#DAE3FE"/>
<stop offset="1" stop-color="#E9EFFD"/>
</linearGradient>
<linearGradient id="paint1_linear_1808_59986" x1="96.7996" y1="236.57" x2="136.374" y2="-23.0851" gradientUnits="userSpaceOnUse">
<stop stop-color="#FF928E"/>
<stop offset="1" stop-color="#FE7062"/>
</linearGradient>
<linearGradient id="paint2_linear_1808_59986" x1="1092.69" y1="5595.88" x2="4084" y2="1751.58" gradientUnits="userSpaceOnUse">
<stop stop-color="#FF928E"/>
<stop offset="1" stop-color="#FE7062"/>
</linearGradient>
<linearGradient id="paint3_linear_1808_59986" x1="15973.4" y1="583.144" x2="15976.2" y2="-33.6866" gradientUnits="userSpaceOnUse">
<stop stop-color="#FF928E"/>
<stop offset="1" stop-color="#FE7062"/>
</linearGradient>
<linearGradient id="paint4_linear_1808_59986" x1="15894.1" y1="580.932" x2="15896.9" y2="-38.5712" gradientUnits="userSpaceOnUse">
<stop stop-color="#FF928E"/>
<stop offset="1" stop-color="#FE7062"/>
</linearGradient>
<linearGradient id="paint5_linear_1808_59986" x1="625.512" y1="5912.78" x2="3456.08" y2="4256.33" gradientUnits="userSpaceOnUse">
<stop stop-color="#FF928E"/>
<stop offset="1" stop-color="#FE7062"/>
</linearGradient>
<linearGradient id="paint6_linear_1808_59986" x1="12363.1" y1="1806.64" x2="12397.8" y2="-95.0334" gradientUnits="userSpaceOnUse">
<stop stop-color="#FF928E"/>
<stop offset="1" stop-color="#FE7062"/>
</linearGradient>
<linearGradient id="paint7_linear_1808_59986" x1="12479" y1="1310.75" x2="12496.1" y2="-20.1189" gradientUnits="userSpaceOnUse">
<stop stop-color="#FF928E"/>
<stop offset="1" stop-color="#FE7062"/>
</linearGradient>
<linearGradient id="paint8_linear_1808_59986" x1="12402.5" y1="1301.07" x2="12419.5" y2="-29.8128" gradientUnits="userSpaceOnUse">
<stop stop-color="#FF928E"/>
<stop offset="1" stop-color="#FE7062"/>
</linearGradient>
<linearGradient id="paint9_linear_1808_59986" x1="12554.5" y1="1320.28" x2="12571.5" y2="-10.5808" gradientUnits="userSpaceOnUse">
<stop stop-color="#FF928E"/>
<stop offset="1" stop-color="#FE7062"/>
</linearGradient>
<linearGradient id="paint10_linear_1808_59986" x1="12629.9" y1="1329.84" x2="12646.9" y2="-1.04485" gradientUnits="userSpaceOnUse">
<stop stop-color="#FF928E"/>
<stop offset="1" stop-color="#FE7062"/>
</linearGradient>
<linearGradient id="paint11_linear_1808_59986" x1="945.379" y1="17105.3" x2="7907.55" y2="14035.8" gradientUnits="userSpaceOnUse">
<stop stop-color="#FF928E"/>
<stop offset="1" stop-color="#FE7062"/>
</linearGradient>
<linearGradient id="paint12_linear_1808_59986" x1="958.334" y1="17151.8" x2="7920.58" y2="14082.2" gradientUnits="userSpaceOnUse">
<stop stop-color="#FF928E"/>
<stop offset="1" stop-color="#FE7062"/>
</linearGradient>
<linearGradient id="paint13_linear_1808_59986" x1="969.638" y1="17194.9" x2="7931.83" y2="14125.4" gradientUnits="userSpaceOnUse">
<stop stop-color="#FF928E"/>
<stop offset="1" stop-color="#FE7062"/>
</linearGradient>
<linearGradient id="paint14_linear_1808_59986" x1="963.243" y1="17171.4" x2="7925.43" y2="14101.9" gradientUnits="userSpaceOnUse">
<stop stop-color="#FF928E"/>
<stop offset="1" stop-color="#FE7062"/>
</linearGradient>
<linearGradient id="paint15_linear_1808_59986" x1="951.177" y1="17126.8" x2="7913.35" y2="14057.4" gradientUnits="userSpaceOnUse">
<stop stop-color="#FF928E"/>
<stop offset="1" stop-color="#FE7062"/>
</linearGradient>
<linearGradient id="paint16_linear_1808_59986" x1="1181.44" y1="43447.9" x2="9857.19" y2="41828.9" gradientUnits="userSpaceOnUse">
<stop stop-color="#FF928E"/>
<stop offset="1" stop-color="#FE7062"/>
</linearGradient>
<linearGradient id="paint17_linear_1808_59986" x1="1249.68" y1="43752.9" x2="9925.42" y2="42133.9" gradientUnits="userSpaceOnUse">
<stop stop-color="#FF928E"/>
<stop offset="1" stop-color="#FE7062"/>
</linearGradient>
<linearGradient id="paint18_linear_1808_59986" x1="11697" y1="1212.54" x2="11714.1" y2="-118.351" gradientUnits="userSpaceOnUse">
<stop stop-color="#FF928E"/>
<stop offset="1" stop-color="#FE7062"/>
</linearGradient>
<linearGradient id="paint19_linear_1808_59986" x1="11773.5" y1="1222.21" x2="11790.6" y2="-108.672" gradientUnits="userSpaceOnUse">
<stop stop-color="#FF928E"/>
<stop offset="1" stop-color="#FE7062"/>
</linearGradient>
<linearGradient id="paint20_linear_1808_59986" x1="11848.9" y1="1231.72" x2="11866" y2="-99.1307" gradientUnits="userSpaceOnUse">
<stop stop-color="#FF928E"/>
<stop offset="1" stop-color="#FE7062"/>
</linearGradient>
<linearGradient id="paint21_linear_1808_59986" x1="11922" y1="1240.97" x2="11939.1" y2="-89.8859" gradientUnits="userSpaceOnUse">
<stop stop-color="#FF928E"/>
<stop offset="1" stop-color="#FE7062"/>
</linearGradient>
<linearGradient id="paint22_linear_1808_59986" x1="11997.4" y1="1250.54" x2="12014.5" y2="-80.3535" gradientUnits="userSpaceOnUse">
<stop stop-color="#FF928E"/>
<stop offset="1" stop-color="#FE7062"/>
</linearGradient>
<linearGradient id="paint23_linear_1808_59986" x1="895.719" y1="16921.8" x2="7857.92" y2="13852.3" gradientUnits="userSpaceOnUse">
<stop stop-color="#FF928E"/>
<stop offset="1" stop-color="#FE7062"/>
</linearGradient>
<linearGradient id="paint24_linear_1808_59986" x1="907.057" y1="16965.2" x2="7869.23" y2="13895.7" gradientUnits="userSpaceOnUse">
<stop stop-color="#FF928E"/>
<stop offset="1" stop-color="#FE7062"/>
</linearGradient>
<linearGradient id="paint25_linear_1808_59986" x1="913.898" y1="17006" x2="7884.66" y2="13932.4" gradientUnits="userSpaceOnUse">
<stop stop-color="#FF928E"/>
<stop offset="1" stop-color="#FE7062"/>
</linearGradient>
<linearGradient id="paint26_linear_1808_59986" x1="900.672" y1="16941.4" x2="7862.85" y2="13871.9" gradientUnits="userSpaceOnUse">
<stop stop-color="#FF928E"/>
<stop offset="1" stop-color="#FE7062"/>
</linearGradient>
<linearGradient id="paint27_linear_1808_59986" x1="918.783" y1="17008.4" x2="7880.96" y2="13938.9" gradientUnits="userSpaceOnUse">
<stop stop-color="#FF928E"/>
<stop offset="1" stop-color="#FE7062"/>
</linearGradient>
<linearGradient id="paint28_linear_1808_59986" x1="1120.43" y1="50926.6" x2="9880.6" y2="49544.8" gradientUnits="userSpaceOnUse">
<stop stop-color="#FF928E"/>
<stop offset="1" stop-color="#FE7062"/>
</linearGradient>
<linearGradient id="paint29_linear_1808_59986" x1="1188.61" y1="51287.4" x2="9948.53" y2="49905.7" gradientUnits="userSpaceOnUse">
<stop stop-color="#FF928E"/>
<stop offset="1" stop-color="#FE7062"/>
</linearGradient>
<linearGradient id="paint30_linear_1808_59986" x1="980.667" y1="8043.09" x2="5545.5" y2="2623.41" gradientUnits="userSpaceOnUse">
<stop stop-color="#FF928E"/>
<stop offset="1" stop-color="#FE7062"/>
</linearGradient>
<linearGradient id="paint31_linear_1808_59986" x1="5346.76" y1="8228.19" x2="6732.14" y2="-1022.76" gradientUnits="userSpaceOnUse">
<stop stop-color="#FF928E"/>
<stop offset="1" stop-color="#FE7062"/>
</linearGradient>
<linearGradient id="paint32_linear_1808_59986" x1="5856.94" y1="8302.35" x2="7242.32" y2="-948.62" gradientUnits="userSpaceOnUse">
<stop stop-color="#FF928E"/>
<stop offset="1" stop-color="#FE7062"/>
</linearGradient>
<linearGradient id="paint33_linear_1808_59986" x1="6368.07" y1="8379.12" x2="7754.21" y2="-874.319" gradientUnits="userSpaceOnUse">
<stop stop-color="#FF928E"/>
<stop offset="1" stop-color="#FE7062"/>
</linearGradient>
<linearGradient id="paint34_linear_1808_59986" x1="7247.23" y1="7988.8" x2="8391.77" y2="-843.045" gradientUnits="userSpaceOnUse">
<stop stop-color="#FF928E"/>
<stop offset="1" stop-color="#FE7062"/>
</linearGradient>
<linearGradient id="paint35_linear_1808_59986" x1="6885.33" y1="7917.58" x2="7996.87" y2="-922.842" gradientUnits="userSpaceOnUse">
<stop stop-color="#FF928E"/>
<stop offset="1" stop-color="#FE7062"/>
</linearGradient>
<linearGradient id="paint36_linear_1808_59986" x1="6419.97" y1="7847.8" x2="7513.67" y2="-997.162" gradientUnits="userSpaceOnUse">
<stop stop-color="#FF928E"/>
<stop offset="1" stop-color="#FE7062"/>
</linearGradient>
<linearGradient id="paint37_linear_1808_59986" x1="6861.59" y1="8448.54" x2="8246.95" y2="-802.411" gradientUnits="userSpaceOnUse">
<stop stop-color="#FF928E"/>
<stop offset="1" stop-color="#FE7062"/>
</linearGradient>
<linearGradient id="paint38_linear_1808_59986" x1="40878.6" y1="1106.27" x2="40882.1" y2="-121.209" gradientUnits="userSpaceOnUse">
<stop stop-color="#FF928E"/>
<stop offset="1" stop-color="#FE7062"/>
</linearGradient>
<linearGradient id="paint39_linear_1808_59986" x1="40910.4" y1="1103.7" x2="40913.9" y2="-129.08" gradientUnits="userSpaceOnUse">
<stop stop-color="#FF928E"/>
<stop offset="1" stop-color="#FE7062"/>
</linearGradient>
<linearGradient id="paint40_linear_1808_59986" x1="14469.7" y1="1423.62" x2="14488" y2="-90.5388" gradientUnits="userSpaceOnUse">
<stop stop-color="#FF928E"/>
<stop offset="1" stop-color="#FE7062"/>
</linearGradient>
<linearGradient id="paint41_linear_1808_59986" x1="13805" y1="1434.38" x2="13824.4" y2="-79.7987" gradientUnits="userSpaceOnUse">
<stop stop-color="#FF928E"/>
<stop offset="1" stop-color="#FE7062"/>
</linearGradient>
<linearGradient id="paint42_linear_1808_59986" x1="13899.8" y1="1445.04" x2="13919.2" y2="-69.1201" gradientUnits="userSpaceOnUse">
<stop stop-color="#FF928E"/>
<stop offset="1" stop-color="#FE7062"/>
</linearGradient>
<linearGradient id="paint43_linear_1808_59986" x1="13997.7" y1="1456.08" x2="14017.1" y2="-58.1123" gradientUnits="userSpaceOnUse">
<stop stop-color="#FF928E"/>
<stop offset="1" stop-color="#FE7062"/>
</linearGradient>
<linearGradient id="paint44_linear_1808_59986" x1="1065.55" y1="19417.7" x2="9003.07" y2="15914.6" gradientUnits="userSpaceOnUse">
<stop stop-color="#FF928E"/>
<stop offset="1" stop-color="#FE7062"/>
</linearGradient>
<linearGradient id="paint45_linear_1808_59986" x1="13490.1" y1="12932.5" x2="15239.5" y2="-1111.6" gradientUnits="userSpaceOnUse">
<stop stop-color="#FF928E"/>
<stop offset="1" stop-color="#FE7062"/>
</linearGradient>
<linearGradient id="paint46_linear_1808_59986" x1="1061.23" y1="17563.7" x2="8723.41" y2="13827.9" gradientUnits="userSpaceOnUse">
<stop stop-color="#FF928E"/>
<stop offset="1" stop-color="#FE7062"/>
</linearGradient>
<linearGradient id="paint47_linear_1808_59986" x1="1282.43" y1="36509.9" x2="10905.4" y2="34086.8" gradientUnits="userSpaceOnUse">
<stop stop-color="#FF928E"/>
<stop offset="1" stop-color="#FE7062"/>
</linearGradient>
<linearGradient id="paint48_linear_1808_59986" x1="1369.18" y1="36803.7" x2="10992.2" y2="34380.7" gradientUnits="userSpaceOnUse">
<stop stop-color="#FF928E"/>
<stop offset="1" stop-color="#FE7062"/>
</linearGradient>
<linearGradient id="paint49_linear_1808_59986" x1="143.688" y1="32.1336" x2="137.716" y2="76.3495" gradientUnits="userSpaceOnUse">
<stop stop-color="#E1473D"/>
<stop offset="1" stop-color="#E9605A"/>
</linearGradient>
<linearGradient id="paint50_linear_1808_59986" x1="71601.2" y1="230.489" x2="71600.3" y2="395.093" gradientUnits="userSpaceOnUse">
<stop stop-color="#E1473D"/>
<stop offset="1" stop-color="#E9605A"/>
</linearGradient>
<linearGradient id="paint51_linear_1808_59986" x1="2897.24" y1="-1230.64" x2="390.912" y2="271.624" gradientUnits="userSpaceOnUse">
<stop stop-color="#E1473D"/>
<stop offset="1" stop-color="#E9605A"/>
</linearGradient>
<linearGradient id="paint52_linear_1808_59986" x1="1518.35" y1="-1205.5" x2="-36.1281" y2="-739.68" gradientUnits="userSpaceOnUse">
<stop stop-color="#E1473D"/>
<stop offset="1" stop-color="#E9605A"/>
</linearGradient>
<linearGradient id="paint53_linear_1808_59986" x1="1523.46" y1="-1205.5" x2="-31.113" y2="-739.615" gradientUnits="userSpaceOnUse">
<stop stop-color="#E1473D"/>
<stop offset="1" stop-color="#E9605A"/>
</linearGradient>
<linearGradient id="paint54_linear_1808_59986" x1="1528.63" y1="-1205.5" x2="-25.9393" y2="-739.614" gradientUnits="userSpaceOnUse">
<stop stop-color="#E1473D"/>
<stop offset="1" stop-color="#E9605A"/>
</linearGradient>
<linearGradient id="paint55_linear_1808_59986" x1="1533.92" y1="-1205.5" x2="-20.7593" y2="-739.542" gradientUnits="userSpaceOnUse">
<stop stop-color="#E1473D"/>
<stop offset="1" stop-color="#E9605A"/>
</linearGradient>
<linearGradient id="paint56_linear_1808_59986" x1="1539.27" y1="-1205.5" x2="-15.2494" y2="-739.65" gradientUnits="userSpaceOnUse">
<stop stop-color="#E1473D"/>
<stop offset="1" stop-color="#E9605A"/>
</linearGradient>
<linearGradient id="paint57_linear_1808_59986" x1="1544.38" y1="-1205.5" x2="-10.0824" y2="-739.687" gradientUnits="userSpaceOnUse">
<stop stop-color="#E1473D"/>
<stop offset="1" stop-color="#E9605A"/>
</linearGradient>
<linearGradient id="paint58_linear_1808_59986" x1="1550.44" y1="-1205.5" x2="-4.24098" y2="-739.542" gradientUnits="userSpaceOnUse">
<stop stop-color="#E1473D"/>
<stop offset="1" stop-color="#E9605A"/>
</linearGradient>
<linearGradient id="paint59_linear_1808_59986" x1="1555.67" y1="-1205.5" x2="0.934005" y2="-739.506" gradientUnits="userSpaceOnUse">
<stop stop-color="#E1473D"/>
<stop offset="1" stop-color="#E9605A"/>
</linearGradient>
<linearGradient id="paint60_linear_1808_59986" x1="1560.5" y1="-1205.5" x2="6.03879" y2="-739.687" gradientUnits="userSpaceOnUse">
<stop stop-color="#E1473D"/>
<stop offset="1" stop-color="#E9605A"/>
</linearGradient>
<linearGradient id="paint61_linear_1808_59986" x1="2982.6" y1="-1230.64" x2="476.241" y2="271.671" gradientUnits="userSpaceOnUse">
<stop stop-color="#E1473D"/>
<stop offset="1" stop-color="#E9605A"/>
</linearGradient>
<linearGradient id="paint62_linear_1808_59986" x1="435.644" y1="13230.4" x2="4363.54" y2="12099.2" gradientUnits="userSpaceOnUse">
<stop stop-color="#FF928E"/>
<stop offset="1" stop-color="#FE7062"/>
</linearGradient>
<linearGradient id="paint63_linear_1808_59986" x1="434.659" y1="9192.44" x2="4064.95" y2="7688.35" gradientUnits="userSpaceOnUse">
<stop stop-color="#FF928E"/>
<stop offset="1" stop-color="#FE7062"/>
</linearGradient>
<linearGradient id="paint64_linear_1808_59986" x1="434.468" y1="5395.47" x2="3273.42" y2="3391.44" gradientUnits="userSpaceOnUse">
<stop stop-color="#FF928E"/>
<stop offset="1" stop-color="#FE7062"/>
</linearGradient>
<linearGradient id="paint65_linear_1808_59986" x1="365.939" y1="13854.4" x2="4329.93" y2="12785.1" gradientUnits="userSpaceOnUse">
<stop stop-color="#FF928E"/>
<stop offset="1" stop-color="#FE7062"/>
</linearGradient>
<linearGradient id="paint66_linear_1808_59986" x1="440.359" y1="10386.9" x2="4188.99" y2="9011.08" gradientUnits="userSpaceOnUse">
<stop stop-color="#FF928E"/>
<stop offset="1" stop-color="#FE7062"/>
</linearGradient>
<linearGradient id="paint67_linear_1808_59986" x1="403.105" y1="3971.04" x2="2605.96" y2="2005.19" gradientUnits="userSpaceOnUse">
<stop stop-color="#FF928E"/>
<stop offset="1" stop-color="#FE7062"/>
</linearGradient>
<linearGradient id="paint68_linear_1808_59986" x1="12341.4" y1="24153.6" x2="18595.5" y2="-1269.68" gradientUnits="userSpaceOnUse">
<stop stop-color="#FF928E"/>
<stop offset="1" stop-color="#FE7062"/>
</linearGradient>
<linearGradient id="paint69_linear_1808_59986" x1="3309.72" y1="-39.6107" x2="3254.56" y2="80.9419" gradientUnits="userSpaceOnUse">
<stop stop-color="#E1473D"/>
<stop offset="1" stop-color="#E9605A"/>
</linearGradient>
<linearGradient id="paint70_linear_1808_59986" x1="81195.5" y1="489.838" x2="79527.6" y2="5734.76" gradientUnits="userSpaceOnUse">
<stop stop-color="#E1473D"/>
<stop offset="1" stop-color="#E9605A"/>
</linearGradient>
<linearGradient id="paint71_linear_1808_59986" x1="126.427" y1="24.638" x2="141.022" y2="25.1523" gradientUnits="userSpaceOnUse">
<stop stop-color="#FEBBBA"/>
<stop offset="1" stop-color="#FF928E"/>
</linearGradient>
<linearGradient id="paint72_linear_1808_59986" x1="19373" y1="13.3794" x2="17839.9" y2="1228.55" gradientUnits="userSpaceOnUse">
<stop stop-color="#FF928E"/>
<stop offset="1" stop-color="#FE7062"/>
</linearGradient>
<linearGradient id="paint73_linear_1808_59986" x1="29498.3" y1="-291.478" x2="27379.8" y2="1595.9" gradientUnits="userSpaceOnUse">
<stop stop-color="#FF928E"/>
<stop offset="1" stop-color="#FE7062"/>
</linearGradient>
<linearGradient id="paint74_linear_1808_59986" x1="65741.3" y1="1259.19" x2="65733.7" y2="1556.04" gradientUnits="userSpaceOnUse">
<stop stop-color="#E1473D"/>
<stop offset="1" stop-color="#E9605A"/>
</linearGradient>
<linearGradient id="paint75_linear_1808_59986" x1="893.249" y1="3448.94" x2="891.9" y2="3448.94" gradientUnits="userSpaceOnUse">
<stop stop-color="#FF928E"/>
<stop offset="1" stop-color="#FE7062"/>
</linearGradient>
<linearGradient id="paint76_linear_1808_59986" x1="902.356" y1="3469.36" x2="900.859" y2="3469.36" gradientUnits="userSpaceOnUse">
<stop stop-color="#FF928E"/>
<stop offset="1" stop-color="#FE7062"/>
</linearGradient>
<linearGradient id="paint77_linear_1808_59986" x1="-6322.53" y1="2436.68" x2="-6001.2" y2="2815.93" gradientUnits="userSpaceOnUse">
<stop stop-color="#E1473D"/>
<stop offset="1" stop-color="#E9605A"/>
</linearGradient>
<linearGradient id="paint78_linear_1808_59986" x1="106.204" y1="45.0738" x2="102.544" y2="45.0702" gradientUnits="userSpaceOnUse">
<stop stop-color="#09005D"/>
<stop offset="1" stop-color="#1A0F91"/>
</linearGradient>
<linearGradient id="paint79_linear_1808_59986" x1="9691.26" y1="587.263" x2="9611.06" y2="587.263" gradientUnits="userSpaceOnUse">
<stop stop-color="#09005D"/>
<stop offset="1" stop-color="#1A0F91"/>
</linearGradient>
<linearGradient id="paint80_linear_1808_59986" x1="170.655" y1="192.095" x2="52.0313" y2="64.1636" gradientUnits="userSpaceOnUse">
<stop stop-color="#DAE3FE"/>
<stop offset="1" stop-color="#E9EFFD"/>
</linearGradient>
<linearGradient id="paint81_linear_1808_59986" x1="82.3898" y1="138.295" x2="76.7234" y2="-29.0754" gradientUnits="userSpaceOnUse">
<stop stop-color="#09005D"/>
<stop offset="1" stop-color="#1A0F91"/>
</linearGradient>
<linearGradient id="paint82_linear_1808_59986" x1="2887.77" y1="-457.232" x2="1100.28" y2="1729.2" gradientUnits="userSpaceOnUse">
<stop stop-color="#09005D"/>
<stop offset="1" stop-color="#1A0F91"/>
</linearGradient>
<linearGradient id="paint83_linear_1808_59986" x1="8397.61" y1="-151.923" x2="8073.02" y2="1830.3" gradientUnits="userSpaceOnUse">
<stop stop-color="#09005D"/>
<stop offset="1" stop-color="#1A0F91"/>
</linearGradient>
<linearGradient id="paint84_linear_1808_59986" x1="85.8737" y1="7.5326" x2="79.9176" y2="51.1907" gradientUnits="userSpaceOnUse">
<stop stop-color="#4F52FF"/>
<stop offset="1" stop-color="#4042E2"/>
</linearGradient>
<linearGradient id="paint85_linear_1808_59986" x1="49.504" y1="110.108" x2="64.1304" y2="110.108" gradientUnits="userSpaceOnUse">
<stop stop-color="#FEBBBA"/>
<stop offset="1" stop-color="#FF928E"/>
</linearGradient>
<linearGradient id="paint86_linear_1808_59986" x1="36.3181" y1="161.926" x2="49.3692" y2="161.926" gradientUnits="userSpaceOnUse">
<stop stop-color="#09005D"/>
<stop offset="1" stop-color="#1A0F91"/>
</linearGradient>
<linearGradient id="paint87_linear_1808_59986" x1="45336.2" y1="24029.6" x2="46710.8" y2="24029.6" gradientUnits="userSpaceOnUse">
<stop stop-color="#09005D"/>
<stop offset="1" stop-color="#1A0F91"/>
</linearGradient>
<linearGradient id="paint88_linear_1808_59986" x1="-11041.6" y1="3418.57" x2="-1180.32" y2="11728.5" gradientUnits="userSpaceOnUse">
<stop stop-color="#09005D"/>
<stop offset="1" stop-color="#1A0F91"/>
</linearGradient>
<linearGradient id="paint89_linear_1808_59986" x1="-6274.22" y1="1728.13" x2="-2237.37" y2="6288.37" gradientUnits="userSpaceOnUse">
<stop stop-color="#09005D"/>
<stop offset="1" stop-color="#1A0F91"/>
</linearGradient>
<linearGradient id="paint90_linear_1808_59986" x1="24511.8" y1="1051.64" x2="24919.6" y2="1051.64" gradientUnits="userSpaceOnUse">
<stop stop-color="#FEBBBA"/>
<stop offset="1" stop-color="#FF928E"/>
</linearGradient>
<linearGradient id="paint91_linear_1808_59986" x1="-40525.9" y1="17808.2" x2="-41041.3" y2="17489.7" gradientUnits="userSpaceOnUse">
<stop stop-color="#FEBBBA"/>
<stop offset="1" stop-color="#FF928E"/>
</linearGradient>
<linearGradient id="paint92_linear_1808_59986" x1="-54369.2" y1="22675.4" x2="-53504.4" y2="23368.3" gradientUnits="userSpaceOnUse">
<stop stop-color="#09005D"/>
<stop offset="1" stop-color="#1A0F91"/>
</linearGradient>
<linearGradient id="paint93_linear_1808_59986" x1="-10882.5" y1="6331.89" x2="-10974.3" y2="6262.55" gradientUnits="userSpaceOnUse">
<stop stop-color="#FEBBBA"/>
<stop offset="1" stop-color="#FF928E"/>
</linearGradient>
<linearGradient id="paint94_linear_1808_59986" x1="37.3792" y1="65.5269" x2="42.7703" y2="78.2859" gradientUnits="userSpaceOnUse">
<stop stop-color="#FF928E"/>
<stop offset="1" stop-color="#FE7062"/>
</linearGradient>
<linearGradient id="paint95_linear_1808_59986" x1="4645.34" y1="367.542" x2="4636.26" y2="743.31" gradientUnits="userSpaceOnUse">
<stop stop-color="#FF928E"/>
<stop offset="1" stop-color="#FE7062"/>
</linearGradient>
<linearGradient id="paint96_linear_1808_59986" x1="5408.99" y1="-485.112" x2="5408.99" y2="-207.928" gradientUnits="userSpaceOnUse">
<stop stop-color="#FF928E"/>
<stop offset="1" stop-color="#FE7062"/>
</linearGradient>
<linearGradient id="paint97_linear_1808_59986" x1="5527.62" y1="5098.67" x2="4562.89" y2="6555.36" gradientUnits="userSpaceOnUse">
<stop stop-color="#FF928E"/>
<stop offset="1" stop-color="#FE7062"/>
</linearGradient>
<linearGradient id="paint98_linear_1808_59986" x1="3168.09" y1="-22575.5" x2="4483.73" y2="-22146.2" gradientUnits="userSpaceOnUse">
<stop stop-color="#FF928E"/>
<stop offset="1" stop-color="#FE7062"/>
</linearGradient>
<linearGradient id="paint99_linear_1808_59986" x1="60825.4" y1="2675.79" x2="63433.6" y2="2675.79" gradientUnits="userSpaceOnUse">
<stop stop-color="#FEBBBA"/>
<stop offset="1" stop-color="#FF928E"/>
</linearGradient>
<linearGradient id="paint100_linear_1808_59986" x1="-6658.56" y1="2481.49" x2="-6658.56" y2="6486.96" gradientUnits="userSpaceOnUse">
<stop stop-color="#4F52FF"/>
<stop offset="1" stop-color="#4042E2"/>
</linearGradient>
<linearGradient id="paint101_linear_1808_59986" x1="-33024.7" y1="1736.45" x2="-32650" y2="1736.45" gradientUnits="userSpaceOnUse">
<stop stop-color="#FEBBBA"/>
<stop offset="1" stop-color="#FF928E"/>
</linearGradient>
<linearGradient id="paint102_linear_1808_59986" x1="-42688.5" y1="2922.99" x2="-42968" y2="2746.8" gradientUnits="userSpaceOnUse">
<stop stop-color="#FEBBBA"/>
<stop offset="1" stop-color="#FF928E"/>
</linearGradient>
<linearGradient id="paint103_linear_1808_59986" x1="96.7996" y1="236.57" x2="136.374" y2="-23.0851" gradientUnits="userSpaceOnUse">
<stop stop-color="#FF928E"/>
<stop offset="1" stop-color="#FE7062"/>
</linearGradient>
<linearGradient id="paint104_linear_1808_59986" x1="1092.71" y1="5595.86" x2="4083.99" y2="1751.51" gradientUnits="userSpaceOnUse">
<stop stop-color="#FF928E"/>
<stop offset="1" stop-color="#FE7062"/>
</linearGradient>
<linearGradient id="paint105_linear_1808_59986" x1="15973.4" y1="583.147" x2="15976.2" y2="-33.6868" gradientUnits="userSpaceOnUse">
<stop stop-color="#FF928E"/>
<stop offset="1" stop-color="#FE7062"/>
</linearGradient>
<linearGradient id="paint106_linear_1808_59986" x1="15894" y1="580.923" x2="15896.9" y2="-38.5703" gradientUnits="userSpaceOnUse">
<stop stop-color="#FF928E"/>
<stop offset="1" stop-color="#FE7062"/>
</linearGradient>
<linearGradient id="paint107_linear_1808_59986" x1="625.561" y1="5912.78" x2="3456.28" y2="4256.06" gradientUnits="userSpaceOnUse">
<stop stop-color="#FF928E"/>
<stop offset="1" stop-color="#FE7062"/>
</linearGradient>
<linearGradient id="paint108_linear_1808_59986" x1="12363.1" y1="1806.67" x2="12397.8" y2="-95.0374" gradientUnits="userSpaceOnUse">
<stop stop-color="#FF928E"/>
<stop offset="1" stop-color="#FE7062"/>
</linearGradient>
<linearGradient id="paint109_linear_1808_59986" x1="12479.1" y1="1310.78" x2="12496.1" y2="-20.1229" gradientUnits="userSpaceOnUse">
<stop stop-color="#FF928E"/>
<stop offset="1" stop-color="#FE7062"/>
</linearGradient>
<linearGradient id="paint110_linear_1808_59986" x1="12402.5" y1="1301.06" x2="12419.5" y2="-29.8109" gradientUnits="userSpaceOnUse">
<stop stop-color="#FF928E"/>
<stop offset="1" stop-color="#FE7062"/>
</linearGradient>
<linearGradient id="paint111_linear_1808_59986" x1="12554.5" y1="1320.28" x2="12571.5" y2="-10.5808" gradientUnits="userSpaceOnUse">
<stop stop-color="#FF928E"/>
<stop offset="1" stop-color="#FE7062"/>
</linearGradient>
<linearGradient id="paint112_linear_1808_59986" x1="12629.9" y1="1329.88" x2="12647" y2="-1.04874" gradientUnits="userSpaceOnUse">
<stop stop-color="#FF928E"/>
<stop offset="1" stop-color="#FE7062"/>
</linearGradient>
<linearGradient id="paint113_linear_1808_59986" x1="12703" y1="1339.04" x2="12720" y2="8.20362" gradientUnits="userSpaceOnUse">
<stop stop-color="#FF928E"/>
<stop offset="1" stop-color="#FE7062"/>
</linearGradient>
<linearGradient id="paint114_linear_1808_59986" x1="12778.4" y1="1348.63" x2="12795.5" y2="17.7358" gradientUnits="userSpaceOnUse">
<stop stop-color="#FF928E"/>
<stop offset="1" stop-color="#FE7062"/>
</linearGradient>
<linearGradient id="paint115_linear_1808_59986" x1="945.38" y1="17105.4" x2="7907.57" y2="14035.9" gradientUnits="userSpaceOnUse">
<stop stop-color="#FF928E"/>
<stop offset="1" stop-color="#FE7062"/>
</linearGradient>
<linearGradient id="paint116_linear_1808_59986" x1="958.329" y1="17151.7" x2="7920.58" y2="14082.2" gradientUnits="userSpaceOnUse">
<stop stop-color="#FF928E"/>
<stop offset="1" stop-color="#FE7062"/>
</linearGradient>
<linearGradient id="paint117_linear_1808_59986" x1="969.633" y1="17194.8" x2="7931.81" y2="14125.3" gradientUnits="userSpaceOnUse">
<stop stop-color="#FF928E"/>
<stop offset="1" stop-color="#FE7062"/>
</linearGradient>
<linearGradient id="paint118_linear_1808_59986" x1="974.534" y1="17214.9" x2="7936.73" y2="14145.4" gradientUnits="userSpaceOnUse">
<stop stop-color="#FF928E"/>
<stop offset="1" stop-color="#FE7062"/>
</linearGradient>
<linearGradient id="paint119_linear_1808_59986" x1="963.243" y1="17171.3" x2="7925.41" y2="14101.8" gradientUnits="userSpaceOnUse">
<stop stop-color="#FF928E"/>
<stop offset="1" stop-color="#FE7062"/>
</linearGradient>
<linearGradient id="paint120_linear_1808_59986" x1="951.182" y1="17126.8" x2="7913.36" y2="14057.3" gradientUnits="userSpaceOnUse">
<stop stop-color="#FF928E"/>
<stop offset="1" stop-color="#FE7062"/>
</linearGradient>
<linearGradient id="paint121_linear_1808_59986" x1="957.587" y1="17260.7" x2="7932.84" y2="14197.4" gradientUnits="userSpaceOnUse">
<stop stop-color="#FF928E"/>
<stop offset="1" stop-color="#FE7062"/>
</linearGradient>
<linearGradient id="paint122_linear_1808_59986" x1="1181.42" y1="72172.3" x2="10047.5" y2="71177.1" gradientUnits="userSpaceOnUse">
<stop stop-color="#FF928E"/>
<stop offset="1" stop-color="#FE7062"/>
</linearGradient>
<linearGradient id="paint123_linear_1808_59986" x1="1249.71" y1="72679.3" x2="10116.1" y2="71684" gradientUnits="userSpaceOnUse">
<stop stop-color="#FF928E"/>
<stop offset="1" stop-color="#FE7062"/>
</linearGradient>
<linearGradient id="paint124_linear_1808_59986" x1="11697" y1="1212.54" x2="11714.1" y2="-118.351" gradientUnits="userSpaceOnUse">
<stop stop-color="#FF928E"/>
<stop offset="1" stop-color="#FE7062"/>
</linearGradient>
<linearGradient id="paint125_linear_1808_59986" x1="11773.5" y1="1222.2" x2="11790.5" y2="-108.67" gradientUnits="userSpaceOnUse">
<stop stop-color="#FF928E"/>
<stop offset="1" stop-color="#FE7062"/>
</linearGradient>
<linearGradient id="paint126_linear_1808_59986" x1="11848.9" y1="1231.74" x2="11866" y2="-99.1328" gradientUnits="userSpaceOnUse">
<stop stop-color="#FF928E"/>
<stop offset="1" stop-color="#FE7062"/>
</linearGradient>
<linearGradient id="paint127_linear_1808_59986" x1="11922" y1="1240.99" x2="11939" y2="-89.8887" gradientUnits="userSpaceOnUse">
<stop stop-color="#FF928E"/>
<stop offset="1" stop-color="#FE7062"/>
</linearGradient>
<linearGradient id="paint128_linear_1808_59986" x1="11997.4" y1="1250.51" x2="12014.5" y2="-80.3498" gradientUnits="userSpaceOnUse">
<stop stop-color="#FF928E"/>
<stop offset="1" stop-color="#FE7062"/>
</linearGradient>
<linearGradient id="paint129_linear_1808_59986" x1="895.718" y1="16921.9" x2="7857.91" y2="13852.4" gradientUnits="userSpaceOnUse">
<stop stop-color="#FF928E"/>
<stop offset="1" stop-color="#FE7062"/>
</linearGradient>
<linearGradient id="paint130_linear_1808_59986" x1="907.06" y1="16965.1" x2="7869.23" y2="13895.6" gradientUnits="userSpaceOnUse">
<stop stop-color="#FF928E"/>
<stop offset="1" stop-color="#FE7062"/>
</linearGradient>
<linearGradient id="paint131_linear_1808_59986" x1="913.892" y1="17006" x2="7884.63" y2="13932.4" gradientUnits="userSpaceOnUse">
<stop stop-color="#FF928E"/>
<stop offset="1" stop-color="#FE7062"/>
</linearGradient>
<linearGradient id="paint132_linear_1808_59986" x1="900.673" y1="16941.4" x2="7862.85" y2="13871.9" gradientUnits="userSpaceOnUse">
<stop stop-color="#FF928E"/>
<stop offset="1" stop-color="#FE7062"/>
</linearGradient>
<linearGradient id="paint133_linear_1808_59986" x1="918.781" y1="17008.4" x2="7880.96" y2="13938.9" gradientUnits="userSpaceOnUse">
<stop stop-color="#FF928E"/>
<stop offset="1" stop-color="#FE7062"/>
</linearGradient>
<linearGradient id="paint134_linear_1808_59986" x1="1120.4" y1="50926.6" x2="9880.31" y2="49544.8" gradientUnits="userSpaceOnUse">
<stop stop-color="#FF928E"/>
<stop offset="1" stop-color="#FE7062"/>
</linearGradient>
<linearGradient id="paint135_linear_1808_59986" x1="1188.61" y1="51287.5" x2="9948.53" y2="49905.7" gradientUnits="userSpaceOnUse">
<stop stop-color="#FF928E"/>
<stop offset="1" stop-color="#FE7062"/>
</linearGradient>
<linearGradient id="paint136_linear_1808_59986" x1="980.688" y1="8043.08" x2="5545.5" y2="2623.29" gradientUnits="userSpaceOnUse">
<stop stop-color="#FF928E"/>
<stop offset="1" stop-color="#FE7062"/>
</linearGradient>
<linearGradient id="paint137_linear_1808_59986" x1="5346.77" y1="8228.2" x2="6732.15" y2="-1022.76" gradientUnits="userSpaceOnUse">
<stop stop-color="#FF928E"/>
<stop offset="1" stop-color="#FE7062"/>
</linearGradient>
<linearGradient id="paint138_linear_1808_59986" x1="5856.97" y1="8302.34" x2="7242.35" y2="-948.622" gradientUnits="userSpaceOnUse">
<stop stop-color="#FF928E"/>
<stop offset="1" stop-color="#FE7062"/>
</linearGradient>
<linearGradient id="paint139_linear_1808_59986" x1="6368.06" y1="8379.12" x2="7754.21" y2="-874.319" gradientUnits="userSpaceOnUse">
<stop stop-color="#FF928E"/>
<stop offset="1" stop-color="#FE7062"/>
</linearGradient>
<linearGradient id="paint140_linear_1808_59986" x1="7247.2" y1="7988.8" x2="8391.75" y2="-843.043" gradientUnits="userSpaceOnUse">
<stop stop-color="#FF928E"/>
<stop offset="1" stop-color="#FE7062"/>
</linearGradient>
<linearGradient id="paint141_linear_1808_59986" x1="6885.34" y1="7917.58" x2="7996.88" y2="-922.843" gradientUnits="userSpaceOnUse">
<stop stop-color="#FF928E"/>
<stop offset="1" stop-color="#FE7062"/>
</linearGradient>
<linearGradient id="paint142_linear_1808_59986" x1="6419.96" y1="7847.79" x2="7513.65" y2="-997.161" gradientUnits="userSpaceOnUse">
<stop stop-color="#FF928E"/>
<stop offset="1" stop-color="#FE7062"/>
</linearGradient>
<linearGradient id="paint143_linear_1808_59986" x1="6861.56" y1="8448.55" x2="8246.94" y2="-802.41" gradientUnits="userSpaceOnUse">
<stop stop-color="#FF928E"/>
<stop offset="1" stop-color="#FE7062"/>
</linearGradient>
<linearGradient id="paint144_linear_1808_59986" x1="40878.6" y1="1106.27" x2="40882.1" y2="-121.209" gradientUnits="userSpaceOnUse">
<stop stop-color="#FF928E"/>
<stop offset="1" stop-color="#FE7062"/>
</linearGradient>
<linearGradient id="paint145_linear_1808_59986" x1="40910.3" y1="1103.69" x2="40913.8" y2="-129.08" gradientUnits="userSpaceOnUse">
<stop stop-color="#FF928E"/>
<stop offset="1" stop-color="#FE7062"/>
</linearGradient>
<linearGradient id="paint146_linear_1808_59986" x1="14469.6" y1="1423.65" x2="14488" y2="-90.5413" gradientUnits="userSpaceOnUse">
<stop stop-color="#FF928E"/>
<stop offset="1" stop-color="#FE7062"/>
</linearGradient>
<linearGradient id="paint147_linear_1808_59986" x1="13805" y1="1434.38" x2="13824.3" y2="-79.7987" gradientUnits="userSpaceOnUse">
<stop stop-color="#FF928E"/>
<stop offset="1" stop-color="#FE7062"/>
</linearGradient>
<linearGradient id="paint148_linear_1808_59986" x1="13899.8" y1="1445.04" x2="13919.2" y2="-69.1202" gradientUnits="userSpaceOnUse">
<stop stop-color="#FF928E"/>
<stop offset="1" stop-color="#FE7062"/>
</linearGradient>
<linearGradient id="paint149_linear_1808_59986" x1="13997.7" y1="1456.07" x2="14017.1" y2="-58.1113" gradientUnits="userSpaceOnUse">
<stop stop-color="#FF928E"/>
<stop offset="1" stop-color="#FE7062"/>
</linearGradient>
<linearGradient id="paint150_linear_1808_59986" x1="1065.55" y1="19417.7" x2="9003.07" y2="15914.7" gradientUnits="userSpaceOnUse">
<stop stop-color="#FF928E"/>
<stop offset="1" stop-color="#FE7062"/>
</linearGradient>
<linearGradient id="paint151_linear_1808_59986" x1="13490.1" y1="12932.5" x2="15239.5" y2="-1111.59" gradientUnits="userSpaceOnUse">
<stop stop-color="#FF928E"/>
<stop offset="1" stop-color="#FE7062"/>
</linearGradient>
<linearGradient id="paint152_linear_1808_59986" x1="1061.23" y1="17563.7" x2="8723.4" y2="13828" gradientUnits="userSpaceOnUse">
<stop stop-color="#FF928E"/>
<stop offset="1" stop-color="#FE7062"/>
</linearGradient>
<linearGradient id="paint153_linear_1808_59986" x1="1282.38" y1="36509.9" x2="10905" y2="34087" gradientUnits="userSpaceOnUse">
<stop stop-color="#FF928E"/>
<stop offset="1" stop-color="#FE7062"/>
</linearGradient>
<linearGradient id="paint154_linear_1808_59986" x1="1369.18" y1="36803.7" x2="10992.2" y2="34380.6" gradientUnits="userSpaceOnUse">
<stop stop-color="#FF928E"/>
<stop offset="1" stop-color="#FE7062"/>
</linearGradient>
<linearGradient id="paint155_linear_1808_59986" x1="143.688" y1="32.1336" x2="137.716" y2="76.3495" gradientUnits="userSpaceOnUse">
<stop stop-color="#E1473D"/>
<stop offset="1" stop-color="#E9605A"/>
</linearGradient>
<linearGradient id="paint156_linear_1808_59986" x1="71601" y1="230.488" x2="71600.1" y2="395.09" gradientUnits="userSpaceOnUse">
<stop stop-color="#E1473D"/>
<stop offset="1" stop-color="#E9605A"/>
</linearGradient>
<linearGradient id="paint157_linear_1808_59986" x1="2897.19" y1="-1230.64" x2="390.876" y2="271.574" gradientUnits="userSpaceOnUse">
<stop stop-color="#E1473D"/>
<stop offset="1" stop-color="#E9605A"/>
</linearGradient>
<linearGradient id="paint158_linear_1808_59986" x1="1518.35" y1="-1205.5" x2="-36.129" y2="-739.683" gradientUnits="userSpaceOnUse">
<stop stop-color="#E1473D"/>
<stop offset="1" stop-color="#E9605A"/>
</linearGradient>
<linearGradient id="paint159_linear_1808_59986" x1="1523.52" y1="-1205.5" x2="-31.1095" y2="-739.581" gradientUnits="userSpaceOnUse">
<stop stop-color="#E1473D"/>
<stop offset="1" stop-color="#E9605A"/>
</linearGradient>
<linearGradient id="paint160_linear_1808_59986" x1="1528.75" y1="-1205.5" x2="-25.9321" y2="-739.545" gradientUnits="userSpaceOnUse">
<stop stop-color="#E1473D"/>
<stop offset="1" stop-color="#E9605A"/>
</linearGradient>
<linearGradient id="paint161_linear_1808_59986" x1="1533.75" y1="-1205.5" x2="-20.7723" y2="-739.653" gradientUnits="userSpaceOnUse">
<stop stop-color="#E1473D"/>
<stop offset="1" stop-color="#E9605A"/>
</linearGradient>
<linearGradient id="paint162_linear_1808_59986" x1="1539.45" y1="-1205.5" x2="-15.2373" y2="-739.544" gradientUnits="userSpaceOnUse">
<stop stop-color="#E1473D"/>
<stop offset="1" stop-color="#E9605A"/>
</linearGradient>
<linearGradient id="paint163_linear_1808_59986" x1="1544.62" y1="-1205.5" x2="-10.0654" y2="-739.545" gradientUnits="userSpaceOnUse">
<stop stop-color="#E1473D"/>
<stop offset="1" stop-color="#E9605A"/>
</linearGradient>
<linearGradient id="paint164_linear_1808_59986" x1="1550.44" y1="-1205.5" x2="-4.24142" y2="-739.545" gradientUnits="userSpaceOnUse">
<stop stop-color="#E1473D"/>
<stop offset="1" stop-color="#E9605A"/>
</linearGradient>
<linearGradient id="paint165_linear_1808_59986" x1="1555.49" y1="-1205.5" x2="0.918713" y2="-739.618" gradientUnits="userSpaceOnUse">
<stop stop-color="#E1473D"/>
<stop offset="1" stop-color="#E9605A"/>
</linearGradient>
<linearGradient id="paint166_linear_1808_59986" x1="1560.5" y1="-1205.5" x2="6.03787" y2="-739.69" gradientUnits="userSpaceOnUse">
<stop stop-color="#E1473D"/>
<stop offset="1" stop-color="#E9605A"/>
</linearGradient>
<linearGradient id="paint167_linear_1808_59986" x1="2982.54" y1="-1230.64" x2="476.203" y2="271.621" gradientUnits="userSpaceOnUse">
<stop stop-color="#E1473D"/>
<stop offset="1" stop-color="#E9605A"/>
</linearGradient>
<linearGradient id="paint168_linear_1808_59986" x1="435.644" y1="13230.4" x2="4363.54" y2="12099.2" gradientUnits="userSpaceOnUse">
<stop stop-color="#FF928E"/>
<stop offset="1" stop-color="#FE7062"/>
</linearGradient>
<linearGradient id="paint169_linear_1808_59986" x1="434.658" y1="9192.44" x2="4064.95" y2="7688.35" gradientUnits="userSpaceOnUse">
<stop stop-color="#FF928E"/>
<stop offset="1" stop-color="#FE7062"/>
</linearGradient>
<linearGradient id="paint170_linear_1808_59986" x1="365.937" y1="13854.5" x2="4329.92" y2="12785.1" gradientUnits="userSpaceOnUse">
<stop stop-color="#FF928E"/>
<stop offset="1" stop-color="#FE7062"/>
</linearGradient>
<linearGradient id="paint171_linear_1808_59986" x1="440.358" y1="10386.9" x2="4188.99" y2="9011.08" gradientUnits="userSpaceOnUse">
<stop stop-color="#FF928E"/>
<stop offset="1" stop-color="#FE7062"/>
</linearGradient>
<linearGradient id="paint172_linear_1808_59986" x1="12341.4" y1="24153.6" x2="18595.5" y2="-1269.68" gradientUnits="userSpaceOnUse">
<stop stop-color="#FF928E"/>
<stop offset="1" stop-color="#FE7062"/>
</linearGradient>
<linearGradient id="paint173_linear_1808_59986" x1="81195.5" y1="489.838" x2="79527.5" y2="5734.76" gradientUnits="userSpaceOnUse">
<stop stop-color="#E1473D"/>
<stop offset="1" stop-color="#E9605A"/>
</linearGradient>
<linearGradient id="paint174_linear_1808_59986" x1="126.426" y1="24.6381" x2="141.022" y2="25.1524" gradientUnits="userSpaceOnUse">
<stop stop-color="#FEBBBA"/>
<stop offset="1" stop-color="#FF928E"/>
</linearGradient>
<linearGradient id="paint175_linear_1808_59986" x1="19372.9" y1="13.3793" x2="17839.8" y2="1228.55" gradientUnits="userSpaceOnUse">
<stop stop-color="#FF928E"/>
<stop offset="1" stop-color="#FE7062"/>
</linearGradient>
<linearGradient id="paint176_linear_1808_59986" x1="29498.3" y1="-291.478" x2="27379.8" y2="1595.9" gradientUnits="userSpaceOnUse">
<stop stop-color="#FF928E"/>
<stop offset="1" stop-color="#FE7062"/>
</linearGradient>
<linearGradient id="paint177_linear_1808_59986" x1="65741.4" y1="1259.19" x2="65733.8" y2="1556.06" gradientUnits="userSpaceOnUse">
<stop stop-color="#E1473D"/>
<stop offset="1" stop-color="#E9605A"/>
</linearGradient>
<linearGradient id="paint178_linear_1808_59986" x1="893.284" y1="3448.94" x2="891.935" y2="3448.94" gradientUnits="userSpaceOnUse">
<stop stop-color="#FF928E"/>
<stop offset="1" stop-color="#FE7062"/>
</linearGradient>
<linearGradient id="paint179_linear_1808_59986" x1="902.345" y1="3469.36" x2="900.848" y2="3469.36" gradientUnits="userSpaceOnUse">
<stop stop-color="#FF928E"/>
<stop offset="1" stop-color="#FE7062"/>
</linearGradient>
<linearGradient id="paint180_linear_1808_59986" x1="-6322.52" y1="2436.68" x2="-6001.19" y2="2815.93" gradientUnits="userSpaceOnUse">
<stop stop-color="#E1473D"/>
<stop offset="1" stop-color="#E9605A"/>
</linearGradient>
<linearGradient id="paint181_linear_1808_59986" x1="106.203" y1="45.0738" x2="102.543" y2="45.0702" gradientUnits="userSpaceOnUse">
<stop stop-color="#09005D"/>
<stop offset="1" stop-color="#1A0F91"/>
</linearGradient>
<linearGradient id="paint182_linear_1808_59986" x1="9691.19" y1="587.262" x2="9610.99" y2="587.262" gradientUnits="userSpaceOnUse">
<stop stop-color="#09005D"/>
<stop offset="1" stop-color="#1A0F91"/>
</linearGradient>
</defs>
</svg>
