<svg width="18" height="18" viewBox="0 0 18 18" fill="none" xmlns="http://www.w3.org/2000/svg">
<path d="M1.2 0H0V17.4V18H0.597374C0.598249 18 0.599125 18 0.600001 18H17.4C17.4008 18 17.4018 18 17.4026 18H18V17.4012C18 17.4016 18 17.4008 18 17.4012V3C18 2.73918 17.8315 2.50823 17.5831 2.42863C17.3347 2.34902 17.0634 2.43902 16.9117 2.65127L11.3882 10.3843L8.28 6.24C8.16317 6.08423 7.978 5.99483 7.78336 6.00024C7.5887 6.00564 7.40879 6.10517 7.30078 6.26718L1.2 15.4183V0Z" fill="#FFFFFF"/>
</svg>
