<svg width="24" height="15" viewBox="0 0 24 15" fill="none" xmlns="http://www.w3.org/2000/svg">
<path d="M12 0C10.6875 0 9.42969 0.179687 8.22656 0.539062C7.02344 0.914062 5.90625 1.42969 4.875 2.08594C3.84375 2.74219 2.91406 3.53125 2.08594 4.45312C1.25781 5.375 0.5625 6.39062 0 7.5C0.5625 8.60938 1.25781 9.625 2.08594 10.5469C2.91406 11.4688 3.84375 12.2578 4.875 12.9141C5.90625 13.5703 7.02344 14.0859 8.22656 14.4609C9.42969 14.8203 10.6875 15 12 15C13.3125 15 14.5703 14.8203 15.7734 14.4609C16.9766 14.0859 18.0938 13.5703 19.125 12.9141C20.1562 12.2578 21.0859 11.4688 21.9141 10.5469C22.7422 9.625 23.4375 8.60938 24 7.5C23.4375 6.39062 22.7422 5.375 21.9141 4.45312C21.0859 3.53125 20.1562 2.74219 19.125 2.08594C18.0938 1.42969 16.9766 0.914062 15.7734 0.539062C14.5703 0.179687 13.3125 0 12 0ZM17.9062 3.98438C18.625 4.42188 19.2734 4.94531 19.8516 5.55469C20.4453 6.14844 20.9688 6.79688 21.4219 7.5C20.9688 8.20312 20.4453 8.85938 19.8516 9.46875C19.2734 10.0625 18.625 10.5781 17.9062 11.0156C17.0312 11.5781 16.0859 12.0078 15.0703 12.3047C14.0703 12.6016 13.0469 12.75 12 12.75C10.9531 12.75 9.92188 12.6016 8.90625 12.3047C7.90625 12.0078 6.96875 11.5781 6.09375 11.0156C5.375 10.5781 4.71875 10.0625 4.125 9.46875C3.54688 8.85938 3.03125 8.20312 2.57812 7.5C3.03125 6.79688 3.54688 6.14844 4.125 5.55469C4.71875 4.94531 5.375 4.42188 6.09375 3.98438C6.125 3.95312 6.16406 3.92188 6.21094 3.89062C6.25781 3.85938 6.30469 3.82812 6.35156 3.79688C6.24219 4.125 6.15625 4.46094 6.09375 4.80469C6.03125 5.14844 6 5.5 6 5.85938C6 6.6875 6.15625 7.46875 6.46875 8.20312C6.78125 8.92188 7.21094 9.55469 7.75781 10.1016C8.30469 10.6484 8.9375 11.0781 9.65625 11.3906C10.3906 11.7031 11.1719 11.8594 12 11.8594C12.8281 11.8594 13.6094 11.7031 14.3438 11.3906C15.0625 11.0781 15.6953 10.6484 16.2422 10.1016C16.7891 9.55469 17.2188 8.92188 17.5312 8.20312C17.8438 7.46875 18 6.6875 18 5.85938C18 5.5 17.9688 5.14844 17.9062 4.80469C17.8438 4.46094 17.7578 4.125 17.6484 3.79688C17.6953 3.82812 17.7422 3.85938 17.7891 3.89062C17.8359 3.92188 17.875 3.95312 17.9062 3.98438ZM12 5.25C12 5.875 11.7812 6.40625 11.3438 6.84375C10.9062 7.28125 10.375 7.5 9.75 7.5C9.125 7.5 8.59375 7.28125 8.15625 6.84375C7.71875 6.40625 7.5 5.875 7.5 5.25C7.5 4.625 7.71875 4.09375 8.15625 3.65625C8.59375 3.21875 9.125 3 9.75 3C10.375 3 10.9062 3.21875 11.3438 3.65625C11.7812 4.09375 12 4.625 12 5.25Z" fill="#3D5AFE"/>
</svg>
