<svg width="18" height="18" viewBox="0 0 18 18" fill="none" xmlns="http://www.w3.org/2000/svg">
<path d="M17.0391 4.57812C17.0391 4.51563 17.0156 4.48438 16.9688 4.48438C16.9375 4.46875 16.9219 4.46094 16.9219 4.46094L16.8047 4.34375C16.6797 4.21875 16.5469 4.08594 16.4062 3.94531C16.2656 3.80469 16.0781 3.61719 15.8438 3.38281L15 2.53906C14.7656 2.36719 14.5234 2.14062 14.2734 1.85938C14.0234 1.57812 13.7422 1.28125 13.4297 0.96875C13.3828 0.921875 13.3047 0.875 13.1953 0.828125C13.0859 0.765625 12.9688 0.734375 12.8438 0.734375H2.03906C1.55469 0.734375 1.13281 0.914062 0.773438 1.27344C0.414062 1.63281 0.234375 2.05469 0.234375 2.53906V15.9688C0.234375 16.4531 0.414062 16.875 0.773438 17.2344C1.13281 17.5938 1.55469 17.7734 2.03906 17.7734H15.4688C15.9531 17.7734 16.375 17.5938 16.7344 17.2344C17.0938 16.875 17.2734 16.4531 17.2734 15.9688V5.07031C17.3359 5.07031 17.3594 5.02344 17.3438 4.92969C17.3281 4.82031 17.2266 4.70313 17.0391 4.57812ZM5.03906 2.42188H11.1562V5.1875C11.1562 5.1875 11.1484 5.21094 11.1328 5.25781C11.1328 5.28906 11.1016 5.30469 11.0391 5.30469H5.03906C5.03906 5.30469 5.01562 5.30469 4.96875 5.30469C4.9375 5.28906 4.92188 5.25 4.92188 5.1875V2.42188H5.03906ZM5.03906 16.1094V10.6953C5.03906 10.6953 5.03906 10.6797 5.03906 10.6484C5.05469 10.6016 5.09375 10.5781 5.15625 10.5781H11.1562C11.1562 10.5781 11.1719 10.5859 11.2031 10.6016C11.25 10.6016 11.2734 10.6328 11.2734 10.6953V16.1094H5.03906ZM15.6094 15.9688C15.6094 16.0312 15.6094 16.0625 15.6094 16.0625C15.6094 16.0625 15.6094 16.0312 15.6094 15.9688L12.9609 16.1094V10.6953C12.9609 10.2109 12.7812 9.78906 12.4219 9.42969C12.0625 9.07031 11.6406 8.89062 11.1562 8.89062H5.15625C4.67188 8.89062 4.25 9.07031 3.89062 9.42969C3.53125 9.78906 3.35156 10.2109 3.35156 10.6953V16.1094H2.03906C2.03906 16.1094 2.01562 16.1016 1.96875 16.0859C1.9375 16.0703 1.92188 16.0312 1.92188 15.9688V2.53906C1.92188 2.53906 1.92188 2.52344 1.92188 2.49219C1.9375 2.44531 1.97656 2.42188 2.03906 2.42188H3.35156V5.1875C3.35156 5.65625 3.53125 6.07031 3.89062 6.42969C4.25 6.78906 4.67188 6.96875 5.15625 6.96875H11.1562C11.6406 6.96875 12.0625 6.78906 12.4219 6.42969C12.7812 6.07031 12.9609 5.65625 12.9609 5.1875V2.89062L15.6094 5.53906V15.9688Z" fill="white"/>
</svg>
