<svg width="24" height="15" viewBox="0 0 24 15" fill="none" xmlns="http://www.w3.org/2000/svg">
<path d="M5.32031 2.90625C4.44531 3.42188 3.67969 4.03125 3.02344 4.73438C2.36719 5.42188 1.8125 6.19531 1.35938 7.05469C0.921875 7.89844 0.585938 8.80469 0.351562 9.77344C0.117188 10.7578 0 11.7969 0 12.8906H4.17188C4.17188 11.4844 4.45312 10.3047 5.01562 9.35156C5.57812 8.39844 6.42188 7.57812 7.54688 6.89062L5.32031 2.90625ZM12 0.960938C11.9844 0.960938 11.9766 0.960938 11.9766 0.960938C10.9141 0.960938 9.88281 1.10156 8.88281 1.38281C7.89844 1.64844 6.96875 2.02344 6.09375 2.50781L8.25 6.09375C8.8125 5.78125 9.40625 5.53906 10.0312 5.36719C10.6562 5.19531 11.3203 5.10938 12.0234 5.10938C12.7109 5.10938 13.375 5.19531 14.0156 5.36719C14.6562 5.53906 15.2578 5.78906 15.8203 6.11719L17.8828 2.48438C17.0234 2.01562 16.0938 1.64844 15.0938 1.38281C14.1094 1.11719 13.0781 0.976562 12 0.960938ZM18.6562 2.90625L16.4297 6.44531C17.5547 7.13281 18.3984 8.03125 18.9609 9.14062C19.5234 10.2344 19.8047 11.4844 19.8047 12.8906H23.9766C23.9766 11.7969 23.8594 10.7578 23.625 9.77344C23.4062 8.80469 23.0703 7.89844 22.6172 7.05469C22.1797 6.19531 21.625 5.42188 20.9531 4.73438C20.2969 4.03125 19.5312 3.42188 18.6562 2.90625ZM12 11.7422C12.3594 11.7422 12.6719 11.8516 12.9375 12.0703C13.2031 12.2891 13.3359 12.5547 13.3359 12.8672C13.3359 13.1797 13.2031 13.4531 12.9375 13.6875C12.6875 13.9062 12.375 14.0156 12 14.0156C11.625 14.0156 11.3047 13.9062 11.0391 13.6875C10.7891 13.4531 10.6641 13.1797 10.6641 12.8672C10.6641 12.5547 10.7891 12.2891 11.0391 12.0703C11.3047 11.8516 11.625 11.7422 12 11.7422ZM11.1094 12.6797L12 6.46875L12.8672 12.6797H11.1094Z" fill="#727CAF"/>
</svg>
