<svg width="11" height="11" viewBox="0 0 11 11" fill="none" xmlns="http://www.w3.org/2000/svg">
<path d="M10.6738 0.8125C10.6738 0.589193 10.5941 0.411458 10.4346 0.279297C10.2796 0.147135 10.0677 0.0810547 9.79883 0.0810547H1.30176C1.03288 0.0810547 0.818685 0.147135 0.65918 0.279297C0.504232 0.406901 0.426758 0.582357 0.426758 0.805664C0.426758 0.924154 0.449544 1.03809 0.495117 1.14746C0.54069 1.25228 0.595378 1.37077 0.65918 1.50293L4.74023 9.93164C4.86784 10.1823 4.99316 10.3577 5.11621 10.458C5.24382 10.5583 5.38737 10.6084 5.54688 10.6084C5.71094 10.6084 5.85449 10.5583 5.97754 10.458C6.10514 10.3577 6.23275 10.1823 6.36035 9.93164L10.4414 1.50293C10.5052 1.37533 10.5599 1.25911 10.6055 1.1543C10.651 1.04492 10.6738 0.93099 10.6738 0.8125Z" fill="#727CAF"/>
</svg>
