<svg width="22" height="21" viewBox="0 0 22 21" fill="none" xmlns="http://www.w3.org/2000/svg">
<path d="M15.0078 11.2031L12.1016 14.8594L12.125 14.9062L17.0938 19.875C17.5312 20.3281 18.0625 20.5547 18.6875 20.5547C19.3281 20.5547 19.875 20.3281 20.3281 19.875C20.7656 19.4219 20.9844 18.8828 20.9844 18.2578C20.9844 17.6328 20.7656 17.0938 20.3281 16.6406L15.0078 11.2031ZM4.69531 5.10938L8.44531 8.27344L9.17188 7.54688L5.51562 3.89062L5.53906 3L1.8125 0.492188L1.36719 0.9375L1.15625 1.14844L0.945312 1.38281L3.40625 5.13281L4.69531 5.10938ZM19.6953 8.41406C20.3516 7.75781 20.7656 6.99219 20.9375 6.11719C21.125 5.24219 21.0703 4.39063 20.7734 3.5625L18.2188 6.14062C17.9375 6.42188 17.6016 6.5625 17.2109 6.5625C16.8203 6.5625 16.4922 6.42188 16.2266 6.14062L15.4531 5.36719C15.1719 5.08594 15.0312 4.75 15.0312 4.35938C15.0312 3.96875 15.1719 3.64063 15.4531 3.375L18.0078 0.796875C17.1953 0.5 16.3516 0.445312 15.4766 0.632812C14.6016 0.804688 13.8359 1.21875 13.1797 1.875C12.6172 2.4375 12.2578 3.10156 12.1016 3.86719C11.9609 4.61719 11.9609 5.35937 12.1016 6.09375L1.78906 16.0781C1.28906 16.5938 1.03906 17.2188 1.03906 17.9531C1.03906 18.6719 1.28906 19.2812 1.78906 19.7812C2.30469 20.2969 2.92188 20.5547 3.64062 20.5547C4.375 20.5547 4.99219 20.2969 5.49219 19.7812L15.0078 9C15.7422 9.14062 16.5703 9.21875 17.4922 9.23438C18.4141 9.25 19.1484 8.97656 19.6953 8.41406ZM4.67188 19.0078C4.375 19.2891 4.02344 19.4297 3.61719 19.4297C3.21094 19.4297 2.86719 19.2891 2.58594 19.0078C2.28906 18.7266 2.14062 18.3828 2.14062 17.9766C2.14062 17.5547 2.28906 17.2031 2.58594 16.9219C2.86719 16.6406 3.21094 16.5 3.61719 16.5C4.02344 16.5 4.375 16.6406 4.67188 16.9219C4.95312 17.2031 5.09375 17.5547 5.09375 17.9766C5.09375 18.3828 4.95312 18.7266 4.67188 19.0078Z" fill="#5449B7"/>
</svg>
