<svg width="17" height="16" viewBox="0 0 17 16" fill="none" xmlns="http://www.w3.org/2000/svg">
<path fill-rule="evenodd" clip-rule="evenodd" d="M14.4361 8.78C14.4661 8.53 14.4861 8.27 14.4861 8C14.4861 7.73 14.4661 7.47 14.4261 7.22L16.1161 5.9C16.2661 5.78 16.3061 5.56 16.2161 5.39L14.6161 2.62C14.5161 2.44 14.3061 2.38 14.1261 2.44L12.1361 3.24C11.7161 2.92 11.2761 2.66 10.7861 2.46L10.4861 0.34C10.4561 0.14 10.2861 0 10.0861 0H6.88609C6.68609 0 6.52609 0.14 6.49609 0.34L6.19609 2.46C5.70609 2.66 5.25609 2.93 4.84609 3.24L2.85609 2.44C2.67609 2.37 2.46609 2.44 2.36609 2.62L0.766091 5.39C0.666091 5.57 0.706091 5.78 0.866091 5.9L2.55609 7.22C2.51609 7.47 2.48609 7.74 2.48609 8C2.48609 8.26 2.50609 8.53 2.54609 8.78L0.856091 10.1C0.706091 10.22 0.666091 10.44 0.756091 10.61L2.35609 13.38C2.45609 13.56 2.66609 13.62 2.84609 13.56L4.83609 12.76C5.25609 13.08 5.69609 13.34 6.18609 13.54L6.48609 15.66C6.52609 15.86 6.68609 16 6.88609 16H10.0861C10.2861 16 10.4561 15.86 10.4761 15.66L10.7761 13.54C11.2661 13.34 11.7161 13.07 12.1261 12.76L14.1161 13.56C14.2961 13.63 14.5061 13.56 14.6061 13.38L16.2061 10.61C16.3061 10.43 16.2661 10.22 16.1061 10.1L14.4361 8.78ZM8.48609 11C6.83609 11 5.48609 9.65 5.48609 8C5.48609 6.35 6.83609 5 8.48609 5C10.1361 5 11.4861 6.35 11.4861 8C11.4861 9.65 10.1361 11 8.48609 11Z" fill="#727CAF"/>
</svg>
