<svg width="32" height="32" viewBox="0 0 32 32" fill="none" xmlns="http://www.w3.org/2000/svg">
<rect width="32" height="32" rx="8" fill="#2A3EB1"/>
<path fill-rule="evenodd" clip-rule="evenodd" d="M14.238 16.6991C16.4087 16.6991 18.499 16.573 20.5205 16.2934C20.6011 16.2813 20.6818 16.2694 20.7624 16.2576L20.7633 16.2574L20.7641 16.2573C20.8448 16.2454 20.9254 16.2336 21.006 16.2214C21.5339 16.1399 21.9771 15.783 21.9771 15.2492C21.9771 14.7451 21.59 14.3214 21.0928 14.277V14.2738C21.0928 11.5901 19.5515 9.26644 17.311 8.14063L17.0233 9.77056L16.6848 11.6949C16.6393 11.9385 16.4055 12.1027 16.1633 12.0614C15.92 12.0158 15.756 11.7818 15.7973 11.5392L16.1845 9.34481L16.4965 7.57085C16.3918 7.24041 16.0797 7 15.7137 7H12.7624C12.3964 7 12.0875 7.24041 11.9796 7.57085L12.2916 9.34481L12.6788 11.5392C12.7211 11.7828 12.5561 12.0169 12.3128 12.0614C12.0695 12.1037 11.8357 11.9385 11.7913 11.6949L11.4528 9.77056L11.1682 8.14063C8.92561 9.26644 7.38752 11.5901 7.38752 14.2738V14.277C6.88717 14.3225 6.5 14.7451 6.5 15.2492C6.5 15.784 6.94429 16.1409 7.47426 16.2214C7.63294 16.2458 7.79479 16.2691 7.95663 16.2903C9.97709 16.573 12.0695 16.6991 14.238 16.6991ZM14.2356 17.5998C16.3375 17.5998 18.4426 17.4822 20.5265 17.2005C20.5128 17.597 20.4757 17.9859 20.417 18.3652C18.8805 18.7947 17.7534 20.2065 17.7534 21.8818C17.7534 22.3426 17.8387 22.7834 17.9943 23.1894C17.4938 23.6573 16.9362 24.0339 16.3375 24.3006C15.6774 24.5918 14.9729 24.7507 14.2356 24.7507C13.4983 24.7507 12.7938 24.5918 12.1369 24.3006C11.0208 23.8049 10.0498 22.9291 9.32408 21.7937C8.51167 20.5271 8.00497 18.9353 7.94467 17.2005C10.0286 17.4822 12.1337 17.5998 14.2356 17.5998ZM18.2794 21.881C18.2794 20.2276 19.5654 18.8748 21.1907 18.7706V18.5761H20.8767V17.9241H21.9363V18.5761H21.6223V18.7715C22.1983 18.8108 22.7434 19.0073 23.208 19.3407L23.5644 18.9839L23.9971 19.4172L23.6694 19.7453C24.2135 20.3229 24.5115 21.0758 24.5115 21.8733C24.5115 22.454 24.3533 23.0103 24.0576 23.4932C23.512 24.3951 22.5226 24.9979 21.3926 24.9979C19.6732 24.9979 18.2794 23.6024 18.2794 21.881ZM22.0003 21.7334C21.9909 21.6884 21.9765 21.6456 21.9578 21.6057L22.748 20.7186L22.4578 20.4596L21.6838 21.3284C21.5719 21.2742 21.4418 21.2553 21.3107 21.2829C20.996 21.3491 20.7945 21.6582 20.8607 21.9733C20.9269 22.2884 21.2356 22.4901 21.5503 22.4238C21.865 22.3576 22.0665 22.0485 22.0003 21.7334Z" fill="white"/>
</svg>
