<svg width="19" height="18" viewBox="0 0 19 18" fill="none" xmlns="http://www.w3.org/2000/svg">
<path fill-rule="evenodd" clip-rule="evenodd" d="M7.73804 9.69908C9.90871 9.69908 11.999 9.57305 14.0205 9.29345C14.1011 9.28131 14.1818 9.26944 14.2624 9.25757L14.2633 9.25744L14.2641 9.25731C14.3448 9.24544 14.4254 9.23357 14.506 9.22143C15.0339 9.13988 15.4771 8.78297 15.4771 8.24919C15.4771 7.74507 15.09 7.32144 14.5928 7.27696V7.27378C14.5928 4.59006 13.0515 2.26644 10.811 1.14063L10.5233 2.77056L10.1848 4.69491C10.1393 4.9385 9.90554 5.10266 9.66329 5.06136C9.41999 5.01581 9.25603 4.78176 9.29728 4.53923L9.68445 2.34481L9.99651 0.570845C9.89178 0.240412 9.57973 0 9.21372 0H6.26236C5.89635 0 5.58747 0.240412 5.47957 0.570845L5.79163 2.34481L6.1788 4.53923C6.22111 4.78282 6.05609 5.01687 5.81279 5.06136C5.56948 5.10372 5.3357 4.9385 5.29128 4.69491L4.95277 2.77056L4.66821 1.14063C2.42561 2.26644 0.887521 4.59006 0.887521 7.27378V7.27696C0.387166 7.3225 0 7.74507 0 8.24919C0 8.78403 0.44429 9.14094 0.974264 9.22143C1.13294 9.24579 1.29479 9.26909 1.45663 9.29027C3.47709 9.57305 5.56949 9.69908 7.73804 9.69908ZM7.7356 10.5998C9.83751 10.5998 11.9426 10.4822 14.0265 10.2005C14.0128 10.597 13.9757 10.9859 13.917 11.3652C12.3805 11.7947 11.2534 13.2065 11.2534 14.8818C11.2534 15.3426 11.3387 15.7834 11.4943 16.1894C10.9938 16.6573 10.4362 17.0339 9.83751 17.3006C9.17742 17.5918 8.47291 17.7507 7.7356 17.7507C6.99829 17.7507 6.29377 17.5918 5.63686 17.3006C4.52085 16.8049 3.54976 15.9291 2.82408 14.7937C2.01167 13.5271 1.50497 11.9353 1.44467 10.2005C3.5286 10.4822 5.63369 10.5998 7.7356 10.5998ZM11.7794 14.881C11.7794 13.2276 13.0654 11.8748 14.6907 11.7706V11.5761H14.3767V10.9241H15.4363V11.5761H15.1223V11.7715C15.6983 11.8108 16.2434 12.0073 16.708 12.3407L17.0644 11.9839L17.4971 12.4172L17.1694 12.7453C17.7135 13.3229 18.0115 14.0758 18.0115 14.8733C18.0115 15.454 17.8533 16.0103 17.5576 16.4932C17.012 17.3951 16.0226 17.9979 14.8926 17.9979C13.1732 17.9979 11.7794 16.6024 11.7794 14.881ZM15.5003 14.7334C15.4909 14.6884 15.4765 14.6456 15.4578 14.6057L16.248 13.7186L15.9578 13.4596L15.1838 14.3284C15.0719 14.2742 14.9418 14.2553 14.8107 14.2829C14.496 14.3491 14.2945 14.6582 14.3607 14.9733C14.4269 15.2884 14.7356 15.4901 15.0503 15.4238C15.365 15.3576 15.5665 15.0485 15.5003 14.7334Z" fill="white"/>
</svg>
