<svg width="14" height="19" viewBox="0 0 14 19" fill="none" xmlns="http://www.w3.org/2000/svg">
<path d="M12.375 0.837891C12.5312 0.837891 12.6797 0.869141 12.8203 0.931641C12.9609 0.994141 13.0781 1.08008 13.1719 1.18945C13.2812 1.29883 13.3594 1.42383 13.4062 1.56445C13.4688 1.68945 13.5 1.82227 13.5 1.96289V17.7129C13.5 17.8848 13.4688 18.041 13.4062 18.1816C13.3594 18.3066 13.2891 18.4238 13.1953 18.5332C13.0859 18.6426 12.9609 18.7207 12.8203 18.7676C12.6953 18.8145 12.5625 18.8379 12.4219 18.8379H1.14844C0.992188 18.8379 0.84375 18.8145 0.703125 18.7676C0.5625 18.7207 0.429688 18.6426 0.304688 18.5332C0.210938 18.4238 0.132812 18.3066 0.0703125 18.1816C0.0234375 18.041 0 17.8848 0 17.7129V5.33789L4.5 0.837891H12.375ZM12.4219 17.7129L12.375 1.96289H5.625V5.33789C5.625 5.50977 5.59375 5.66602 5.53125 5.80664C5.46875 5.93164 5.38281 6.04883 5.27344 6.1582C5.16406 6.26758 5.04688 6.3457 4.92188 6.39258C4.79688 6.43945 4.65625 6.46289 4.5 6.46289H1.125V17.7129H12.4219ZM9.5625 14.3379C9.75 14.3379 9.89062 14.3848 9.98438 14.4785C10.0781 14.5723 10.125 14.7129 10.125 14.9004C10.125 14.9785 10.1094 15.0488 10.0781 15.1113C10.0469 15.1738 10 15.2363 9.9375 15.2988C9.90625 15.3613 9.85156 15.4082 9.77344 15.4395C9.71094 15.4551 9.64062 15.4629 9.5625 15.4629H3.9375C3.875 15.4629 3.80469 15.4551 3.72656 15.4395C3.66406 15.4082 3.60938 15.3613 3.5625 15.2988C3.5 15.2363 3.45312 15.1738 3.42188 15.1113C3.39062 15.0488 3.375 14.9785 3.375 14.9004C3.375 14.8223 3.39062 14.752 3.42188 14.6895C3.45312 14.627 3.49219 14.5723 3.53906 14.5254C3.60156 14.4629 3.66406 14.416 3.72656 14.3848C3.78906 14.3535 3.85938 14.3379 3.9375 14.3379H9.5625ZM9.5625 12.0879C9.75 12.0879 9.89062 12.1348 9.98438 12.2285C10.0781 12.3223 10.125 12.4629 10.125 12.6504C10.125 12.7285 10.1094 12.7988 10.0781 12.8613C10.0469 12.9238 10 12.9863 9.9375 13.0488C9.90625 13.1113 9.85156 13.1582 9.77344 13.1895C9.71094 13.2051 9.64062 13.2129 9.5625 13.2129H3.9375C3.875 13.2129 3.80469 13.2051 3.72656 13.1895C3.66406 13.1582 3.60938 13.1113 3.5625 13.0488C3.5 12.9863 3.45312 12.9238 3.42188 12.8613C3.39062 12.7988 3.375 12.7285 3.375 12.6504C3.375 12.5723 3.39062 12.502 3.42188 12.4395C3.45312 12.377 3.49219 12.3223 3.53906 12.2754C3.60156 12.2129 3.66406 12.166 3.72656 12.1348C3.78906 12.1035 3.85938 12.0879 3.9375 12.0879H9.5625Z" fill="white"/>
</svg>
