<svg width="22" height="19" viewBox="0 0 22 19" fill="none" xmlns="http://www.w3.org/2000/svg">
<path d="M15.0078 16.6016C14.9453 16.6016 14.8828 16.6016 14.8203 16.6016C14.7734 16.5859 14.7266 16.5625 14.6797 16.5312C14.5703 16.4844 14.4766 16.4219 14.3984 16.3438C14.3359 16.25 14.2891 16.1562 14.2578 16.0625L10.0156 1.39062C9.95312 1.1875 9.96875 0.992188 10.0625 0.804688C10.1719 0.617188 10.3281 0.492187 10.5312 0.429688C10.7344 0.367188 10.9297 0.390625 11.1172 0.5C11.3047 0.609375 11.4297 0.765625 11.4922 0.96875L15.5 14.7969L18.2422 13.625C18.4297 13.5469 18.6172 13.5469 18.8047 13.625C19.0078 13.7031 19.1562 13.8359 19.25 14.0234C19.3281 14.2266 19.3281 14.4297 19.25 14.6328C19.1719 14.8203 19.0391 14.9531 18.8516 15.0312L15.3125 16.5547C15.25 16.5703 15.1953 16.5859 15.1484 16.6016C15.1016 16.6016 15.0547 16.6016 15.0078 16.6016ZM14.5625 6.75781L16.625 6.14844L17.4453 8.96094L15.4062 9.57031L14.5625 6.75781ZM16.9531 6.03125L19.1797 5.375L20.0234 8.1875L17.7734 8.84375L16.9531 6.03125ZM15.5 9.89844L17.5625 9.28906L18.5234 12.5L16.4609 13.1094L15.5 9.89844ZM17.8906 9.19531L20.1406 8.53906L21.0781 11.7266L18.8516 12.4062L17.8906 9.19531ZM1.29688 14.2578C1.59375 13.9297 1.94531 13.6797 2.35156 13.5078C2.77344 13.3359 3.22656 13.2656 3.71094 13.2969C4.39844 13.3594 4.98438 13.6406 5.46875 14.1406C5.96875 14.625 6.25 15.2109 6.3125 15.8984C6.32812 16.0234 6.32812 16.1484 6.3125 16.2734C6.3125 16.3828 6.30469 16.4922 6.28906 16.6016H7.67188C7.625 16.4453 7.59375 16.2812 7.57812 16.1094C7.5625 15.9219 7.55469 15.7344 7.55469 15.5469C7.60156 14.7812 7.89062 14.125 8.42188 13.5781C8.96875 13.0156 9.61719 12.7031 10.3672 12.6406C10.5859 12.6094 10.7969 12.6094 11 12.6406C11.2188 12.6562 11.4297 12.6953 11.6328 12.7578C11.6953 12.7891 11.75 12.7812 11.7969 12.7344C11.8594 12.6875 11.8906 12.6328 11.8906 12.5703V11.2578C11.8906 11.1328 11.8438 11.0312 11.75 10.9531C11.6719 10.8594 11.5703 10.8125 11.4453 10.8125H11.3047L9.33594 3.875C9.27344 3.65625 9.15625 3.48438 8.98438 3.35938C8.8125 3.23437 8.60938 3.17188 8.375 3.17188H3.07812C2.85938 3.17188 2.67188 3.25 2.51562 3.40625C2.35938 3.5625 2.28125 3.75 2.28125 3.96875V9.33594H1.625C1.42188 9.33594 1.25 9.40625 1.10938 9.54688C0.984375 9.6875 0.921875 9.85938 0.921875 10.0625V14.0938C0.921875 14.2031 0.96875 14.2734 1.0625 14.3047C1.15625 14.3359 1.23438 14.3203 1.29688 14.2578ZM3.89844 9.26562V4.74219H7.88281L9.59375 10.7891H8.28125C8.21875 10.7891 8.14844 10.7812 8.07031 10.7656C8.00781 10.7344 7.95312 10.6953 7.90625 10.6484L6.92188 9.6875C6.82812 9.57812 6.71094 9.5 6.57031 9.45312C6.42969 9.39062 6.28906 9.35938 6.14844 9.35938H3.89844V9.26562ZM3.45312 13.7422C2.78125 13.7422 2.20312 13.9844 1.71875 14.4688C1.25 14.9375 1.01562 15.5078 1.01562 16.1797C1.01562 16.8516 1.25 17.4219 1.71875 17.8906C2.20312 18.3594 2.78125 18.5938 3.45312 18.5938C4.10938 18.5938 4.67188 18.3594 5.14062 17.8906C5.625 17.4062 5.86719 16.8359 5.86719 16.1797C5.86719 15.5078 5.63281 14.9375 5.16406 14.4688C4.69531 13.9844 4.125 13.7422 3.45312 13.7422ZM3.45312 17.375C3.10938 17.375 2.82031 17.2578 2.58594 17.0234C2.35156 16.7891 2.23438 16.5078 2.23438 16.1797C2.23438 15.8359 2.35156 15.5469 2.58594 15.3125C2.82031 15.0781 3.10938 14.9609 3.45312 14.9609C3.78125 14.9609 4.0625 15.0781 4.29688 15.3125C4.53125 15.5469 4.64844 15.8359 4.64844 16.1797C4.64844 16.5078 4.53125 16.7891 4.29688 17.0234C4.0625 17.2578 3.78125 17.375 3.45312 17.375ZM10.7656 13.0391C10.0156 13.0391 9.36719 13.3125 8.82031 13.8594C8.28906 14.3906 8.02344 15.0312 8.02344 15.7812C8.02344 16.5469 8.28906 17.1953 8.82031 17.7266C9.36719 18.2578 10.0156 18.5234 10.7656 18.5234C11.5156 18.5234 12.1562 18.2578 12.6875 17.7266C13.2344 17.1953 13.5078 16.5469 13.5078 15.7812C13.5078 15.0312 13.2344 14.3906 12.6875 13.8594C12.1562 13.3125 11.5156 13.0391 10.7656 13.0391ZM10.7656 17.1641C10.3906 17.1641 10.0625 17.0312 9.78125 16.7656C9.51562 16.5 9.38281 16.1719 9.38281 15.7812C9.38281 15.4062 9.51562 15.0859 9.78125 14.8203C10.0625 14.5391 10.3906 14.3984 10.7656 14.3984C11.1406 14.3984 11.4609 14.5391 11.7266 14.8203C12.0078 15.0859 12.1484 15.4062 12.1484 15.7812C12.1484 16.1719 12.0078 16.5 11.7266 16.7656C11.4609 17.0312 11.1406 17.1641 10.7656 17.1641Z" fill="#5449B7"/>
</svg>
