<svg width="20" height="17" viewBox="0 0 20 17" fill="none" xmlns="http://www.w3.org/2000/svg">
<path d="M8.67 9.02C8.45 9.01 8.23 9 8 9C5.58 9 3.32 9.67 1.39 10.82C0.51 11.34 0 12.32 0 13.35V15C0 15.55 0.45 16 1 16H9.26C8.47 14.87 8 13.49 8 12C8 10.93 8.25 9.93 8.67 9.02Z" fill="#727CAF"/>
<path d="M8 8C10.2091 8 12 6.20914 12 4C12 1.79086 10.2091 0 8 0C5.79086 0 4 1.79086 4 4C4 6.20914 5.79086 8 8 8Z" fill="#727CAF"/>
<path d="M18.7499 12C18.7499 11.78 18.7199 11.58 18.6899 11.37L19.5299 10.64C19.7099 10.48 19.7499 10.22 19.6299 10.01L19.0399 8.99001C18.9199 8.78001 18.6699 8.69001 18.4499 8.77001L17.3899 9.13001C17.0699 8.86001 16.7099 8.65001 16.3099 8.50001L16.0899 7.41001C16.0399 7.18001 15.8399 7.01001 15.5999 7.01001H14.4199C14.1799 7.01001 13.9799 7.18001 13.9299 7.41001L13.7099 8.50001C13.3099 8.65001 12.9499 8.86001 12.6299 9.13001L11.5699 8.77001C11.3399 8.69001 11.0999 8.79001 10.9799 8.99001L10.3899 10.01C10.2699 10.22 10.3099 10.48 10.4899 10.64L11.3299 11.37C11.2999 11.58 11.2699 11.78 11.2699 12C11.2699 12.22 11.2999 12.42 11.3299 12.63L10.4899 13.36C10.3099 13.52 10.2699 13.78 10.3899 13.99L10.9799 15.01C11.0999 15.22 11.3499 15.31 11.5699 15.23L12.6299 14.87C12.9499 15.14 13.3099 15.35 13.7099 15.5L13.9299 16.59C13.9799 16.82 14.1799 16.99 14.4199 16.99H15.5999C15.8399 16.99 16.0399 16.82 16.0899 16.59L16.3099 15.5C16.7099 15.35 17.0699 15.14 17.3899 14.87L18.4499 15.23C18.6799 15.31 18.9199 15.21 19.0399 15.01L19.6299 13.99C19.7499 13.78 19.7099 13.52 19.5299 13.36L18.6899 12.63C18.7199 12.42 18.7499 12.22 18.7499 12ZM14.9999 14C13.8999 14 12.9999 13.1 12.9999 12C12.9999 10.9 13.8999 10 14.9999 10C16.0999 10 16.9999 10.9 16.9999 12C16.9999 13.1 16.0999 14 14.9999 14Z" fill="#727CAF"/>
</svg>
