<svg width="24" height="20" viewBox="0 0 24 20" fill="none" xmlns="http://www.w3.org/2000/svg">
<path d="M7.53516 4.14844H22.2773C22.5039 4.14844 22.6953 4.07031 22.8516 3.91406C23.0078 3.75781 23.0859 3.56641 23.0859 3.33984C23.0859 3.11328 23.0078 2.92187 22.8516 2.76562C22.6953 2.60938 22.5039 2.53125 22.2773 2.53125H7.53516C7.30859 2.53125 7.11719 2.60938 6.96094 2.76562C6.80469 2.92187 6.72656 3.11328 6.72656 3.33984C6.72656 3.56641 6.80469 3.75781 6.96094 3.91406C7.11719 4.07031 7.30859 4.14844 7.53516 4.14844ZM7.53516 10.8164H22.2773C22.5039 10.8164 22.6953 10.7422 22.8516 10.5938C23.0078 10.4375 23.0859 10.2422 23.0859 10.0078C23.0859 9.78125 23.0078 9.59375 22.8516 9.44531C22.6953 9.28906 22.5039 9.21094 22.2773 9.21094H7.53516C7.30859 9.21094 7.11719 9.28906 6.96094 9.44531C6.80469 9.59375 6.72656 9.78125 6.72656 10.0078C6.72656 10.2422 6.80469 10.4375 6.96094 10.5938C7.11719 10.7422 7.30859 10.8164 7.53516 10.8164ZM7.53516 17.4844H22.2773C22.5039 17.4844 22.6953 17.4102 22.8516 17.2617C23.0078 17.1055 23.0859 16.9141 23.0859 16.6875C23.0859 16.4531 23.0078 16.2617 22.8516 16.1133C22.6953 15.957 22.5039 15.8789 22.2773 15.8789H7.53516C7.30859 15.8789 7.11719 15.957 6.96094 16.1133C6.80469 16.2617 6.72656 16.4531 6.72656 16.6875C6.72656 16.9141 6.80469 17.1055 6.96094 17.2617C7.11719 17.4102 7.30859 17.4844 7.53516 17.4844ZM3.25781 5.57812C3.46875 5.57812 3.63672 5.52344 3.76172 5.41406C3.88672 5.29688 3.94922 5.12109 3.94922 4.88672V1.30078C3.94922 1.07422 3.875 0.894531 3.72656 0.761719C3.58594 0.628906 3.40234 0.5625 3.17578 0.5625C2.98828 0.5625 2.82812 0.59375 2.69531 0.65625C2.5625 0.71875 2.42969 0.792969 2.29688 0.878906L1.51172 1.42969C1.28516 1.57813 1.17188 1.75 1.17188 1.94531C1.17188 2.08594 1.21484 2.19922 1.30078 2.28516C1.39453 2.37109 1.50781 2.41406 1.64062 2.41406C1.71094 2.41406 1.76953 2.40625 1.81641 2.39062C1.86328 2.375 1.93359 2.33203 2.02734 2.26172L2.55469 1.88672H2.56641V4.88672C2.56641 5.12109 2.62891 5.29688 2.75391 5.41406C2.88672 5.52344 3.05469 5.57812 3.25781 5.57812ZM1.51172 12.2344H4.32422C4.47266 12.2344 4.59375 12.1914 4.6875 12.1055C4.78906 12.0117 4.83984 11.8867 4.83984 11.7305C4.83984 11.5742 4.78906 11.4492 4.6875 11.3555C4.59375 11.2617 4.47266 11.2148 4.32422 11.2148H2.71875V11.1914L3.63281 10.418C4.01562 10.1133 4.28516 9.84766 4.44141 9.62109C4.60547 9.39453 4.6875 9.125 4.6875 8.8125C4.6875 8.38281 4.51562 8.03125 4.17188 7.75781C3.82812 7.48438 3.36719 7.34766 2.78906 7.34766C2.26562 7.34766 1.83594 7.47266 1.5 7.72266C1.17188 7.96484 1.00781 8.25781 1.00781 8.60156C1.00781 8.95312 1.19531 9.12891 1.57031 9.12891C1.82031 9.12891 2.00391 9.01562 2.12109 8.78906C2.27734 8.50781 2.50781 8.36719 2.8125 8.36719C2.98438 8.36719 3.12109 8.41797 3.22266 8.51953C3.33203 8.62109 3.38672 8.75 3.38672 8.90625C3.38672 9.04688 3.33594 9.1875 3.23438 9.32812C3.14062 9.46094 2.95703 9.64453 2.68359 9.87891L1.23047 11.0859C1.03516 11.25 0.9375 11.4453 0.9375 11.6719C0.9375 11.8359 0.988281 11.9727 1.08984 12.082C1.19922 12.1836 1.33984 12.2344 1.51172 12.2344ZM2.8125 19.1133C3.45312 19.1133 3.95312 18.9766 4.3125 18.7031C4.67969 18.4375 4.86328 18.0742 4.86328 17.6133C4.86328 17.3164 4.76172 17.0703 4.55859 16.875C4.35547 16.6719 4.0625 16.5547 3.67969 16.5234V16.5C3.96094 16.4453 4.19531 16.3242 4.38281 16.1367C4.57812 15.9492 4.67578 15.6992 4.67578 15.3867C4.67578 14.9727 4.49609 14.6562 4.13672 14.4375C3.78516 14.2188 3.33984 14.1094 2.80078 14.1094C2.51953 14.1094 2.24219 14.1523 1.96875 14.2383C1.69531 14.3242 1.46875 14.4492 1.28906 14.6133C1.11719 14.7773 1.03125 14.9766 1.03125 15.2109C1.03125 15.3594 1.07812 15.4844 1.17188 15.5859C1.27344 15.6797 1.40234 15.7266 1.55859 15.7266C1.67578 15.7266 1.76953 15.7031 1.83984 15.6562C1.91016 15.6094 1.98047 15.543 2.05078 15.457C2.17578 15.3164 2.29297 15.2188 2.40234 15.1641C2.51953 15.1094 2.65234 15.082 2.80078 15.082C2.98047 15.082 3.12891 15.125 3.24609 15.2109C3.36328 15.2969 3.42188 15.4258 3.42188 15.5977C3.42188 15.7539 3.35547 15.875 3.22266 15.9609C3.09766 16.0469 2.91797 16.0898 2.68359 16.0898H2.54297C2.21484 16.0898 2.05078 16.2422 2.05078 16.5469C2.05078 16.8516 2.21484 17.0039 2.54297 17.0039H2.69531C3.21875 17.0039 3.48047 17.1797 3.48047 17.5312C3.48047 17.6953 3.41797 17.8281 3.29297 17.9297C3.16797 18.0234 3.00781 18.0703 2.8125 18.0703C2.61719 18.0703 2.44531 18.0273 2.29688 17.9414C2.15625 17.8477 2.03516 17.7461 1.93359 17.6367C1.87109 17.5742 1.80469 17.5234 1.73438 17.4844C1.67188 17.4453 1.59375 17.4258 1.5 17.4258C1.32031 17.4258 1.17578 17.4727 1.06641 17.5664C0.964844 17.6602 0.914062 17.7891 0.914062 17.9531C0.914062 18.3281 1.11719 18.6133 1.52344 18.8086C1.9375 19.0117 2.36719 19.1133 2.8125 19.1133Z" fill="#5449B7"/>
</svg>
