<svg width="12" height="14" viewBox="0 0 12 14" fill="none" xmlns="http://www.w3.org/2000/svg">
<path d="M8.66667 7.66667H6.66667C6.3 7.66667 6 7.96667 6 8.33334V10.3333C6 10.7 6.3 11 6.66667 11H8.66667C9.03333 11 9.33333 10.7 9.33333 10.3333V8.33334C9.33333 7.96667 9.03333 7.66667 8.66667 7.66667ZM8.66667 1V1.66667H3.33333V1C3.33333 0.633336 3.03333 0.333336 2.66667 0.333336C2.3 0.333336 2 0.633336 2 1V1.66667H1.33333C0.593333 1.66667 0.00666666 2.26667 0.00666666 3L0 12.3333C0 13.0667 0.593333 13.6667 1.33333 13.6667H10.6667C11.4 13.6667 12 13.0667 12 12.3333V3C12 2.26667 11.4 1.66667 10.6667 1.66667H10V1C10 0.633336 9.7 0.333336 9.33333 0.333336C8.96667 0.333336 8.66667 0.633336 8.66667 1ZM10 12.3333H2C1.63333 12.3333 1.33333 12.0333 1.33333 11.6667V5H10.6667V11.6667C10.6667 12.0333 10.3667 12.3333 10 12.3333Z" fill="#76767B"/>
</svg>
