<svg width="40" height="40" viewBox="0 0 40 40" fill="none" xmlns="http://www.w3.org/2000/svg">
<rect width="40" height="40" rx="3.63636" fill="white"/>
<rect width="40" height="40" rx="3.63636" fill="#F6F0ED"/>
<g clip-path="url(#clip0_5742_139074)">
<path d="M14.0069 29.0908H25.9736C28.0453 29.0908 29.0712 28.0648 29.0712 26.0325V13.987C29.0712 11.9547 28.0453 10.9287 25.9736 10.9287H14.0069C11.945 10.9287 10.9092 11.9448 10.9092 13.987V26.0325C10.9092 28.0747 11.945 29.0908 14.0069 29.0908ZM14.0266 27.5025C13.0401 27.5025 12.4975 26.9796 12.4975 25.9536V14.0659C12.4975 13.0399 13.0401 12.517 14.0266 12.517H25.9538C26.9305 12.517 27.483 13.0399 27.483 14.0659V25.9536C27.483 26.9796 26.9305 27.5025 25.9538 27.5025H14.0266ZM19.9951 21.7707C20.4687 21.7707 20.735 21.5043 20.7449 20.9914L20.8929 15.7825C20.9027 15.2793 20.5081 14.9044 19.9852 14.9044C19.4526 14.9044 19.0777 15.2695 19.0876 15.7726L19.2158 20.9914C19.2256 21.4944 19.5019 21.7707 19.9951 21.7707ZM19.9951 24.9769C20.5574 24.9769 21.0507 24.5231 21.0507 23.9509C21.0507 23.3787 20.5673 22.925 19.9951 22.925C19.4131 22.925 18.9297 23.3886 18.9297 23.9509C18.9297 24.5133 19.4229 24.9769 19.9951 24.9769Z" fill="#FF5722"/>
</g>
<defs>
<clipPath id="clip0_5742_139074">
<rect width="18.162" height="18.1818" fill="white" transform="translate(10.9092 10.9092)"/>
</clipPath>
</defs>
</svg>
