<svg width="14" height="13" viewBox="0 0 16 16" fill="none" xmlns="http://www.w3.org/2000/svg">
<path d="M14.448 12.1135L11.3014 8.96682C10.9814 8.64682 10.6414 8.57349 10.248 8.57349L8.55469 10.2668C8.55469 10.6602 8.62802 11.0068 8.94802 11.3202L12.0947 14.4668C12.3547 14.7268 12.7747 14.7268 13.0347 14.4668L14.448 13.0535C14.708 12.8002 14.708 12.3735 14.448 12.1135Z" fill="#76767B"/>
<path d="M11.087 6.32671C11.347 6.58671 11.767 6.58671 12.027 6.32671L12.5004 5.85338L13.9137 7.26671C14.6937 6.48671 14.6937 5.22004 13.9137 4.44004L12.027 2.55338C11.767 2.29338 11.347 2.29338 11.087 2.55338L10.6137 3.02671V1.33338C10.6137 0.920045 10.107 0.700045 9.80703 1.00004L8.1137 2.69338C7.8137 2.99338 8.0337 3.50004 8.44703 3.50004H10.1404L9.66703 3.97338C9.40703 4.23338 9.40703 4.65338 9.66703 4.91338L9.90036 5.14671L7.9737 7.07338L5.2337 4.32004V3.65338C5.2337 3.47338 5.16036 3.30671 5.04036 3.18004L3.6937 1.82671C3.4337 1.56671 3.0137 1.56671 2.7537 1.82671L1.80703 2.77338C1.54703 3.03338 1.54703 3.45338 1.80703 3.71338L3.1537 5.06671C3.28036 5.19338 3.44703 5.26004 3.62703 5.26004H4.2937L7.04703 8.01338L6.48036 8.58004H5.6137C5.26036 8.58004 4.92036 8.72004 4.6737 8.97338L1.52703 12.12C1.26703 12.38 1.26703 12.8 1.52703 13.06L2.94036 14.4734C3.20036 14.7334 3.62036 14.7334 3.88036 14.4734L7.02703 11.3267C7.28036 11.0734 7.42036 10.74 7.42036 10.3867V9.52671L10.8537 6.09338L11.087 6.32671Z" fill="#76767B"/>
</svg>
