<svg width="14" height="14" viewBox="0 0 14 14" fill="none" xmlns="http://www.w3.org/2000/svg">
<path d="M6.99301 0.333328C3.31301 0.333328 0.333008 3.31999 0.333008 6.99999C0.333008 10.68 3.31301 13.6667 6.99301 13.6667C10.6797 13.6667 13.6663 10.68 13.6663 6.99999C13.6663 3.31999 10.6797 0.333328 6.99301 0.333328ZM6.99967 12.3333C4.05301 12.3333 1.66634 9.94666 1.66634 6.99999C1.66634 4.05333 4.05301 1.66666 6.99967 1.66666C9.94634 1.66666 12.333 4.05333 12.333 6.99999C12.333 9.94666 9.94634 12.3333 6.99967 12.3333ZM6.85301 3.66666H6.81301C6.54634 3.66666 6.33301 3.87999 6.33301 4.14666V7.29333C6.33301 7.52666 6.45301 7.74666 6.65967 7.86666L9.42634 9.52666C9.65301 9.65999 9.94634 9.59333 10.0797 9.36666C10.2197 9.13999 10.1463 8.83999 9.91301 8.70666L7.33301 7.17333V4.14666C7.33301 3.87999 7.11967 3.66666 6.85301 3.66666Z" fill="#76767B"/>
</svg>
