<svg width="10" height="11" viewBox="0 0 10 11" fill="none" xmlns="http://www.w3.org/2000/svg">
<path d="M4.61325 0.613145L0.846585 3.30648C0.526585 3.53314 0.333252 3.89981 0.333252 4.29315C0.333252 5.28648 1.45325 5.85981 2.25992 5.28648L4.99992 3.33314L7.73992 5.28648C8.54659 5.86648 9.66659 5.28648 9.66659 4.29314C9.66659 3.89981 9.47325 3.52648 9.15325 3.29981L5.38659 0.606478C5.15325 0.446478 4.84659 0.446479 4.61325 0.613145Z" fill="#76767B"/>
<path d="M4.61325 5.27989L0.846585 7.96656C0.526585 8.19989 0.333252 8.56656 0.333252 8.95989C0.333252 9.95323 1.45325 10.5332 2.25992 9.95323L4.99992 7.99989L7.73992 9.95323C8.54659 10.5332 9.66659 9.95323 9.66659 8.95989C9.66659 8.56656 9.47325 8.19323 9.15325 7.96656L5.38659 5.27323C5.15325 5.11323 4.84659 5.11323 4.61325 5.27989Z" fill="#76767B"/>
</svg>
