<svg width="37" height="36" viewBox="0 0 37 36" fill="none" xmlns="http://www.w3.org/2000/svg">
<rect x="0.503906" y="0.5" width="35" height="35" rx="7.5" fill="white"/>
<path d="M8.37891 9.4375C8.37891 9.26562 8.45052 9.10807 8.59375 8.96484C8.73698 8.82161 8.89453 8.75 9.06641 8.75H15.9414C16.1419 8.75 16.2995 8.82161 16.4141 8.96484C16.5573 9.10807 16.6289 9.26562 16.6289 9.4375C16.6289 9.89583 16.3997 10.125 15.9414 10.125H9.06641C8.89453 10.125 8.73698 10.0677 8.59375 9.95312C8.45052 9.8099 8.37891 9.63802 8.37891 9.4375ZM9.75391 11.5H26.2539C26.6549 11.5 26.9844 11.6432 27.2422 11.9297C27.5 12.1875 27.6289 12.5026 27.6289 12.875V15.625C27.6289 16.026 27.5 16.3555 27.2422 16.6133C26.9844 16.8711 26.6549 17 26.2539 17H9.75391C9.38151 17 9.05208 16.8711 8.76562 16.6133C8.50781 16.3555 8.37891 16.026 8.37891 15.625V12.875C8.37891 12.5026 8.50781 12.1875 8.76562 11.9297C9.05208 11.6432 9.38151 11.5 9.75391 11.5ZM9.75391 15.625H26.2539V12.875H9.75391V15.625ZM9.06641 19.75H15.9414C16.1419 19.75 16.2995 19.8216 16.4141 19.9648C16.5573 20.1081 16.6289 20.2656 16.6289 20.4375C16.6289 20.8958 16.3997 21.125 15.9414 21.125H9.06641C8.89453 21.125 8.73698 21.0677 8.59375 20.9531C8.45052 20.8099 8.37891 20.638 8.37891 20.4375C8.37891 20.2656 8.45052 20.1081 8.59375 19.9648C8.73698 19.8216 8.89453 19.75 9.06641 19.75ZM8.37891 23.875C8.37891 23.5026 8.50781 23.1875 8.76562 22.9297C9.05208 22.6432 9.38151 22.5 9.75391 22.5H26.2539C26.6549 22.5 26.9844 22.6432 27.2422 22.9297C27.5 23.1875 27.6289 23.5026 27.6289 23.875V26.625C27.6289 27.026 27.5 27.3555 27.2422 27.6133C26.9844 27.8711 26.6549 28 26.2539 28H9.75391C9.38151 28 9.05208 27.8711 8.76562 27.6133C8.50781 27.3555 8.37891 27.026 8.37891 26.625V23.875ZM9.75391 23.875V26.625H26.2539V23.875H9.75391Z" fill="#3D5AFE"/>
<rect x="0.503906" y="0.5" width="35" height="35" rx="7.5" stroke="#3D5AFE"/>
</svg>
