<svg width="12" height="12" viewBox="0 0 12 12" fill="none" xmlns="http://www.w3.org/2000/svg">
<path d="M0 0.428571C0 0.321429 0.0446429 0.223214 0.133929 0.133929C0.223214 0.0446429 0.321429 0 0.428571 0H4.71429C4.83929 0 4.9375 0.0446429 5.00893 0.133929C5.09821 0.223214 5.14286 0.321429 5.14286 0.428571C5.14286 0.714286 5 0.857143 4.71429 0.857143H0.428571C0.321429 0.857143 0.223214 0.821429 0.133929 0.75C0.0446429 0.660714 0 0.553571 0 0.428571ZM0.857143 1.71429H11.1429C11.3929 1.71429 11.5982 1.80357 11.7589 1.98214C11.9196 2.14286 12 2.33929 12 2.57143V4.28571C12 4.53571 11.9196 4.74107 11.7589 4.90179C11.5982 5.0625 11.3929 5.14286 11.1429 5.14286H0.857143C0.625 5.14286 0.419643 5.0625 0.241071 4.90179C0.0803571 4.74107 0 4.53571 0 4.28571V2.57143C0 2.33929 0.0803571 2.14286 0.241071 1.98214C0.419643 1.80357 0.625 1.71429 0.857143 1.71429ZM0.857143 4.28571H11.1429V2.57143H0.857143V4.28571ZM0.428571 6.85714H4.71429C4.83929 6.85714 4.9375 6.90179 5.00893 6.99107C5.09821 7.08036 5.14286 7.17857 5.14286 7.28571C5.14286 7.57143 5 7.71429 4.71429 7.71429H0.428571C0.321429 7.71429 0.223214 7.67857 0.133929 7.60714C0.0446429 7.51786 0 7.41071 0 7.28571C0 7.17857 0.0446429 7.08036 0.133929 6.99107C0.223214 6.90179 0.321429 6.85714 0.428571 6.85714ZM0 9.42857C0 9.19643 0.0803571 9 0.241071 8.83929C0.419643 8.66071 0.625 8.57143 0.857143 8.57143H11.1429C11.3929 8.57143 11.5982 8.66071 11.7589 8.83929C11.9196 9 12 9.19643 12 9.42857V11.1429C12 11.3929 11.9196 11.5982 11.7589 11.7589C11.5982 11.9196 11.3929 12 11.1429 12H0.857143C0.625 12 0.419643 11.9196 0.241071 11.7589C0.0803571 11.5982 0 11.3929 0 11.1429V9.42857ZM0.857143 9.42857V11.1429H11.1429V9.42857H0.857143Z" fill="#637BFE"/>
</svg>
