<svg width="37" height="36" viewBox="0 0 37 36" fill="none" xmlns="http://www.w3.org/2000/svg">
<rect x="0.00390625" width="36" height="36" rx="8" fill="#3D5AFE"/>
<path fill-rule="evenodd" clip-rule="evenodd" d="M12.0939 6.52604C11.869 6.5549 11.4364 6.70122 11.1828 6.83426C10.546 7.16833 10.0564 7.71999 9.80748 8.38405C9.61034 8.90985 9.61242 8.84703 9.61242 14.3217C9.61242 20.1066 9.58122 19.5894 9.93617 19.6922C10.0409 19.7225 10.1818 19.7473 10.2494 19.7473C10.4128 19.7473 10.697 19.6482 10.757 19.5703C10.7949 19.5211 10.8052 18.4201 10.8057 14.3643C10.8063 8.7537 10.7977 8.97932 11.0256 8.55559C11.2415 8.15419 11.7051 7.80455 12.1559 7.70318C12.2637 7.67894 13.7395 7.66487 16.2381 7.66427L20.1514 7.66336L21.0857 8.56385C22.6926 10.1127 23.9153 11.2896 26.1684 13.4564L28.3486 15.5529L28.3474 21.0746C28.3468 24.1913 28.3309 26.7113 28.311 26.8605C28.2788 27.102 28.2118 27.287 28.0573 27.5605C27.9598 27.7332 27.6333 28.0224 27.399 28.1438C27.2759 28.2075 27.0725 28.278 26.9469 28.3004C26.7889 28.3287 24.8976 28.3412 20.8067 28.3412C16.5728 28.3412 14.8599 28.3531 14.7721 28.3829C14.4462 28.4937 14.3968 29.1512 14.6945 29.4141C14.7737 29.484 14.9288 29.4861 20.6677 29.4966C26.6337 29.5075 27.1174 29.4986 27.4717 29.3706C27.7042 29.2866 28.018 29.1528 28.0408 29.1279C28.0514 29.1164 28.138 29.0627 28.2332 29.0086C28.3755 28.9278 28.6902 28.6469 28.868 28.4419C29.0675 28.2119 29.2305 27.9177 29.3999 27.4817L29.4815 27.2717L29.4927 20.992L29.5039 14.7123L28.469 13.7116C27.8997 13.1612 26.9429 12.2395 26.3428 11.6634C25.7426 11.0873 24.5759 9.96428 23.75 9.16778C22.9242 8.37133 21.9616 7.44525 21.6111 7.10983L20.9737 6.5L16.5915 6.50563C14.1813 6.50871 12.1574 6.5179 12.0939 6.52604ZM18.4611 11.0027C17.6966 11.0871 16.8201 11.2897 16.3644 11.4874C16.1119 11.5969 15.6655 11.808 15.6294 11.8349C15.5867 11.8668 15.6305 12.0963 15.7215 12.3168C15.7428 12.3684 15.8213 12.6049 15.8961 12.8422C15.9708 13.0796 16.0938 13.4648 16.1694 13.6982C16.2449 13.9315 16.3067 14.1459 16.3067 14.1744C16.3067 14.2567 16.3825 14.2806 16.4534 14.2207C16.5359 14.1509 17.0416 13.9131 17.2685 13.8375C17.9469 13.6113 18.8053 13.5612 19.2992 13.719C19.5987 13.8147 19.8468 13.9628 19.9641 14.1158C20.0045 14.1687 20.0518 14.2289 20.069 14.2495C20.1469 14.3427 20.2308 14.6987 20.2299 14.9321C20.2283 15.3879 20.0309 15.8179 19.5011 16.5199C19.3843 16.6748 19.2798 16.8099 19.269 16.8202C19.2582 16.8305 19.1119 17.0078 18.9441 17.2142C18.7762 17.4206 18.6286 17.5979 18.616 17.6083C18.6034 17.6186 18.5268 17.7283 18.4459 17.8522C18.3649 17.976 18.2659 18.1231 18.226 18.1791C18.1861 18.235 18.1534 18.2883 18.1534 18.2976C18.1534 18.307 18.0949 18.4385 18.0234 18.59C17.6708 19.3374 17.5724 19.8668 17.6077 20.8267L17.6233 21.2493L19.1291 21.2395L20.6348 21.2297L20.6564 20.6855C20.6774 20.1565 20.7136 19.9647 20.8761 19.5222C20.948 19.3266 21.1776 18.8928 21.2551 18.8062C21.2843 18.7736 21.3081 18.7333 21.3081 18.7165C21.3081 18.6722 21.7891 18.0968 22.0583 17.8191C22.1617 17.7124 22.5123 17.3125 22.5881 17.2148C22.6043 17.1938 22.6534 17.1345 22.6972 17.0829C22.9225 16.8172 23.3331 16.1262 23.4895 15.7492C23.6519 15.3579 23.7105 14.9999 23.7103 14.3996C23.7101 13.7356 23.6511 13.4493 23.4125 12.9548C23.0289 12.1599 22.2462 11.5204 21.3081 11.2356C20.7877 11.0777 20.6199 11.0433 20.0925 10.9866C19.435 10.9159 19.2291 10.9179 18.4611 11.0027ZM9.88173 20.6852C9.17052 20.7774 8.27599 21.2363 7.68852 21.8106C6.80615 22.6729 6.39707 23.8236 6.52776 25.0755C6.56677 25.4493 6.69265 25.9744 6.76633 26.0708C6.7821 26.0914 6.80707 26.1632 6.82177 26.2303C6.83646 26.2974 6.86443 26.3523 6.8839 26.3523C6.90341 26.3523 6.91933 26.3765 6.91933 26.4061C6.91933 26.5209 7.41213 27.1745 7.72757 27.4781C7.90989 27.6535 8.08394 27.8143 8.11437 27.8353C8.64633 28.2021 9.25886 28.47 9.78993 28.5681C10.2139 28.6463 10.9291 28.6551 11.2964 28.5865C12.0272 28.4501 12.4744 28.2578 13.1518 27.7886C13.4025 27.615 13.8768 27.095 14.1038 26.745C14.1848 26.6201 14.4454 26.0801 14.5106 25.9019C14.7176 25.337 14.7768 24.3924 14.6401 23.8395C14.5135 23.3276 14.3839 22.9971 14.1667 22.6316C13.7765 21.9751 13.2232 21.4523 12.5363 21.0912C12.219 20.9244 11.6669 20.7374 11.3437 20.6873C11.0652 20.6442 10.2084 20.643 9.88173 20.6852ZM10.7994 21.9848C10.9437 22.0129 11.1517 22.2115 11.2148 22.3815C11.2443 22.461 11.2619 22.7713 11.2638 23.2436L11.2667 23.9815L12.0872 23.9942C12.8886 24.0065 12.911 24.0089 13.0496 24.1006C13.3347 24.289 13.4323 24.743 13.2415 24.9924C13.0535 25.2379 13.0304 25.2435 12.1201 25.264L11.286 25.2827L11.2666 26.052C11.2465 26.8505 11.2253 26.9642 11.0645 27.1316C10.8612 27.3433 10.397 27.3516 10.1766 27.1476C9.98541 26.9706 9.97891 26.939 9.95867 26.0896L9.93944 25.2827L9.11228 25.264C8.55981 25.2514 8.2576 25.2298 8.20228 25.1989C8.15677 25.1735 8.06586 25.0866 8.0003 25.0059C7.89765 24.8794 7.88119 24.8287 7.88142 24.6393C7.88165 24.4141 7.93628 24.2897 8.10052 24.1405C8.23525 24.0181 8.45266 23.9884 9.21808 23.9882L9.95867 23.988V23.2609C9.95867 22.861 9.96937 22.4816 9.98249 22.4177C10.0081 22.2927 10.2245 22.051 10.3578 21.9985C10.4575 21.9592 10.6393 21.9535 10.7994 21.9848ZM18.5573 22.3523C18.4304 22.3774 18.2313 22.4426 18.1149 22.4971C17.8979 22.5986 17.5055 22.8907 17.5015 22.9536C17.5003 22.9729 17.4659 23.0235 17.425 23.0662C17.2718 23.2258 17.1231 23.5908 17.0647 23.9505C17.0133 24.2672 17.0133 24.3468 17.0643 24.6635C17.1191 25.0028 17.2798 25.4101 17.4261 25.5803C17.6212 25.8073 17.8628 25.998 18.0956 26.1087C18.3487 26.2292 18.8349 26.3523 19.0575 26.3523C19.2827 26.3523 19.7678 26.2285 20.0314 26.1037C20.4846 25.8892 20.7573 25.5814 20.9752 25.0388C21.0456 24.8635 21.058 24.7561 21.0577 24.3258C21.0573 23.8912 21.0446 23.7847 20.9682 23.5772C20.6177 22.6261 19.6522 22.1356 18.5573 22.3523Z" fill="white"/>
</svg>
