<svg width="37" height="36" viewBox="0 0 37 36" fill="none" xmlns="http://www.w3.org/2000/svg">
<rect x="0.00390625" width="36" height="36" rx="8" fill="#3D5AFE"/>
<path d="M18.0039 7.375C19.5221 7.375 20.9544 7.66146 22.3008 8.23438C23.6471 8.80729 24.8073 9.59505 25.7812 10.5977C26.7839 11.5716 27.5716 12.7318 28.1445 14.0781C28.7174 15.4245 29.0039 16.8568 29.0039 18.375C29.0039 19.8932 28.7174 21.3255 28.1445 22.6719C27.5716 23.9896 26.7839 25.1497 25.7812 26.1523C24.8073 27.1549 23.6471 27.9427 22.3008 28.5156C20.9544 29.0885 19.5221 29.375 18.0039 29.375C16.4857 29.375 15.0534 29.0885 13.707 28.5156C12.3893 27.9427 11.2292 27.1549 10.2266 26.1523C9.22396 25.1497 8.4362 23.9896 7.86328 22.6719C7.29036 21.3255 7.00391 19.8932 7.00391 18.375C7.00391 16.8568 7.29036 15.4245 7.86328 14.0781C8.4362 12.7318 9.22396 11.5716 10.2266 10.5977C11.2292 9.59505 12.3893 8.80729 13.707 8.23438C15.0534 7.66146 16.4857 7.375 18.0039 7.375ZM18.0039 28C19.3216 28 20.5677 27.7565 21.7422 27.2695C22.9167 26.7539 23.9336 26.0664 24.793 25.207C25.681 24.319 26.3685 23.2878 26.8555 22.1133C27.3711 20.9388 27.6289 19.6927 27.6289 18.375C27.6289 17.0573 27.3711 15.8112 26.8555 14.6367C26.3685 13.4622 25.681 12.4453 24.793 11.5859C23.9336 10.6979 22.9167 10.0104 21.7422 9.52344C20.5677 9.00781 19.3216 8.75 18.0039 8.75C16.6862 8.75 15.4401 9.00781 14.2656 9.52344C13.0911 10.0104 12.0599 10.6979 11.1719 11.5859C10.3125 12.4453 9.625 13.4622 9.10938 14.6367C8.6224 15.8112 8.37891 17.0573 8.37891 18.375C8.37891 19.6927 8.6224 20.9388 9.10938 22.1133C9.625 23.2878 10.3125 24.319 11.1719 25.207C12.0599 26.0664 13.0911 26.7539 14.2656 27.2695C15.4401 27.7565 16.6862 28 18.0039 28ZM17.875 11.8438C19.1068 11.8438 20.0807 12.1589 20.7969 12.7891C21.5417 13.3906 21.9141 14.1784 21.9141 15.1523C21.9141 15.7826 21.7279 16.3125 21.3555 16.7422C20.9831 17.1432 20.625 17.5443 20.2812 17.9453C20.0521 18.2031 19.8372 18.418 19.6367 18.5898C19.4362 18.7617 19.2643 18.9622 19.1211 19.1914C19.0065 19.3919 18.9206 19.6068 18.8633 19.8359C18.8346 20.0651 18.8203 20.2799 18.8203 20.4805C18.8203 20.6523 18.8346 20.8672 18.8633 21.125H16.7578C16.7578 20.6667 16.7578 20.2799 16.7578 19.9648C16.7865 19.6211 16.8581 19.3203 16.9727 19.0625C17.0872 18.776 17.2591 18.5039 17.4883 18.2461C17.7174 17.9883 18.0326 17.6875 18.4336 17.3438L19.3359 16.6133C19.5365 16.4701 19.737 16.2409 19.9375 15.9258C20.138 15.6107 20.2383 15.3099 20.2383 15.0234C20.2383 14.5938 20.0234 14.1784 19.5938 13.7773C19.1927 13.3763 18.6628 13.1758 18.0039 13.1758C17.3451 13.1758 16.8008 13.3906 16.3711 13.8203C15.9414 14.2214 15.6693 14.7513 15.5547 15.4102H13.4492C13.4492 15.0091 13.5495 14.5938 13.75 14.1641C13.9792 13.7344 14.2799 13.3477 14.6523 13.0039C15.0534 12.6602 15.526 12.388 16.0703 12.1875C16.6146 11.9583 17.2161 11.8438 17.875 11.8438ZM18.0039 22.5C18.4049 22.5 18.7344 22.6289 18.9922 22.8867C19.25 23.1445 19.3789 23.474 19.3789 23.875C19.3789 24.2474 19.25 24.5768 18.9922 24.8633C18.7344 25.1211 18.4049 25.25 18.0039 25.25C17.6315 25.25 17.3021 25.1211 17.0156 24.8633C16.7578 24.5768 16.6289 24.2474 16.6289 23.875C16.6289 23.474 16.7578 23.1445 17.0156 22.8867C17.3021 22.6289 17.6315 22.5 18.0039 22.5Z" fill="white"/>
</svg>
