<svg width="17" height="16" viewBox="0 0 17 16" fill="none" xmlns="http://www.w3.org/2000/svg">
<path d="M6.2876 15.0801H10.77C11.7148 15.0801 12.2275 14.7651 12.7329 14.2012L15.5527 11.0591C16.0654 10.4951 16.1973 10.1216 16.1973 9.35254V6.07861C16.1973 5.30957 16.0435 4.95068 15.5234 4.37207L12.7329 1.22266C12.2349 0.666016 11.7148 0.351074 10.77 0.351074H6.2876C5.34277 0.351074 4.8374 0.666016 4.33203 1.22266L1.50488 4.37207C0.999512 4.93604 0.867676 5.30957 0.867676 6.07861V9.35254C0.867676 10.1216 0.999512 10.4951 1.50488 11.0591L4.33203 14.2012C4.8374 14.7651 5.34277 15.0801 6.2876 15.0801ZM8.53613 8.979C8.11133 8.979 7.8623 8.7373 7.85498 8.30518L7.74512 4.61377C7.73047 4.16699 8.06006 3.85205 8.52881 3.85205C8.99756 3.85205 9.33447 4.17432 9.31982 4.62109L9.20996 8.30518C9.19531 8.74463 8.95361 8.979 8.53613 8.979ZM8.53613 11.4985C8.04541 11.4985 7.64258 11.147 7.64258 10.6636C7.64258 10.1875 8.04541 9.82861 8.53613 9.82861C9.03418 9.82861 9.42969 10.1875 9.42969 10.6636C9.42969 11.1543 9.02686 11.4985 8.53613 11.4985Z" fill="white"/>
</svg>
