<svg width="8" height="14" viewBox="0 0 8 14" fill="none" xmlns="http://www.w3.org/2000/svg">
<path d="M0.105957 6.92387C0.105957 7.1729 0.201172 7.3853 0.398926 7.57573L6.11182 13.1641C6.26562 13.3252 6.4707 13.4058 6.70508 13.4058C7.18115 13.4058 7.55469 13.0396 7.55469 12.5562C7.55469 12.3218 7.45947 12.1094 7.29834 11.9483L2.14941 6.92387L7.29834 1.89946C7.45947 1.731 7.55469 1.5186 7.55469 1.28423C7.55469 0.808151 7.18115 0.44194 6.70508 0.44194C6.4707 0.44194 6.26562 0.522507 6.11182 0.68364L0.398926 6.27202C0.201172 6.46245 0.113281 6.67485 0.105957 6.92387Z" fill="#212121"/>
</svg>
