<svg width="17" height="10" viewBox="0 0 17 10" fill="none" xmlns="http://www.w3.org/2000/svg">
<path d="M0.5 5.0001C0.5 2.5681 2.468 0.600098 4.9 0.600098L13.3 0.600098C15.068 0.600098 16.5 2.0321 16.5 3.8001C16.5 5.5681 15.068 7.0001 13.3 7.0001L6.5 7.0001C5.396 7.0001 4.5 6.1041 4.5 5.0001C4.5 3.8961 5.396 3.0001 6.5 3.0001L12.5 3.0001V4.6001L6.428 4.6001C5.988 4.6001 5.988 5.4001 6.428 5.4001L13.3 5.4001C14.18 5.4001 14.9 4.6801 14.9 3.8001C14.9 2.9201 14.18 2.2001 13.3 2.2001L4.9 2.2001C3.356 2.2001 2.1 3.4561 2.1 5.0001C2.1 6.5441 3.356 7.8001 4.9 7.8001L12.5 7.8001V9.4001H4.9C2.468 9.4001 0.5 7.4321 0.5 5.0001Z" fill="white"/>
</svg>
