<svg width="21" height="25" viewBox="0 0 21 25" fill="none" xmlns="http://www.w3.org/2000/svg">
<path d="M0 3.5V2H6.79688C6.79688 2 6.8125 1.92187 6.84375 1.76562C6.875 1.60938 6.96875 1.4375 7.125 1.25C7.28125 1.0625 7.5 0.890625 7.78125 0.734375C8.09375 0.578125 8.5 0.5 9 0.5H12.0469C12.5156 0.5 12.9688 0.625 13.4062 0.875C13.875 1.09375 14.1562 1.46875 14.25 2H21V3.5H0ZM21 5V6.54688H19.5L18 23C18 24 17.5 24.5 16.5 24.5H4.5C3.5 24.5 3 24 3 23L1.5 6.54688H0V5H21ZM4.5 23H16.5L18 6.54688H3L4.5 23ZM12.9844 19.9062L13.9219 9.40625L15.4688 9.54688L14.5312 20.0469L12.9844 19.9062ZM5.53125 9.54688L6.98438 9.40625L7.92188 19.9062L6.46875 20.0469L5.53125 9.54688ZM9.65625 20V9.45312H11.25V20H9.65625Z" fill="black"/>
</svg>
