<svg width="16" height="16" viewBox="0 0 16 16" fill="none" xmlns="http://www.w3.org/2000/svg">
<path d="M15.6992 2.78125C15.8164 2.94531 15.875 3.08594 15.875 3.20312C15.875 3.34375 15.8164 3.47266 15.6992 3.58984L4.27344 15.0508C4.17969 15.1445 4.08594 15.1914 3.99219 15.1914L0.125 16L0.898438 12.1328C0.898438 12.0156 0.945312 11.9102 1.03906 11.8164L12.5 0.390625C12.5938 0.296875 12.7227 0.25 12.8867 0.25C13.0508 0.25 13.1797 0.296875 13.2734 0.390625L15.6992 2.78125ZM14.5039 3.16797L12.8867 1.62109L10.6367 3.87109L12.2188 5.45312L14.5039 3.16797ZM11.4453 6.26172L9.82812 4.67969L1.95312 12.5195L3.57031 14.1367L11.4453 6.26172Z" fill="#ffffff"/>
</svg>
