<svg width="15" height="15" viewBox="0 0 15 15" fill="none" xmlns="http://www.w3.org/2000/svg">
<path d="M12.966 0.426772C13.3749 0.426772 13.6611 0.600551 13.8246 0.948109C14.0086 1.29567 13.9882 1.633 13.7633 1.96012C13.518 2.20545 13.2829 2.47123 13.058 2.75745C12.8331 3.00279 12.598 3.27879 12.3526 3.58546C12.1073 3.89213 11.8415 4.1988 11.5553 4.50547C10.9011 5.24147 10.1548 6.0797 9.31661 7.02015C9.13261 7.20415 9.04061 7.43926 9.04061 7.72549V11.2215L5.94325 14.0122C5.86148 14.1144 5.74903 14.1655 5.60592 14.1655C5.48325 14.1655 5.37081 14.1246 5.26858 14.0429C5.16636 13.9611 5.11525 13.8384 5.11525 13.6749V7.72549C5.11525 7.45971 5.01303 7.22459 4.80858 7.02015L2.60057 4.50547C2.31434 4.1988 2.03834 3.89213 1.77256 3.58546C1.50678 3.27879 1.27167 3.01301 1.06722 2.78812C0.862777 2.54279 0.699221 2.34856 0.576553 2.20545C0.453886 2.04189 0.392552 1.96012 0.392552 1.96012C0.167662 1.633 0.136995 1.29567 0.300552 0.948109C0.484553 0.600551 0.780999 0.426772 1.18989 0.426772H12.966ZM8.61127 6.34548C9.42905 5.42547 10.1548 4.60769 10.7886 3.89213C11.0544 3.58546 11.31 3.28901 11.5553 3.00279C11.8211 2.69612 12.0562 2.43034 12.2606 2.20545C12.4651 1.96012 12.6286 1.76589 12.7513 1.62278C12.8944 1.47967 12.966 1.40811 12.966 1.40811H1.18989C1.18989 1.40811 1.25122 1.48989 1.37389 1.65345C1.49656 1.79656 1.66012 1.98056 1.86456 2.20545C2.06901 2.43034 2.2939 2.69612 2.53923 3.00279C2.80501 3.28901 3.08101 3.58546 3.36724 3.89213C4.00102 4.60769 4.7268 5.42547 5.54459 6.34548C5.91259 6.75437 6.09659 7.21437 6.09659 7.72549V12.5709L8.05927 10.7922V7.72549C8.05927 7.17348 8.24327 6.71348 8.61127 6.34548Z" fill="#2A3EB1"/>
</svg>
