<svg width="40" height="40" viewBox="0 0 40 40" fill="none" xmlns="http://www.w3.org/2000/svg">
<rect width="40" height="40" rx="8" fill="#ECF1F7"/>
<path d="M15.1899 28.9053H24.0054C25.7236 28.9053 26.5786 28.0337 26.5786 26.3071V18.77C26.5786 17.6992 26.4541 17.2344 25.79 16.5537L21.2163 11.897C20.5854 11.2495 20.0625 11.1084 19.1328 11.1084H15.1899C13.48 11.1084 12.6167 11.9883 12.6167 13.7148V26.3071C12.6167 28.042 13.4717 28.9053 15.1899 28.9053ZM15.248 27.5688C14.3931 27.5688 13.9531 27.1123 13.9531 26.2822V13.7397C13.9531 12.918 14.3931 12.4448 15.2563 12.4448H18.9502V17.2676C18.9502 18.3135 19.4731 18.8281 20.5107 18.8281H25.2422V26.2822C25.2422 27.1123 24.8022 27.5688 23.939 27.5688H15.248ZM20.6602 17.5747C20.3281 17.5747 20.2036 17.4419 20.2036 17.1099V12.7021L24.9849 17.5747H20.6602ZM22.6523 21.1191H16.3521C16.0532 21.1191 15.8291 21.3433 15.8291 21.6255C15.8291 21.916 16.0532 22.1401 16.3521 22.1401H22.6523C22.9429 22.1401 23.1587 21.916 23.1587 21.6255C23.1587 21.3433 22.9429 21.1191 22.6523 21.1191ZM22.6523 24.0161H16.3521C16.0532 24.0161 15.8291 24.2485 15.8291 24.5391C15.8291 24.8213 16.0532 25.0371 16.3521 25.0371H22.6523C22.9429 25.0371 23.1587 24.8213 23.1587 24.5391C23.1587 24.2485 22.9429 24.0161 22.6523 24.0161Z" fill="#40464D"/>
</svg>
