<svg width="26" height="26" viewBox="0 0 26 26" fill="none" xmlns="http://www.w3.org/2000/svg">
<path d="M19.524 5.82031L21.7791 4.67187V19.8594L18.42 21.5703L17.4098 21.2188C17.4098 21.2188 17.3629 20.9844 17.2689 20.5157C17.175 20.0313 16.9635 19.5079 16.6347 18.9453C16.3058 18.3829 15.836 17.8594 15.2252 17.375C14.5988 16.9063 13.7532 16.6641 12.6883 16.6485C12.6883 16.6485 12.3594 16.7266 11.7016 16.8829C11.0439 17.0235 10.4723 16.5157 9.98683 15.3594C9.98683 15.3594 9.82239 15.0547 9.49352 14.4453C9.16466 13.836 8.58522 13.5469 7.75521 13.5782C7.75521 13.5782 7.41069 13.3047 6.72163 12.7579C6.04822 12.211 5.02246 11.9297 3.64434 11.9141V4.50781L7.00351 5.96094C7.00351 5.96094 7.16795 6.02343 7.49681 6.14844C7.84134 6.27344 8.22503 6.1875 8.64786 5.89062L9.18814 5.63281C9.18814 5.63281 9.21946 5.42187 9.2821 5C9.34475 4.5625 9.53267 4.04687 9.84588 3.45312L7.82569 4.50781L2 2.04687V20.8907L7.7787 23.3985L12.6883 20.9141L18.42 23.3985L23.4 20.8907V2.04687L19.1717 4.13281C19.1717 4.13281 19.2343 4.36718 19.3596 4.83594C19.4848 5.28906 19.5397 5.61719 19.524 5.82031ZM17.2689 3.21875C16.4702 2.40625 15.4915 2 14.3326 2C13.1894 2 12.2184 2.40625 11.4198 3.21875C10.6054 4.03125 10.1982 5.00781 10.1982 6.14844C10.1982 7.28906 10.6054 8.26562 11.4198 9.07812C11.4198 9.07812 11.5685 9.24218 11.8661 9.57031C12.1793 9.89844 12.516 10.3516 12.8762 10.9297C13.252 11.4922 13.5887 12.1485 13.8863 12.8985C14.1995 13.6329 14.3561 14.4141 14.3561 15.2422C14.3561 14.4141 14.5049 13.6329 14.8024 12.8985C15.1156 12.1485 15.4523 11.4922 15.8125 10.9297C16.1884 10.3516 16.525 9.89844 16.8226 9.57031C17.1358 9.24218 17.2925 9.07812 17.2925 9.07812C18.0911 8.26562 18.4905 7.28906 18.4905 6.14844C18.4905 5.00781 18.0833 4.03125 17.2689 3.21875ZM14.3561 7.8125C13.9019 7.8125 13.5104 7.64844 13.1816 7.32031C12.8527 6.99218 12.6883 6.60156 12.6883 6.14844C12.6883 5.69531 12.8448 5.30468 13.1581 4.97656C13.487 4.64844 13.8863 4.48437 14.3561 4.48437C14.8103 4.48437 15.1939 4.64844 15.5071 4.97656C15.836 5.30468 16.0005 5.69531 16.0005 6.14844C16.0005 6.60156 15.836 6.99218 15.5071 7.32031C15.1939 7.64844 14.8103 7.8125 14.3561 7.8125Z" fill="#25282B"/>
</svg>
