<svg width="14" height="4" viewBox="0 0 14 4" fill="none" xmlns="http://www.w3.org/2000/svg">
<path fill-rule="evenodd" clip-rule="evenodd" d="M3.66659 1.99999C3.66659 1.08332 2.91659 0.333323 1.99992 0.333323C1.08325 0.333323 0.333252 1.08332 0.333252 1.99999C0.333252 2.91666 1.08325 3.66666 1.99992 3.66666C2.91659 3.66666 3.66659 2.91666 3.66659 1.99999ZM5.33325 1.99999C5.33325 2.91666 6.08325 3.66666 6.99992 3.66666C7.91659 3.66666 8.66659 2.91666 8.66659 1.99999C8.66659 1.08332 7.91659 0.333323 6.99992 0.333323C6.08325 0.333323 5.33325 1.08332 5.33325 1.99999ZM10.3333 1.99999C10.3333 2.91666 11.0833 3.66666 11.9999 3.66666C12.9166 3.66666 13.6666 2.91666 13.6666 1.99999C13.6666 1.08332 12.9166 0.333323 11.9999 0.333323C11.0833 0.333323 10.3333 1.08332 10.3333 1.99999Z" fill="#848F94"/>
</svg>
