<svg width="16" height="14" viewBox="0 0 16 14" fill="none" xmlns="http://www.w3.org/2000/svg">
<path d="M13.75 10.9955C13.099 10.9955 12.549 11.4145 12.342 11.9955H3.25C2.147 11.9955 1.25 11.0985 1.25 9.99548C1.25 8.89248 2.147 7.99548 3.25 7.99548H12.25C13.904 7.99548 15.25 6.64948 15.25 4.99548C15.25 3.34148 13.904 1.99548 12.25 1.99548H3.158C2.951 1.41448 2.401 0.995483 1.75 0.995483C0.923 0.995483 0.25 1.66848 0.25 2.49548C0.25 3.32248 0.923 3.99548 1.75 3.99548C2.401 3.99548 2.951 3.57648 3.158 2.99548H12.25C13.353 2.99548 14.25 3.89248 14.25 4.99548C14.25 6.09848 13.353 6.99548 12.25 6.99548H3.25C1.596 6.99548 0.25 8.34148 0.25 9.99548C0.25 11.6495 1.596 12.9955 3.25 12.9955H12.342C12.549 13.5765 13.099 13.9955 13.75 13.9955C14.577 13.9955 15.25 13.3225 15.25 12.4955C15.25 11.6685 14.577 10.9955 13.75 10.9955ZM1.75 2.99548C1.474 2.99548 1.25 2.77148 1.25 2.49548C1.25 2.21948 1.474 1.99548 1.75 1.99548C2.026 1.99548 2.25 2.21948 2.25 2.49548C2.25 2.77148 2.026 2.99548 1.75 2.99548ZM13.75 12.9955C13.474 12.9955 13.25 12.7715 13.25 12.4955C13.25 12.2195 13.474 11.9955 13.75 11.9955C14.026 11.9955 14.25 12.2195 14.25 12.4955C14.25 12.7715 14.026 12.9955 13.75 12.9955Z" fill="#757575"/>
</svg>
