<svg width="16" height="14" viewBox="0 0 16 14" fill="none" xmlns="http://www.w3.org/2000/svg">
<path d="M13.75 10.9956C13.099 10.9956 12.549 11.4146 12.342 11.9956H3.25C2.147 11.9956 1.25 11.0986 1.25 9.99561C1.25 8.89261 2.147 7.99561 3.25 7.99561H12.25C13.904 7.99561 15.25 6.64961 15.25 4.99561C15.25 3.34161 13.904 1.99561 12.25 1.99561H3.158C2.951 1.41461 2.401 0.995605 1.75 0.995605C0.923 0.995605 0.25 1.66861 0.25 2.49561C0.25 3.32261 0.923 3.99561 1.75 3.99561C2.401 3.99561 2.951 3.57661 3.158 2.99561H12.25C13.353 2.99561 14.25 3.89261 14.25 4.99561C14.25 6.09861 13.353 6.99561 12.25 6.99561H3.25C1.596 6.99561 0.25 8.34161 0.25 9.99561C0.25 11.6496 1.596 12.9956 3.25 12.9956H12.342C12.549 13.5766 13.099 13.9956 13.75 13.9956C14.577 13.9956 15.25 13.3226 15.25 12.4956C15.25 11.6686 14.577 10.9956 13.75 10.9956ZM1.75 2.99561C1.474 2.99561 1.25 2.77161 1.25 2.49561C1.25 2.21961 1.474 1.99561 1.75 1.99561C2.026 1.99561 2.25 2.21961 2.25 2.49561C2.25 2.77161 2.026 2.99561 1.75 2.99561ZM13.75 12.9956C13.474 12.9956 13.25 12.7716 13.25 12.4956C13.25 12.2196 13.474 11.9956 13.75 11.9956C14.026 11.9956 14.25 12.2196 14.25 12.4956C14.25 12.7716 14.026 12.9956 13.75 12.9956Z" fill="white"/>
</svg>
