<svg width="18" height="17" viewBox="0 0 18 17" fill="none" xmlns="http://www.w3.org/2000/svg">
<path fill-rule="evenodd" clip-rule="evenodd" d="M17.0684 5.47266C17.0684 5.93848 16.8223 6.19336 16.3564 6.19336C15.9082 6.19336 15.6533 5.93848 15.6533 5.47266V3.39844C15.6533 2.48438 15.1523 2.01855 14.2822 2.01855H12.1553C11.6982 2.01855 11.4434 1.76367 11.4434 1.30664C11.4434 0.858398 11.6982 0.603516 12.1553 0.603516H14.3086C16.1455 0.603516 17.0684 1.50879 17.0684 3.31934V5.47266ZM2.34668 5.47266C2.34668 5.93848 2.10059 6.19336 1.63477 6.19336C1.18652 6.19336 0.931641 5.93848 0.931641 5.47266V3.31934C0.931641 1.50879 1.85449 0.603516 3.69141 0.603516H5.83594C6.30176 0.603516 6.55664 0.858398 6.55664 1.30664C6.55664 1.76367 6.30176 2.01855 5.83594 2.01855H3.70898C2.83008 2.01855 2.34668 2.48438 2.34668 3.39844V5.47266ZM5.83594 16.7314H3.69141C1.85449 16.7314 0.931641 15.8262 0.931641 14.0068V11.8623C0.931641 11.3965 1.17773 11.1416 1.63477 11.1416C2.0918 11.1416 2.34668 11.3965 2.34668 11.8623V13.9365C2.34668 14.8506 2.83008 15.3164 3.70898 15.3164H5.83594C6.30176 15.3164 6.55664 15.5713 6.55664 16.0283C6.55664 16.4766 6.30176 16.7314 5.83594 16.7314ZM14.3086 16.7314H12.1553C11.6982 16.7314 11.4434 16.4766 11.4434 16.0283C11.4434 15.5713 11.6982 15.3164 12.1553 15.3164H14.2822C15.1523 15.3164 15.6533 14.8506 15.6533 13.9365V11.8623C15.6533 11.3965 15.8994 11.1416 16.3564 11.1416C16.8135 11.1416 17.0684 11.3965 17.0684 11.8623V14.0068C17.0684 15.8174 16.1455 16.7314 14.3086 16.7314ZM4 8C3.58579 8 3.25 8.33579 3.25 8.75C3.25 9.16421 3.58579 9.5 4 9.5H14C14.4142 9.5 14.75 9.16421 14.75 8.75C14.75 8.33579 14.4142 8 14 8H4Z" fill="black"/>
</svg>
