<svg width="62" height="55" viewBox="0 0 62 55" fill="none" xmlns="http://www.w3.org/2000/svg">
<path fill-rule="evenodd" clip-rule="evenodd" d="M7.9707 24.7017H13.9832V18.6892H7.9707V24.7017Z" fill="black"/>
<path fill-rule="evenodd" clip-rule="evenodd" d="M7.9707 24.7017H13.9832V18.6892H7.9707V24.7017Z" fill="#9E9E9E"/>
<path fill-rule="evenodd" clip-rule="evenodd" d="M17.2903 24.7017H23.3028V18.6892H17.2903V24.7017Z" fill="#9E9E9E"/>
<path fill-rule="evenodd" clip-rule="evenodd" d="M26.6099 24.7017H32.6222V18.6892H26.6099V24.7017Z" fill="black"/>
<path fill-rule="evenodd" clip-rule="evenodd" d="M26.6099 24.7017H32.6222V18.6892H26.6099V24.7017Z" fill="#9E9E9E"/>
<path fill-rule="evenodd" clip-rule="evenodd" d="M7.9707 34.0215H13.9832V28.0088H7.9707V34.0215Z" fill="black"/>
<path fill-rule="evenodd" clip-rule="evenodd" d="M7.9707 34.0215H13.9832V28.0088H7.9707V34.0215Z" fill="#9E9E9E"/>
<path fill-rule="evenodd" clip-rule="evenodd" d="M17.2903 34.0215H23.3028V28.0088H17.2903V34.0215Z" fill="black"/>
<path fill-rule="evenodd" clip-rule="evenodd" d="M17.2903 34.0215H23.3028V28.0088H17.2903V34.0215Z" fill="#9E9E9E"/>
<path fill-rule="evenodd" clip-rule="evenodd" d="M26.6099 34.0215H32.6222V28.0088H26.6099V34.0215Z" fill="black"/>
<path fill-rule="evenodd" clip-rule="evenodd" d="M26.6099 34.0215H32.6222V28.0088H26.6099V34.0215Z" fill="#9E9E9E"/>
<path fill-rule="evenodd" clip-rule="evenodd" d="M35.9296 24.7017H41.9418V18.6892H35.9296V24.7017Z" fill="black"/>
<path fill-rule="evenodd" clip-rule="evenodd" d="M35.9296 24.7017H41.9418V18.6892H35.9296V24.7017Z" fill="#9E9E9E"/>
<path fill-rule="evenodd" clip-rule="evenodd" d="M47.9447 27.125C51.705 27.125 55.1104 28.6495 57.5742 31.1142C60.0393 33.5779 61.5634 36.9838 61.5634 40.7441C61.5634 44.5039 60.0393 47.9098 57.5742 50.3735C55.1104 52.8382 51.705 54.3627 47.9447 54.3627C44.1835 54.3627 40.7791 52.8382 38.3153 50.3735C35.8501 47.9098 34.3261 44.5039 34.3261 40.7441C34.3261 36.9838 35.8501 33.5779 38.3153 31.1142C40.7791 28.6495 44.1835 27.125 47.9447 27.125Z" fill="#357A38"/>
<path fill-rule="evenodd" clip-rule="evenodd" d="M44.257 3.82539C44.9585 3.82539 45.6325 3.96711 46.2496 4.2228C46.8903 4.48956 47.4653 4.87726 47.9447 5.35662C48.4241 5.8374 48.8119 6.4127 49.0786 7.05324C49.3344 7.6702 49.4776 8.34275 49.4776 9.04584V24.5155H45.8673V15.264H4.04664V37.0558C4.04664 37.274 4.08974 37.4813 4.16758 37.6676C4.24817 37.8617 4.36905 38.0397 4.52052 38.1911C4.67199 38.3426 4.84983 38.4651 5.04434 38.5455C5.23194 38.6235 5.439 38.6666 5.65714 38.6666H31.7163V42.2764H5.65714C4.95542 42.2764 4.2815 42.1348 3.66454 41.8779C3.024 41.6107 2.4487 41.2235 1.96929 40.7441C1.48856 40.2647 1.10086 39.6892 0.835468 39.0485C0.57841 38.4318 0.436646 37.7578 0.436646 37.0558V9.04584C0.436646 8.34275 0.57841 7.6702 0.835468 7.05324C1.10086 6.4127 1.48856 5.8374 1.96929 5.35662C2.4487 4.87726 3.024 4.48956 3.66454 4.2228C4.2815 3.96711 4.95542 3.82539 5.65714 3.82539H9.80905V7.22417C9.80905 7.91476 10.0912 8.54147 10.5455 8.99583C10.9999 9.4502 11.628 9.73226 12.3186 9.73226C13.0091 9.73226 13.6359 9.4502 14.0902 8.99583C14.5446 8.54147 14.8267 7.91476 14.8267 7.22417V3.82539H35.0859V7.22417C35.0859 7.91476 35.3683 8.54147 35.8227 8.99583C36.2771 9.4502 36.905 9.73226 37.5957 9.73226C38.2859 9.73226 38.9143 9.4502 39.3688 8.99583C39.8232 8.54147 40.105 7.91476 40.105 7.22417V3.82539H44.257Z" fill="#9E9E9E"/>
<path fill-rule="evenodd" clip-rule="evenodd" d="M12.3186 0C13.2412 0 13.9957 0.754509 13.9957 1.67716V7.22417C13.9957 8.14544 13.2412 8.90132 12.3186 8.90132C11.3959 8.90132 10.6414 8.14544 10.6414 7.22417V1.67716C10.6414 0.754509 11.3959 0 12.3186 0Z" fill="#9E9E9E"/>
<path fill-rule="evenodd" clip-rule="evenodd" d="M37.5957 0C38.5183 0 39.2727 0.754509 39.2727 1.67716V7.22417C39.2727 8.14544 38.5183 8.90132 37.5957 8.90132C36.6727 8.90132 35.9183 8.14544 35.9183 7.22417V1.67716C35.9183 0.754509 36.6727 0 37.5957 0Z" fill="#9E9E9E"/>
<path fill-rule="evenodd" clip-rule="evenodd" d="M54.281 35.1818L55.4633 36.3642C55.732 36.6308 55.732 37.0686 55.4633 37.3367L46.4942 46.3063C46.3761 46.4245 46.2246 46.4897 46.0687 46.5034C45.8717 46.523 45.6658 46.4578 45.5158 46.3063L40.4246 41.2161C40.1579 40.9495 40.1579 40.5117 40.4246 40.2436L41.6084 39.0612C41.8751 38.7931 42.3128 38.7931 42.5795 39.0612L46.005 42.4848L53.3084 35.1818C53.5766 34.9132 54.0128 34.9132 54.281 35.1818Z" fill="white"/>
</svg>
