<svg width="33" height="33" viewBox="0 0 33 33" fill="none" xmlns="http://www.w3.org/2000/svg">
<path d="M16.4971 32.2676C25.1553 32.2676 32.2847 25.1382 32.2847 16.48C32.2847 7.83691 25.1401 0.692383 16.4819 0.692383C7.83887 0.692383 0.709473 7.83691 0.709473 16.48C0.709473 25.1382 7.83887 32.2676 16.4971 32.2676ZM16.936 26.2583C16.1035 26.2583 15.7856 25.6226 15.5132 24.7446L14.2114 20.5366C14.0449 19.916 14.0903 19.5073 14.4688 19.0986L23.248 9.53223C23.354 9.41113 23.3691 9.2749 23.2632 9.16895C23.1572 9.09326 23.021 9.06299 22.8848 9.16895L13.3486 17.9937C12.8945 18.4023 12.5312 18.4023 11.9106 18.2056L7.61182 16.9038C6.76416 16.6313 6.15869 16.2983 6.15869 15.4961C6.15869 14.7998 6.70361 14.3306 7.44531 14.0581L22.249 8.38184C22.6123 8.24561 22.9302 8.16992 23.2329 8.16992C23.8535 8.16992 24.2471 8.57861 24.2471 9.19922C24.2471 9.48682 24.1865 9.80469 24.0352 10.1831L18.4043 24.9263C18.0864 25.7437 17.6172 26.2583 16.936 26.2583Z" fill="#3D5AFE"/>
</svg>
