<svg width="44" height="23" viewBox="0 0 44 23" fill="none" xmlns="http://www.w3.org/2000/svg">
<rect width="44" height="23" fill="#556FFF"/>
<path d="M29.8125 7.0625C30.0417 7.29167 30.0417 7.52083 29.8125 7.75L21.6875 15.8438C21.6667 15.8854 21.4896 15.9583 21.1562 16.0625C20.8229 16.1667 20.4479 16.2708 20.0312 16.375C19.5521 16.5 19.0208 16.6458 18.4375 16.8125L19 15.3125C19.1458 14.9375 19.2708 14.5938 19.375 14.2812C19.5 13.9479 19.5729 13.7708 19.5938 13.75L27.6875 5.65625C27.7917 5.55208 27.9062 5.5 28.0312 5.5C28.1771 5.5 28.3021 5.55208 28.4062 5.65625L29.8125 7.0625ZM26.7812 9.375L26.0625 8.6875L20.4375 14.3125C20.3958 14.4167 20.3438 14.5625 20.2812 14.75C20.2188 14.9167 20.1354 15.1146 20.0312 15.3438C20.2812 15.2604 20.5 15.1979 20.6875 15.1562C20.8958 15.0938 21.0521 15.0417 21.1562 15L26.7812 9.375ZM28.75 7.40625L28.0312 6.71875L26.7812 7.96875L27.4688 8.6875L28.75 7.40625ZM18 17.0312C18.0833 17.0312 18.125 17.0312 18.125 17.0312C18.2083 17.0938 18.0938 17.2396 17.7812 17.4688C17.6562 17.5521 17.4271 17.6979 17.0938 17.9062C16.7812 18.0938 16.4375 18.2604 16.0625 18.4062C15.7083 18.5521 15.3646 18.625 15.0312 18.625C14.6979 18.6458 14.4583 18.5208 14.3125 18.25C14.1875 18.0208 14.1667 17.7396 14.25 17.4062C14.3542 17.0729 14.5104 16.7083 14.7188 16.3125C14.9271 15.8958 15.1562 15.4688 15.4062 15.0312C15.6562 14.5938 15.875 14.1771 16.0625 13.7812C16.25 13.3646 16.375 12.9792 16.4375 12.625C16.5 12.25 16.4583 11.9271 16.3125 11.6562C16.1458 11.3646 15.8333 11.2708 15.375 11.375C14.9375 11.4583 14.5104 11.6667 14.0938 12C14.0729 12.0208 14.0521 12.0208 14.0312 12C14.0312 11.9792 14.0208 11.9688 14 11.9688C13.9375 11.9271 13.9271 11.8854 13.9688 11.8438C14.0104 11.7812 14.1354 11.6354 14.3438 11.4062C14.5521 11.1771 14.8021 10.9583 15.0938 10.75C15.3854 10.5417 15.6979 10.4062 16.0312 10.3438C16.3646 10.2604 16.6875 10.3438 17 10.5938C17.4375 10.9271 17.6667 11.3125 17.6875 11.75C17.7083 12.1875 17.625 12.6458 17.4375 13.125C17.25 13.5833 17 14.0625 16.6875 14.5625C16.3958 15.0625 16.125 15.5312 15.875 15.9688C15.6458 16.3854 15.4896 16.7708 15.4062 17.125C15.3229 17.4792 15.4167 17.7604 15.6875 17.9688C15.8125 18.0521 16 18.0521 16.25 17.9688C16.5 17.8646 16.7604 17.7396 17.0312 17.5938C17.3229 17.4271 17.6458 17.2396 18 17.0312Z" fill="white"/>
</svg>
