<svg width="82" height="83" viewBox="0 0 82 83" fill="none" xmlns="http://www.w3.org/2000/svg">
<g clip-path="url(#clip0_14570_110666)">
<path d="M41.0064 55.5563C41.7002 55.5563 42.2894 54.9948 42.2894 54.3158V42.786H53.5087C54.1894 42.786 54.7786 42.1984 54.7786 41.5064C54.7786 40.8012 54.1894 40.2267 53.5087 40.2267H42.2894V28.6838C42.2894 28.0048 41.7002 27.4434 41.0064 27.4434C40.2995 27.4434 39.7234 28.0048 39.7234 28.6838V40.2267H28.5042C27.8234 40.2267 27.2212 40.8012 27.2212 41.5064C27.2212 42.1984 27.8234 42.786 28.5042 42.786H39.7234V54.3158C39.7234 54.9948 40.2995 55.5563 41.0064 55.5563Z" fill="#2980FE"/>
<path d="M75.2788 0.334961H6.72143C3.19495 0.334961 0.336182 3.18192 0.336182 6.69383V76.3067C0.336182 79.8186 3.19495 82.6656 6.72143 82.6656H75.2788C78.8053 82.6656 81.664 79.8186 81.664 76.3067V6.69383C81.664 3.18192 78.8053 0.334961 75.2788 0.334961Z" stroke="#BDBDBD" stroke-dasharray="5 5"/>
</g>
<defs>
<clipPath id="clip0_14570_110666">
<rect width="82" height="83" fill="white"/>
</clipPath>
</defs>
</svg>
