<svg width="16" height="16" viewBox="0 0 16 16" fill="none" xmlns="http://www.w3.org/2000/svg">
<path d="M16 3.09375V12.875H7.03125V3.09375H16ZM15 4H8.03125V11H15V4ZM12.8438 6.625C12.8438 6.9375 12.7292 7.20833 12.5 7.4375C12.2708 7.64583 12 7.75 11.6875 7.75C11.375 7.75 11.1042 7.64583 10.875 7.4375C10.6458 7.20833 10.5312 6.9375 10.5312 6.625C10.5312 6.25 10.6458 5.96875 10.875 5.78125C11.125 5.59375 11.3958 5.5 11.6875 5.5C11.9792 5.5 12.2396 5.59375 12.4688 5.78125C12.7188 5.96875 12.8438 6.25 12.8438 6.625ZM9.84375 10V8.34375C9.84375 7.94792 10.0312 7.75 10.4062 7.75H13.0938C13.4479 7.75 13.625 7.94792 13.625 8.34375V10H9.84375ZM11 14H12V15C12 15.2917 11.9062 15.5312 11.7188 15.7188C11.5312 15.9062 11.2917 16 11 16H1C0.708333 16 0.46875 15.9062 0.28125 15.7188C0.09375 15.5312 0 15.2917 0 15V4L4 0H11C11.2708 0 11.5 0.09375 11.6875 0.28125C11.8958 0.46875 12 0.708333 12 1V2H11V1H5V4C5 4.29167 4.89583 4.53125 4.6875 4.71875C4.5 4.90625 4.26042 5 3.96875 5H1V15H11V14Z" fill="white"/>
</svg>
