<svg width="261" height="32" viewBox="0 0 261 32" fill="none" xmlns="http://www.w3.org/2000/svg">
<rect x="0.5" width="260" height="32" rx="2" fill="#556FFF"/>
<path d="M102 11.0938V20.875H93.0312V11.0938H102ZM101 12H94.0312V19H101V12ZM98.8438 14.625C98.8438 14.9375 98.7292 15.2083 98.5 15.4375C98.2708 15.6458 98 15.75 97.6875 15.75C97.375 15.75 97.1042 15.6458 96.875 15.4375C96.6458 15.2083 96.5312 14.9375 96.5312 14.625C96.5312 14.25 96.6458 13.9688 96.875 13.7812C97.125 13.5938 97.3958 13.5 97.6875 13.5C97.9792 13.5 98.2396 13.5938 98.4688 13.7812C98.7188 13.9688 98.8438 14.25 98.8438 14.625ZM95.8438 18V16.3438C95.8438 15.9479 96.0312 15.75 96.4062 15.75H99.0938C99.4479 15.75 99.625 15.9479 99.625 16.3438V18H95.8438ZM97 22H98V23C98 23.2917 97.9062 23.5312 97.7188 23.7188C97.5312 23.9062 97.2917 24 97 24H87C86.7083 24 86.4688 23.9062 86.2812 23.7188C86.0938 23.5312 86 23.2917 86 23V12L90 8H97C97.2708 8 97.5 8.09375 97.6875 8.28125C97.8958 8.46875 98 8.70833 98 9V10H97V9H91V12C91 12.2917 90.8958 12.5312 90.6875 12.7188C90.5 12.9062 90.2604 13 89.9688 13H87V23H97V22Z" fill="white"/>
<path d="M115.275 20H116.33V12.4941H119.055V11.5449H112.551V12.4941H115.275V20ZM121.059 20.1113C121.344 20.1113 121.605 20.0723 121.844 19.9941C122.082 19.9121 122.295 19.793 122.482 19.6367C122.674 19.4805 122.836 19.291 122.969 19.0684H123.062V20H124.082V15.6758C124.082 15.2383 123.988 14.8633 123.801 14.5508C123.617 14.2344 123.346 13.9922 122.986 13.8242C122.631 13.6562 122.195 13.5723 121.68 13.5723C121.23 13.5723 120.83 13.6426 120.479 13.7832C120.127 13.9199 119.84 14.1133 119.617 14.3633C119.398 14.6094 119.262 14.8984 119.207 15.2305L119.201 15.2656H120.221L120.227 15.248C120.309 15.002 120.471 14.8125 120.713 14.6797C120.955 14.543 121.266 14.4746 121.645 14.4746C122.117 14.4746 122.471 14.5781 122.705 14.7852C122.943 14.9883 123.062 15.2852 123.062 15.6758V17.6445C123.062 17.9453 122.984 18.2148 122.828 18.4531C122.676 18.6914 122.465 18.8809 122.195 19.0215C121.926 19.1582 121.617 19.2266 121.27 19.2266C120.902 19.2266 120.598 19.1387 120.355 18.9629C120.113 18.7832 119.992 18.5332 119.992 18.2129V18.2012C119.992 17.8887 120.102 17.6465 120.32 17.4746C120.543 17.3027 120.895 17.2031 121.375 17.1758L123.572 17.0352V16.2207L121.252 16.3613C120.764 16.3887 120.348 16.4785 120.004 16.6309C119.66 16.7832 119.398 16.9941 119.219 17.2637C119.039 17.5293 118.949 17.8496 118.949 18.2246V18.2363C118.949 18.6191 119.041 18.9512 119.225 19.2324C119.412 19.5137 119.664 19.7305 119.98 19.8828C120.301 20.0352 120.66 20.1113 121.059 20.1113ZM126.004 20H127.023V11.1758H126.004V20ZM129.982 20H131.266L128.266 16.2559L127.516 16.9062L129.982 20ZM126.895 17.7266L127.838 16.8184L128.084 16.5781L131.084 13.6836H129.848L127.117 16.4434H126.848L126.895 17.7266ZM134.746 20.1113C135.117 20.1113 135.451 20.0645 135.748 19.9707C136.049 19.873 136.309 19.7441 136.527 19.584C136.746 19.4199 136.924 19.2383 137.061 19.0391C137.201 18.8359 137.299 18.627 137.354 18.4121L137.365 18.3652H136.346L136.322 18.418C136.268 18.543 136.172 18.666 136.035 18.7871C135.898 18.9082 135.725 19.0078 135.514 19.0859C135.303 19.1641 135.055 19.2031 134.77 19.2031C134.387 19.2031 134.055 19.1191 133.773 18.9512C133.492 18.7793 133.275 18.5352 133.123 18.2188C132.971 17.8984 132.895 17.5137 132.895 17.0645V16.6602C132.895 16.1875 132.973 15.7891 133.129 15.4648C133.285 15.1406 133.496 14.8965 133.762 14.7324C134.031 14.5645 134.336 14.4805 134.676 14.4805C135.016 14.4805 135.316 14.5605 135.578 14.7207C135.84 14.877 136.045 15.1152 136.193 15.4355C136.342 15.7559 136.416 16.1641 136.416 16.6602V17.0645L136.92 16.3203H132.379V17.1348H137.441V16.7363C137.441 16.1074 137.33 15.5566 137.107 15.084C136.889 14.6074 136.572 14.2363 136.158 13.9707C135.748 13.7051 135.256 13.5723 134.682 13.5723C134.111 13.5723 133.613 13.7109 133.188 13.9883C132.762 14.2656 132.432 14.6504 132.197 15.1426C131.967 15.6348 131.852 16.207 131.852 16.8594V16.8652C131.852 17.5254 131.967 18.0996 132.197 18.5879C132.432 19.0723 132.764 19.4473 133.193 19.7129C133.627 19.9785 134.145 20.1113 134.746 20.1113ZM143.055 16.9824H145.715C146.246 16.9824 146.715 16.8672 147.121 16.6367C147.527 16.4062 147.846 16.0859 148.076 15.6758C148.311 15.2656 148.428 14.793 148.428 14.2578V14.2461C148.428 13.7109 148.311 13.2402 148.076 12.834C147.846 12.4277 147.527 12.1113 147.121 11.8848C146.715 11.6582 146.246 11.5449 145.715 11.5449H143.055V12.4824H145.445C146.051 12.4824 146.52 12.6387 146.852 12.9512C147.184 13.2637 147.35 13.6992 147.35 14.2578V14.2695C147.35 14.8242 147.184 15.2598 146.852 15.5762C146.52 15.8887 146.051 16.0449 145.445 16.0449H143.055V16.9824ZM142.527 20H143.582V11.5449H142.527V20ZM150.086 20H151.105V16.2617C151.105 15.8906 151.172 15.5723 151.305 15.3066C151.441 15.041 151.633 14.8359 151.879 14.6914C152.125 14.5469 152.416 14.4746 152.752 14.4746C153.256 14.4746 153.627 14.6133 153.865 14.8906C154.107 15.1641 154.229 15.5859 154.229 16.1562V20H155.248V15.9102C155.248 15.4102 155.162 14.9863 154.99 14.6387C154.818 14.291 154.568 14.0273 154.24 13.8477C153.912 13.6641 153.512 13.5723 153.039 13.5723C152.574 13.5723 152.191 13.666 151.891 13.8535C151.59 14.0371 151.359 14.2969 151.199 14.6328H151.105V11.1758H150.086V20ZM159.689 20.1113C160.291 20.1113 160.809 19.9805 161.242 19.7188C161.676 19.4531 162.01 19.0762 162.244 18.5879C162.482 18.0996 162.602 17.5195 162.602 16.8477V16.8359C162.602 16.1602 162.482 15.5781 162.244 15.0898C162.01 14.6016 161.676 14.2266 161.242 13.9648C160.809 13.7031 160.291 13.5723 159.689 13.5723C159.092 13.5723 158.574 13.7031 158.137 13.9648C157.703 14.2266 157.367 14.6016 157.129 15.0898C156.895 15.5781 156.777 16.1602 156.777 16.8359V16.8477C156.777 17.5195 156.895 18.0996 157.129 18.5879C157.367 19.0762 157.703 19.4531 158.137 19.7188C158.574 19.9805 159.092 20.1113 159.689 20.1113ZM159.689 19.209C159.291 19.209 158.953 19.1152 158.676 18.9277C158.398 18.7402 158.186 18.4707 158.037 18.1191C157.893 17.7676 157.82 17.3438 157.82 16.8477V16.8359C157.82 16.3359 157.893 15.9102 158.037 15.5586C158.186 15.207 158.398 14.9395 158.676 14.7559C158.953 14.5684 159.291 14.4746 159.689 14.4746C160.088 14.4746 160.426 14.5684 160.703 14.7559C160.98 14.9395 161.191 15.207 161.336 15.5586C161.484 15.9102 161.559 16.3359 161.559 16.8359V16.8477C161.559 17.3438 161.484 17.7676 161.336 18.1191C161.191 18.4707 160.98 18.7402 160.703 18.9277C160.426 19.1152 160.088 19.209 159.689 19.209ZM166.428 20.0469C166.529 20.0469 166.629 20.041 166.727 20.0293C166.824 20.0176 166.922 20.0039 167.02 19.9883V19.1211C166.926 19.1289 166.846 19.1348 166.779 19.1387C166.717 19.1426 166.641 19.1445 166.551 19.1445C166.223 19.1445 165.988 19.0645 165.848 18.9043C165.707 18.7402 165.637 18.4727 165.637 18.1016V14.5273H167.02V13.6836H165.637V12.0488H164.582V13.6836H163.586V14.5273H164.582V18.3594C164.582 18.9609 164.727 19.3926 165.016 19.6543C165.309 19.916 165.779 20.0469 166.428 20.0469ZM171.057 20.1113C171.658 20.1113 172.176 19.9805 172.609 19.7188C173.043 19.4531 173.377 19.0762 173.611 18.5879C173.85 18.0996 173.969 17.5195 173.969 16.8477V16.8359C173.969 16.1602 173.85 15.5781 173.611 15.0898C173.377 14.6016 173.043 14.2266 172.609 13.9648C172.176 13.7031 171.658 13.5723 171.057 13.5723C170.459 13.5723 169.941 13.7031 169.504 13.9648C169.07 14.2266 168.734 14.6016 168.496 15.0898C168.262 15.5781 168.145 16.1602 168.145 16.8359V16.8477C168.145 17.5195 168.262 18.0996 168.496 18.5879C168.734 19.0762 169.07 19.4531 169.504 19.7188C169.941 19.9805 170.459 20.1113 171.057 20.1113ZM171.057 19.209C170.658 19.209 170.32 19.1152 170.043 18.9277C169.766 18.7402 169.553 18.4707 169.404 18.1191C169.26 17.7676 169.188 17.3438 169.188 16.8477V16.8359C169.188 16.3359 169.26 15.9102 169.404 15.5586C169.553 15.207 169.766 14.9395 170.043 14.7559C170.32 14.5684 170.658 14.4746 171.057 14.4746C171.455 14.4746 171.793 14.5684 172.07 14.7559C172.348 14.9395 172.559 15.207 172.703 15.5586C172.852 15.9102 172.926 16.3359 172.926 16.8359V16.8477C172.926 17.3438 172.852 17.7676 172.703 18.1191C172.559 18.4707 172.348 18.7402 172.07 18.9277C171.793 19.1152 171.455 19.209 171.057 19.209Z" fill="white"/>
</svg>
